<svg width="145" height="208" viewBox="0 0 145 208" fill="none" xmlns="http://www.w3.org/2000/svg">
<path d="M82.1928 30.61C82.0122 30.1918 81.6529 29.9076 81.1272 29.7664C80.2366 29.5272 78.9279 29.8106 77.6258 30.5245C77.1469 30.7829 76.6989 31.0928 76.29 31.4486L76.8356 29.4174C76.8585 29.3322 76.846 29.2412 76.8008 29.1645C76.7556 29.0878 76.6815 29.0316 76.5947 29.0082C76.5079 28.9849 76.4156 28.9964 76.338 29.0402C76.2605 29.0839 76.2041 29.1564 76.1812 29.2416L75.6356 31.2729C75.461 30.7605 75.2297 30.2681 74.9459 29.8047C74.1778 28.5348 73.1866 27.6337 72.2961 27.3945C71.7676 27.2526 71.3143 27.3185 70.9485 27.5899C70.5446 27.8896 70.2736 28.4241 70.1202 29.2238C69.9868 29.9187 69.9634 30.7045 69.9577 31.3114C69.9444 32.728 70.6159 33.3825 71.1778 33.6872C70.9503 33.8943 70.7669 34.1438 70.6381 34.4215C70.5093 34.6992 70.4376 34.9997 70.427 35.3058C70.4164 35.6118 70.4672 35.9175 70.5765 36.2054C70.6858 36.4932 70.8515 36.7576 71.064 36.9833C71.2765 37.2091 71.5318 37.3919 71.8152 37.5213C72.0985 37.6506 72.4045 37.724 72.7156 37.7372C73.0268 37.7504 73.3369 37.7033 73.6284 37.5984C73.9199 37.4934 74.1869 37.3329 74.4144 37.1258C74.6024 37.718 75.0211 38.2145 75.5783 38.5063C76.1355 38.798 76.7855 38.8611 77.3855 38.6815C77.9855 38.5019 78.4862 38.0945 78.7775 37.5488C79.0688 37.0031 79.1269 36.3639 78.9389 35.7717C79.5766 35.7921 80.4869 35.5595 81.1851 34.327C81.919 33.0334 82.6117 31.5801 82.1928 30.61ZM72.3306 37.0471C71.9164 36.9296 71.5615 36.6623 71.3373 36.2991C71.1132 35.936 71.0366 35.5039 71.123 35.0901C71.2093 34.6764 71.4522 34.3117 71.8026 34.0696C72.1531 33.8276 72.585 33.7262 73.0112 33.7859C73.0554 33.7928 73.1005 33.7911 73.1439 33.7809C73.1873 33.7707 73.2281 33.7522 73.2641 33.7263C73.3 33.7005 73.3304 33.6679 73.3534 33.6305C73.3765 33.593 73.3918 33.5513 73.3984 33.5079C73.4051 33.4644 73.4029 33.42 73.3921 33.3773C73.3814 33.3345 73.3621 33.2941 73.3356 33.2585C73.309 33.2229 73.2756 33.1927 73.2373 33.1696C73.199 33.1466 73.1565 33.1312 73.1123 33.1242C72.6997 33.0606 72.2783 33.1059 71.8913 33.2555C71.396 33.1403 70.6213 32.733 70.6342 31.3244C70.6412 30.591 70.6592 28.643 71.3588 28.1237C71.5532 27.9791 71.8034 27.951 72.1235 28.037C72.8259 28.2256 73.7056 29.052 74.3648 30.1417C75.0381 31.253 75.3387 32.3784 75.1506 33.0787L74.3981 35.8804C74.2837 36.3064 74.0016 36.6686 73.6138 36.8874C73.2261 37.1062 72.7645 37.1637 72.3306 37.0471ZM80.5933 33.9987C79.8992 35.2243 79.0276 35.1888 78.5409 35.0415C78.2812 34.7179 77.9391 34.4676 77.55 34.3161C77.5083 34.2998 77.4638 34.2917 77.4191 34.2922C77.3744 34.2928 77.3303 34.302 77.2894 34.3194C77.2484 34.3368 77.2115 34.3619 77.1805 34.3934C77.1496 34.425 77.1254 34.4622 77.1092 34.5031C77.093 34.544 77.0851 34.5877 77.0861 34.6317C77.0871 34.6757 77.0969 34.7192 77.1149 34.7596C77.1329 34.8001 77.1588 34.8367 77.1912 34.8674C77.2235 34.8981 77.2616 34.9223 77.3032 34.9387C77.6094 35.0569 77.8751 35.2596 78.0682 35.5222C78.2612 35.7847 78.3735 36.096 78.3913 36.4184C78.4091 36.7408 78.3317 37.0604 78.1685 37.3388C78.0053 37.6172 77.7633 37.8425 77.4716 37.9873C77.18 38.1321 76.8512 38.1903 76.5249 38.1549C76.1987 38.1195 75.889 37.992 75.6331 37.7878C75.3773 37.5836 75.1864 37.3114 75.0834 37.0042C74.9803 36.6969 74.9696 36.3676 75.0525 36.0562L75.805 33.2545C75.9931 32.5542 76.8176 31.731 77.9566 31.1064C79.0742 30.4939 80.2494 30.2195 80.9546 30.4089C81.2747 30.4949 81.4761 30.6442 81.5731 30.8666C81.9157 31.6658 80.9553 33.3606 80.5938 33.9988L80.5933 33.9987Z" fill="black"/>
<path d="M64.5874 1.51249C64.53 1.3615 64.4295 1.2318 64.299 1.14036C64.1685 1.04892 64.0142 1 63.8562 1C63.6981 1 63.5438 1.04892 63.4133 1.14036C63.2829 1.2318 63.1823 1.3615 63.1249 1.51249L62.4262 3.33729C62.387 3.44043 62.3276 3.53419 62.2515 3.61275C62.1755 3.6913 62.0845 3.75297 61.9842 3.7939L60.2114 4.51382C60.0646 4.57379 59.9387 4.67755 59.85 4.81169C59.7614 4.94583 59.7139 5.10417 59.7139 5.26623C59.7139 5.4283 59.7614 5.58664 59.85 5.72077C59.9387 5.85491 60.0646 5.95867 60.2114 6.01865L61.9842 6.73856C62.0846 6.77896 62.1756 6.84025 62.2517 6.91855C62.3278 6.99685 62.3872 7.09048 62.4262 7.19351L63.1249 9.01663C63.3882 9.69989 64.3274 9.69989 64.5874 9.01663L65.2861 7.19184C65.3256 7.08885 65.3854 6.99531 65.4618 6.91704C65.5381 6.83877 65.6293 6.77745 65.7297 6.7369L67.5025 6.01698C67.6493 5.95701 67.7752 5.85324 67.8639 5.71911C67.9526 5.58497 68 5.42663 68 5.26456C68 5.1025 67.9526 4.94416 67.8639 4.81002C67.7752 4.67589 67.6493 4.57212 67.5025 4.51215L65.7297 3.79223C65.6291 3.75149 65.5378 3.68991 65.4615 3.61135C65.3852 3.53278 65.3255 3.43892 65.2861 3.33562L64.5874 1.51249ZM58.3038 11.2164C58.2463 11.0654 58.1458 10.9357 58.0154 10.8443C57.8849 10.7528 57.7306 10.7039 57.5725 10.7039C57.4145 10.7039 57.2602 10.7528 57.1297 10.8443C56.9992 10.9357 56.8987 11.0654 56.8413 11.2164L56.5862 11.8813C56.5468 11.9841 56.4873 12.0776 56.4113 12.1558C56.3352 12.2341 56.2443 12.2955 56.1442 12.3363L55.4975 12.5996C55.3507 12.6595 55.2248 12.7633 55.1361 12.8974C55.0474 13.0316 55 13.1899 55 13.352C55 13.514 55.0474 13.6724 55.1361 13.8065C55.2248 13.9406 55.3507 14.0444 55.4975 14.1044L56.1442 14.366C56.3473 14.4493 56.5066 14.6127 56.5862 14.8226L56.8413 15.4876C57.1029 16.1708 58.0421 16.1708 58.3038 15.4876L58.5589 14.821C58.5982 14.7181 58.6578 14.6247 58.7338 14.5464C58.8098 14.4682 58.9007 14.4068 59.0008 14.366L59.6476 14.1044C59.7944 14.0444 59.9203 13.9406 60.009 13.8065C60.0976 13.6724 60.1451 13.514 60.1451 13.352C60.1451 13.1899 60.0976 13.0316 60.009 12.8974C59.9203 12.7633 59.7944 12.6595 59.6476 12.5996L59.0008 12.3363C58.9007 12.2955 58.8098 12.2341 58.7338 12.1558C58.6578 12.0776 58.5982 11.9841 58.5589 11.8813L58.3038 11.2164Z" stroke="black"/>
<path d="M57.7996 39.8509C57.935 39.7969 58.0924 39.7978 58.243 39.8317C58.381 39.8627 58.5176 39.9223 58.6344 39.9984L59.9487 40.4305C59.9128 39.4763 59.1395 38.9954 58.5139 38.9102L57.7996 39.8509ZM57.7996 39.8509L56.7311 39.696M57.7996 39.8509L56.7311 39.696M44.5839 26.6124C44.632 26.554 44.6862 26.4701 44.7395 26.387L44.75 26.3707C44.8029 26.2881 44.8552 26.2066 44.9029 26.1444C44.9083 26.1373 44.9136 26.1306 44.9188 26.1243L44.923 26.1066L44.575 26.6072C44.578 26.6089 44.5809 26.6107 44.5839 26.6124ZM44.5839 26.6124C44.6411 26.6468 44.7066 26.6994 44.7682 26.7523L44.5839 26.6124ZM44.853 26.8271L44.8485 26.8461L44.853 26.8271ZM44.853 26.8271C44.8615 26.8348 44.8699 26.8423 44.878 26.8496L44.8814 26.8527C44.9109 26.8792 44.9374 26.903 44.9596 26.9221C44.9723 26.933 44.9827 26.9416 44.991 26.948M44.853 26.8271L45.0261 26.1054M45.0261 26.1054C45.1505 26.2529 45.2394 26.3998 45.2578 26.5349C45.2683 26.6114 45.2562 26.6839 45.2144 26.7527C45.1739 26.8194 45.1034 26.8858 44.991 26.948M45.0261 26.1054L45.0394 26.05L45.0261 26.1054ZM44.991 26.948C44.9984 26.9538 45.0041 26.9578 45.0081 26.9602C45.01 26.9613 45.0099 26.9611 45.0085 26.9606L45.0084 26.9605C45.0077 26.9603 45.0003 26.9574 44.9897 26.9589C44.9867 26.9594 44.9832 26.9602 44.9795 26.9616C44.9758 26.9631 44.9718 26.9652 44.968 26.9682C44.9621 26.9728 44.958 26.9782 44.9552 26.9835L44.9532 26.988C44.9493 26.9981 44.9503 27.0062 44.9506 27.0082L44.9448 26.975L44.9445 26.9729L44.9764 26.9559C44.9814 26.9533 44.9862 26.9506 44.991 26.948ZM56.7311 39.696C57.1647 39.0417 57.9168 38.8297 58.5139 38.9101L56.7311 39.696ZM59.9499 40.5362C59.9304 49.0356 53.0476 55.923 44.55 55.9499V54.5499C48.0836 54.5359 51.5164 53.0337 54.0147 50.5354C55.2706 49.2794 56.3988 47.5331 57.2132 45.6584C58.0037 43.8384 58.4998 41.894 58.5281 40.1559C58.5417 40.1411 58.5526 40.1248 58.5593 40.1067C58.5605 40.1036 58.5615 40.1004 58.5624 40.0972C58.5966 40.1335 58.6359 40.1795 58.6755 40.2287C58.7327 40.2998 58.7885 40.3751 58.8269 40.4318C58.8464 40.4605 58.8605 40.4831 58.8683 40.4977C58.8683 40.4978 58.8684 40.4979 58.8684 40.498L58.8629 40.5432L58.9122 40.5496C58.9191 40.5505 58.9307 40.5506 58.943 40.5443C58.9564 40.5375 58.9644 40.5263 58.9682 40.5159C58.9732 40.5023 58.9713 40.4898 58.9701 40.4841C58.9753 40.3741 58.9208 40.2653 58.8371 40.1703L59.9499 40.5362ZM57.8132 39.9539L58.3973 40.0386C58.3705 40.0821 58.3433 40.1253 58.3156 40.1684C58.2393 40.1997 58.1429 40.2295 58.0407 40.2578C57.9768 40.2755 57.9101 40.2927 57.8461 40.3093C57.7674 40.3296 57.6929 40.3488 57.6333 40.3664C57.605 40.3748 57.5784 40.3832 57.5549 40.3918C57.575 40.1808 57.655 40.0548 57.7582 39.9851C57.7756 39.9733 57.794 39.9629 57.8132 39.9539ZM57.6625 39.9321C57.5367 40.037 57.4579 40.2096 57.4505 40.4607C57.4456 40.4709 57.4426 40.4838 57.4449 40.4983C57.4477 40.5154 57.4569 40.5279 57.4653 40.5361L57.55 40.6173V40.5021C57.5721 40.4909 57.6098 40.4776 57.6616 40.4623C57.7211 40.4448 57.7916 40.4266 57.8678 40.4069C57.9314 40.3905 57.999 40.3731 58.0673 40.3542C58.1204 40.3395 58.1736 40.324 58.2243 40.3076C57.2925 41.6977 55.9034 42.883 54.4548 43.7006C52.9096 44.5727 51.3052 44.9437 49.5321 44.9499L49.5939 43.7941C51.0151 43.7868 52.4111 43.4161 53.6492 42.717C54.8913 42.0156 55.9325 41.0073 56.6733 39.7886L57.6625 39.9321ZM40.5412 39.0142C40.1686 37.9893 40.0326 36.8642 40.0294 35.5035H41.2059C41.2191 37.6975 42.0963 39.7989 43.6487 41.3513C45.2005 42.903 47.3007 43.7802 49.4937 43.794L49.4319 44.9499C46.6956 44.9381 44.4555 43.9054 42.5147 41.9646C41.5386 40.9885 40.9182 40.051 40.5412 39.0142ZM44.45 55.9499C35.9569 55.923 29.077 49.0431 29.05 40.55H30.4295C30.4482 44.0907 32.4475 48.0388 34.944 50.5354C37.4424 53.0338 40.9161 54.5359 44.45 54.5499V55.9499ZM41.2059 35.4035H40.0294C40.0358 33.631 40.4265 32.0708 41.2993 30.5246C41.7414 29.7414 42.2905 28.8512 42.9209 28.0412C43.4632 27.3445 44.0642 26.7091 44.7075 26.2519C44.6938 26.2731 44.6801 26.2944 44.6666 26.3155C44.6628 26.3213 44.6591 26.3272 44.6554 26.333C44.5989 26.4211 44.5462 26.5021 44.5019 26.5547C44.4963 26.5612 44.4912 26.5671 44.4864 26.5722C44.484 26.5718 44.4817 26.5715 44.4793 26.5713C44.4628 26.5696 44.4439 26.5709 44.4257 26.5795C44.4068 26.5884 44.3928 26.6032 44.3839 26.6212L44.3682 26.6527L44.3926 26.678C44.4072 26.6932 44.4263 26.7027 44.4484 26.7035C44.4687 26.7042 44.4866 26.6974 44.5006 26.6896C44.5032 26.6882 44.5059 26.6866 44.5085 26.6849C44.5136 26.6875 44.5192 26.6905 44.5252 26.6939C44.5787 26.7246 44.646 26.7788 44.7139 26.8376C44.7265 26.8485 44.7389 26.8594 44.7512 26.8703L44.9448 27.975C43.7815 28.6902 43.0485 29.9918 42.3806 31.1779C42.348 31.2359 42.3155 31.2936 42.2831 31.3509C41.5845 32.5882 41.2138 33.9832 41.2059 35.4035ZM45.0365 27.9189L44.8716 26.978C44.8796 26.985 44.8872 26.9917 44.8944 26.9979C44.9177 27.0179 44.94 27.0361 44.9572 27.0462C44.9617 27.0489 44.9673 27.0519 44.9735 27.0543C44.9786 27.0562 44.99 27.0599 45.0039 27.0579C45.0116 27.0568 45.0208 27.0538 45.0293 27.0472C45.0342 27.0434 45.0381 27.039 45.0411 27.0346C45.163 26.9668 45.2481 26.8899 45.2999 26.8046C45.3547 26.7143 45.3702 26.6183 45.3569 26.5214C45.332 26.339 45.2054 26.1539 45.0547 25.986L45.0764 25.8955L45.0205 25.9292L44.5818 25.0519C45.0383 25.0728 45.3521 25.2692 45.5651 25.5352C45.7921 25.8188 45.9064 26.1841 45.9504 26.5067C45.9913 26.81 45.9256 27.0628 45.763 27.2937C45.6085 27.5129 45.3652 27.7143 45.0365 27.9189ZM44.9192 25.9503C43.162 25.9652 41.1826 26.4642 39.3313 27.2662C37.4514 28.0805 35.6999 29.2087 34.444 30.4646C31.9443 32.9643 30.4435 36.9135 30.4294 40.45H29.05C29.077 31.9506 35.9672 25.0667 44.4691 25.05L44.9192 25.9503Z" fill="black" stroke="black" stroke-width="0.1"/>
<path d="M90.6711 95.1335L90.4073 96.0981L91.5637 96.4144L91.6673 95.2199L90.6711 95.1335ZM76.8894 95.1335L75.9127 95.3481L76.166 96.5011L77.2616 96.0616L76.8894 95.1335ZM97.3755 65.6762L96.5177 65.1621V65.1621L97.3755 65.6762ZM108.178 107.065L107.182 106.975L107.164 107.165L107.219 107.349L108.178 107.065ZM108.714 108.566L109.649 108.212L108.714 108.566ZM110.701 116.185L109.705 116.272L109.805 117.425L110.932 117.157L110.701 116.185ZM114.187 115.597L114.102 114.6L114.187 115.597ZM118.403 116.021L118.766 115.089L118.403 116.021ZM119.037 117.462L119.969 117.824L119.969 117.824L119.037 117.462ZM117.597 118.095L117.959 117.163L117.959 117.163L117.597 118.095ZM114.375 117.814L114.29 116.818L114.375 117.814ZM110.749 118.464L110.503 117.495L109.786 117.677L109.75 118.416L110.749 118.464ZM109.716 123.187L108.791 122.808L108.237 124.158L109.697 124.187L109.716 123.187ZM110.463 123.206L110.431 124.205H110.431L110.463 123.206ZM115.102 123.606L114.94 124.593L115.102 123.606ZM118.617 124.755L118.062 125.587L118.617 124.755ZM117.383 126.606L117.938 125.774V125.774L117.383 126.606ZM114.742 125.802L114.581 126.789L114.742 125.802ZM110.392 125.43L110.424 124.43L110.392 125.43ZM108.571 125.4L108.573 124.4L108.021 124.398L107.726 124.865L108.571 125.4ZM97.3755 133.912L96.9832 132.993L95.9464 133.435L96.5089 134.411L97.3755 133.912ZM98.7782 136.308L99.6395 135.8L98.7782 136.308ZM107.403 164.651L108.396 164.77L107.403 164.651ZM103.32 188.006L102.339 187.809L103.32 188.006ZM77.3609 206.072L77.3403 207.071L77.3506 207.072H77.3609V206.072ZM61.9903 205.754L62.0109 204.754L61.9884 204.754L61.9659 204.754L61.9903 205.754ZM18.1118 205.235L18.3828 204.272H18.3828L18.1118 205.235ZM1.00482 186.407L0.00500113 186.426L1.00482 186.407ZM5.03712 170.357L4.15466 169.886L4.15466 169.886L5.03712 170.357ZM5.17728 170.09L4.28237 169.644L4.28236 169.644L5.17728 170.09ZM18.1118 170.09L17.1558 169.797L18.1118 170.09ZM38.9741 190.173L39.0541 191.17L40.1274 191.083L39.9623 190.019L38.9741 190.173ZM64.8865 134.243L65.5091 135.026L65.5112 135.024L64.8865 134.243ZM64.8865 134.243L64.2639 133.461L64.2618 133.463L64.8865 134.243ZM66.8324 132.421L66.4731 133.354L66.8324 132.421ZM57.7531 125.424L58.6424 124.966L58.3545 124.406L57.7252 124.424L57.7531 125.424ZM57.5431 125.43L57.5747 126.429H57.5748L57.5431 125.43ZM53.1932 125.802L53.3548 126.789L53.1932 125.802ZM50.5527 126.606L51.1074 127.439L50.5527 126.606ZM49.0098 126.298L48.1778 126.853V126.853L49.0098 126.298ZM49.3184 124.755L48.7637 123.923L49.3184 124.755ZM52.8335 123.606L52.9952 124.593H52.9952L52.8335 123.606ZM56.919 123.226L56.9606 124.225L58.1982 124.174L57.8869 122.975L56.919 123.226ZM56.5627 118.312L57.5601 118.384L57.6212 117.531L56.7887 117.338L56.5627 118.312ZM53.5609 117.814L53.4765 118.811L53.5609 117.814ZM50.3388 118.095L49.9764 117.163L49.9763 117.163L50.3388 118.095ZM48.8986 117.462L49.8306 117.099L49.8306 117.099L48.8986 117.462ZM49.5323 116.021L49.1699 115.089H49.1699L49.5323 116.021ZM53.7488 115.597L53.8332 114.6L53.7488 115.597ZM56.8166 116.088L56.5985 117.064L57.6454 117.298L57.8054 116.237L56.8166 116.088ZM57.8344 110.928L56.8577 110.713L56.8577 110.713L57.8344 110.928ZM58.638 107.066L59.6213 107.248L59.6342 107.178L59.6371 107.107L58.638 107.066ZM70.5572 65.6762L71.2647 64.9695V64.9695L70.5572 65.6762ZM74.9956 84.6639L75.9848 84.5173L75.9834 84.5079L75.9819 84.4986L74.9956 84.6639ZM74.9956 84.664L74.0064 84.8106L74.0078 84.82L74.0094 84.8293L74.9956 84.664ZM90.9348 94.1689C87.8512 93.3256 81.8525 92.0654 76.5171 94.2054L77.2616 96.0616C81.9402 94.1851 87.3713 95.2678 90.4073 96.0981L90.9348 94.1689ZM96.5177 65.1621C94.1936 69.0398 92.6992 74.1333 91.6783 79.4026C90.6548 84.6861 90.0926 90.2296 89.6748 95.0471L91.6673 95.2199C92.084 90.4144 92.6393 84.958 93.6418 79.783C94.6472 74.5937 96.0877 69.77 98.2332 66.1903L96.5177 65.1621ZM109.173 107.156C109.815 100.076 107.952 88.1352 105.525 78.7561C104.309 74.0612 102.93 69.9169 101.607 67.2917C100.967 66.0235 100.255 64.9267 99.4543 64.3857C99.0201 64.0922 98.4444 63.8873 97.8133 64.0664C97.2132 64.2368 96.8005 64.6903 96.5177 65.1621L98.2332 66.1903C98.3873 65.9332 98.451 65.9644 98.3595 65.9904C98.2372 66.0251 98.2025 65.9536 98.3344 66.0427C98.666 66.2669 99.1855 66.9317 99.8207 68.1918C101.046 70.6231 102.383 74.6018 103.588 79.2572C106.001 88.5787 107.792 100.248 107.182 106.975L109.173 107.156ZM109.649 108.212C109.415 107.594 109.239 107.129 109.137 106.782L107.219 107.349C107.347 107.784 107.555 108.331 107.778 108.921L109.649 108.212ZM111.697 116.097C111.414 112.861 110.338 110.032 109.649 108.212L107.778 108.921C108.471 110.75 109.448 113.343 109.705 116.272L111.697 116.097ZM114.102 114.6C112.922 114.7 111.688 114.922 110.469 115.212L110.932 117.157C112.083 116.884 113.216 116.683 114.271 116.593L114.102 114.6ZM118.766 115.089C117.332 114.532 115.672 114.467 114.102 114.6L114.271 116.593C115.708 116.472 117.016 116.555 118.041 116.953L118.766 115.089ZM119.969 117.824C120.392 116.737 119.853 115.512 118.766 115.089L118.041 116.953C118.099 116.976 118.127 117.041 118.105 117.099L119.969 117.824ZM117.234 119.027C118.322 119.45 119.546 118.911 119.969 117.824L118.105 117.099C118.082 117.157 118.017 117.186 117.959 117.163L117.234 119.027ZM114.459 118.811C115.748 118.701 116.666 118.806 117.234 119.027L117.959 117.163C116.981 116.783 115.712 116.697 114.29 116.818L114.459 118.811ZM110.995 119.433C112.229 119.12 113.408 118.9 114.459 118.811L114.29 116.818C113.097 116.919 111.806 117.164 110.503 117.495L110.995 119.433ZM110.641 123.566C111.342 121.855 111.668 120.149 111.748 118.513L109.75 118.416C109.68 119.852 109.396 121.332 108.791 122.808L110.641 123.566ZM110.494 122.206C110.242 122.198 109.989 122.192 109.735 122.187L109.697 124.187C109.942 124.191 110.187 124.198 110.431 124.205L110.494 122.206ZM115.264 122.619C113.815 122.382 112.155 122.259 110.494 122.206L110.431 124.205C112.046 124.256 113.61 124.375 114.94 124.593L115.264 122.619ZM119.172 123.923C118.107 123.213 116.637 122.844 115.264 122.619L114.94 124.593C116.265 124.81 117.373 125.128 118.062 125.587L119.172 123.923ZM119.758 126.853C120.405 125.882 120.143 124.57 119.172 123.923L118.062 125.587C118.114 125.622 118.128 125.691 118.094 125.743L119.758 126.853ZM116.828 127.439C117.799 128.086 119.111 127.823 119.758 126.853L118.094 125.743C118.059 125.795 117.989 125.809 117.938 125.774L116.828 127.439ZM114.581 126.789C115.856 126.997 116.559 127.259 116.828 127.439L117.938 125.774C117.291 125.343 116.224 125.031 114.904 124.815L114.581 126.789ZM110.361 126.429C111.924 126.479 113.383 126.592 114.581 126.789L114.904 124.815C113.587 124.599 112.034 124.481 110.424 124.43L110.361 126.429ZM108.568 126.4C109.168 126.401 109.769 126.411 110.361 126.429L110.424 124.43C109.811 124.411 109.19 124.401 108.573 124.4L108.568 126.4ZM97.7677 134.832C103.709 132.299 107.341 129.214 109.416 125.934L107.726 124.865C105.923 127.714 102.66 130.572 96.9832 132.993L97.7677 134.832ZM99.6395 135.8C99.1529 134.976 98.6844 134.182 98.242 133.413L96.5089 134.411C96.9574 135.19 97.4314 135.994 97.9169 136.817L99.6395 135.8ZM108.396 164.77C109.804 152.972 104.009 143.205 99.6395 135.8L97.9169 136.817C102.33 144.296 107.727 153.498 106.41 164.532L108.396 164.77ZM104.3 188.202C105.792 180.745 107.52 172.107 108.396 164.77L106.41 164.532C105.545 171.777 103.835 180.333 102.339 187.809L104.3 188.202ZM101.144 205.072C101.579 205.072 101.707 205.431 101.678 205.356C101.649 205.279 101.604 205.064 101.595 204.641C101.576 203.822 101.693 202.576 101.928 200.954C102.396 197.728 103.292 193.242 104.3 188.202L102.339 187.809C101.336 192.827 100.426 197.375 99.9491 200.667C99.712 202.304 99.5726 203.689 99.5951 204.686C99.6061 205.17 99.6558 205.66 99.8065 206.06C99.9578 206.462 100.35 207.072 101.144 207.072V205.072ZM88.6265 207.072H101.144V205.072H88.6265V207.072ZM77.3609 207.072H88.6265V205.072H77.3609V207.072ZM61.9696 206.754L77.3403 207.071L77.3816 205.072L62.0109 204.754L61.9696 206.754ZM17.8408 206.197C19.1977 206.579 21.8596 206.804 25.1577 206.941C28.5025 207.08 32.6281 207.132 36.9978 207.13C45.7391 207.127 55.4957 206.913 62.0146 206.754L61.9659 204.754C55.4481 204.913 45.7124 205.127 36.9972 205.13C32.6387 205.132 28.5449 205.08 25.2407 204.943C21.8897 204.804 19.473 204.579 18.3828 204.272L17.8408 206.197ZM0.00500113 186.426C0.238885 198.777 10.5978 204.158 17.8408 206.197L18.3828 204.272C11.3321 202.287 2.21177 197.326 2.00464 186.388L0.00500113 186.426ZM4.15466 169.886C3.32157 171.449 -0.155243 177.964 0.00500113 186.426L2.00464 186.388C1.85453 178.461 5.12029 172.327 5.91959 170.827L4.15466 169.886ZM4.28236 169.644C4.26022 169.688 4.22074 169.763 4.15466 169.886L5.91959 170.827C5.97899 170.716 6.03478 170.611 6.07221 170.536L4.28236 169.644ZM19.0678 170.383C20.0844 167.07 20.1319 164.595 19.1618 163.004C18.1072 161.275 16.1624 161.011 14.3462 161.396C12.5135 161.784 10.4975 162.865 8.71623 164.302C6.92797 165.745 5.29719 167.609 4.28237 169.644L6.0722 170.536C6.93293 168.81 8.35743 167.161 9.97194 165.859C11.5934 164.551 13.3276 163.656 14.7604 163.352C16.2097 163.045 17.0455 163.376 17.4545 164.046C17.948 164.855 18.142 166.583 17.1558 169.797L19.0678 170.383ZM21.4299 189.255C21.1995 189.155 19.4577 188.365 18.3287 185.733C17.1924 183.084 16.6061 178.406 19.0678 170.383L17.1558 169.797C14.6106 178.091 15.1047 183.29 16.4906 186.521C17.8837 189.769 20.1058 190.861 20.6352 191.09L21.4299 189.255ZM38.8942 189.176C37.201 189.312 32.9441 189.394 28.9828 189.401C27.0097 189.404 25.1267 189.388 23.6933 189.351C22.9752 189.333 22.379 189.309 21.944 189.281C21.7253 189.267 21.559 189.252 21.4435 189.238C21.2777 189.217 21.324 189.209 21.4299 189.255L20.6352 191.09C20.8361 191.177 21.0785 191.208 21.1986 191.223C21.369 191.244 21.5785 191.261 21.8141 191.277C22.2875 191.307 22.9138 191.332 23.6418 191.35C25.1004 191.388 27.0033 191.404 28.986 191.401C32.9362 191.394 37.2703 191.313 39.0541 191.17L38.8942 189.176ZM64.2638 133.461C57.1497 139.122 33.0142 158.277 37.986 190.326L39.9623 190.019C35.1823 159.206 58.3527 140.72 65.5091 135.026L64.2638 133.461ZM64.2618 133.463L64.2618 133.463L65.5112 135.024L65.5112 135.024L64.2618 133.463ZM66.4731 133.354C66.3593 133.31 66.1848 133.215 66.0473 133.02C65.9029 132.816 65.8658 132.596 65.8748 132.426C65.883 132.272 65.9274 132.161 65.9503 132.111C65.9753 132.056 65.9988 132.022 66.0062 132.011C66.0177 131.995 65.9785 132.047 65.8087 132.2C65.4975 132.479 64.9824 132.889 64.2639 133.461L65.5092 135.026C66.2035 134.473 66.7775 134.017 67.144 133.689C67.3131 133.537 67.51 133.35 67.6438 133.159C67.6934 133.089 67.8547 132.856 67.872 132.532C67.8825 132.335 67.8394 132.091 67.6814 131.867C67.5303 131.653 67.3345 131.543 67.1917 131.488L66.4731 133.354ZM56.8638 125.881C58.407 128.881 61.389 131.397 66.4731 133.354L67.1917 131.488C62.3908 129.639 59.8879 127.388 58.6424 124.966L56.8638 125.881ZM57.5748 126.429C57.6434 126.427 57.7121 126.425 57.781 126.423L57.7252 124.424C57.6539 124.426 57.5827 124.428 57.5115 124.43L57.5748 126.429ZM53.3548 126.789C54.5525 126.592 56.0113 126.479 57.5747 126.429L57.5115 124.43C55.9021 124.481 54.3481 124.599 53.0316 124.815L53.3548 126.789ZM51.1074 127.439C51.3767 127.259 52.08 126.997 53.3548 126.789L53.0316 124.815C51.712 125.031 50.6448 125.343 49.998 125.774L51.1074 127.439ZM48.1778 126.853C48.825 127.823 50.1366 128.086 51.1074 127.439L49.998 125.774C49.9463 125.809 49.8764 125.795 49.8419 125.743L48.1778 126.853ZM48.7637 123.923C47.7929 124.57 47.5306 125.882 48.1778 126.853L49.8419 125.743C49.8074 125.691 49.8214 125.622 49.8731 125.587L48.7637 123.923ZM52.6719 122.619C51.2985 122.844 49.8287 123.213 48.7637 123.923L49.8731 125.587C50.5622 125.128 51.6701 124.81 52.9952 124.593L52.6719 122.619ZM56.8774 122.227C55.4089 122.288 53.9578 122.408 52.6719 122.619L52.9952 124.593C54.1739 124.4 55.5384 124.284 56.9606 124.225L56.8774 122.227ZM55.5652 118.241C55.4379 120.018 55.5103 121.78 55.9511 123.477L57.8869 122.975C57.5169 121.55 57.4429 120.02 57.5601 118.384L55.5652 118.241ZM53.4765 118.811C54.3538 118.885 55.321 119.051 56.3366 119.287L56.7887 117.338C55.7074 117.087 54.6425 116.902 53.6453 116.818L53.4765 118.811ZM50.7012 119.027C51.2696 118.806 52.1871 118.701 53.4765 118.811L53.6453 116.818C52.2237 116.697 50.9547 116.783 49.9764 117.163L50.7012 119.027ZM47.9666 117.824C48.3895 118.911 49.6138 119.45 50.7013 119.027L49.9763 117.163C49.9184 117.186 49.8532 117.157 49.8306 117.099L47.9666 117.824ZM49.1699 115.089C48.0825 115.512 47.5437 116.737 47.9666 117.824L49.8306 117.099C49.8081 117.041 49.8368 116.976 49.8948 116.953L49.1699 115.089ZM53.8332 114.6C52.2638 114.467 50.604 114.532 49.1699 115.089L49.8948 116.953C50.9192 116.555 52.2278 116.472 53.6643 116.593L53.8332 114.6ZM57.0347 115.112C55.958 114.872 54.8752 114.689 53.8332 114.6L53.6643 116.593C54.5951 116.672 55.5863 116.838 56.5985 117.064L57.0347 115.112ZM56.8577 110.713C56.4744 112.459 56.0873 114.219 55.8278 115.939L57.8054 116.237C58.0532 114.595 58.4249 112.901 58.8111 111.142L56.8577 110.713ZM57.6547 106.884C57.4186 108.159 57.1389 109.433 56.8577 110.713L58.8111 111.142C59.0911 109.868 59.3782 108.561 59.6213 107.248L57.6547 106.884ZM71.2647 64.9695C70.9291 64.6334 70.4852 64.4562 69.9998 64.4888C69.5611 64.5183 69.1773 64.7125 68.8711 64.9286C68.2631 65.3578 67.6562 66.0922 67.0667 66.996C65.8671 68.8347 64.5169 71.7244 63.2209 75.4515C60.6227 82.9228 58.184 93.9263 57.6389 107.024L59.6371 107.107C60.1744 94.1998 62.5778 83.3899 65.1099 76.1084C66.379 72.459 67.666 69.7375 68.7417 68.0888C69.2897 67.2488 69.73 66.7704 70.0245 66.5626C70.1694 66.4602 70.2006 66.4798 70.134 66.4843C70.0207 66.4919 69.906 66.4392 69.8497 66.3829L71.2647 64.9695ZM75.9819 84.4986C75.2858 80.3453 74.5499 75.9529 73.7979 72.4093C73.4222 70.6388 73.0375 69.0565 72.6454 67.8105C72.4495 67.1879 72.2459 66.6304 72.0327 66.1669C71.8278 65.7215 71.5795 65.2846 71.2647 64.9695L69.8497 66.3829C69.9123 66.4456 70.0422 66.6254 70.2157 67.0026C70.3808 67.3617 70.5556 67.8325 70.7377 68.4109C71.1014 69.5668 71.4706 71.077 71.8415 72.8245C72.5827 76.3171 73.3112 80.6628 74.0094 84.8291L75.9819 84.4986ZM75.9848 84.5175L75.9848 84.5173L74.0064 84.8104L74.0064 84.8106L75.9848 84.5175ZM77.8661 94.9189C77.2861 92.2793 76.6534 88.5056 75.9819 84.4988L74.0094 84.8293C74.6773 88.8152 75.3193 92.6478 75.9127 95.3481L77.8661 94.9189Z" fill="black"/>
<circle cx="92" cy="50" r="1.5" stroke="black"/>
<circle cx="110" cy="12" r="1.5" stroke="black"/>
<circle cx="116" cy="59" r="0.5" stroke="black"/>
<circle cx="85" cy="21" r="0.5" stroke="black"/>
<path d="M134.422 37.4712C134.735 36.3078 133.976 35.0915 132.726 34.7551C131.792 34.5034 130.847 34.8145 130.3 35.4739C130.157 34.6286 129.496 33.8854 128.562 33.6338C127.312 33.2972 126.045 33.9678 125.732 35.1312C124.821 38.5114 128.564 41.9193 128.564 41.9193C128.564 41.9193 133.512 40.8514 134.422 37.4712Z" stroke="black" stroke-width="1.5" stroke-linecap="round" stroke-linejoin="round"/>
<path fill-rule="evenodd" clip-rule="evenodd" d="M134.106 42.582C134.65 42.9834 135.166 43.317 135.647 43.583L135.653 43.5858C136.513 44.0608 137.232 44.303 137.778 44.3504C137.93 44.3636 138.065 44.3614 138.181 44.3461C138.463 44.3082 138.644 44.1933 138.76 44.0567C138.893 43.899 139.003 43.648 139.05 43.2784C139.082 43.0038 139.084 42.7264 139.055 42.4513C139.018 42.0687 138.951 41.6896 138.855 41.3173L138.851 41.2954C138.682 40.6493 138.467 40.0159 138.208 39.4002L138.205 39.3931C137.327 37.2812 135.826 34.8077 133.861 32.4292C131.779 29.907 129.615 28.0205 127.824 26.9914L127.671 26.9047L127.662 26.9002C126.802 26.4252 126.082 26.1828 125.537 26.1356C125.357 26.1159 125.175 26.1256 124.998 26.1645C124.826 26.202 124.67 26.2949 124.554 26.4291C124.383 26.6315 124.259 26.9793 124.242 27.4956C124.237 27.6569 124.242 27.8362 124.26 28.0347C124.284 28.307 124.326 28.5775 124.383 28.8447L124.398 28.9076L124.448 29.1273C124.592 29.7191 124.812 30.3768 125.107 31.0858L125.108 31.0905C125.452 31.9085 125.845 32.7054 126.283 33.477C126.318 33.6535 126.399 33.8172 126.518 33.9506C126.037 34.0901 125.582 34.2922 125.168 34.5497C125.111 34.4501 125.054 34.3504 124.998 34.2504C124.447 33.2881 123.966 32.2874 123.558 31.2561C123.41 30.8737 123.277 30.4861 123.157 30.0939C123.072 29.8075 122.997 29.5182 122.932 29.2266C122.854 28.8773 122.798 28.5234 122.766 28.1669C122.744 27.9294 122.736 27.6908 122.743 27.4523C122.767 26.6862 122.96 25.9916 123.409 25.4609C123.764 25.0426 124.257 24.7644 124.798 24.6763C125.103 24.6207 125.424 24.6158 125.746 24.6497C126.612 24.742 127.576 25.1218 128.569 25.6916C130.562 26.8361 132.86 28.8611 135.017 31.4749C137.177 34.0903 138.831 36.8513 139.75 39.2187C140.054 40.0019 140.284 40.7556 140.422 41.4564C140.489 41.795 140.535 42.1374 140.56 42.4816C140.621 43.4322 140.469 44.3575 139.904 45.0256C139.491 45.5149 138.955 45.7599 138.371 45.8338C138.135 45.8635 137.892 45.8664 137.647 45.846C137.396 45.8239 137.148 45.7812 136.904 45.7183C136.759 45.6808 136.615 45.6386 136.472 45.5917C136.172 45.4911 135.877 45.3731 135.591 45.2383C134.832 44.885 134.03 44.3915 133.214 43.7897C133.134 43.7317 133.066 43.6584 133.014 43.5738C132.962 43.4893 132.927 43.3953 132.912 43.2973C132.897 43.1993 132.901 43.0993 132.924 43.0029C132.948 42.9066 132.991 42.8159 133.049 42.7361C133.108 42.6563 133.182 42.5889 133.268 42.5379C133.353 42.487 133.447 42.4534 133.545 42.4391C133.643 42.4248 133.743 42.4302 133.839 42.4549C133.935 42.4795 134.026 42.523 134.105 42.5827L134.106 42.582ZM133.472 37.1583L133.471 37.1575L134.024 35.1055L134.284 34.1399L133.318 33.8799L133.288 33.9918L133.282 33.9892C133.295 33.9532 133.307 33.9166 133.317 33.8791L133.317 33.8789L134.285 34.1393L133.472 37.1583ZM131.685 43.7954L131.977 42.7082L131.976 42.709L131.684 43.7952L131.685 43.7954Z" fill="black"/>
<rect x="59" y="57.6367" width="4.36364" height="1.09091" rx="0.545455" fill="black"/>
<rect x="60.6367" y="62" width="6" height="1.09091" rx="0.545455" transform="rotate(-90 60.6367 62)" fill="black"/>
<rect x="99" y="28.6367" width="4.36364" height="1.09091" rx="0.545455" fill="black"/>
<rect x="100.637" y="33" width="6" height="1.09091" rx="0.545455" transform="rotate(-90 100.637 33)" fill="black"/>
</svg>
