<svg width="14" height="12" viewBox="0 0 14 12" fill="none" xmlns="http://www.w3.org/2000/svg">
<path fill-rule="evenodd" clip-rule="evenodd" d="M6.10201 11.4982C6.19301 11.6508 6.324 11.7774 6.481 11.8655C6.639 11.9536 6.818 12 7 12C7.182 12 7.36001 11.9536 7.51801 11.8655C7.67601 11.7774 7.806 11.6508 7.897 11.4982L13.861 1.5038C13.952 1.3514 14 1.1785 14 1.0025C14 0.8265 13.952 0.6537 13.861 0.5013C13.77 0.3489 13.639 0.2223 13.482 0.1343C13.324 0.0463002 13.146 0 12.964 0H1.036C0.853995 0 0.676005 0.0463002 0.518005 0.1343C0.361005 0.2223 0.230008 0.3489 0.139008 0.5013C0.0480076 0.6537 0 0.8265 0 1.0025C0 1.1785 0.0480076 1.3514 0.139008 1.5038L6.10201 11.4982Z" fill="black"/>
</svg>
