<svg width="22" height="22" viewBox="0 0 22 22" fill="none" xmlns="http://www.w3.org/2000/svg">
<g clip-path="url(#clip0_85_262)">
<path fill-rule="evenodd" clip-rule="evenodd" d="M21.56 11.25C21.56 10.47 21.49 9.72 21.36 9H11V13.255H16.92C16.665 14.63 15.89 15.795 14.725 16.575V19.335H18.28C20.36 17.42 21.56 14.6 21.56 11.25Z" fill="#4285F4"/>
<path fill-rule="evenodd" clip-rule="evenodd" d="M11 21.9998C13.97 21.9998 16.46 21.0148 18.28 19.3348L14.725 16.5748C13.74 17.2348 12.48 17.6248 11 17.6248C8.13504 17.6248 5.71004 15.6898 4.84504 13.0898H1.17004V15.9398C2.98004 19.5348 6.70004 21.9998 11 21.9998Z" fill="#34A853"/>
<path fill-rule="evenodd" clip-rule="evenodd" d="M4.845 13.0925C4.625 12.4325 4.5 11.7275 4.5 11.0025C4.5 10.2775 4.625 9.5725 4.845 8.9125V6.0625H1.17C0.425 7.5475 0 9.2275 0 11.0025C0 12.7775 0.425 14.4575 1.17 15.9425L4.845 13.0925Z" fill="#FBBC05"/>
<path fill-rule="evenodd" clip-rule="evenodd" d="M11 4.375C12.615 4.375 14.065 4.93 15.205 6.02L18.36 2.865C16.455 1.09 13.965 0 11 0C6.70004 0 2.98004 2.465 1.17004 6.06L4.84504 8.91C5.71004 6.31 8.13504 4.375 11 4.375Z" fill="#EA4335"/>
</g>
<defs>
<clipPath id="clip0_85_262">
<rect width="22" height="22" fill="white"/>
</clipPath>
</defs>
</svg>
