<svg width="22" height="22" viewBox="0 0 22 22" fill="none" xmlns="http://www.w3.org/2000/svg">
<g clip-path="url(#clip0_87_270)">
<path d="M22 0H0V22H22V0Z" fill="#FEE500"/>
<path d="M11.3124 1.25781C16.5206 1.25781 20.7419 4.95728 20.7419 9.52204C20.7419 14.0858 16.5206 17.7853 11.3133 17.7853C10.7948 17.7855 10.2768 17.7484 9.76256 17.6742L5.80436 20.5851C5.35448 20.8527 5.19554 20.8234 5.38052 20.1681L6.1815 16.4545C3.59538 14.9804 1.88477 12.4259 1.88477 9.52204C1.88477 4.95829 6.10427 1.25781 11.3124 1.25781ZM16.6185 9.39583L17.9385 7.95805C18.0146 7.8691 18.0571 7.75039 18.057 7.62692C18.0569 7.50344 18.0141 7.38485 17.9378 7.29611C17.8614 7.20737 17.7574 7.15542 17.6477 7.1512C17.5379 7.14698 17.431 7.19082 17.3494 7.27348L15.6182 9.15755V7.60062C15.6182 7.47423 15.5735 7.35301 15.494 7.26364C15.4145 7.17426 15.3067 7.12405 15.1943 7.12405C15.0819 7.12405 14.9741 7.17426 14.8946 7.26364C14.8151 7.35301 14.7705 7.47423 14.7705 7.60062V10.1824C14.7546 10.256 14.7546 10.3329 14.7705 10.4065V11.8594C14.7705 11.9858 14.8151 12.1071 14.8946 12.1964C14.9741 12.2858 15.0819 12.336 15.1943 12.336C15.3067 12.336 15.4145 12.2858 15.494 12.1964C15.5735 12.1071 15.6182 11.9858 15.6182 11.8594V10.4833L16.0016 10.0663L17.2839 12.1189C17.3159 12.1702 17.3566 12.2138 17.4036 12.2474C17.4506 12.281 17.503 12.3038 17.5579 12.3146C17.6128 12.3254 17.669 12.3239 17.7234 12.3102C17.7777 12.2966 17.8292 12.271 17.8747 12.235C17.9203 12.1991 17.9591 12.1533 17.989 12.1004C18.0188 12.0476 18.0391 11.9886 18.0487 11.9269C18.0583 11.8652 18.057 11.802 18.0449 11.7409C18.0327 11.6798 18.01 11.6219 17.978 11.5707L16.6185 9.39583ZM13.9623 11.3385H12.6513V7.61577C12.6463 7.4933 12.5995 7.37772 12.5206 7.29304C12.4418 7.20837 12.3369 7.16113 12.2279 7.16113C12.1189 7.16113 12.014 7.20837 11.9352 7.29304C11.8563 7.37772 11.8095 7.4933 11.8045 7.61577V11.815C11.8045 12.0775 11.9931 12.2916 12.2275 12.2916H13.9623C14.0747 12.2916 14.1825 12.2414 14.262 12.152C14.3415 12.0626 14.3862 11.9414 14.3862 11.815C14.3862 11.6886 14.3415 11.5674 14.262 11.478C14.1825 11.3887 14.0747 11.3385 13.9623 11.3385ZM8.70297 10.2369L9.32795 8.51236L9.90085 10.2359L8.70297 10.2369ZM10.9685 10.7286L10.9703 10.7125C10.9701 10.5924 10.9293 10.4769 10.8563 10.3894L9.91701 7.56225C9.87764 7.42753 9.80264 7.30952 9.70203 7.224C9.60142 7.13849 9.48 7.08953 9.35399 7.08366C9.22705 7.08304 9.10296 7.12588 8.99821 7.20651C8.89346 7.28713 8.81304 7.40171 8.76762 7.53499L7.27522 11.6494C7.2327 11.7665 7.23328 11.8977 7.27681 12.0142C7.32034 12.1308 7.40326 12.2231 7.50734 12.2709C7.61141 12.3187 7.72811 12.318 7.83176 12.2691C7.93541 12.2202 8.01752 12.1269 8.06003 12.0099L8.35815 11.189H10.2169L10.4845 11.9968C10.5028 12.0571 10.5316 12.1128 10.5693 12.1604C10.6071 12.208 10.6529 12.2466 10.7042 12.274C10.7554 12.3013 10.811 12.3168 10.8677 12.3195C10.9243 12.3222 10.9809 12.3122 11.034 12.2899C11.0872 12.2675 11.1358 12.2335 11.177 12.1897C11.2182 12.1459 11.2512 12.0932 11.274 12.0348C11.2967 11.9764 11.3089 11.9134 11.3096 11.8497C11.3104 11.7859 11.2997 11.7226 11.2783 11.6636L10.9685 10.7286ZM7.9846 7.62081C7.9846 7.49459 7.94007 7.37353 7.86078 7.28419C7.78149 7.19484 7.67392 7.14451 7.56166 7.14425H4.64779C4.53538 7.14425 4.42757 7.19445 4.34809 7.28383C4.2686 7.3732 4.22395 7.49442 4.22395 7.62081C4.22395 7.74721 4.2686 7.86842 4.34809 7.9578C4.42757 8.04717 4.53538 8.09738 4.64779 8.09738H5.68942V11.8695C5.68942 11.9959 5.73407 12.1172 5.81356 12.2065C5.89304 12.2959 6.00085 12.3461 6.11326 12.3461C6.22566 12.3461 6.33347 12.2959 6.41295 12.2065C6.49244 12.1172 6.53709 11.9959 6.53709 11.8695V8.09738H7.56077C7.67317 8.09738 7.78098 8.04717 7.86046 7.9578C7.93995 7.86842 7.9846 7.74721 7.9846 7.62081Z" fill="black"/>
</g>
<defs>
<clipPath id="clip0_87_270">
<rect width="22" height="22" fill="white"/>
</clipPath>
</defs>
</svg>
