<svg width="45" height="50" viewBox="0 0 45 50" fill="none" xmlns="http://www.w3.org/2000/svg">
<g clip-path="url(#clip0_93_279)">
<path d="M14.2701 1.0077C15.6524 1.0077 17.337 13.7257 18.4429 19.9465C22.0924 18.6194 26.0288 19.5318 27.3651 20.0847C28.0286 7.91966 31.763 0.731221 32.316 1.0077C35.3573 1.56066 38.4619 19.2553 38.0729 27.4114C42.8283 37.1434 35.8192 42.1569 31.5798 43.7236C28.3808 45.3323 20.7727 47.2247 12.4987 43.5854C4.04355 39.8664 5.17196 32.8027 6.96907 27.4114C6.71229 18.6345 11.2478 1.0077 14.2701 1.0077Z" fill="black" stroke="black" stroke-width="0.276478"/>
<path d="M15.3971 34.3459C12.9424 34.3459 10.9524 31.8323 10.9524 28.7315C10.9524 25.6308 12.9424 23.1172 15.3971 23.1172C17.8518 23.1172 19.8418 25.6308 19.8418 28.7315C19.8418 31.8323 17.8518 34.3459 15.3971 34.3459Z" fill="#FFFEF8"/>
<path d="M29.9028 34.3459C27.448 34.3459 25.4581 31.8323 25.4581 28.7315C25.4581 25.6308 27.448 23.1172 29.9028 23.1172C32.3575 23.1172 34.3475 25.6308 34.3475 28.7315C34.3475 31.8323 32.3575 34.3459 29.9028 34.3459Z" fill="#FFFEF8"/>
<path d="M28.7331 31.0702C27.9579 31.0702 27.3295 30.1275 27.3295 28.9648C27.3295 27.802 27.9579 26.8594 28.7331 26.8594C29.5083 26.8594 30.1367 27.802 30.1367 28.9648C30.1367 30.1275 29.5083 31.0702 28.7331 31.0702Z" fill="black"/>
<path d="M17.0359 31.0702C16.2607 31.0702 15.6323 30.1275 15.6323 28.9648C15.6323 27.802 16.2607 26.8594 17.0359 26.8594C17.8111 26.8594 18.4395 27.802 18.4395 28.9648C18.4395 30.1275 17.8111 31.0702 17.0359 31.0702Z" fill="black"/>
<path d="M24.2441 34.3438H21.437" stroke="#FFFEF8" stroke-width="1.38239" stroke-linecap="round"/>
<path d="M9.15611 35.7011C7.26684 34.7795 2.99064 33.1298 1 33.904M9.15611 37.6364C6.99037 37.4521 2.3271 37.3046 1 38.1894" stroke="black" stroke-width="1.10591" stroke-linecap="round"/>
<path d="M36.1115 35.6073C38.0007 34.6857 42.2769 33.0361 44.2676 33.8102M36.1115 37.5427C38.2772 37.3583 42.9405 37.2109 44.2676 38.0956" stroke="black" stroke-width="1.10591" stroke-linecap="round"/>
<path d="M14.2695 48.9504V39.9663C14.2695 39.8296 14.3804 39.7188 14.5171 39.7188H30.6106C30.7474 39.7188 30.8582 39.8296 30.8582 39.9663V48.9504C30.8582 49.0872 30.7474 49.198 30.6106 49.198H14.5171C14.3804 49.198 14.2695 49.0872 14.2695 48.9504Z" fill="#FFFEF8" stroke="#ABA2A2" stroke-width="0.990371"/>
<path d="M22.5639 43.776L16.5005 40.3112H28.6273L22.5639 43.776Z" fill="#FFFEF8" stroke="#ABA2A2" stroke-width="1.18491"/>
</g>
<defs>
<clipPath id="clip0_93_279">
<rect width="45" height="50" fill="white"/>
</clipPath>
</defs>
</svg>
