<svg width="35" height="347" viewBox="0 0 35 347" fill="none" xmlns="http://www.w3.org/2000/svg">
<path d="M19.0016 37.4C17.3216 37.4 15.8282 37.0933 14.5216 36.48C13.2416 35.8933 12.2282 35.08 11.4816 34.04C10.7616 33 10.4016 31.8 10.4016 30.44C10.4016 29.1333 10.8016 27.9467 11.6016 26.88C12.4016 25.8133 13.4682 24.9733 14.8016 24.36C16.1349 23.72 17.5882 23.4 19.1616 23.4C20.7616 23.4 22.2149 23.6667 23.5216 24.2C24.8549 24.7067 25.9082 25.48 26.6816 26.52C27.4816 27.5333 27.8549 28.7867 27.8016 30.28C27.7749 31.6667 27.3616 32.8933 26.5616 33.96C25.7882 35.0267 24.7349 35.8667 23.4016 36.48C22.0949 37.0933 20.6282 37.4 19.0016 37.4ZM19.0816 35.32C20.7616 35.2667 22.1749 34.8133 23.3216 33.96C24.4949 33.1067 25.1082 31.8667 25.1616 30.24C25.2149 29.1733 24.9616 28.28 24.4016 27.56C23.8682 26.84 23.1349 26.2933 22.2016 25.92C21.2949 25.52 20.2682 25.32 19.1216 25.32C18.0016 25.3467 16.9749 25.5867 16.0416 26.04C15.1082 26.4667 14.3616 27.0533 13.8016 27.8C13.2416 28.5467 12.9616 29.4133 12.9616 30.4C12.9616 31.4133 13.2282 32.2933 13.7616 33.04C14.3216 33.76 15.0682 34.32 16.0016 34.72C16.9349 35.12 17.9616 35.32 19.0816 35.32ZM4.88156 19.56C4.2949 19.5333 3.84156 19.2 3.52156 18.56C3.20156 17.92 3.04156 17.1733 3.04156 16.32V7.6C3.04156 6.88 2.98823 6.16 2.88156 5.44C2.80156 4.72 2.72156 4.22666 2.64156 3.96C2.56156 3.69333 2.6549 3.56 2.92156 3.56C3.0549 3.56 3.30823 3.58666 3.68156 3.64C4.08156 3.66667 4.46823 3.69333 4.84156 3.72C5.2149 3.74667 5.42823 3.77333 5.48156 3.8C5.64156 3.82667 5.72156 3.96 5.72156 4.2C5.66823 4.89333 5.62823 5.6 5.60156 6.32C5.5749 7.01333 5.56156 7.70667 5.56156 8.4V15.88C5.56156 16.1467 5.58823 16.4267 5.64156 16.72C5.6949 17.0133 5.8949 17.1733 6.24156 17.2C7.0149 17.2267 8.08156 17.1867 9.44156 17.08C10.8282 16.9467 12.3349 16.7467 13.9616 16.48C15.5882 16.2133 17.1616 15.88 18.6816 15.48C20.2282 15.0533 21.5616 14.5867 22.6816 14.08C22.9482 13.9733 23.0949 14 23.1216 14.16L23.4016 15.6C23.4282 15.8667 23.2949 16.0667 23.0016 16.2C22.1749 16.5733 21.0282 16.96 19.5616 17.36C18.1216 17.76 16.5216 18.1333 14.7616 18.48C13.0282 18.8267 11.2949 19.1067 9.56156 19.32C7.82823 19.5067 6.26823 19.5867 4.88156 19.56ZM25.0816 22.84C24.9749 22.84 24.9216 22.7733 24.9216 22.64V5.28C24.9216 4.26666 24.8816 3.33333 24.8016 2.48C24.7482 1.62666 24.6549 1.06666 24.5216 0.799998C24.4682 0.666665 24.4682 0.573332 24.5216 0.52C24.6016 0.439999 24.6949 0.399999 24.8016 0.399999C25.0949 0.399999 25.4949 0.399999 26.0016 0.399999C26.5082 0.399999 26.9749 0.413332 27.4016 0.439998C27.5349 0.439998 27.6016 0.546665 27.6016 0.759999C27.5216 1.74667 27.4682 2.61333 27.4416 3.36C27.4416 4.08 27.4416 4.92 27.4416 5.88V11.12C28.1616 11.12 28.9482 11.0933 29.8016 11.04C30.6549 10.9867 31.4416 10.92 32.1616 10.84C32.9082 10.76 33.4682 10.6667 33.8416 10.56C34.0816 10.5333 34.2149 10.6133 34.2416 10.8C34.2949 11.1467 34.3216 11.4933 34.3216 11.84C34.3482 12.1867 34.3749 12.5333 34.4016 12.88C34.4016 13.1733 34.2816 13.32 34.0416 13.32C33.6682 13.2667 33.0949 13.24 32.3216 13.24C31.5482 13.2133 30.7216 13.2 29.8416 13.2C28.9882 13.2 28.1882 13.2267 27.4416 13.28V21.84C27.4416 22.24 27.4149 22.48 27.3616 22.56C27.3349 22.64 27.2549 22.6933 27.1216 22.72L25.0816 22.84ZM3.36156 87C3.30823 87 3.24156 86.9867 3.16156 86.96C3.08156 86.9333 3.04156 86.8533 3.04156 86.72C3.04156 86.6933 3.04156 86.64 3.04156 86.56C3.04156 86.4 3.04156 86.1333 3.04156 85.76C3.04156 85.3867 3.02823 84.8133 3.00156 84.04C2.9749 83.2667 2.9349 82.1867 2.88156 80.8C2.8549 79.4133 2.80156 77.64 2.72156 75.48C2.6949 74.76 2.6149 74.04 2.48156 73.32C2.3749 72.5733 2.24156 72.0933 2.08156 71.88C1.9749 71.72 1.94823 71.5733 2.00156 71.44C2.08156 71.3067 2.2149 71.2533 2.40156 71.28C2.82823 71.3067 3.2549 71.3333 3.68156 71.36C4.1349 71.36 4.5749 71.36 5.00156 71.36C6.2549 71.36 7.5749 71.3333 8.96156 71.28C10.3482 71.2267 11.6016 71.16 12.7216 71.08C13.8416 70.9733 14.6149 70.8933 15.0416 70.84C15.0949 70.84 15.1482 70.8267 15.2016 70.8C15.3882 70.7733 15.5482 70.7733 15.6816 70.8L17.7616 71.2C17.9482 71.2533 18.0282 71.4133 18.0016 71.68C17.9482 72.0533 17.8949 72.52 17.8416 73.08C17.7882 73.6133 17.7482 74.1333 17.7216 74.64C17.6949 75.12 17.6682 75.48 17.6416 75.72C17.5616 77.3467 17.4949 79.08 17.4416 80.92C17.3882 82.7333 17.3349 84.44 17.2816 86.04C17.2816 86.4133 17.0816 86.5867 16.6816 86.56C16.4149 86.5333 15.9349 86.52 15.2416 86.52C14.5482 86.52 13.7349 86.5333 12.8016 86.56C11.8682 86.5867 10.9082 86.6267 9.92156 86.68C8.9349 86.7067 8.00156 86.7333 7.12156 86.76C6.26823 86.7867 5.56156 86.8133 5.00156 86.84C4.7349 86.8667 4.4149 86.9067 4.04156 86.96C3.66823 86.9867 3.44156 87 3.36156 87ZM5.36156 84.68C5.8149 84.68 6.48156 84.68 7.36156 84.68C8.24156 84.6533 9.1749 84.6267 10.1616 84.6C11.1749 84.5467 12.1216 84.5067 13.0016 84.48C13.8816 84.4267 14.5482 84.3733 15.0016 84.32L15.1216 73.4C15.1216 73.1333 15.0016 73 14.7616 73L5.12156 73.36L5.36156 84.68ZM25.0816 93.6C24.9749 93.6 24.9216 93.5333 24.9216 93.4V72.28C24.9216 71.2667 24.8816 70.3333 24.8016 69.48C24.7482 68.6267 24.6549 68.0667 24.5216 67.8C24.4682 67.6667 24.4682 67.5733 24.5216 67.52C24.6016 67.44 24.6949 67.4 24.8016 67.4C25.1749 67.4 25.6149 67.4 26.1216 67.4C26.6282 67.4 27.0549 67.4133 27.4016 67.44C27.5349 67.44 27.6016 67.5467 27.6016 67.76C27.5216 68.7467 27.4682 69.6133 27.4416 70.36C27.4416 71.08 27.4416 71.92 27.4416 72.88V78.92C28.1882 78.92 28.9882 78.8933 29.8416 78.84C30.6949 78.7867 31.4816 78.72 32.2016 78.64C32.9482 78.56 33.4949 78.4667 33.8416 78.36C34.0816 78.3333 34.2149 78.4133 34.2416 78.6C34.2949 78.9467 34.3216 79.2933 34.3216 79.64C34.3482 79.9867 34.3749 80.3333 34.4016 80.68C34.4016 80.9733 34.2816 81.12 34.0416 81.12C33.6682 81.0667 33.0949 81.04 32.3216 81.04C31.5749 81.0133 30.7616 81 29.8816 81C29.0016 81 28.1882 81.0267 27.4416 81.08V92.6C27.4416 93 27.4149 93.24 27.3616 93.32C27.3349 93.4 27.2549 93.4533 27.1216 93.48L25.0816 93.6ZM12.2016 103C11.3482 103 10.6949 102.68 10.2416 102.04C9.8149 101.427 9.60156 100.547 9.60156 99.4V95.84C9.60156 94.9067 9.56156 94.1333 9.48156 93.52C9.40156 92.9067 9.32156 92.4667 9.24156 92.2C9.16156 91.9333 9.2549 91.8 9.52156 91.8C9.68156 91.8 9.94823 91.8133 10.3216 91.84C10.7216 91.84 11.0949 91.8533 11.4416 91.88C11.8149 91.9067 12.0149 91.92 12.0416 91.92C12.1749 91.92 12.2416 92.0533 12.2416 92.32C12.1882 92.9333 12.1482 93.48 12.1216 93.96C12.1216 94.4133 12.1216 94.9867 12.1216 95.68V99.16C12.1216 99.8267 12.2016 100.293 12.3616 100.56C12.5482 100.8 12.8416 100.933 13.2416 100.96C13.9882 100.987 14.8949 101 15.9616 101C17.0549 101.027 18.1882 101.027 19.3616 101C20.5616 100.947 21.6949 100.893 22.7616 100.84C23.8816 100.787 25.0416 100.693 26.2416 100.56C27.4416 100.4 28.3616 100.24 29.0016 100.08C29.2682 100.027 29.4416 100.04 29.5216 100.12C29.6016 100.2 29.6549 100.307 29.6816 100.44L30.0016 102.32C30.0016 102.453 29.9616 102.56 29.8816 102.64C29.8282 102.72 29.6149 102.76 29.2416 102.76C26.6016 102.76 23.8816 102.8 21.0816 102.88C18.2816 102.96 15.3216 103 12.2016 103ZM17.5953 124.36V147.16H16.3953V124.36H17.5953ZM1.79219 207.96C1.49885 207.987 1.29885 207.96 1.19219 207.88C1.08552 207.8 1.00552 207.68 0.952188 207.52C0.845521 207.227 0.752188 206.933 0.672188 206.64C0.592188 206.32 0.498854 205.933 0.392188 205.48C0.365521 205.427 0.378854 205.36 0.432188 205.28C0.485521 205.173 0.578854 205.133 0.712188 205.16C1.35219 205.24 2.12552 205.307 3.03219 205.36C3.96552 205.413 5.20552 205.453 6.75219 205.48C8.29885 205.48 10.2989 205.48 12.7522 205.48V197.72C12.7522 196.68 12.7122 195.773 12.6322 195C12.5522 194.227 12.4589 193.707 12.3522 193.44C12.2455 193.173 12.3389 193.04 12.6322 193.04H15.0322C15.1922 193.04 15.2722 193.147 15.2722 193.36C15.2722 193.387 15.2722 193.413 15.2722 193.44C15.2189 194.133 15.1789 194.8 15.1522 195.44C15.1255 196.08 15.1122 196.747 15.1122 197.44L14.9922 205.4C16.7789 205.347 18.5655 205.293 20.3522 205.24C22.1389 205.16 23.8322 205.093 25.4322 205.04C27.0322 204.96 28.4589 204.88 29.7122 204.8C30.9655 204.693 31.9522 204.573 32.6722 204.44C32.9389 204.387 33.1122 204.4 33.1922 204.48C33.2722 204.56 33.3255 204.667 33.3522 204.8L33.5922 206.72C33.5922 206.853 33.5522 206.973 33.4722 207.08C33.3922 207.187 33.1789 207.24 32.8322 207.24C31.9255 207.213 30.8722 207.2 29.6722 207.2C28.4722 207.2 27.1922 207.2 25.8322 207.2C22.4989 207.2 19.2722 207.24 16.1522 207.32C13.0322 207.373 10.2322 207.453 7.75219 207.56C5.27219 207.667 3.28552 207.8 1.79219 207.96ZM23.2322 199.16C23.1522 199.16 23.0722 199.147 22.9922 199.12C22.9389 199.067 22.9389 198.947 22.9922 198.76C23.1522 198.2 23.3255 197.44 23.5122 196.48C23.6989 195.52 23.8855 194.467 24.0722 193.32C24.2589 192.147 24.4322 190.987 24.5922 189.84C24.7522 188.667 24.8855 187.587 24.9922 186.6C25.0989 185.587 25.1655 184.773 25.1922 184.16C25.1922 184.133 25.1922 184.107 25.1922 184.08C25.1922 183.92 25.1789 183.827 25.1522 183.8C25.1255 183.747 25.0055 183.72 24.7922 183.72C24.3389 183.72 23.6722 183.733 22.7922 183.76C21.9389 183.787 20.9922 183.827 19.9522 183.88C18.9122 183.907 17.8722 183.947 16.8322 184C15.7922 184.053 14.8455 184.107 13.9922 184.16C13.1655 184.213 12.5255 184.253 12.0722 184.28C11.4055 184.333 10.5789 184.4 9.59219 184.48C8.63219 184.533 7.81885 184.587 7.15219 184.64C6.85885 184.693 6.67219 184.68 6.59219 184.6C6.51219 184.52 6.44552 184.373 6.39219 184.16C6.39219 184.133 6.39219 184.12 6.39219 184.12C6.28552 183.827 6.19219 183.587 6.11219 183.4C6.05885 183.187 5.97885 182.853 5.87219 182.4C5.84552 182.347 5.85885 182.28 5.91219 182.2C5.96552 182.12 6.05885 182.093 6.19219 182.12C6.93885 182.173 7.96552 182.213 9.27219 182.24C10.5789 182.24 12.0189 182.227 13.5922 182.2C15.1655 182.147 16.7122 182.08 18.2322 182C19.7789 181.92 21.1655 181.827 22.3922 181.72C23.6189 181.613 24.5389 181.493 25.1522 181.36C25.3655 181.307 25.5789 181.307 25.7922 181.36L28.0322 181.84C28.2722 181.92 28.3655 182.067 28.3122 182.28C28.2855 182.547 28.2189 182.933 28.1122 183.44C28.0322 183.947 27.9522 184.467 27.8722 185C27.7922 185.507 27.7255 185.92 27.6722 186.24C27.5389 187.147 27.3789 188.147 27.1922 189.24C27.0322 190.333 26.8455 191.44 26.6322 192.56C26.4455 193.653 26.2589 194.667 26.0722 195.6C25.8855 196.533 25.7122 197.307 25.5522 197.92C25.4189 198.4 25.2855 198.693 25.1522 198.8C25.0455 198.907 24.9122 198.987 24.7522 199.04C24.5389 199.093 24.2855 199.133 23.9922 199.16C23.7255 199.16 23.4722 199.16 23.2322 199.16ZM9.64625 263.56C8.12625 263.587 6.72625 263.293 5.44625 262.68C4.16625 262.04 3.13958 261.147 2.36625 260C1.59292 258.853 1.20625 257.52 1.20625 256C1.20625 254.533 1.59292 253.213 2.36625 252.04C3.13958 250.867 4.16625 249.933 5.44625 249.24C6.75292 248.52 8.17958 248.147 9.72625 248.12C11.2729 248.067 12.6863 248.347 13.9663 248.96C15.2463 249.547 16.2729 250.413 17.0463 251.56C17.8196 252.707 18.2063 254.08 18.2063 255.68C18.2063 257.147 17.8063 258.467 17.0063 259.64C16.2329 260.813 15.1929 261.747 13.8863 262.44C12.6063 263.133 11.1929 263.507 9.64625 263.56ZM18.8063 282.4C17.1263 282.4 15.6329 282.093 14.3263 281.48C13.0463 280.893 12.0329 280.08 11.2863 279.04C10.5663 278 10.2063 276.8 10.2063 275.44C10.2063 274.133 10.6063 272.947 11.4063 271.88C12.2063 270.813 13.2729 269.973 14.6063 269.36C15.9396 268.72 17.3929 268.4 18.9662 268.4C20.5663 268.4 22.0196 268.667 23.3263 269.2C24.6596 269.707 25.7129 270.48 26.4863 271.52C27.2863 272.533 27.6596 273.787 27.6063 275.28C27.5796 276.667 27.1663 277.893 26.3663 278.96C25.5929 280.027 24.5396 280.867 23.2063 281.48C21.8996 282.093 20.4329 282.4 18.8063 282.4ZM9.72625 261.52C11.3796 261.467 12.7529 260.92 13.8463 259.88C14.9396 258.84 15.4863 257.44 15.4863 255.68C15.4863 253.787 14.9263 252.387 13.8063 251.48C12.7129 250.547 11.3263 250.107 9.64625 250.16C7.99292 250.267 6.60625 250.827 5.48625 251.84C4.39292 252.853 3.84625 254.227 3.84625 255.96C3.84625 257.773 4.39292 259.173 5.48625 260.16C6.60625 261.12 8.01958 261.573 9.72625 261.52ZM18.8863 280.32C20.5663 280.267 21.9796 279.813 23.1263 278.96C24.2996 278.107 24.9129 276.867 24.9663 275.24C25.0196 274.173 24.7663 273.28 24.2063 272.56C23.6729 271.84 22.9396 271.293 22.0063 270.92C21.0996 270.52 20.0729 270.32 18.9263 270.32C17.8063 270.347 16.7796 270.587 15.8463 271.04C14.9129 271.467 14.1663 272.053 13.6063 272.8C13.0463 273.547 12.7663 274.413 12.7663 275.4C12.7663 276.413 13.0329 277.293 13.5663 278.04C14.1263 278.76 14.8729 279.32 15.8063 279.72C16.7396 280.12 17.7663 280.32 18.8863 280.32ZM24.8863 267.84C24.7796 267.84 24.7263 267.773 24.7263 267.64V250.28C24.7263 249.267 24.6863 248.333 24.6063 247.48C24.5529 246.627 24.4596 246.067 24.3263 245.8C24.2729 245.667 24.2729 245.573 24.3263 245.52C24.4063 245.44 24.4996 245.4 24.6063 245.4C24.8996 245.4 25.2996 245.4 25.8063 245.4C26.3129 245.4 26.7796 245.413 27.2063 245.44C27.3396 245.44 27.4063 245.547 27.4063 245.76C27.3263 246.747 27.2729 247.613 27.2463 248.36C27.2463 249.08 27.2463 249.92 27.2463 250.88V251.84C27.9663 251.84 28.7129 251.8 29.4863 251.72C30.2596 251.64 30.9796 251.547 31.6463 251.44C32.3129 251.333 32.8196 251.253 33.1663 251.2C33.4063 251.173 33.5396 251.253 33.5663 251.44C33.6729 252.053 33.7263 252.68 33.7263 253.32C33.7263 253.613 33.6063 253.76 33.3663 253.76C32.9929 253.76 32.4596 253.76 31.7663 253.76C31.0996 253.76 30.3663 253.773 29.5663 253.8C28.7663 253.8 27.9929 253.8 27.2463 253.8V259.4C27.9663 259.4 28.7129 259.387 29.4863 259.36C30.2596 259.307 30.9796 259.24 31.6463 259.16C32.3396 259.08 32.8596 259.013 33.2063 258.96C33.4463 258.933 33.5796 259.013 33.6063 259.2C33.6596 259.547 33.6996 259.867 33.7263 260.16C33.7529 260.453 33.7796 260.773 33.8063 261.12C33.8063 261.413 33.6863 261.56 33.4463 261.56C33.0729 261.56 32.5263 261.547 31.8063 261.52C31.1129 261.493 30.3663 261.48 29.5663 261.48C28.7663 261.453 27.9929 261.44 27.2463 261.44V266.84C27.2463 267.24 27.2196 267.48 27.1663 267.56C27.1396 267.64 27.0596 267.693 26.9263 267.72L24.8863 267.84ZM11.3577 334C9.73099 334.027 8.23766 333.693 6.87766 333C5.51766 332.307 4.42432 331.32 3.59766 330.04C2.79766 328.733 2.39766 327.24 2.39766 325.56C2.39766 323.933 2.79766 322.48 3.59766 321.2C4.39766 319.893 5.47766 318.853 6.83766 318.08C8.22432 317.28 9.74432 316.867 11.3977 316.84C13.051 316.787 14.5443 317.08 15.8777 317.72C17.2377 318.36 18.3177 319.307 19.1177 320.56C19.9177 321.813 20.3177 323.36 20.3177 325.2C20.3177 326.853 19.9177 328.333 19.1177 329.64C18.3177 330.947 17.2377 331.987 15.8777 332.76C14.5177 333.533 13.011 333.947 11.3577 334ZM11.3977 331.72C12.571 331.667 13.6377 331.373 14.5977 330.84C15.5577 330.28 16.3177 329.52 16.8777 328.56C17.4643 327.573 17.7577 326.467 17.7577 325.24C17.7577 323.88 17.4643 322.72 16.8777 321.76C16.3177 320.8 15.5577 320.08 14.5977 319.6C13.6377 319.093 12.571 318.867 11.3977 318.92C10.2243 318.947 9.14432 319.253 8.15766 319.84C7.17099 320.4 6.38432 321.173 5.79766 322.16C5.21099 323.12 4.91766 324.24 4.91766 325.52C4.91766 326.853 5.21099 327.987 5.79766 328.92C6.41099 329.853 7.21099 330.56 8.19766 331.04C9.18432 331.52 10.251 331.747 11.3977 331.72ZM27.0777 346.4C26.971 346.4 26.9177 346.333 26.9177 346.2V317.32C26.9177 316.307 26.8777 315.373 26.7977 314.52C26.7443 313.64 26.651 313.067 26.5177 312.8C26.4643 312.667 26.4643 312.573 26.5177 312.52C26.5977 312.44 26.691 312.4 26.7977 312.4C26.9577 312.4 27.2243 312.413 27.5977 312.44C27.9977 312.44 28.3843 312.453 28.7577 312.48C29.131 312.48 29.3443 312.48 29.3977 312.48C29.531 312.48 29.5977 312.587 29.5977 312.8C29.5177 313.787 29.4643 314.653 29.4377 315.4C29.4377 316.12 29.4377 316.96 29.4377 317.92V345.4C29.4377 345.8 29.411 346.04 29.3577 346.12C29.331 346.2 29.251 346.253 29.1177 346.28L27.0777 346.4Z" fill="black"/>
</svg>
