<svg width="143" height="137" viewBox="0 0 143 137" fill="none" xmlns="http://www.w3.org/2000/svg">
<path d="M85.325 35.9524C89.3049 34.356 93.8475 35.2872 96.2797 35.9524C96.943 28.3033 98.0561 18.4652 101.609 12.5375C104.387 7.90263 111.19 34.462 110.195 45.4367C111.08 48.4298 117.597 59.9599 101.609 66.7768C105.162 72.9467 110.782 81.1313 109.579 91.21C107.955 104.813 102.614 124.134 104.604 124.134H94.6545H85.6998L73.482 123.882C63.1195 124.134 42.4942 124.564 38.6042 123.469C32.9233 121.87 25.1815 117.759 25.0062 108.504C24.8734 101.489 27.9912 96.1986 28.3228 95.5334C31.3045 89.5538 41.7881 85.1573 38.6042 95.5334C34.6243 108.504 40.3218 111.235 40.9258 111.497C41.5298 111.758 52.4233 111.718 55.1871 111.497C50.5439 81.5656 78.4476 66.0211 77.3309 65.5912C65.7842 61.1455 69.3436 53.4018 70.8174 45.4369C71.6778 24.7661 78.5152 10.759 80.2917 12.5375C82.0682 14.316 83.8878 29.4119 85.325 35.9524Z" fill="black"/>
<ellipse cx="5.75722" cy="7.19236" rx="5.75722" ry="7.19236" transform="matrix(-1 0 0 1 88.5508 41.0215)" fill="#FFFEF8"/>
<ellipse cx="5.75722" cy="7.19236" rx="5.75722" ry="7.19236" transform="matrix(-1 0 0 1 107.34 41.0215)" fill="#FFFEF8"/>
<ellipse cx="1.81807" cy="2.69713" rx="1.81807" ry="2.69713" transform="matrix(-1 0 0 1 101.875 45.8086)" fill="black"/>
<ellipse cx="1.81807" cy="2.69713" rx="1.81807" ry="2.69713" transform="matrix(-1 0 0 1 86.7344 45.8086)" fill="black"/>
<path d="M94.6152 55.3984H90.9791" stroke="#FFFEF8" stroke-width="2.16099" stroke-linecap="round"/>
<path d="M76.9426 56.2559C73.9211 54.782 67.0821 52.1436 63.8984 53.3817M76.9426 59.3511C73.4789 59.0563 66.0209 58.8205 63.8984 60.2355" stroke="black" stroke-width="1.7687" stroke-linecap="round"/>
<path d="M104.958 56.2559C107.979 54.782 114.818 52.1436 118.002 53.3817M104.958 59.3511C108.421 59.0563 115.88 58.8205 118.002 60.2355" stroke="black" stroke-width="1.7687" stroke-linecap="round"/>
<path d="M79.7188 72.1867V61.2422H98.8716V72.1867H79.7188Z" fill="#FFFEF8"/>
<path d="M89.2952 65.9266L82.2945 61.9262H96.2958L89.2952 65.9266Z" stroke="#ABA2A2" stroke-width="1.36806"/>
</svg>
