<svg width="30" height="30" viewBox="0 0 30 30" fill="none" xmlns="http://www.w3.org/2000/svg">
<path id="Vector" d="M27.9523 11.7753L27.3005 11.4321L26.7795 11.9528L21.3408 17.3884L21.1875 17.5416L21.1114 17.7445L18.6699 24.2531L18.6697 24.2537C18.6447 24.3203 18.61 24.3827 18.5666 24.439L18.4847 24.5327L15.9369 27.0798C15.8138 27.2026 15.65 27.2764 15.4763 27.2872C15.3101 27.2975 15.1458 27.2495 15.0116 27.1519L14.9003 27.0548L10.1352 22.2926L9.42832 21.5861L8.72143 22.2926L2.21911 28.7916C2.21901 28.7917 2.21891 28.7918 2.21881 28.7919C2.09027 28.9198 1.91782 28.9941 1.73641 28.9997C1.55486 29.0052 1.37805 28.9415 1.24189 28.8214C1.10573 28.7014 1.02043 28.5341 1.00322 28.3535C0.986828 28.1815 1.03344 28.0096 1.13393 27.8696L1.22951 27.7614L7.70933 21.2815L8.41639 20.5744L7.70936 19.8673L2.92223 15.0797L2.92214 15.0796C2.79913 14.9566 2.72527 14.793 2.71436 14.6195C2.70397 14.4543 2.75132 14.2909 2.84789 14.1571L2.94406 14.0482L5.49399 11.4989L5.49525 11.4976C5.5434 11.4493 5.59821 11.4082 5.65798 11.3754L5.77016 11.3273L12.2573 8.89272L12.4598 8.81671L12.6128 8.66379L18.0498 3.22991L18.5747 2.70528L18.2246 2.05088C18.1474 1.90653 18.1222 1.74005 18.1531 1.57933C18.184 1.4186 18.2692 1.27332 18.3946 1.16785C18.5199 1.06239 18.6777 1.00315 18.8416 1.00012C18.9948 0.997289 19.1476 1.04536 19.2754 1.13851L19.3857 1.23591L28.7921 10.6399C28.7923 10.6401 28.7926 10.6404 28.7928 10.6406C28.9128 10.7616 28.9856 10.9214 28.9981 11.0913C29.0106 11.2615 28.9617 11.4305 28.8602 11.5678C28.7587 11.7051 28.6113 11.8016 28.4447 11.8397C28.2782 11.8777 28.1035 11.8549 27.9523 11.7753Z" fill="#79110E" stroke="black" stroke-width="2"/>
</svg>
