<svg width="115" height="154" viewBox="0 0 115 154" fill="none" xmlns="http://www.w3.org/2000/svg">
<g clip-path="url(#clip0_51_17)">
<mask id="mask0_51_17" style="mask-type:luminance" maskUnits="userSpaceOnUse" x="0" y="0" width="115" height="154">
<path d="M115 0H0V153.333H115V0Z" fill="white"/>
</mask>
<g mask="url(#mask0_51_17)">
<path d="M115 0H0V153.333H115V0Z" fill="white"/>
<path d="M-0.0825195 -0.432373L115.017 153.034" stroke="#757575" stroke-width="0.399651"/>
<path d="M114.695 -0.432373L-0.404976 153.034" stroke="#757575" stroke-width="0.399651"/>
<path d="M51.9235 77.9072V78.7314H47.29V82.6405H46.3283V78.7314H41.7573V77.9072H51.9235ZM46.8154 71.9873C49.1509 71.9873 50.7245 72.924 50.7245 74.4352C50.7245 75.9089 49.1509 76.8456 46.8154 76.8456C44.48 76.8456 42.9063 75.9089 42.9063 74.4352C42.9063 72.924 44.48 71.9873 46.8154 71.9873ZM46.8154 72.7866C45.0794 72.7866 43.9055 73.4361 43.9179 74.4352C43.9055 75.4218 45.0794 76.0588 46.8154 76.0588C48.5389 76.0588 49.7254 75.4218 49.7254 74.4352C49.7254 73.4361 48.5389 72.7866 46.8154 72.7866ZM73.2199 80.4674V81.2792H63.0537V80.4674H65.8888V77.8197H63.9779V77.0079H65.7139V73.3861H63.953V72.5743H72.2457V73.3861H70.4848V77.0079H72.2207V77.8197H70.3099V80.4674H73.2199ZM66.6881 77.0079H69.5231V73.3861H66.6881V77.0079ZM66.8754 80.4674H69.3358V77.8197H66.8754V80.4674Z" fill="#757575"/>
</g>
</g>
<defs>
<clipPath id="clip0_51_17">
<rect width="115" height="154" fill="white"/>
</clipPath>
</defs>
</svg>
