<svg width="138" height="185" viewBox="0 0 138 185" fill="none" xmlns="http://www.w3.org/2000/svg">
<g clip-path="url(#clip0_2054_6275)">
<rect width="137.409" height="183.212" transform="translate(0 0.914062)" fill="#CECECE" fill-opacity="0.5"/>
<line x1="-0.103911" y1="0.397757" x2="137.424" y2="183.768" stroke="#757575" stroke-width="0.477528"/>
<line y1="-0.238764" x2="229.213" y2="-0.238764" transform="matrix(-0.6 0.8 0.8 0.6 137.233 0.541016)" stroke="#757575" stroke-width="0.477528"/>
<path d="M62.0405 93.5003V94.4852H56.5042V99.156H55.3551V94.4852H49.8934V93.5003H62.0405ZM55.9371 86.4269C58.7277 86.4269 60.6079 87.5461 60.6079 89.3518C60.6079 91.1126 58.7277 92.2319 55.9371 92.2319C53.1465 92.2319 51.2663 91.1126 51.2663 89.3518C51.2663 87.5461 53.1465 86.4269 55.9371 86.4269ZM55.9371 87.382C53.8628 87.382 52.4601 88.1579 52.475 89.3518C52.4601 90.5307 53.8628 91.2917 55.9371 91.2917C57.9964 91.2917 59.4141 90.5307 59.4141 89.3518C59.4141 88.1579 57.9964 87.382 55.9371 87.382ZM87.4868 96.5595V97.5294H75.3397V96.5595H78.7271V93.3958H76.4439V92.4258H78.5182V88.0983H76.4141V87.1283H86.3228V88.0983H84.2187V92.4258H86.293V93.3958H84.0098V96.5595H87.4868ZM79.6822 92.4258H83.0696V88.0983H79.6822V92.4258ZM79.906 96.5595H82.8458V93.3958H79.906V96.5595Z" fill="#757575"/>
</g>
<defs>
<clipPath id="clip0_2054_6275">
<rect width="137.409" height="183.212" fill="white" transform="translate(0 0.914062)"/>
</clipPath>
</defs>
</svg>
