<svg width="1920" height="449" viewBox="0 0 1920 449" fill="none" xmlns="http://www.w3.org/2000/svg">
<g clip-path="url(#clip0_55_75)">
<path d="M0 0H1920V449H0V0Z" fill="#F5F3E9"/>
<mask id="mask0_55_75" style="mask-type:luminance" maskUnits="userSpaceOnUse" x="0" y="0" width="1920" height="449">
<path d="M0 0H1920V449H0V0Z" fill="white"/>
</mask>
<g mask="url(#mask0_55_75)">
<path d="M0 0.5H1920V-0.5H0V0.5Z" fill="#757575"/>
</g>
<path d="M377.321 40.0083C378.813 40.0083 380.631 53.7331 381.825 60.4463C385.763 59.0142 390.011 59.9988 391.453 60.5955C392.169 47.4674 396.199 39.7099 396.796 40.0083C400.078 40.605 403.428 59.7004 403.009 68.5022C408.141 79.0047 400.576 84.415 396.002 86.1058C392.549 87.8418 384.339 89.884 375.41 85.9566C366.285 81.9432 367.503 74.3203 369.443 68.5022C369.165 59.0305 374.06 40.0083 377.321 40.0083Z" fill="black" stroke="black" stroke-width="0.298365"/>
<path d="M378.537 75.9867C375.888 75.9867 373.741 73.2741 373.741 69.9279C373.741 66.5817 375.888 63.8691 378.537 63.8691C381.186 63.8691 383.334 66.5817 383.334 69.9279C383.334 73.2741 381.186 75.9867 378.537 75.9867Z" fill="#FFFEF8"/>
<path d="M394.191 75.9867C391.541 75.9867 389.394 73.2741 389.394 69.9279C389.394 66.5817 391.541 63.8691 394.191 63.8691C396.84 63.8691 398.987 66.5817 398.987 69.9279C398.987 73.2741 396.84 75.9867 394.191 75.9867Z" fill="#FFFEF8"/>
<path d="M392.926 72.4547C392.09 72.4547 391.412 71.4375 391.412 70.1826C391.412 68.9278 392.09 67.9106 392.926 67.9106C393.763 67.9106 394.441 68.9278 394.441 70.1826C394.441 71.4375 393.763 72.4547 392.926 72.4547Z" fill="black"/>
<path d="M380.305 72.4547C379.469 72.4547 378.791 71.4375 378.791 70.1826C378.791 68.9278 379.469 67.9106 380.305 67.9106C381.142 67.9106 381.82 68.9278 381.82 70.1826C381.82 71.4375 381.142 72.4547 380.305 72.4547Z" fill="black"/>
<path d="M388.084 75.9858H385.055" stroke="#FFFEF8" stroke-width="1.49183" stroke-linecap="round"/>
<path d="M371.802 77.4457C369.763 76.4511 365.148 74.6709 363 75.5063M371.802 79.5342C369.465 79.3353 364.432 79.1762 363 80.1309" stroke="black" stroke-width="1.19346" stroke-linecap="round"/>
<path d="M400.891 77.3617C402.93 76.3671 407.545 74.5869 409.693 75.4223M400.891 79.4502C403.228 79.2513 408.261 79.0922 409.693 80.047" stroke="black" stroke-width="1.19346" stroke-linecap="round"/>
<path d="M377.32 91.7325V82.0372C377.32 81.8896 377.44 81.77 377.588 81.77H394.955C395.103 81.77 395.222 81.8896 395.222 82.0372V91.7325C395.222 91.8801 395.103 91.9997 394.955 91.9997H377.588C377.44 91.9997 377.32 91.8801 377.32 91.7325Z" fill="#FFFEF8" stroke="#ABA2A2" stroke-width="1.06877"/>
<path d="M386.271 86.1485L379.728 82.4094H392.815L386.271 86.1485Z" fill="#FFFEF8" stroke="#ABA2A2" stroke-width="1.27871"/>
<path d="M438.053 85.1518C436.541 85.1518 435.197 84.8758 434.021 84.3238C432.869 83.7958 431.957 83.0638 431.285 82.1278C430.637 81.1918 430.313 80.1118 430.313 78.8878C430.313 77.7118 430.673 76.6438 431.393 75.6838C432.113 74.7238 433.073 73.9678 434.273 73.4158C435.473 72.8398 436.781 72.5518 438.197 72.5518C439.637 72.5518 440.945 72.7918 442.121 73.2718C443.321 73.7278 444.269 74.4238 444.965 75.3598C445.685 76.2718 446.021 77.3998 445.973 78.7438C445.949 79.9918 445.577 81.0958 444.857 82.0558C444.161 83.0158 443.213 83.7718 442.013 84.3238C440.837 84.8758 439.517 85.1518 438.053 85.1518ZM438.125 83.2798C439.637 83.2318 440.909 82.8238 441.941 82.0558C442.997 81.2878 443.549 80.1718 443.597 78.7078C443.645 77.7478 443.417 76.9438 442.913 76.2958C442.433 75.6478 441.773 75.1558 440.933 74.8198C440.117 74.4598 439.193 74.2798 438.161 74.2798C437.153 74.3038 436.229 74.5198 435.389 74.9278C434.549 75.3118 433.877 75.8398 433.373 76.5118C432.869 77.1838 432.617 77.9638 432.617 78.8518C432.617 79.7638 432.857 80.5558 433.337 81.2278C433.841 81.8758 434.513 82.3798 435.353 82.7398C436.193 83.0998 437.117 83.2798 438.125 83.2798ZM425.345 69.0958C424.817 69.0718 424.409 68.7718 424.121 68.1958C423.833 67.6198 423.689 66.9478 423.689 66.1798V58.3318C423.689 57.6838 423.641 57.0358 423.545 56.3878C423.473 55.7398 423.401 55.2958 423.329 55.0558C423.257 54.8158 423.341 54.6958 423.581 54.6958C423.701 54.6958 423.929 54.7198 424.265 54.7678C424.625 54.7918 424.973 54.8158 425.309 54.8398C425.645 54.8638 425.837 54.8878 425.885 54.9118C426.029 54.9358 426.101 55.0558 426.101 55.2718C426.053 55.8958 426.017 56.5318 425.993 57.1798C425.969 57.8038 425.957 58.4278 425.957 59.0518V65.7838C425.957 66.0238 425.981 66.2758 426.029 66.5398C426.077 66.8038 426.257 66.9478 426.569 66.9718C427.265 66.9958 428.225 66.9598 429.449 66.8638C430.697 66.7438 432.053 66.5638 433.517 66.3238C434.981 66.0838 436.397 65.7838 437.765 65.4238C439.157 65.0398 440.357 64.6198 441.365 64.1638C441.605 64.0678 441.737 64.0918 441.761 64.2358L442.013 65.5318C442.037 65.7718 441.917 65.9518 441.653 66.0718C440.909 66.4078 439.877 66.7558 438.557 67.1158C437.261 67.4758 435.821 67.8118 434.237 68.1238C432.677 68.4358 431.117 68.6878 429.557 68.8798C427.997 69.0478 426.593 69.1198 425.345 69.0958ZM443.525 72.0478C443.429 72.0478 443.381 71.9878 443.381 71.8678V56.2438C443.381 55.3318 443.345 54.4918 443.273 53.7238C443.225 52.9558 443.141 52.4518 443.021 52.2118C442.973 52.0918 442.973 52.0078 443.021 51.9598C443.093 51.8878 443.177 51.8518 443.273 51.8518C443.537 51.8518 443.897 51.8518 444.353 51.8518C444.809 51.8518 445.229 51.8638 445.613 51.8878C445.733 51.8878 445.793 51.9838 445.793 52.1758C445.721 53.0638 445.673 53.8438 445.649 54.5158C445.649 55.1638 445.649 55.9198 445.649 56.7838V61.4998C446.297 61.4998 447.005 61.4758 447.773 61.4278C448.541 61.3798 449.249 61.3198 449.897 61.2478C450.569 61.1758 451.073 61.0918 451.409 60.9958C451.625 60.9718 451.745 61.0438 451.769 61.2118C451.817 61.5238 451.841 61.8358 451.841 62.1478C451.865 62.4598 451.889 62.7718 451.913 63.0838C451.913 63.3478 451.805 63.4798 451.589 63.4798C451.253 63.4318 450.737 63.4078 450.041 63.4078C449.345 63.3838 448.601 63.3718 447.809 63.3718C447.041 63.3718 446.321 63.3958 445.649 63.4438V71.1478C445.649 71.5078 445.625 71.7238 445.577 71.7958C445.553 71.8678 445.481 71.9158 445.361 71.9398L443.525 72.0478ZM456.894 69.4918C456.846 69.4918 456.786 69.4798 456.714 69.4558C456.642 69.4318 456.606 69.3598 456.606 69.2398C456.606 69.2158 456.606 69.1678 456.606 69.0958C456.606 68.9518 456.606 68.7118 456.606 68.3758C456.606 68.0398 456.594 67.5238 456.57 66.8278C456.546 66.1318 456.51 65.1598 456.462 63.9118C456.438 62.6638 456.39 61.0678 456.318 59.1238C456.294 58.4758 456.222 57.8278 456.102 57.1798C456.006 56.5078 455.886 56.0758 455.742 55.8838C455.646 55.7398 455.622 55.6078 455.67 55.4878C455.742 55.3678 455.862 55.3198 456.03 55.3438C456.414 55.3678 456.798 55.3918 457.182 55.4158C457.59 55.4158 457.986 55.4158 458.37 55.4158C459.498 55.4158 460.686 55.3918 461.934 55.3438C463.182 55.2958 464.31 55.2358 465.318 55.1638C466.326 55.0678 467.022 54.9958 467.406 54.9478C467.454 54.9478 467.502 54.9358 467.55 54.9118C467.718 54.8878 467.862 54.8878 467.982 54.9118L469.854 55.2718C470.022 55.3198 470.094 55.4638 470.07 55.7038C470.022 56.0398 469.974 56.4598 469.926 56.9638C469.878 57.4438 469.842 57.9118 469.818 58.3678C469.794 58.7998 469.77 59.1238 469.746 59.3398C469.674 60.8038 469.614 62.3638 469.566 64.0198C469.518 65.6518 469.47 67.1878 469.422 68.6278C469.422 68.9638 469.242 69.1198 468.882 69.0958C468.642 69.0718 468.21 69.0598 467.586 69.0598C466.962 69.0598 466.23 69.0718 465.39 69.0958C464.55 69.1198 463.686 69.1558 462.798 69.2038C461.91 69.2278 461.07 69.2518 460.278 69.2758C459.51 69.2998 458.874 69.3238 458.37 69.3478C458.13 69.3718 457.842 69.4078 457.506 69.4558C457.17 69.4798 456.966 69.4918 456.894 69.4918ZM458.694 67.4038C459.102 67.4038 459.702 67.4038 460.494 67.4038C461.286 67.3798 462.126 67.3558 463.014 67.3318C463.926 67.2838 464.778 67.2478 465.57 67.2238C466.362 67.1758 466.962 67.1278 467.37 67.0798L467.478 57.2518C467.478 57.0118 467.37 56.8918 467.154 56.8918L458.478 57.2158L458.694 67.4038ZM476.442 75.4318C476.346 75.4318 476.298 75.3718 476.298 75.2518V56.2438C476.298 55.3318 476.262 54.4918 476.19 53.7238C476.142 52.9558 476.058 52.4518 475.938 52.2118C475.89 52.0918 475.89 52.0078 475.938 51.9598C476.01 51.8878 476.094 51.8518 476.19 51.8518C476.526 51.8518 476.922 51.8518 477.378 51.8518C477.834 51.8518 478.218 51.8638 478.53 51.8878C478.65 51.8878 478.71 51.9838 478.71 52.1758C478.638 53.0638 478.59 53.8438 478.566 54.5158C478.566 55.1638 478.566 55.9198 478.566 56.7838V62.2198C479.238 62.2198 479.958 62.1958 480.726 62.1478C481.494 62.0998 482.202 62.0398 482.85 61.9678C483.522 61.8958 484.014 61.8118 484.326 61.7158C484.542 61.6918 484.662 61.7638 484.686 61.9318C484.734 62.2438 484.758 62.5558 484.758 62.8678C484.782 63.1798 484.806 63.4918 484.83 63.8038C484.83 64.0678 484.722 64.1998 484.506 64.1998C484.17 64.1518 483.654 64.1278 482.958 64.1278C482.286 64.1038 481.554 64.0918 480.762 64.0918C479.97 64.0918 479.238 64.1158 478.566 64.1638V74.5318C478.566 74.8918 478.542 75.1078 478.494 75.1798C478.47 75.2518 478.398 75.2998 478.278 75.3238L476.442 75.4318ZM464.85 83.8918C464.082 83.8918 463.494 83.6038 463.086 83.0278C462.702 82.4758 462.51 81.6838 462.51 80.6518V77.4478C462.51 76.6078 462.474 75.9118 462.402 75.3598C462.33 74.8078 462.258 74.4118 462.186 74.1718C462.114 73.9318 462.198 73.8118 462.438 73.8118C462.582 73.8118 462.822 73.8238 463.158 73.8478C463.518 73.8478 463.854 73.8598 464.166 73.8838C464.502 73.9078 464.682 73.9198 464.706 73.9198C464.826 73.9198 464.886 74.0398 464.886 74.2798C464.838 74.8318 464.802 75.3238 464.778 75.7558C464.778 76.1638 464.778 76.6798 464.778 77.3038V80.4358C464.778 81.0358 464.85 81.4558 464.994 81.6958C465.162 81.9118 465.426 82.0318 465.786 82.0558C466.458 82.0798 467.274 82.0918 468.234 82.0918C469.218 82.1158 470.238 82.1158 471.294 82.0918C472.374 82.0438 473.394 81.9958 474.354 81.9478C475.362 81.8998 476.406 81.8158 477.486 81.6958C478.566 81.5518 479.394 81.4078 479.97 81.2638C480.21 81.2158 480.366 81.2278 480.438 81.2998C480.51 81.3718 480.558 81.4678 480.582 81.5878L480.87 83.2798C480.87 83.3998 480.834 83.4958 480.762 83.5678C480.714 83.6398 480.522 83.6758 480.186 83.6758C477.81 83.6758 475.362 83.7118 472.842 83.7838C470.322 83.8558 467.658 83.8918 464.85 83.8918ZM488.047 78.4558C487.783 78.4798 487.603 78.4558 487.507 78.3838C487.411 78.3118 487.339 78.2038 487.291 78.0598C487.195 77.7958 487.111 77.5318 487.039 77.2678C486.967 76.9798 486.883 76.6318 486.787 76.2238C486.763 76.1758 486.775 76.1158 486.823 76.0438C486.871 75.9478 486.955 75.9118 487.075 75.9358C487.651 76.0078 488.347 76.0678 489.163 76.1158C490.003 76.1638 491.119 76.1998 492.511 76.2238C493.903 76.2238 495.703 76.2238 497.911 76.2238V69.2398C497.911 68.3038 497.875 67.4878 497.803 66.7918C497.731 66.0958 497.647 65.6278 497.551 65.3878C497.455 65.1478 497.539 65.0278 497.803 65.0278H499.963C500.107 65.0278 500.179 65.1238 500.179 65.3158C500.179 65.3398 500.179 65.3638 500.179 65.3878C500.131 66.0118 500.095 66.6118 500.071 67.1878C500.047 67.7638 500.035 68.3638 500.035 68.9878L499.927 76.1518C501.535 76.1038 503.143 76.0558 504.751 76.0078C506.359 75.9358 507.883 75.8758 509.323 75.8278C510.763 75.7558 512.047 75.6838 513.175 75.6118C514.303 75.5158 515.191 75.4078 515.839 75.2878C516.079 75.2398 516.235 75.2518 516.307 75.3238C516.379 75.3958 516.427 75.4918 516.451 75.6118L516.667 77.3398C516.667 77.4598 516.631 77.5678 516.559 77.6638C516.487 77.7598 516.295 77.8078 515.983 77.8078C515.167 77.7838 514.219 77.7718 513.139 77.7718C512.059 77.7718 510.907 77.7718 509.683 77.7718C506.683 77.7718 503.779 77.8078 500.971 77.8798C498.163 77.9278 495.643 77.9998 493.411 78.0958C491.179 78.1918 489.391 78.3118 488.047 78.4558ZM507.343 70.5358C507.271 70.5358 507.199 70.5238 507.127 70.4998C507.079 70.4518 507.079 70.3438 507.127 70.1758C507.271 69.6718 507.427 68.9878 507.595 68.1238C507.763 67.2598 507.931 66.3118 508.099 65.2798C508.267 64.2238 508.423 63.1798 508.567 62.1478C508.711 61.0918 508.831 60.1198 508.927 59.2318C509.023 58.3198 509.083 57.5878 509.107 57.0358C509.107 57.0118 509.107 56.9878 509.107 56.9638C509.107 56.8198 509.095 56.7358 509.071 56.7118C509.047 56.6638 508.939 56.6398 508.747 56.6398C508.339 56.6398 507.739 56.6518 506.947 56.6758C506.179 56.6998 505.327 56.7358 504.391 56.7838C503.455 56.8078 502.519 56.8438 501.583 56.8918C500.647 56.9398 499.795 56.9878 499.027 57.0358C498.283 57.0838 497.707 57.1198 497.299 57.1438C496.699 57.1918 495.955 57.2518 495.067 57.3238C494.203 57.3718 493.471 57.4198 492.871 57.4678C492.607 57.5158 492.439 57.5038 492.367 57.4318C492.295 57.3598 492.235 57.2278 492.187 57.0358C492.187 57.0118 492.187 56.9998 492.187 56.9998C492.091 56.7358 492.007 56.5198 491.935 56.3518C491.887 56.1598 491.815 55.8598 491.719 55.4518C491.695 55.4038 491.707 55.3438 491.755 55.2718C491.803 55.1998 491.887 55.1758 492.007 55.1998C492.679 55.2478 493.603 55.2838 494.779 55.3078C495.955 55.3078 497.251 55.2958 498.667 55.2718C500.083 55.2238 501.475 55.1638 502.843 55.0918C504.235 55.0198 505.483 54.9358 506.587 54.8398C507.691 54.7438 508.519 54.6358 509.071 54.5158C509.263 54.4678 509.455 54.4678 509.647 54.5158L511.663 54.9478C511.879 55.0198 511.963 55.1518 511.915 55.3438C511.891 55.5838 511.831 55.9318 511.735 56.3878C511.663 56.8438 511.591 57.3118 511.519 57.7918C511.447 58.2478 511.387 58.6198 511.339 58.9078C511.219 59.7238 511.075 60.6238 510.907 61.6078C510.763 62.5918 510.595 63.5878 510.403 64.5958C510.235 65.5798 510.067 66.4918 509.899 67.3318C509.731 68.1718 509.575 68.8678 509.431 69.4198C509.311 69.8518 509.191 70.1158 509.071 70.2118C508.975 70.3078 508.855 70.3798 508.711 70.4278C508.519 70.4758 508.291 70.5118 508.027 70.5358C507.787 70.5358 507.559 70.5358 507.343 70.5358ZM527.857 68.1958C526.489 68.2198 525.229 67.9558 524.077 67.4038C522.925 66.8278 522.001 66.0238 521.305 64.9918C520.609 63.9598 520.261 62.7598 520.261 61.3918C520.261 60.0718 520.609 58.8838 521.305 57.8278C522.001 56.7718 522.925 55.9318 524.077 55.3078C525.253 54.6598 526.537 54.3238 527.929 54.2998C529.321 54.2518 530.593 54.5038 531.745 55.0558C532.897 55.5838 533.821 56.3638 534.517 57.3958C535.213 58.4278 535.561 59.6638 535.561 61.1038C535.561 62.4238 535.201 63.6118 534.481 64.6678C533.785 65.7238 532.849 66.5638 531.673 67.1878C530.521 67.8118 529.249 68.1478 527.857 68.1958ZM536.101 85.1518C534.589 85.1518 533.245 84.8758 532.069 84.3238C530.917 83.7958 530.005 83.0638 529.333 82.1278C528.685 81.1918 528.361 80.1118 528.361 78.8878C528.361 77.7118 528.721 76.6438 529.441 75.6838C530.161 74.7238 531.121 73.9678 532.321 73.4158C533.521 72.8398 534.829 72.5518 536.245 72.5518C537.685 72.5518 538.993 72.7918 540.169 73.2718C541.369 73.7278 542.317 74.4238 543.013 75.3598C543.733 76.2718 544.069 77.3998 544.021 78.7438C543.997 79.9918 543.625 81.0958 542.905 82.0558C542.209 83.0158 541.261 83.7718 540.061 84.3238C538.885 84.8758 537.565 85.1518 536.101 85.1518ZM527.929 66.3598C529.417 66.3118 530.653 65.8198 531.637 64.8838C532.621 63.9478 533.113 62.6878 533.113 61.1038C533.113 59.3998 532.609 58.1398 531.601 57.3238C530.617 56.4838 529.369 56.0878 527.857 56.1358C526.369 56.2318 525.121 56.7358 524.113 57.6478C523.129 58.5598 522.637 59.7958 522.637 61.3558C522.637 62.9878 523.129 64.2478 524.113 65.1358C525.121 65.9998 526.393 66.4078 527.929 66.3598ZM536.173 83.2798C537.685 83.2318 538.957 82.8238 539.989 82.0558C541.045 81.2878 541.597 80.1718 541.645 78.7078C541.693 77.7478 541.465 76.9438 540.961 76.2958C540.481 75.6478 539.821 75.1558 538.981 74.8198C538.165 74.4598 537.241 74.2798 536.209 74.2798C535.201 74.3038 534.277 74.5198 533.437 74.9278C532.597 75.3118 531.925 75.8398 531.421 76.5118C530.917 77.1838 530.665 77.9638 530.665 78.8518C530.665 79.7638 530.905 80.5558 531.385 81.2278C531.889 81.8758 532.561 82.3798 533.401 82.7398C534.241 83.0998 535.165 83.2798 536.173 83.2798ZM541.573 72.0478C541.477 72.0478 541.429 71.9878 541.429 71.8678V56.2438C541.429 55.3318 541.393 54.4918 541.321 53.7238C541.273 52.9558 541.189 52.4518 541.069 52.2118C541.021 52.0918 541.021 52.0078 541.069 51.9598C541.141 51.8878 541.225 51.8518 541.321 51.8518C541.585 51.8518 541.945 51.8518 542.401 51.8518C542.857 51.8518 543.277 51.8638 543.661 51.8878C543.781 51.8878 543.841 51.9838 543.841 52.1758C543.769 53.0638 543.721 53.8438 543.697 54.5158C543.697 55.1638 543.697 55.9198 543.697 56.7838V57.6478C544.345 57.6478 545.017 57.6118 545.713 57.5398C546.409 57.4678 547.057 57.3838 547.657 57.2878C548.257 57.1918 548.713 57.1198 549.025 57.0718C549.241 57.0478 549.361 57.1198 549.385 57.2878C549.481 57.8398 549.529 58.4038 549.529 58.9798C549.529 59.2438 549.421 59.3758 549.205 59.3758C548.869 59.3758 548.389 59.3758 547.765 59.3758C547.165 59.3758 546.505 59.3878 545.785 59.4118C545.065 59.4118 544.369 59.4118 543.697 59.4118V64.4518C544.345 64.4518 545.017 64.4398 545.713 64.4158C546.409 64.3678 547.057 64.3078 547.657 64.2358C548.281 64.1638 548.749 64.1038 549.061 64.0558C549.277 64.0318 549.397 64.1038 549.421 64.2718C549.469 64.5838 549.505 64.8718 549.529 65.1358C549.553 65.3998 549.577 65.6878 549.601 65.9998C549.601 66.2638 549.493 66.3958 549.277 66.3958C548.941 66.3958 548.449 66.3838 547.801 66.3598C547.177 66.3358 546.505 66.3238 545.785 66.3238C545.065 66.2998 544.369 66.2878 543.697 66.2878V71.1478C543.697 71.5078 543.673 71.7238 543.625 71.7958C543.601 71.8678 543.529 71.9158 543.409 71.9398L541.573 72.0478ZM561.594 71.2918C560.13 71.3158 558.786 71.0158 557.562 70.3918C556.338 69.7678 555.354 68.8798 554.61 67.7278C553.89 66.5518 553.53 65.2078 553.53 63.6958C553.53 62.2318 553.89 60.9238 554.61 59.7718C555.33 58.5958 556.302 57.6598 557.526 56.9638C558.774 56.2438 560.142 55.8718 561.63 55.8478C563.118 55.7998 564.462 56.0638 565.662 56.6398C566.886 57.2158 567.858 58.0678 568.578 59.1958C569.298 60.3238 569.658 61.7158 569.658 63.3718C569.658 64.8598 569.298 66.1918 568.578 67.3678C567.858 68.5438 566.886 69.4798 565.662 70.1758C564.438 70.8718 563.082 71.2438 561.594 71.2918ZM561.63 69.2398C562.686 69.1918 563.646 68.9278 564.51 68.4478C565.374 67.9438 566.058 67.2598 566.562 66.3958C567.09 65.5078 567.354 64.5118 567.354 63.4078C567.354 62.1838 567.09 61.1398 566.562 60.2758C566.058 59.4118 565.374 58.7638 564.51 58.3318C563.646 57.8758 562.686 57.6718 561.63 57.7198C560.574 57.7438 559.602 58.0198 558.714 58.5478C557.826 59.0518 557.118 59.7478 556.59 60.6358C556.062 61.4998 555.798 62.5078 555.798 63.6598C555.798 64.8598 556.062 65.8798 556.59 66.7198C557.142 67.5598 557.862 68.1958 558.75 68.6278C559.638 69.0598 560.598 69.2638 561.63 69.2398ZM575.742 82.4518C575.646 82.4518 575.598 82.3918 575.598 82.2718V56.2798C575.598 55.3678 575.562 54.5278 575.49 53.7598C575.442 52.9678 575.358 52.4518 575.238 52.2118C575.19 52.0918 575.19 52.0078 575.238 51.9598C575.31 51.8878 575.394 51.8518 575.49 51.8518C575.634 51.8518 575.874 51.8638 576.21 51.8878C576.57 51.8878 576.918 51.8998 577.254 51.9238C577.59 51.9238 577.782 51.9238 577.83 51.9238C577.95 51.9238 578.01 52.0198 578.01 52.2118C577.938 53.0998 577.89 53.8798 577.866 54.5518C577.866 55.1998 577.866 55.9558 577.866 56.8198V81.5518C577.866 81.9118 577.842 82.1278 577.794 82.1998C577.77 82.2718 577.698 82.3198 577.578 82.3438L575.742 82.4518Z" fill="black"/>
<path d="M363 371H1578" stroke="#CECECE" stroke-width="2"/>
<path d="M369.342 429.72C368.766 429.72 368.318 429.544 367.998 429.192C367.678 428.84 367.518 428.352 367.518 427.728C367.518 427.088 367.682 426.596 368.01 426.252C368.346 425.9 368.806 425.724 369.39 425.724C369.582 425.724 369.766 425.744 369.942 425.784C370.126 425.816 370.306 425.872 370.482 425.952L370.278 426.552C370.126 426.488 369.974 426.44 369.822 426.408C369.678 426.376 369.53 426.36 369.378 426.36C369.026 426.36 368.758 426.476 368.574 426.708C368.398 426.932 368.31 427.272 368.31 427.728C368.31 428.16 368.398 428.496 368.574 428.736C368.75 428.968 369.006 429.084 369.342 429.084C369.502 429.084 369.67 429.064 369.846 429.024C370.03 428.976 370.222 428.912 370.422 428.832V429.48C370.23 429.56 370.046 429.62 369.87 429.66C369.694 429.7 369.518 429.72 369.342 429.72ZM369.018 432.66C368.338 432.66 367.698 432.532 367.098 432.276C366.498 432.02 365.97 431.668 365.514 431.22C365.066 430.764 364.714 430.236 364.458 429.636C364.202 429.036 364.074 428.396 364.074 427.716C364.074 427.028 364.202 426.388 364.458 425.796C364.714 425.196 365.066 424.672 365.514 424.224C365.97 423.768 366.498 423.412 367.098 423.156C367.698 422.9 368.338 422.772 369.018 422.772C369.706 422.772 370.346 422.9 370.938 423.156C371.538 423.412 372.062 423.768 372.51 424.224C372.966 424.672 373.322 425.196 373.578 425.796C373.834 426.388 373.962 427.028 373.962 427.716C373.962 428.396 373.834 429.036 373.578 429.636C373.322 430.236 372.966 430.764 372.51 431.22C372.062 431.668 371.538 432.02 370.938 432.276C370.346 432.532 369.706 432.66 369.018 432.66ZM369.018 431.988C369.61 431.988 370.162 431.88 370.674 431.664C371.194 431.44 371.65 431.132 372.042 430.74C372.434 430.348 372.738 429.896 372.954 429.384C373.178 428.864 373.29 428.308 373.29 427.716C373.29 427.124 373.178 426.572 372.954 426.06C372.738 425.54 372.434 425.084 372.042 424.692C371.65 424.3 371.194 423.996 370.674 423.78C370.162 423.556 369.61 423.444 369.018 423.444C368.426 423.444 367.87 423.556 367.35 423.78C366.838 423.996 366.386 424.3 365.994 424.692C365.602 425.084 365.294 425.54 365.07 426.06C364.854 426.572 364.746 427.124 364.746 427.716C364.746 428.308 364.854 428.864 365.07 429.384C365.294 429.896 365.602 430.348 365.994 430.74C366.386 431.132 366.838 431.44 367.35 431.664C367.87 431.88 368.426 431.988 369.018 431.988ZM378.826 432L378.814 431.227L381.709 428.18C382.717 427.113 383.197 426.539 383.197 425.754C383.197 424.887 382.459 424.312 381.51 424.312C380.502 424.312 379.857 424.957 379.857 425.906H378.861C378.85 424.406 380.01 423.398 381.545 423.398C383.08 423.398 384.182 424.43 384.182 425.754C384.182 426.703 383.736 427.441 382.236 428.988L380.291 430.992V431.062H384.334V432H378.826ZM388.646 432.117C386.76 432.117 385.682 430.535 385.682 427.758C385.682 425.004 386.783 423.398 388.646 423.398C390.51 423.398 391.611 425.004 391.611 427.758C391.611 430.535 390.521 432.117 388.646 432.117ZM388.646 431.18C389.865 431.18 390.58 429.949 390.58 427.758C390.58 425.566 389.865 424.312 388.646 424.312C387.428 424.312 386.701 425.566 386.701 427.758C386.701 429.949 387.416 431.18 388.646 431.18ZM393.018 432L393.006 431.227L395.9 428.18C396.908 427.113 397.389 426.539 397.389 425.754C397.389 424.887 396.65 424.312 395.701 424.312C394.693 424.312 394.049 424.957 394.049 425.906H393.053C393.041 424.406 394.201 423.398 395.736 423.398C397.271 423.398 398.373 424.43 398.373 425.754C398.373 426.703 397.928 427.441 396.428 428.988L394.482 430.992V431.062H398.525V432H393.018ZM399.662 430.266V429.398L403.482 423.516H404.783V429.34H405.967V430.266H404.783V432H403.775V430.266H399.662ZM400.799 429.34H403.775V424.852H403.67L400.799 429.27V429.34ZM407.701 432.07C407.291 432.07 406.939 431.73 406.951 431.309C406.939 430.898 407.291 430.559 407.701 430.559C408.111 430.559 408.451 430.898 408.451 431.309C408.451 431.73 408.111 432.07 407.701 432.07ZM420.779 422.531V425.133H422.35V425.906H420.779V428.742H419.865V422.531H420.779ZM417.439 428.871C419.525 428.871 420.873 429.656 420.873 430.91C420.873 432.176 419.525 432.938 417.439 432.949C415.33 432.938 413.982 432.176 413.982 430.91C413.982 429.656 415.33 428.871 417.439 428.871ZM417.439 429.633C415.881 429.633 414.873 430.113 414.885 430.91C414.873 431.695 415.881 432.188 417.439 432.199C418.963 432.188 419.982 431.695 419.982 430.91C419.982 430.113 418.963 429.633 417.439 429.633ZM414.064 423.176V427.02C415.547 427.014 417.076 426.908 418.764 426.562L418.881 427.312C417.111 427.676 415.541 427.793 413.971 427.793H413.139V423.176H414.064ZM428.268 423.48V428.273H423.451V423.48H428.268ZM424.354 424.23V427.535H427.377V424.23H424.354ZM431.15 422.531V425.707H432.721V426.48H431.15V430.172H430.236V422.531H431.15ZM431.631 431.953V432.727H424.635V429.445H425.537V431.953H431.631ZM441.732 423.586V424.629C441.721 425.906 441.721 427.336 441.346 429.434L440.408 429.328C440.807 427.336 440.807 425.871 440.807 424.629V424.348H434.385V423.586H441.732ZM442.869 430.711V431.473H433.377V430.711H437.104V426.984H438.006V430.711H442.869ZM453.439 424.113V424.875H451.893V426.328H453.439V427.102H451.893V428.719H450.979V422.531H451.893V424.113H453.439ZM446.678 423.164C448.26 423.152 449.408 424.16 449.42 425.613C449.408 427.066 448.26 428.051 446.678 428.062C445.096 428.051 443.936 427.066 443.947 425.613C443.936 424.16 445.096 423.152 446.678 423.164ZM446.678 423.949C445.623 423.938 444.838 424.629 444.85 425.613C444.838 426.598 445.623 427.277 446.678 427.289C447.744 427.277 448.518 426.598 448.518 425.613C448.518 424.629 447.744 423.938 446.678 423.949ZM448.553 429.035C450.674 429.047 451.986 429.75 451.986 430.992C451.986 432.211 450.674 432.926 448.553 432.926C446.42 432.926 445.096 432.211 445.096 430.992C445.096 429.75 446.42 429.047 448.553 429.035ZM448.553 429.785C446.982 429.785 446.01 430.23 446.021 430.992C446.01 431.742 446.982 432.188 448.553 432.188C450.135 432.188 451.096 431.742 451.096 430.992C451.096 430.23 450.135 429.785 448.553 429.785ZM462.709 422.531V432.973H461.783V422.531H462.709ZM457.166 423.34C458.713 423.352 459.826 424.758 459.826 426.973C459.826 429.188 458.713 430.594 457.166 430.594C455.607 430.594 454.506 429.188 454.506 426.973C454.506 424.758 455.607 423.352 457.166 423.34ZM457.166 424.16C456.123 424.172 455.396 425.273 455.396 426.973C455.396 428.672 456.123 429.773 457.166 429.773C458.209 429.773 458.936 428.672 458.936 426.973C458.936 425.273 458.209 424.172 457.166 424.16ZM468.393 432H467.291L470.396 423.516H471.51L474.615 432H473.502L472.658 429.609H469.248L468.393 432ZM469.564 428.684H472.33L470.982 424.887H470.912L469.564 428.684ZM476.643 423.516V432H475.635V423.516H476.643ZM479.256 423.516V432H478.248V423.516H479.256ZM483.873 432V425.637H484.846V426.609H484.916C485.15 425.965 485.807 425.531 486.557 425.531C486.709 425.531 486.967 425.543 487.084 425.555V426.574C487.014 426.551 486.732 426.504 486.475 426.504C485.561 426.504 484.881 427.137 484.881 427.992V432H483.873ZM488.068 432V425.637H489.076V432H488.068ZM488.572 424.582C488.186 424.582 487.869 424.289 487.869 423.914C487.869 423.539 488.186 423.246 488.572 423.246C488.959 423.246 489.287 423.539 489.287 423.914C489.287 424.289 488.959 424.582 488.572 424.582ZM493.26 434.52C491.725 434.52 490.682 433.852 490.564 432.668H491.619C491.76 433.312 492.357 433.641 493.26 433.641C494.35 433.641 495.018 433.172 495.018 432.117V430.828H494.936C494.725 431.18 494.314 431.906 493.084 431.906C491.537 431.906 490.377 430.734 490.377 428.73C490.377 426.773 491.502 425.555 493.096 425.555C494.326 425.555 494.725 426.305 494.959 426.645H495.041V425.637H496.025V432.176C496.025 433.816 494.807 434.52 493.26 434.52ZM493.225 431.004C494.385 431.004 495.041 430.172 495.041 428.766C495.041 427.406 494.408 426.457 493.225 426.457C492.006 426.457 491.396 427.488 491.396 428.766C491.396 430.09 492.018 431.004 493.225 431.004ZM498.639 428.18V432H497.631V423.516H498.639V426.633H498.721C499.014 425.977 499.588 425.555 500.596 425.555C501.896 425.555 502.764 426.328 502.764 427.957V432H501.756V428.027C501.756 427.031 501.205 426.457 500.291 426.457C499.342 426.457 498.639 427.078 498.639 428.18ZM507.158 425.637V426.48H505.822V430.172C505.822 430.992 506.221 431.121 506.654 431.121C506.842 431.121 507.1 431.109 507.252 431.098V432.035C507.1 432.059 506.842 432.082 506.549 432.082C505.705 432.082 504.803 431.555 504.803 430.43V426.48H503.842V425.637H504.803V424.113H505.822V425.637H507.158ZM511.881 427.289C511.74 426.762 511.342 426.41 510.592 426.41C509.807 426.41 509.244 426.832 509.244 427.371C509.244 427.793 509.584 428.086 510.334 428.262L511.283 428.496C512.42 428.766 512.982 429.328 512.982 430.219C512.982 431.32 512.08 432.129 510.486 432.129C509.057 432.129 508.201 431.496 508.037 430.336H509.092C509.209 430.957 509.666 431.25 510.463 431.25C511.365 431.25 511.939 430.875 511.939 430.277C511.939 429.832 511.623 429.527 510.896 429.363L509.936 429.141C508.822 428.883 508.236 428.273 508.236 427.43C508.236 426.34 509.186 425.555 510.592 425.555C511.904 425.555 512.736 426.258 512.865 427.289H511.881ZM517.307 432V425.637H518.279V426.609H518.35C518.584 425.965 519.24 425.531 519.99 425.531C520.143 425.531 520.4 425.543 520.518 425.555V426.574C520.447 426.551 520.166 426.504 519.908 426.504C518.994 426.504 518.314 427.137 518.314 427.992V432H517.307ZM523.963 432.129C522.123 432.129 520.986 430.828 520.986 428.871C520.986 426.914 522.135 425.555 523.869 425.555C525.205 425.555 526.611 426.375 526.611 428.73V429.152H521.994C522.041 430.5 522.826 431.238 523.963 431.238C524.725 431.238 525.205 430.91 525.439 430.512H526.518C526.213 431.473 525.275 432.129 523.963 432.129ZM522.006 428.297H525.592C525.592 427.23 524.912 426.445 523.869 426.445C522.768 426.445 522.064 427.312 522.006 428.297ZM531.463 427.289C531.322 426.762 530.924 426.41 530.174 426.41C529.389 426.41 528.826 426.832 528.826 427.371C528.826 427.793 529.166 428.086 529.916 428.262L530.865 428.496C532.002 428.766 532.564 429.328 532.564 430.219C532.564 431.32 531.662 432.129 530.068 432.129C528.639 432.129 527.783 431.496 527.619 430.336H528.674C528.791 430.957 529.248 431.25 530.045 431.25C530.947 431.25 531.521 430.875 531.521 430.277C531.521 429.832 531.205 429.527 530.479 429.363L529.518 429.141C528.404 428.883 527.818 428.273 527.818 427.43C527.818 426.34 528.768 425.555 530.174 425.555C531.486 425.555 532.318 426.258 532.447 427.289H531.463ZM536.549 432.129C534.709 432.129 533.572 430.828 533.572 428.871C533.572 426.914 534.721 425.555 536.455 425.555C537.791 425.555 539.197 426.375 539.197 428.73V429.152H534.58C534.627 430.5 535.412 431.238 536.549 431.238C537.311 431.238 537.791 430.91 538.025 430.512H539.104C538.799 431.473 537.861 432.129 536.549 432.129ZM534.592 428.297H538.178C538.178 427.23 537.498 426.445 536.455 426.445C535.354 426.445 534.65 427.312 534.592 428.297ZM540.51 432V425.637H541.482V426.609H541.553C541.787 425.965 542.443 425.531 543.193 425.531C543.346 425.531 543.604 425.543 543.721 425.555V426.574C543.65 426.551 543.369 426.504 543.111 426.504C542.197 426.504 541.518 427.137 541.518 427.992V432H540.51ZM550.143 425.637L547.787 432H546.744L544.4 425.637H545.502L547.236 430.688H547.307L549.041 425.637H550.143ZM553.693 432.129C551.854 432.129 550.717 430.828 550.717 428.871C550.717 426.914 551.865 425.555 553.6 425.555C554.936 425.555 556.342 426.375 556.342 428.73V429.152H551.725C551.771 430.5 552.557 431.238 553.693 431.238C554.455 431.238 554.936 430.91 555.17 430.512H556.248C555.943 431.473 555.006 432.129 553.693 432.129ZM551.736 428.297H555.322C555.322 427.23 554.643 426.445 553.6 426.445C552.498 426.445 551.795 427.312 551.736 428.297ZM560.057 432.129C558.475 432.129 557.35 430.852 557.35 428.836C557.35 426.82 558.475 425.555 560.068 425.555C561.299 425.555 561.697 426.305 561.908 426.645H561.979V423.516H562.998V432H562.014V431.027H561.908C561.686 431.379 561.275 432.129 560.057 432.129ZM560.197 431.227C561.357 431.227 562.014 430.242 562.014 428.812C562.014 427.406 561.381 426.457 560.197 426.457C558.979 426.457 558.369 427.488 558.369 428.812C558.369 430.172 558.99 431.227 560.197 431.227ZM565.459 432.07C565.049 432.07 564.697 431.73 564.709 431.309C564.697 430.898 565.049 430.559 565.459 430.559C565.869 430.559 566.209 430.898 566.209 431.309C566.209 431.73 565.869 432.07 565.459 432.07Z" fill="#757575"/>
</g>
<defs>
<clipPath id="clip0_55_75">
<rect width="1920" height="449" fill="white"/>
</clipPath>
</defs>
</svg>
