<svg width="46" height="43" viewBox="0 0 46 43" fill="none" xmlns="http://www.w3.org/2000/svg">
<path fill-rule="evenodd" clip-rule="evenodd" d="M5.19657 0.9567C4.06808 -0.256426 2.16983 -0.325038 0.9567 0.803452C-0.256426 1.93194 -0.325038 3.8302 0.803452 5.04332L20.0713 25.7562C21.6534 27.457 24.3466 27.457 25.9288 25.7562L45.1966 5.04332C46.3251 3.8302 46.2565 1.93194 45.0433 0.803452C43.8302 -0.325038 41.9319 -0.256426 40.8035 0.9567L23 20.0954L5.19657 0.9567ZM5.19657 15.9567C4.06808 14.7436 2.16983 14.675 0.9567 15.8035C-0.256426 16.9319 -0.325038 18.8302 0.803452 20.0433L20.0713 40.7562C21.6534 42.457 24.3466 42.457 25.9288 40.7562L45.1966 20.0433C46.3251 18.8302 46.2565 16.9319 45.0433 15.8035C43.8302 14.675 41.9319 14.7436 40.8035 15.9567L23 35.0954L5.19657 15.9567Z" fill="url(#paint0_linear_2497_8038)"/>
<defs>
<linearGradient id="paint0_linear_2497_8038" x1="23" y1="0" x2="23" y2="42.0319" gradientUnits="userSpaceOnUse">
<stop stop-color="#807F7C" stop-opacity="0.15"/>
<stop offset="1" stop-color="#D5C9BD" stop-opacity="0.77"/>
</linearGradient>
</defs>
</svg>
