<svg width="26" height="26" viewBox="0 0 26 26" fill="none" xmlns="http://www.w3.org/2000/svg">
<path d="M23.1677 17.8004C22.6816 17.0866 22.953 16.0548 22.832 14.9155C22.7075 13.0567 21.9172 11.2559 20.384 9.81555L15.1621 4.90927C15.1621 4.90927 14.1333 3.94173 13.1751 4.98207C12.2183 6.0217 13.2478 6.98925 13.2478 6.98925L15.4538 9.06286L17.366 10.8594C17.366 10.8594 16.8869 11.3796 14.7705 9.39079L7.62235 2.6724C7.62235 2.6724 6.5921 1.70556 5.63459 2.7459C4.67778 3.78554 5.70663 4.75308 5.70663 4.75308L12.4659 11.1061C12.4512 11.0919 11.9546 11.5952 11.9455 11.5867L4.71345 4.78983C4.71345 4.78983 3.6839 3.82229 2.72639 4.86263C1.76888 5.90297 2.79843 6.8698 2.79843 6.8698L10.0312 13.6681C10.0396 13.6765 9.57374 14.208 9.58773 14.2214L3.34888 8.35681C3.34888 8.35681 2.31933 7.38927 1.36182 8.42961C0.404308 9.46995 1.43386 10.4375 1.43386 10.4375L8.06719 16.6711C8.12804 16.7283 7.71747 17.3128 7.79371 17.3842L3.01385 12.892C3.01385 12.892 1.9843 11.9245 1.02679 12.9655C0.0692841 14.0059 1.09883 14.9734 1.09883 14.9734L8.8953 22.2975C10.1969 23.5209 11.5335 24.14 13.145 24.3669C13.473 24.4128 13.8927 24.4128 14.0647 24.4347C14.6082 24.504 15.0852 24.6991 15.7238 25.0948C16.5456 25.6037 17.7787 25.8157 18.4872 25.0503L20.903 22.4389L23.1335 20.0274C23.8413 19.2627 23.7147 18.6026 23.1677 17.8004Z" fill="#EF9645"/>
<path d="M1.94198 25.3493C1.80352 25.3497 1.66809 25.3084 1.55288 25.2308C1.43767 25.1532 1.34788 25.0427 1.29489 24.9135C1.24191 24.7842 1.22813 24.642 1.2553 24.5048C1.28247 24.3676 1.34936 24.2416 1.44749 24.1429L3.93114 21.6346C3.99608 21.569 4.07317 21.517 4.15801 21.4815C4.24286 21.446 4.3338 21.4277 4.42563 21.4277C4.51747 21.4277 4.6084 21.446 4.69325 21.4815C4.77809 21.517 4.85519 21.569 4.92012 21.6346C4.98506 21.7003 5.03657 21.7782 5.07172 21.8639C5.10686 21.9496 5.12495 22.0415 5.12495 22.1343C5.12495 22.2271 5.10686 22.319 5.07172 22.4047C5.03657 22.4905 4.98506 22.5684 4.92012 22.634L2.43647 25.143C2.37158 25.2086 2.29448 25.2606 2.20961 25.296C2.12475 25.3315 2.0338 25.3496 1.94198 25.3493ZM6.66029 26.001C6.54855 26.0011 6.4384 25.9742 6.33908 25.9225C6.23976 25.8707 6.15418 25.7957 6.0895 25.7036C6.02482 25.6115 5.98295 25.5051 5.96738 25.3933C5.95181 25.2815 5.96301 25.1675 6.00003 25.061L6.67917 23.1012C6.70741 23.011 6.75327 22.9274 6.81405 22.8554C6.87484 22.7835 6.9493 22.7246 7.03302 22.6823C7.11675 22.6399 7.20803 22.615 7.30146 22.609C7.3949 22.6029 7.48858 22.6159 7.57695 22.6472C7.66532 22.6784 7.74659 22.7272 7.81594 22.7908C7.88528 22.8544 7.9413 22.9313 7.98065 23.0172C8.02001 23.103 8.04191 23.196 8.04506 23.2905C8.04821 23.3851 8.03254 23.4793 7.99898 23.5676L7.31984 25.5274C7.27201 25.6657 7.18286 25.7855 7.0647 25.8704C6.94655 25.9552 6.80523 26.0008 6.66029 26.001ZM1.29781 20.5823C1.1333 20.5814 0.974368 20.5219 0.848892 20.4144C0.723416 20.3069 0.639415 20.1582 0.611625 19.9944C0.583835 19.8305 0.614033 19.662 0.696919 19.5184C0.779806 19.3748 0.910087 19.2653 1.0649 19.2091L2.80996 18.5864C2.89658 18.5555 2.98837 18.5422 3.0801 18.5471C3.17182 18.552 3.26169 18.5752 3.34456 18.6152C3.42743 18.6552 3.50169 18.7114 3.56309 18.7804C3.6245 18.8494 3.67184 18.93 3.70243 19.0175C3.73301 19.1051 3.74624 19.1978 3.74135 19.2905C3.73646 19.3832 3.71356 19.474 3.67394 19.5577C3.63432 19.6415 3.57877 19.7165 3.51045 19.7786C3.44214 19.8406 3.36239 19.8885 3.27578 19.9194L1.53072 20.542C1.4559 20.5687 1.37715 20.5823 1.29781 20.5823ZM21.9028 5.19841C21.7644 5.19852 21.629 5.1571 21.5138 5.07941C21.3987 5.00171 21.309 4.89123 21.256 4.76196C21.2031 4.63269 21.1893 4.49045 21.2164 4.35326C21.2435 4.21606 21.3103 4.09008 21.4083 3.99128L23.8927 1.4823C24.0239 1.34978 24.2019 1.27537 24.3874 1.27544C24.5729 1.2755 24.7509 1.35004 24.882 1.48266C25.0132 1.61527 25.0868 1.7951 25.0867 1.98258C25.0867 2.17006 25.0129 2.34984 24.8817 2.48236L22.3973 4.99133C22.3325 5.05718 22.2555 5.1094 22.1706 5.14494C22.0857 5.18049 21.9947 5.19866 21.9028 5.19841ZM18.9904 3.99905C18.8786 3.99909 18.7685 3.97207 18.6692 3.92024C18.5699 3.86841 18.4843 3.79328 18.4197 3.70116C18.355 3.60904 18.3131 3.5026 18.2976 3.39076C18.282 3.27892 18.2932 3.16494 18.3302 3.05836L19.0086 1.09854C19.0698 0.921592 19.1981 0.776465 19.3652 0.695085C19.5323 0.613704 19.7246 0.602735 19.8997 0.664591C20.0748 0.726447 20.2184 0.856061 20.2989 1.02492C20.3795 1.19378 20.3903 1.38805 20.3291 1.56499L19.6507 3.52482C19.6029 3.66332 19.5137 3.78338 19.3954 3.86835C19.2771 3.95333 19.1356 3.999 18.9904 3.99905ZM23.287 8.07984C23.1225 8.07892 22.9635 8.01949 22.838 7.91198C22.7126 7.80447 22.6286 7.65574 22.6008 7.4919C22.573 7.32805 22.6032 7.15955 22.6861 7.01595C22.769 6.87236 22.8992 6.76284 23.0541 6.70662L24.7984 6.08397C24.9733 6.02155 25.1656 6.03191 25.333 6.11276C25.5004 6.19361 25.6291 6.33833 25.6909 6.51509C25.7527 6.69185 25.7424 6.88616 25.6624 7.05529C25.5824 7.22441 25.4392 7.35449 25.2642 7.41691L23.5199 8.03956C23.4451 8.06622 23.3663 8.07984 23.287 8.07984Z" fill="#FA743E"/>
<path d="M25.3276 17.4315C24.8653 16.7021 25.171 15.6794 25.0884 14.5366C25.0255 12.675 24.296 10.8481 22.8118 9.35613L17.7564 4.27528C17.7564 4.27528 16.7604 3.27381 15.7679 4.28093C14.7768 5.28735 15.7735 6.28953 15.7735 6.28953L17.9095 8.43735L19.7602 10.2975C19.7602 10.2975 19.2636 10.8007 17.215 8.74125C15.165 6.68107 10.2949 1.78327 10.2949 1.78327C10.2949 1.78327 9.29825 0.781802 8.30647 1.78892C7.31468 2.79534 8.31136 3.79681 8.31136 3.79681L14.8552 10.3767C14.8412 10.3625 14.3278 10.8481 14.3187 10.8389L7.31748 3.79964C7.31748 3.79964 6.3208 2.79746 5.32902 3.80458C4.33794 4.81171 5.33392 5.81317 5.33392 5.81317L12.3358 12.8538C12.3442 12.8623 11.8602 13.3776 11.8742 13.3917L5.83471 7.31856C5.83471 7.31856 4.83803 6.31709 3.84625 7.32421C2.85446 8.33133 3.85114 9.33351 3.85114 9.33351L10.2725 15.7897C10.3313 15.8484 9.90185 16.4194 9.97529 16.4936L5.34791 11.8411C5.34791 11.8411 4.35123 10.8396 3.35945 11.8467C2.36767 12.8538 3.36434 13.856 3.36434 13.856L10.9111 21.4409C12.1715 22.7081 13.4864 23.3717 15.0895 23.6537C15.4161 23.711 15.8358 23.7251 16.0064 23.7527C16.5471 23.8403 17.0171 24.0516 17.6431 24.4693C18.4474 25.0058 19.6728 25.2595 20.4065 24.5188L22.9083 21.9915L25.2178 19.6578C25.9515 18.9157 25.8473 18.2513 25.3276 17.4315Z" fill="#FFDB5E"/>
</svg>
