<svg width="24" height="25" viewBox="0 0 24 25" fill="none" xmlns="http://www.w3.org/2000/svg">
<path d="M21.8783 12.9425C20.4814 11.6961 17.4158 10.7411 15.0851 10.3527C17.4158 9.96352 20.4814 9.00852 21.8783 7.76352C23.2226 6.56572 23.856 5.77529 23.3073 4.57884C22.9295 3.75671 21.4024 3.67982 20.5268 2.89883C19.6511 2.11784 19.5637 0.756158 18.6406 0.420291C17.299 -0.0693473 16.414 0.497176 15.0718 1.69429C13.6742 2.93997 12.6036 5.67277 12.1664 7.7507C11.7306 5.6721 10.6594 2.9393 9.26241 1.69362C7.91753 0.495827 7.0325 -0.0693473 5.69028 0.420291C4.76722 0.757507 4.68112 2.11851 3.80611 2.89883C2.93109 3.67915 1.40199 3.75806 1.02556 4.58087C0.476257 5.77731 1.11166 6.56572 2.45388 7.76284C3.85149 9.00852 6.9177 9.96352 9.24907 10.3527C6.9177 10.7418 3.85149 11.6968 2.45388 12.9425C1.11032 14.1396 0.476257 14.9287 1.02623 16.1265C1.40333 16.9486 2.93109 17.0262 3.80677 17.8058C4.68179 18.5868 4.77055 19.9492 5.69362 20.285C7.03451 20.7753 7.9202 20.2075 9.26308 19.011C10.365 18.0284 11.2634 16.1191 11.8087 14.3352C11.6338 17.3937 12.1611 21.4781 14.3797 23.9539C15.2767 24.9541 15.9862 24.3256 16.2632 24.0801C16.5408 23.8339 17.3344 23.1264 16.3873 22.1768C13.7776 19.558 12.8726 16.8373 12.631 14.6636C13.1829 16.3484 14.0373 18.0877 15.0718 19.011C16.4147 20.2082 17.3004 20.7747 18.6433 20.285C19.5657 19.9478 19.6524 18.5855 20.5268 17.8058C21.4024 17.0248 22.9309 16.9473 23.3073 16.1238C23.856 14.9273 23.2206 14.1383 21.8783 12.9425Z" fill="#77B255"/>
</svg>
