<svg width="27" height="24" viewBox="0 0 27 24" fill="none" xmlns="http://www.w3.org/2000/svg">
<path fill-rule="evenodd" clip-rule="evenodd" d="M12.191 2.18182C17.2184 2.18182 21.3994 6.5176 21.3994 12C21.3994 17.4824 17.2184 21.8182 12.191 21.8182C7.1636 21.8182 2.98258 17.4824 2.98258 12C2.98258 6.5176 7.1636 2.18182 12.191 2.18182ZM23.5812 12C23.5812 5.43255 18.5399 0 12.191 0C5.84208 0 0.800762 5.43255 0.800762 12C0.800762 18.5674 5.84208 24 12.191 24C18.5399 24 23.5812 18.5674 23.5812 12Z" fill="#C90000"/>
<path fill-rule="evenodd" clip-rule="evenodd" d="M7.30664 11.9858C7.30664 9.04621 9.54407 6.53125 12.4631 6.53125H12.4651C13.6048 6.53341 14.7084 6.92861 15.5921 7.64965C16.0589 8.03055 16.1285 8.71776 15.7476 9.18457C15.3667 9.65138 14.6795 9.72102 14.2127 9.34012C13.7166 8.93533 13.0987 8.71451 12.462 8.71307C10.891 8.71367 9.48846 10.104 9.48846 11.9858C9.48846 13.868 10.8916 15.2585 12.4631 15.2585C13.1129 15.2585 13.7191 15.0291 14.218 14.6272C14.6872 14.2492 15.3739 14.3231 15.7519 14.7923C16.1299 15.2615 16.056 15.9482 15.5868 16.3262C14.7262 17.0196 13.6433 17.4403 12.4631 17.4403C9.54407 17.4403 7.30664 14.9254 7.30664 11.9858Z" fill="#C90000"/>
<path fill-rule="evenodd" clip-rule="evenodd" d="M19.9626 3.83512C17.2613 2.45514 13.9499 2.18182 11.6504 2.18182V0C14.0484 0 17.784 0.272129 20.9552 1.89215C22.5577 2.71078 24.041 3.88627 25.12 5.56307C26.2019 7.24433 26.8351 9.36424 26.8351 12C26.8351 14.6358 26.2019 16.7557 25.12 18.4369C24.041 20.1137 22.5577 21.2892 20.9552 22.1078C17.784 23.7279 14.0484 24 11.6504 24V21.8182C13.9499 21.8182 17.2613 21.5449 19.9626 20.1649C21.2964 19.4835 22.4557 18.5454 23.2853 17.2563C24.112 15.9716 24.6533 14.2733 24.6533 12C24.6533 9.72667 24.112 8.02839 23.2853 6.74375C22.4557 5.45464 21.2964 4.51649 19.9626 3.83512Z" fill="#C90000"/>
</svg>
