<svg width="25" height="25" viewBox="0 0 25 25" fill="none" xmlns="http://www.w3.org/2000/svg">
<path fill-rule="evenodd" clip-rule="evenodd" d="M9.33398 7.29167C9.33398 5.54276 10.7517 4.125 12.5007 4.125C14.2496 4.125 15.6673 5.54276 15.6673 7.29167C15.6673 9.04057 14.2496 10.4583 12.5007 10.4583C10.7517 10.4583 9.33398 9.04057 9.33398 7.29167ZM12.5007 2.125C9.64718 2.125 7.33398 4.4382 7.33398 7.29167C7.33398 10.1451 9.64718 12.4583 12.5007 12.4583C15.3541 12.4583 17.6673 10.1451 17.6673 7.29167C17.6673 4.4382 15.3541 2.125 12.5007 2.125ZM8.33268 14.625C6.9624 14.625 5.64823 15.1693 4.6793 16.1383C3.71036 17.1072 3.16602 18.4214 3.16602 19.7917V21.875C3.16602 22.4273 3.61373 22.875 4.16602 22.875C4.7183 22.875 5.16602 22.4273 5.16602 21.875V19.7917C5.16602 18.9518 5.49965 18.1464 6.09351 17.5525C6.68738 16.9586 7.49283 16.625 8.33268 16.625H16.666C17.5059 16.625 18.3113 16.9586 18.9052 17.5525C19.4991 18.1464 19.8327 18.9518 19.8327 19.7917V21.875C19.8327 22.4273 20.2804 22.875 20.8327 22.875C21.385 22.875 21.8327 22.4273 21.8327 21.875V19.7917C21.8327 18.4214 21.2883 17.1072 20.3194 16.1383C19.3505 15.1693 18.0363 14.625 16.666 14.625H8.33268Z" fill="black"/>
</svg>
