<svg width="21" height="25" viewBox="0 0 21 25" fill="none" xmlns="http://www.w3.org/2000/svg">
<path d="M20.5554 12.2572C20.5554 11.9154 20.4797 11.5946 20.3528 11.303C19.5063 8.36275 15.5432 8.57753 9.90607 8.43412C8.9636 8.41033 9.5027 7.21208 9.83348 4.58177C10.0487 2.87105 9.0242 0.244141 7.30213 0.244141C4.46272 0.244141 7.19418 2.6556 4.68366 8.61899C3.34223 11.8053 0.34375 10.0205 0.34375 13.221V20.5063C0.34375 21.7522 0.457377 22.9497 2.08476 23.1468C3.66228 23.3378 3.30751 24.5483 5.58321 24.5483H16.9737C17.5316 24.5476 18.0664 24.3086 18.4609 23.8838C18.8553 23.459 19.0771 22.883 19.0776 22.2823C19.0776 21.7644 18.9091 21.2927 18.637 20.9107C19.2809 20.5227 19.7228 19.79 19.7228 18.9404C19.7228 18.4239 19.5549 17.9522 19.2834 17.5709C19.9292 17.1835 20.3724 16.4501 20.3724 15.5992C20.3724 14.9813 20.1401 14.4213 19.7657 14.0115C20.0111 13.8015 20.2095 13.5348 20.3462 13.2312C20.4828 12.9275 20.5544 12.5947 20.5554 12.2572Z" fill="#FFDB5E"/>
<path d="M13.0204 14.5228H18.4518C19.1904 14.5228 19.8835 14.0974 20.261 13.4129C20.3282 13.2777 20.3443 13.1197 20.306 12.9719C20.2677 12.8241 20.1778 12.698 20.0552 12.6198C19.9326 12.5416 19.7867 12.5174 19.6479 12.5522C19.5091 12.5871 19.3882 12.6782 19.3103 12.8067C19.2216 12.9669 19.0958 13.0997 18.9453 13.192C18.7947 13.2843 18.6245 13.3331 18.4512 13.3334H12.8898C12.3387 13.3334 11.8905 12.8509 11.8905 12.2575C11.8905 11.6642 12.3387 11.1816 12.8898 11.1816H16.606C16.7525 11.1816 16.893 11.1189 16.9966 11.0074C17.1002 10.8959 17.1584 10.7446 17.1584 10.5869C17.1584 10.4292 17.1002 10.2779 16.9966 10.1664C16.893 10.0548 16.7525 9.99219 16.606 9.99219H12.8891C12.3313 9.99291 11.7966 10.2318 11.4021 10.6565C11.0077 11.0812 10.7858 11.6569 10.7852 12.2575C10.7852 12.9542 11.085 13.5706 11.5458 13.9866C11.3464 14.1967 11.1879 14.4476 11.0797 14.7246C10.9715 15.0015 10.9158 15.299 10.9158 15.5994C10.9158 16.2981 11.2176 16.9166 11.6809 17.3319C11.4621 17.5637 11.2932 17.8445 11.1863 18.1543C11.0794 18.4642 11.0371 18.7955 11.0623 19.1249C11.0876 19.4543 11.1797 19.7738 11.3323 20.0606C11.4849 20.3474 11.6942 20.5945 11.9454 20.7846C11.6008 21.1955 11.4093 21.729 11.4076 22.2826C11.4082 22.8832 11.6301 23.4589 12.0246 23.8836C12.419 24.3083 12.9538 24.5472 13.5116 24.5479H16.9734C17.3383 24.5469 17.6968 24.4442 18.0139 24.2498C18.331 24.0554 18.5961 23.776 18.7832 23.4387C18.8546 23.3033 18.8738 23.1432 18.8367 22.9928C18.7997 22.8423 18.7093 22.7135 18.585 22.634C18.4608 22.5545 18.3125 22.5306 18.1721 22.5674C18.0316 22.6043 17.9102 22.6989 17.8338 22.8311C17.7448 22.9914 17.6188 23.1242 17.468 23.2166C17.3173 23.309 17.1469 23.3579 16.9734 23.3585H13.5116C12.9605 23.3585 12.5123 22.8759 12.5123 22.2826C12.5123 21.6892 12.9605 21.2067 13.5116 21.2067H17.6185C17.9835 21.2056 18.342 21.1028 18.6592 20.9083C18.9763 20.7138 19.2413 20.4342 19.4284 20.0968C19.4672 20.0296 19.4931 19.9548 19.5048 19.8767C19.5164 19.7985 19.5134 19.7187 19.496 19.6419C19.4786 19.565 19.4472 19.4927 19.4035 19.429C19.3598 19.3654 19.3047 19.3119 19.2416 19.2714C19.1784 19.231 19.1084 19.2046 19.0356 19.1936C18.9629 19.1827 18.8888 19.1875 18.8178 19.2078C18.7468 19.2281 18.6802 19.2634 18.622 19.3117C18.5639 19.36 18.5152 19.4204 18.479 19.4892C18.3911 19.6506 18.2653 19.7844 18.1143 19.877C17.9633 19.9697 17.7924 20.0181 17.6185 20.0173H13.16C12.9024 20.0052 12.6591 19.8865 12.4808 19.686C12.3025 19.4855 12.2029 19.2186 12.2029 18.941C12.2029 18.6634 12.3025 18.3965 12.4808 18.196C12.6591 17.9955 12.9024 17.8768 13.16 17.8648H18.2675C18.6324 17.8637 18.9909 17.761 19.308 17.5666C19.6251 17.3723 19.8902 17.0928 20.0773 16.7555C20.1486 16.6202 20.1679 16.4601 20.1308 16.3096C20.0937 16.1592 20.0034 16.0304 19.8791 15.9508C19.7549 15.8713 19.6066 15.8474 19.4661 15.8843C19.3257 15.9211 19.2042 16.0158 19.1279 16.1479C19.0399 16.3092 18.9141 16.4428 18.7631 16.5353C18.6121 16.6279 18.4412 16.6762 18.2675 16.6753H13.0204C12.7629 16.6633 12.5196 16.5446 12.3413 16.3441C12.1629 16.1436 12.0634 15.8767 12.0634 15.5991C12.0634 15.3215 12.1629 15.0546 12.3413 14.8541C12.5196 14.6536 12.7629 14.5349 13.0204 14.5228Z" fill="#EE9547"/>
</svg>
