<svg width="606" height="87" viewBox="0 0 606 87" fill="none" xmlns="http://www.w3.org/2000/svg">
<g filter="url(#filter0_dd_1344_2786)">
<rect x="3" y="3.65137" width="600" height="78" rx="10" fill="white"/>
<rect x="118.5" y="10.1514" width="368" height="65" rx="10" fill="white"/>
<rect width="35" height="35" transform="translate(133.5 25.1514)" fill="white"/>
<path fill-rule="evenodd" clip-rule="evenodd" d="M168.3 42.5495C168.3 41.3086 168.189 40.1154 167.982 38.97H151.5V45.7393H160.918C160.512 47.9268 159.28 49.7802 157.426 51.0211V55.412H163.082C166.391 52.3654 168.3 47.8791 168.3 42.5495Z" fill="#4285F4"/>
<path fill-rule="evenodd" clip-rule="evenodd" d="M151.499 59.6513C156.224 59.6513 160.185 58.0843 163.081 55.4115L157.425 51.0206C155.858 52.0706 153.854 52.6911 151.499 52.6911C146.941 52.6911 143.083 49.6127 141.707 45.4763H135.86V50.0104C138.74 55.7297 144.658 59.6513 151.499 59.6513Z" fill="#34A853"/>
<path fill-rule="evenodd" clip-rule="evenodd" d="M141.708 45.4763C141.358 44.4263 141.159 43.3047 141.159 42.1513C141.159 40.9979 141.358 39.8763 141.708 38.8263V34.2922H135.861C134.676 36.6547 134 39.3274 134 42.1513C134 44.9751 134.676 47.6479 135.861 50.0104L141.708 45.4763Z" fill="#FBBC05"/>
<path fill-rule="evenodd" clip-rule="evenodd" d="M151.499 31.6116C154.068 31.6116 156.375 32.4945 158.189 34.2286L163.208 29.2093C160.177 26.3855 156.216 24.6514 151.499 24.6514C144.658 24.6514 138.74 28.573 135.86 34.2923L141.707 38.8264C143.083 34.69 146.941 31.6116 151.499 31.6116Z" fill="#EA4335"/>
<path d="M198.266 46.208H201.928C201.811 47.6045 201.42 48.8496 200.756 49.9434C200.092 51.0273 199.159 51.8818 197.958 52.5068C196.757 53.1318 195.297 53.4443 193.578 53.4443C192.26 53.4443 191.073 53.21 190.019 52.7412C188.964 52.2627 188.061 51.5889 187.309 50.7197C186.557 49.8408 185.98 48.7812 185.58 47.541C185.189 46.3008 184.994 44.9141 184.994 43.3809V41.6084C184.994 40.0752 185.194 38.6885 185.595 37.4482C186.005 36.208 186.591 35.1484 187.353 34.2695C188.114 33.3809 189.027 32.7021 190.092 32.2334C191.166 31.7646 192.372 31.5303 193.71 31.5303C195.409 31.5303 196.845 31.8428 198.017 32.4678C199.188 33.0928 200.097 33.957 200.741 35.0605C201.396 36.1641 201.796 37.4287 201.942 38.8545H198.28C198.183 37.9365 197.968 37.1504 197.636 36.4961C197.313 35.8418 196.835 35.3438 196.2 35.002C195.565 34.6504 194.735 34.4746 193.71 34.4746C192.87 34.4746 192.138 34.6309 191.513 34.9434C190.888 35.2559 190.365 35.7148 189.945 36.3203C189.525 36.9258 189.208 37.6729 188.993 38.5615C188.788 39.4404 188.686 40.4463 188.686 41.5791V43.3809C188.686 44.4551 188.778 45.4316 188.964 46.3105C189.159 47.1797 189.452 47.9268 189.843 48.5518C190.243 49.1768 190.751 49.6602 191.366 50.002C191.981 50.3438 192.719 50.5146 193.578 50.5146C194.623 50.5146 195.468 50.3486 196.112 50.0166C196.767 49.6846 197.26 49.2012 197.592 48.5664C197.934 47.9219 198.158 47.1357 198.266 46.208ZM204.242 45.4023V45.0654C204.242 43.9229 204.408 42.8633 204.74 41.8867C205.072 40.9004 205.551 40.0459 206.176 39.3232C206.811 38.5908 207.582 38.0244 208.49 37.624C209.408 37.2139 210.443 37.0088 211.596 37.0088C212.758 37.0088 213.793 37.2139 214.701 37.624C215.619 38.0244 216.396 38.5908 217.03 39.3232C217.665 40.0459 218.148 40.9004 218.48 41.8867C218.812 42.8633 218.979 43.9229 218.979 45.0654V45.4023C218.979 46.5449 218.812 47.6045 218.48 48.5811C218.148 49.5576 217.665 50.4121 217.03 51.1445C216.396 51.8672 215.624 52.4336 214.716 52.8438C213.808 53.2441 212.777 53.4443 211.625 53.4443C210.463 53.4443 209.423 53.2441 208.505 52.8438C207.597 52.4336 206.825 51.8672 206.19 51.1445C205.556 50.4121 205.072 49.5576 204.74 48.5811C204.408 47.6045 204.242 46.5449 204.242 45.4023ZM207.772 45.0654V45.4023C207.772 46.1152 207.846 46.7891 207.992 47.4238C208.139 48.0586 208.368 48.6152 208.681 49.0938C208.993 49.5723 209.394 49.9482 209.882 50.2217C210.37 50.4951 210.951 50.6318 211.625 50.6318C212.279 50.6318 212.846 50.4951 213.324 50.2217C213.812 49.9482 214.213 49.5723 214.525 49.0938C214.838 48.6152 215.067 48.0586 215.214 47.4238C215.37 46.7891 215.448 46.1152 215.448 45.4023V45.0654C215.448 44.3623 215.37 43.6982 215.214 43.0732C215.067 42.4385 214.833 41.877 214.511 41.3887C214.198 40.9004 213.798 40.5195 213.31 40.2461C212.831 39.9629 212.26 39.8213 211.596 39.8213C210.932 39.8213 210.355 39.9629 209.867 40.2461C209.389 40.5195 208.993 40.9004 208.681 41.3887C208.368 41.877 208.139 42.4385 207.992 43.0732C207.846 43.6982 207.772 44.3623 207.772 45.0654ZM225.438 40.6855V53.1514H221.908V37.3018H225.233L225.438 40.6855ZM224.809 44.6406L223.666 44.626C223.676 43.5029 223.832 42.4727 224.135 41.5352C224.447 40.5977 224.877 39.792 225.424 39.1182C225.98 38.4443 226.645 37.9268 227.416 37.5654C228.188 37.1943 229.047 37.0088 229.994 37.0088C230.756 37.0088 231.444 37.1162 232.06 37.3311C232.685 37.5361 233.217 37.873 233.656 38.3418C234.105 38.8105 234.447 39.4209 234.682 40.1729C234.916 40.915 235.033 41.8281 235.033 42.9121V53.1514H231.488V42.8975C231.488 42.1357 231.376 41.5352 231.151 41.0957C230.937 40.6465 230.619 40.3291 230.199 40.1436C229.789 39.9482 229.276 39.8506 228.661 39.8506C228.056 39.8506 227.514 39.9775 227.035 40.2314C226.557 40.4854 226.151 40.832 225.819 41.2715C225.497 41.7109 225.248 42.2188 225.072 42.7949C224.896 43.3711 224.809 43.9863 224.809 44.6406ZM245.902 37.3018V39.8799H236.967V37.3018H245.902ZM239.545 33.4199H243.075V48.7715C243.075 49.2598 243.144 49.6357 243.28 49.8994C243.427 50.1533 243.627 50.3242 243.881 50.4121C244.135 50.5 244.433 50.5439 244.774 50.5439C245.019 50.5439 245.253 50.5293 245.478 50.5C245.702 50.4707 245.883 50.4414 246.02 50.4121L246.034 53.1074C245.741 53.1953 245.399 53.2734 245.009 53.3418C244.628 53.4102 244.188 53.4443 243.69 53.4443C242.88 53.4443 242.162 53.3027 241.537 53.0195C240.912 52.7266 240.424 52.2529 240.072 51.5986C239.721 50.9443 239.545 50.0752 239.545 48.9912V33.4199ZM252.406 37.3018V53.1514H248.861V37.3018H252.406ZM248.627 33.1416C248.627 32.6045 248.803 32.1602 249.154 31.8086C249.516 31.4473 250.014 31.2666 250.648 31.2666C251.273 31.2666 251.767 31.4473 252.128 31.8086C252.489 32.1602 252.67 32.6045 252.67 33.1416C252.67 33.6689 252.489 34.1084 252.128 34.46C251.767 34.8115 251.273 34.9873 250.648 34.9873C250.014 34.9873 249.516 34.8115 249.154 34.46C248.803 34.1084 248.627 33.6689 248.627 33.1416ZM259.774 40.6855V53.1514H256.244V37.3018H259.569L259.774 40.6855ZM259.145 44.6406L258.002 44.626C258.012 43.5029 258.168 42.4727 258.471 41.5352C258.783 40.5977 259.213 39.792 259.76 39.1182C260.316 38.4443 260.98 37.9268 261.752 37.5654C262.523 37.1943 263.383 37.0088 264.33 37.0088C265.092 37.0088 265.78 37.1162 266.396 37.3311C267.021 37.5361 267.553 37.873 267.992 38.3418C268.441 38.8105 268.783 39.4209 269.018 40.1729C269.252 40.915 269.369 41.8281 269.369 42.9121V53.1514H265.824V42.8975C265.824 42.1357 265.712 41.5352 265.487 41.0957C265.272 40.6465 264.955 40.3291 264.535 40.1436C264.125 39.9482 263.612 39.8506 262.997 39.8506C262.392 39.8506 261.85 39.9775 261.371 40.2314C260.893 40.4854 260.487 40.832 260.155 41.2715C259.833 41.7109 259.584 42.2188 259.408 42.7949C259.232 43.3711 259.145 43.9863 259.145 44.6406ZM282.509 49.416V37.3018H286.054V53.1514H282.714L282.509 49.416ZM283.007 46.1201L284.193 46.0908C284.193 47.1553 284.076 48.1367 283.842 49.0352C283.607 49.9238 283.246 50.7002 282.758 51.3643C282.27 52.0186 281.645 52.5312 280.883 52.9023C280.121 53.2637 279.208 53.4443 278.144 53.4443C277.372 53.4443 276.664 53.332 276.02 53.1074C275.375 52.8828 274.818 52.5361 274.35 52.0674C273.891 51.5986 273.534 50.9883 273.28 50.2363C273.026 49.4844 272.899 48.5859 272.899 47.541V37.3018H276.43V47.5703C276.43 48.1465 276.498 48.6299 276.635 49.0205C276.771 49.4014 276.957 49.709 277.191 49.9434C277.426 50.1777 277.699 50.3438 278.012 50.4414C278.324 50.5391 278.656 50.5879 279.008 50.5879C280.014 50.5879 280.805 50.3926 281.381 50.002C281.967 49.6016 282.382 49.0645 282.626 48.3906C282.88 47.7168 283.007 46.96 283.007 46.1201ZM296.659 53.4443C295.487 53.4443 294.428 53.2539 293.48 52.873C292.543 52.4824 291.742 51.9404 291.078 51.2471C290.424 50.5537 289.921 49.7383 289.569 48.8008C289.218 47.8633 289.042 46.8525 289.042 45.7686V45.1826C289.042 43.9424 289.223 42.8193 289.584 41.8135C289.945 40.8076 290.448 39.9482 291.093 39.2354C291.737 38.5127 292.499 37.9609 293.378 37.5801C294.257 37.1992 295.209 37.0088 296.234 37.0088C297.367 37.0088 298.358 37.1992 299.208 37.5801C300.058 37.9609 300.761 38.498 301.317 39.1914C301.884 39.875 302.304 40.6904 302.577 41.6377C302.86 42.585 303.002 43.6299 303.002 44.7725V46.2812H290.756V43.7471H299.516V43.4688C299.496 42.834 299.369 42.2383 299.135 41.6816C298.91 41.125 298.563 40.6758 298.095 40.334C297.626 39.9922 297.001 39.8213 296.22 39.8213C295.634 39.8213 295.111 39.9482 294.652 40.2021C294.203 40.4463 293.827 40.8027 293.524 41.2715C293.222 41.7402 292.987 42.3066 292.821 42.9707C292.665 43.625 292.587 44.3623 292.587 45.1826V45.7686C292.587 46.4619 292.68 47.1064 292.865 47.7021C293.061 48.2881 293.344 48.8008 293.715 49.2402C294.086 49.6797 294.535 50.0264 295.062 50.2803C295.59 50.5244 296.19 50.6465 296.864 50.6465C297.714 50.6465 298.471 50.4756 299.135 50.1338C299.799 49.792 300.375 49.3086 300.863 48.6836L302.724 50.4854C302.382 50.9834 301.938 51.4619 301.391 51.9209C300.844 52.3701 300.175 52.7363 299.384 53.0195C298.603 53.3027 297.694 53.4443 296.659 53.4443ZM317.533 49.6357L321.195 37.3018H323.451L322.836 40.9932L319.145 53.1514H317.123L317.533 49.6357ZM315.38 37.3018L318.236 49.6943L318.471 53.1514H316.215L311.923 37.3018H315.38ZM326.879 49.5479L329.647 37.3018H333.09L328.812 53.1514H326.557L326.879 49.5479ZM323.832 37.3018L327.45 49.4893L327.904 53.1514H325.883L322.147 40.9785L321.532 37.3018H323.832ZM339.271 37.3018V53.1514H335.727V37.3018H339.271ZM335.492 33.1416C335.492 32.6045 335.668 32.1602 336.02 31.8086C336.381 31.4473 336.879 31.2666 337.514 31.2666C338.139 31.2666 338.632 31.4473 338.993 31.8086C339.354 32.1602 339.535 32.6045 339.535 33.1416C339.535 33.6689 339.354 34.1084 338.993 34.46C338.632 34.8115 338.139 34.9873 337.514 34.9873C336.879 34.9873 336.381 34.8115 336.02 34.46C335.668 34.1084 335.492 33.6689 335.492 33.1416ZM350.404 37.3018V39.8799H341.469V37.3018H350.404ZM344.047 33.4199H347.577V48.7715C347.577 49.2598 347.646 49.6357 347.782 49.8994C347.929 50.1533 348.129 50.3242 348.383 50.4121C348.637 50.5 348.935 50.5439 349.276 50.5439C349.521 50.5439 349.755 50.5293 349.979 50.5C350.204 50.4707 350.385 50.4414 350.521 50.4121L350.536 53.1074C350.243 53.1953 349.901 53.2734 349.511 53.3418C349.13 53.4102 348.69 53.4443 348.192 53.4443C347.382 53.4443 346.664 53.3027 346.039 53.0195C345.414 52.7266 344.926 52.2529 344.574 51.5986C344.223 50.9443 344.047 50.0752 344.047 48.9912V33.4199ZM356.615 30.6514V53.1514H353.1V30.6514H356.615ZM356 44.6406L354.857 44.626C354.867 43.5322 355.019 42.5215 355.312 41.5938C355.614 40.666 356.034 39.8604 356.571 39.1768C357.118 38.4834 357.772 37.9512 358.534 37.5801C359.296 37.1992 360.141 37.0088 361.068 37.0088C361.85 37.0088 362.553 37.1162 363.178 37.3311C363.812 37.5459 364.359 37.8926 364.818 38.3711C365.277 38.8398 365.624 39.4551 365.858 40.2168C366.103 40.9688 366.225 41.8867 366.225 42.9707V53.1514H362.68V42.9414C362.68 42.1797 362.567 41.5742 362.343 41.125C362.128 40.6758 361.811 40.3535 361.391 40.1582C360.971 39.9531 360.458 39.8506 359.853 39.8506C359.218 39.8506 358.656 39.9775 358.168 40.2314C357.689 40.4854 357.289 40.832 356.967 41.2715C356.645 41.7109 356.4 42.2188 356.234 42.7949C356.078 43.3711 356 43.9863 356 44.6406ZM393.998 42.2529V50.3975C393.695 50.7979 393.222 51.2373 392.577 51.7158C391.942 52.1846 391.098 52.5898 390.043 52.9316C388.988 53.2734 387.675 53.4443 386.103 53.4443C384.765 53.4443 383.539 53.2197 382.426 52.7705C381.312 52.3115 380.351 51.6426 379.54 50.7637C378.739 49.8848 378.119 48.8154 377.68 47.5557C377.24 46.2861 377.021 44.8408 377.021 43.2197V41.7402C377.021 40.1289 377.221 38.6934 377.621 37.4336C378.031 36.1641 378.617 35.0898 379.379 34.2109C380.141 33.332 381.059 32.668 382.133 32.2188C383.217 31.7598 384.442 31.5303 385.81 31.5303C387.558 31.5303 389.003 31.8232 390.146 32.4092C391.298 32.9854 392.187 33.7861 392.812 34.8115C393.437 35.8369 393.832 37.0088 393.998 38.3271H390.395C390.277 37.585 390.048 36.9209 389.706 36.335C389.374 35.749 388.896 35.29 388.271 34.958C387.655 34.6162 386.854 34.4453 385.868 34.4453C385.019 34.4453 384.271 34.6064 383.627 34.9287C382.982 35.251 382.445 35.7246 382.016 36.3496C381.596 36.9746 381.278 37.7363 381.063 38.6348C380.849 39.5332 380.741 40.5586 380.741 41.7109V43.2197C380.741 44.3916 380.863 45.4316 381.107 46.3398C381.361 47.248 381.723 48.0146 382.191 48.6396C382.67 49.2646 383.251 49.7383 383.935 50.0605C384.618 50.373 385.39 50.5293 386.249 50.5293C387.089 50.5293 387.777 50.4609 388.314 50.3242C388.852 50.1777 389.276 50.0068 389.589 49.8115C389.911 49.6064 390.16 49.4111 390.336 49.2256V44.9922H385.897V42.2529H393.998ZM397.045 45.4023V45.0654C397.045 43.9229 397.211 42.8633 397.543 41.8867C397.875 40.9004 398.354 40.0459 398.979 39.3232C399.613 38.5908 400.385 38.0244 401.293 37.624C402.211 37.2139 403.246 37.0088 404.398 37.0088C405.561 37.0088 406.596 37.2139 407.504 37.624C408.422 38.0244 409.198 38.5908 409.833 39.3232C410.468 40.0459 410.951 40.9004 411.283 41.8867C411.615 42.8633 411.781 43.9229 411.781 45.0654V45.4023C411.781 46.5449 411.615 47.6045 411.283 48.5811C410.951 49.5576 410.468 50.4121 409.833 51.1445C409.198 51.8672 408.427 52.4336 407.519 52.8438C406.61 53.2441 405.58 53.4443 404.428 53.4443C403.266 53.4443 402.226 53.2441 401.308 52.8438C400.399 52.4336 399.628 51.8672 398.993 51.1445C398.358 50.4121 397.875 49.5576 397.543 48.5811C397.211 47.6045 397.045 46.5449 397.045 45.4023ZM400.575 45.0654V45.4023C400.575 46.1152 400.648 46.7891 400.795 47.4238C400.941 48.0586 401.171 48.6152 401.483 49.0938C401.796 49.5723 402.196 49.9482 402.685 50.2217C403.173 50.4951 403.754 50.6318 404.428 50.6318C405.082 50.6318 405.648 50.4951 406.127 50.2217C406.615 49.9482 407.016 49.5723 407.328 49.0938C407.641 48.6152 407.87 48.0586 408.017 47.4238C408.173 46.7891 408.251 46.1152 408.251 45.4023V45.0654C408.251 44.3623 408.173 43.6982 408.017 43.0732C407.87 42.4385 407.636 41.877 407.313 41.3887C407.001 40.9004 406.601 40.5195 406.112 40.2461C405.634 39.9629 405.062 39.8213 404.398 39.8213C403.734 39.8213 403.158 39.9629 402.67 40.2461C402.191 40.5195 401.796 40.9004 401.483 41.3887C401.171 41.877 400.941 42.4385 400.795 43.0732C400.648 43.6982 400.575 44.3623 400.575 45.0654ZM414.066 45.4023V45.0654C414.066 43.9229 414.232 42.8633 414.564 41.8867C414.896 40.9004 415.375 40.0459 416 39.3232C416.635 38.5908 417.406 38.0244 418.314 37.624C419.232 37.2139 420.268 37.0088 421.42 37.0088C422.582 37.0088 423.617 37.2139 424.525 37.624C425.443 38.0244 426.22 38.5908 426.854 39.3232C427.489 40.0459 427.973 40.9004 428.305 41.8867C428.637 42.8633 428.803 43.9229 428.803 45.0654V45.4023C428.803 46.5449 428.637 47.6045 428.305 48.5811C427.973 49.5576 427.489 50.4121 426.854 51.1445C426.22 51.8672 425.448 52.4336 424.54 52.8438C423.632 53.2441 422.602 53.4443 421.449 53.4443C420.287 53.4443 419.247 53.2441 418.329 52.8438C417.421 52.4336 416.649 51.8672 416.015 51.1445C415.38 50.4121 414.896 49.5576 414.564 48.5811C414.232 47.6045 414.066 46.5449 414.066 45.4023ZM417.597 45.0654V45.4023C417.597 46.1152 417.67 46.7891 417.816 47.4238C417.963 48.0586 418.192 48.6152 418.505 49.0938C418.817 49.5723 419.218 49.9482 419.706 50.2217C420.194 50.4951 420.775 50.6318 421.449 50.6318C422.104 50.6318 422.67 50.4951 423.148 50.2217C423.637 49.9482 424.037 49.5723 424.35 49.0938C424.662 48.6152 424.892 48.0586 425.038 47.4238C425.194 46.7891 425.272 46.1152 425.272 45.4023V45.0654C425.272 44.3623 425.194 43.6982 425.038 43.0732C424.892 42.4385 424.657 41.877 424.335 41.3887C424.022 40.9004 423.622 40.5195 423.134 40.2461C422.655 39.9629 422.084 39.8213 421.42 39.8213C420.756 39.8213 420.18 39.9629 419.691 40.2461C419.213 40.5195 418.817 40.9004 418.505 41.3887C418.192 41.877 417.963 42.4385 417.816 43.0732C417.67 43.6982 417.597 44.3623 417.597 45.0654ZM441.913 37.3018H445.121V52.7119C445.121 54.1377 444.818 55.3486 444.213 56.3447C443.607 57.3408 442.763 58.0977 441.679 58.6152C440.595 59.1426 439.34 59.4062 437.914 59.4062C437.309 59.4062 436.635 59.3184 435.893 59.1426C435.16 58.9668 434.447 58.6836 433.754 58.293C433.07 57.9121 432.499 57.4092 432.04 56.7842L433.695 54.7041C434.262 55.3779 434.887 55.8711 435.57 56.1836C436.254 56.4961 436.972 56.6523 437.724 56.6523C438.534 56.6523 439.223 56.501 439.789 56.1982C440.365 55.9053 440.81 55.4707 441.122 54.8945C441.435 54.3184 441.591 53.6152 441.591 52.7852V40.8906L441.913 37.3018ZM431.146 45.4023V45.0947C431.146 43.8936 431.293 42.7998 431.586 41.8135C431.879 40.8174 432.299 39.9629 432.846 39.25C433.393 38.5273 434.057 37.9756 434.838 37.5947C435.619 37.2041 436.503 37.0088 437.489 37.0088C438.515 37.0088 439.389 37.1943 440.111 37.5654C440.844 37.9365 441.454 38.4688 441.942 39.1621C442.431 39.8457 442.812 40.666 443.085 41.623C443.368 42.5703 443.578 43.625 443.715 44.7871V45.7686C443.588 46.9014 443.373 47.9365 443.07 48.874C442.768 49.8115 442.367 50.6221 441.869 51.3057C441.371 51.9893 440.756 52.5166 440.023 52.8877C439.301 53.2588 438.446 53.4443 437.46 53.4443C436.493 53.4443 435.619 53.2441 434.838 52.8438C434.066 52.4434 433.402 51.8818 432.846 51.1592C432.299 50.4365 431.879 49.5869 431.586 48.6104C431.293 47.624 431.146 46.5547 431.146 45.4023ZM434.677 45.0947V45.4023C434.677 46.125 434.745 46.7988 434.882 47.4238C435.028 48.0488 435.248 48.6006 435.541 49.0791C435.844 49.5479 436.225 49.9189 436.684 50.1924C437.152 50.4561 437.704 50.5879 438.339 50.5879C439.169 50.5879 439.848 50.4121 440.375 50.0605C440.912 49.709 441.322 49.2354 441.605 48.6396C441.898 48.0342 442.104 47.3604 442.221 46.6182V43.9668C442.162 43.3906 442.04 42.8535 441.854 42.3555C441.679 41.8574 441.439 41.4229 441.137 41.0518C440.834 40.6709 440.453 40.3779 439.994 40.1729C439.535 39.958 438.993 39.8506 438.368 39.8506C437.733 39.8506 437.182 39.9873 436.713 40.2607C436.244 40.5342 435.858 40.9102 435.556 41.3887C435.263 41.8672 435.043 42.4238 434.896 43.0586C434.75 43.6934 434.677 44.3721 434.677 45.0947ZM452.562 30.6514V53.1514H449.018V30.6514H452.562ZM463.417 53.4443C462.245 53.4443 461.186 53.2539 460.238 52.873C459.301 52.4824 458.5 51.9404 457.836 51.2471C457.182 50.5537 456.679 49.7383 456.327 48.8008C455.976 47.8633 455.8 46.8525 455.8 45.7686V45.1826C455.8 43.9424 455.98 42.8193 456.342 41.8135C456.703 40.8076 457.206 39.9482 457.851 39.2354C458.495 38.5127 459.257 37.9609 460.136 37.5801C461.015 37.1992 461.967 37.0088 462.992 37.0088C464.125 37.0088 465.116 37.1992 465.966 37.5801C466.815 37.9609 467.519 38.498 468.075 39.1914C468.642 39.875 469.062 40.6904 469.335 41.6377C469.618 42.585 469.76 43.6299 469.76 44.7725V46.2812H457.514V43.7471H466.273V43.4688C466.254 42.834 466.127 42.2383 465.893 41.6816C465.668 41.125 465.321 40.6758 464.853 40.334C464.384 39.9922 463.759 39.8213 462.978 39.8213C462.392 39.8213 461.869 39.9482 461.41 40.2021C460.961 40.4463 460.585 40.8027 460.282 41.2715C459.979 41.7402 459.745 42.3066 459.579 42.9707C459.423 43.625 459.345 44.3623 459.345 45.1826V45.7686C459.345 46.4619 459.438 47.1064 459.623 47.7021C459.818 48.2881 460.102 48.8008 460.473 49.2402C460.844 49.6797 461.293 50.0264 461.82 50.2803C462.348 50.5244 462.948 50.6465 463.622 50.6465C464.472 50.6465 465.229 50.4756 465.893 50.1338C466.557 49.792 467.133 49.3086 467.621 48.6836L469.481 50.4854C469.14 50.9834 468.695 51.4619 468.148 51.9209C467.602 52.3701 466.933 52.7363 466.142 53.0195C465.36 53.3027 464.452 53.4443 463.417 53.4443Z" fill="black" fill-opacity="0.54"/>
</g>
<defs>
<filter id="filter0_dd_1344_2786" x="0" y="0.651367" width="606" height="86" filterUnits="userSpaceOnUse" color-interpolation-filters="sRGB">
<feFlood flood-opacity="0" result="BackgroundImageFix"/>
<feColorMatrix in="SourceAlpha" type="matrix" values="0 0 0 0 0 0 0 0 0 0 0 0 0 0 0 0 0 0 127 0" result="hardAlpha"/>
<feOffset dy="2"/>
<feGaussianBlur stdDeviation="1.5"/>
<feColorMatrix type="matrix" values="0 0 0 0 0 0 0 0 0 0 0 0 0 0 0 0 0 0 0.168 0"/>
<feBlend mode="normal" in2="BackgroundImageFix" result="effect1_dropShadow_1344_2786"/>
<feColorMatrix in="SourceAlpha" type="matrix" values="0 0 0 0 0 0 0 0 0 0 0 0 0 0 0 0 0 0 127 0" result="hardAlpha"/>
<feOffset/>
<feGaussianBlur stdDeviation="1.5"/>
<feColorMatrix type="matrix" values="0 0 0 0 0 0 0 0 0 0 0 0 0 0 0 0 0 0 0.084 0"/>
<feBlend mode="normal" in2="effect1_dropShadow_1344_2786" result="effect2_dropShadow_1344_2786"/>
<feBlend mode="normal" in="SourceGraphic" in2="effect2_dropShadow_1344_2786" result="shape"/>
</filter>
</defs>
</svg>
