<svg width="27" height="26" viewBox="0 0 27 26" fill="none" xmlns="http://www.w3.org/2000/svg">
<path d="M26.3648 23.0307C26.3648 23.794 26.0647 24.5261 25.5306 25.0658C24.9964 25.6056 24.2719 25.9088 23.5165 25.9088H3.57873C2.82332 25.9088 2.09886 25.6056 1.5647 25.0658C1.03055 24.5261 0.730469 23.794 0.730469 23.0307V2.88397C0.730469 2.12065 1.03055 1.38859 1.5647 0.848837C2.09886 0.309088 2.82332 0.00585938 3.57873 0.00585938L23.5165 0.00585938C24.2719 0.00585938 24.9964 0.309088 25.5306 0.848837C26.0647 1.38859 26.3648 2.12065 26.3648 2.88397V23.0307Z" fill="#DD2E44"/>
<path d="M23.4342 9.90878C23.4343 9.18493 23.2933 8.46815 23.0192 7.79937C22.7451 7.13059 22.3434 6.52291 21.8369 6.01104C21.3304 5.49917 20.7291 5.09312 20.0673 4.8161C19.4054 4.53907 18.6961 4.39648 17.9798 4.39648C17.1126 4.39669 16.2579 4.60612 15.487 5.00735C14.716 5.40858 14.0509 5.99001 13.5472 6.70329C13.0436 5.98994 12.3787 5.40844 11.6079 5.00719C10.837 4.60595 9.98242 4.39657 9.11528 4.39648C7.66849 4.39648 6.28096 4.97724 5.25793 6.011C4.23489 7.04475 3.66016 8.44683 3.66016 9.90878C3.66016 10.3405 3.71427 10.7578 3.80684 11.1608C4.56448 15.9161 9.79673 20.9326 13.5472 22.3105C17.2969 20.9326 22.5292 15.9161 23.2868 11.1608C23.3801 10.7578 23.4342 10.3405 23.4342 9.90878Z" fill="#F5F8FA"/>
</svg>
