<svg width="42" height="42" viewBox="0 0 42 42" fill="none" xmlns="http://www.w3.org/2000/svg">
<rect width="42" height="42" rx="11.3514" fill="black"/>
<path fill-rule="evenodd" clip-rule="evenodd" d="M30.6819 20.999C30.6819 23.5674 29.6616 26.0306 27.8455 27.8467C26.0294 29.6628 23.5662 30.6831 20.9978 30.6831C18.4294 30.6831 15.9662 29.6628 14.1501 27.8467C12.3339 26.0306 11.3137 23.5674 11.3137 20.999C11.3137 18.4306 12.3339 15.9674 14.1501 14.1513C15.9662 12.3352 18.4294 11.3149 20.9978 11.3149C23.5662 11.3149 26.0294 12.3352 27.8455 14.1513C29.6616 15.9674 30.6819 18.4306 30.6819 20.999ZM32.9167 20.999C32.9167 24.1601 31.661 27.1917 29.4257 29.4269C27.1905 31.6622 24.1589 32.9179 20.9978 32.9179C17.8367 32.9179 14.8051 31.6622 12.5698 29.4269C10.3346 27.1917 9.07886 24.1601 9.07886 20.999C9.07886 17.8379 10.3346 14.8063 12.5698 12.571C14.8051 10.3358 17.8367 9.08008 20.9978 9.08008C24.1589 9.08008 27.1905 10.3358 29.4257 12.571C31.661 14.8063 32.9167 17.8379 32.9167 20.999ZM18.3905 24.7237C18.0942 24.7237 17.8099 24.8414 17.6004 25.0509C17.3908 25.2605 17.2731 25.5447 17.2731 25.8411C17.2731 26.1374 17.3908 26.4216 17.6004 26.6312C17.8099 26.8407 18.0942 26.9585 18.3905 26.9585H23.605C23.9014 26.9585 24.1856 26.8407 24.3952 26.6312C24.6047 26.4216 24.7224 26.1374 24.7224 25.8411C24.7224 25.5447 24.6047 25.2605 24.3952 25.0509C24.1856 24.8414 23.9014 24.7237 23.605 24.7237H22.1152V19.5091H19.5079C19.2116 19.5091 18.9273 19.6269 18.7178 19.8364C18.5082 20.046 18.3905 20.3302 18.3905 20.6265C18.3905 20.9229 18.5082 21.2071 18.7178 21.4167C18.9273 21.6262 19.2116 21.7439 19.5079 21.7439H19.8804V24.7237H18.3905ZM20.9978 18.0193C21.3929 18.0193 21.7719 17.8623 22.0513 17.5829C22.3307 17.3035 22.4876 16.9245 22.4876 16.5294C22.4876 16.1343 22.3307 15.7553 22.0513 15.4759C21.7719 15.1965 21.3929 15.0395 20.9978 15.0395C20.6026 15.0395 20.2237 15.1965 19.9443 15.4759C19.6649 15.7553 19.5079 16.1343 19.5079 16.5294C19.5079 16.9245 19.6649 17.3035 19.9443 17.5829C20.2237 17.8623 20.6026 18.0193 20.9978 18.0193Z" fill="white"/>
</svg>
