<svg width="20" height="20" viewBox="0 0 20 20" fill="none" xmlns="http://www.w3.org/2000/svg">
<path fill-rule="evenodd" clip-rule="evenodd" d="M18.1248 10C18.1248 12.1549 17.2687 14.2215 15.745 15.7452C14.2213 17.269 12.1546 18.125 9.99976 18.125C7.84487 18.125 5.77825 17.269 4.25451 15.7452C2.73078 14.2215 1.87476 12.1549 1.87476 10C1.87476 7.84512 2.73078 5.77849 4.25451 4.25476C5.77825 2.73102 7.84487 1.875 9.99976 1.875C12.1546 1.875 14.2213 2.73102 15.745 4.25476C17.2687 5.77849 18.1248 7.84512 18.1248 10ZM19.9998 10C19.9998 12.6522 18.9462 15.1957 17.0708 17.0711C15.1955 18.9464 12.6519 20 9.99976 20C7.34759 20 4.80405 18.9464 2.92869 17.0711C1.05332 15.1957 -0.000244141 12.6522 -0.000244141 10C-0.000244141 7.34783 1.05332 4.8043 2.92869 2.92893C4.80405 1.05357 7.34759 0 9.99976 0C12.6519 0 15.1955 1.05357 17.0708 2.92893C18.9462 4.8043 19.9998 7.34783 19.9998 10ZM7.81226 13.125C7.56361 13.125 7.32516 13.2238 7.14934 13.3996C6.97353 13.5754 6.87476 13.8139 6.87476 14.0625C6.87476 14.3111 6.97353 14.5496 7.14934 14.7254C7.32516 14.9012 7.56361 15 7.81226 15H12.1873C12.4359 15 12.6744 14.9012 12.8502 14.7254C13.026 14.5496 13.1248 14.3111 13.1248 14.0625C13.1248 13.8139 13.026 13.5754 12.8502 13.3996C12.6744 13.2238 12.4359 13.125 12.1873 13.125H10.9373V8.75H8.74976C8.50112 8.75 8.26266 8.84877 8.08684 9.02459C7.91103 9.2004 7.81226 9.43886 7.81226 9.6875C7.81226 9.93614 7.91103 10.1746 8.08684 10.3504C8.26266 10.5262 8.50112 10.625 8.74976 10.625H9.06226V13.125H7.81226ZM9.99976 7.5C10.3313 7.5 10.6492 7.3683 10.8836 7.13388C11.1181 6.89946 11.2498 6.58152 11.2498 6.25C11.2498 5.91848 11.1181 5.60054 10.8836 5.36612C10.6492 5.1317 10.3313 5 9.99976 5C9.66823 5 9.35029 5.1317 9.11587 5.36612C8.88145 5.60054 8.74976 5.91848 8.74976 6.25C8.74976 6.58152 8.88145 6.89946 9.11587 7.13388C9.35029 7.3683 9.66823 7.5 9.99976 7.5Z" fill="white"/>
</svg>
