<svg width="600" height="79" viewBox="0 0 600 79" fill="none" xmlns="http://www.w3.org/2000/svg">
<rect y="0.651367" width="600" height="78" rx="12" fill="#FEE500"/>
<path d="M207.619 29.5576C207.59 37.292 205.217 44.1768 195.637 48.8936L194.113 46.8135C198.859 44.4844 201.687 41.6572 203.254 38.3174L194.67 39.1377L194.26 36.7354L204.104 36.0615C204.499 34.7285 204.733 33.3076 204.836 31.8135H195.637V29.5576H207.619ZM214.416 26.8916V37.3799H218.488V39.665H214.416V53.1123H211.633V26.8916H214.416ZM233.347 29.5576C233.318 37.292 230.945 44.1768 221.364 48.8936L219.841 46.8135C224.587 44.4844 227.414 41.6572 228.982 38.3174L220.398 39.1377L219.987 36.7354L229.831 36.0615C230.227 34.7285 230.461 33.3076 230.564 31.8135H221.364V29.5576H233.347ZM240.144 26.8916V37.3799H244.216V39.665H240.144V53.1123H237.361V26.8916H240.144ZM257.375 28.4736C263 28.5029 267.073 31.2568 267.073 35.4463C267.073 39.3867 263.66 41.9795 258.752 42.3896V47.5459H269.446V49.8604H245.422V47.5459H255.998V42.3896C251.121 41.9795 247.707 39.3867 247.707 35.4463C247.707 31.2568 251.78 28.5029 257.375 28.4736ZM257.375 30.7588C253.332 30.7295 250.403 32.6045 250.403 35.4463C250.403 38.4053 253.332 40.2217 257.375 40.251C261.448 40.2217 264.377 38.4053 264.377 35.4463C264.377 32.6045 261.448 30.7295 257.375 30.7588ZM295.173 47.6631V50.0068H271.15V47.6631H281.726V43.0635H274.08V34.7139H289.49V31.0225H274.021V28.7373H292.244V36.9404H276.834V40.7783H292.859V43.0635H284.48V47.6631H295.173ZM313.641 33.5713C313.611 38.376 316.512 43.1807 320.584 44.9971L318.914 47.1943C315.896 45.7588 313.509 42.8145 312.293 39.2256C311.062 43.0635 308.646 46.2422 305.496 47.7803L303.797 45.4365C307.928 43.5908 310.828 38.5811 310.828 33.5713V29.0889H313.641V33.5713ZM325.74 26.8916V53.2002H322.957V26.8916H325.74ZM338.9 31.6084C338.9 34.9482 341.214 38.1416 345.228 39.4893L343.821 41.6572C340.848 40.6318 338.665 38.5811 337.523 36.0029C336.38 38.8447 334.11 41.0713 331.019 42.1553L329.525 39.9873C333.626 38.5811 336.087 35.2119 336.116 31.5791V30.876H330.345V28.6201H344.554V30.876H338.9V31.6084ZM350.355 26.8916V33.6299H354.163V35.9736H350.355V42.7119H347.571V26.8916H350.355ZM350.355 44.001V53.1416H347.571V46.2568H333.011V44.001H350.355ZM375.907 26.8916V37.5264H380.125V39.8408H375.907V53.1416H373.153V26.8916H375.907ZM370.868 30.9932V33.2783H355.311V30.9932H361.786V27.2432H364.569V30.9932H370.868ZM363.192 35.2119C366.942 35.2119 369.696 37.7314 369.725 41.3057C369.696 44.9092 366.942 47.3994 363.192 47.4287C359.413 47.3994 356.659 44.9092 356.659 41.3057C356.659 37.7314 359.413 35.2119 363.192 35.2119ZM363.192 37.4971C360.965 37.4971 359.295 39.0498 359.325 41.3057C359.295 43.5908 360.965 45.1143 363.192 45.085C365.418 45.1143 367.059 43.5908 367.059 41.3057C367.059 39.0498 365.418 37.4971 363.192 37.4971ZM403.011 26.8916V53.1416H400.199V26.8916H403.011ZM395.189 29.7041C395.189 37.3799 391.908 44.0596 382.914 48.3662L381.449 46.1104C388.436 42.7852 391.835 38.0537 392.377 31.9307H382.709V29.7041H395.189Z" fill="black" fill-opacity="0.85"/>
<path d="M46.9872 22.6514C37.03 22.6514 29 29.215 29 37.1834C29 42.3556 32.3405 46.8846 37.3512 49.4707L35.6552 55.9426C35.6233 56.0396 35.6184 56.1437 35.641 56.2434C35.6637 56.3431 35.7131 56.4344 35.7837 56.507C35.8867 56.5997 36.0191 56.651 36.1563 56.6514C36.2701 56.642 36.3781 56.5961 36.4647 56.5201L43.7623 51.4924C44.8395 51.6443 45.9254 51.7231 47.0128 51.7286C56.9572 51.7286 65 45.1649 65 37.1834C65 29.2019 56.9315 22.6514 46.9872 22.6514Z" fill="black"/>
</svg>
