<svg width="275" height="142" viewBox="0 0 275 142" fill="none" xmlns="http://www.w3.org/2000/svg">
<path d="M85.001 33.0017L33.0008 109.999" stroke="#554242" stroke-width="12"/>
<path d="M190.001 33.0017L138.001 109.999" stroke="white" stroke-width="12"/>
<path d="M85.001 33.0017L137.001 109.999" stroke="white" stroke-width="12"/>
<path d="M190.001 33.0017L242.001 109.999" stroke="white" stroke-width="12"/>
<path d="M117 32.5C117 50.4493 102.449 65 84.5 65C66.5507 65 52 50.4493 52 32.5C52 14.5507 66.5507 0 84.5 0C102.449 0 117 14.5507 117 32.5Z" fill="#554242"/>
<path fill-rule="evenodd" clip-rule="evenodd" d="M84.5 62.0455C100.818 62.0455 114.045 48.8175 114.045 32.5C114.045 16.1825 100.818 2.95455 84.5 2.95455C68.1825 2.95455 54.9545 16.1825 54.9545 32.5C54.9545 48.8175 68.1825 62.0455 84.5 62.0455ZM84.5 65C102.449 65 117 50.4493 117 32.5C117 14.5507 102.449 0 84.5 0C66.5507 0 52 14.5507 52 32.5C52 50.4493 66.5507 65 84.5 65Z" fill="black"/>
<path d="M84.5715 31.2109C81.8773 31.2109 80.5783 33.4781 80.0321 35.6645C79.6697 37.1157 78.4619 38.3177 77.0179 38.7078C74.3892 39.418 71.6632 41.3022 72.3772 45.4793C73.5966 52.6134 82.1326 47.8573 84.5715 47.8573C87.0104 47.8573 95.5464 52.6134 96.7659 45.4793C97.4798 41.3022 94.7538 39.418 92.1252 38.7078C90.6811 38.3177 89.4734 37.1157 89.1109 35.6645C88.5648 33.4781 87.2657 31.2109 84.5715 31.2109Z" fill="#DCABBD"/>
<path fill-rule="evenodd" clip-rule="evenodd" d="M82.2628 33.2839C81.6763 33.959 81.2688 34.9037 81.0173 35.9106C80.563 37.7294 79.0717 39.205 77.2826 39.6883C76.0815 40.0128 74.9576 40.5819 74.2173 41.4517C73.5103 42.2824 73.0666 43.4861 73.3781 45.3081C73.6434 46.8603 74.2641 47.5958 74.9446 47.9714C75.6827 48.3787 76.6883 48.4737 77.9011 48.3346C79.1016 48.1969 80.3592 47.8492 81.5277 47.513C81.5983 47.4926 81.6688 47.4723 81.7391 47.452C82.2361 47.3087 82.7214 47.1687 83.1531 47.0619C83.631 46.9436 84.1339 46.8417 84.5713 46.8417C85.0087 46.8417 85.5116 46.9436 85.9895 47.0619C86.4212 47.1687 86.9065 47.3087 87.4035 47.452C87.4738 47.4723 87.5443 47.4926 87.6149 47.513C88.7834 47.8492 90.041 48.1969 91.2415 48.3346C92.4544 48.4737 93.46 48.3787 94.198 47.9714C94.8785 47.5958 95.4992 46.8603 95.7646 45.3081C96.076 43.4861 95.6323 42.2824 94.9254 41.4517C94.185 40.5819 93.0611 40.0128 91.8601 39.6883C90.0709 39.205 88.5796 37.7294 88.1253 35.9106C87.8738 34.9037 87.4663 33.959 86.8798 33.2839C86.3195 32.6389 85.5903 32.2266 84.5713 32.2266C83.5523 32.2266 82.8232 32.6389 82.2628 33.2839ZM80.7294 31.9518C81.6286 30.9166 82.8961 30.1953 84.5713 30.1953C86.2465 30.1953 87.514 30.9166 88.4132 31.9518C89.2863 32.9568 89.8014 34.2389 90.096 35.4184C90.3667 36.502 91.291 37.4305 92.3898 37.7274C93.8174 38.113 95.3709 38.8412 96.4722 40.1352C97.607 41.4685 98.1693 43.2954 97.7668 45.6504C97.4224 47.6653 96.5188 49.0106 95.1796 49.7497C93.898 50.4571 92.3885 50.5107 91.01 50.3526C89.6192 50.1931 88.2093 49.7976 87.0533 49.465C86.9809 49.4442 86.9096 49.4236 86.8396 49.4034C86.3364 49.2584 85.8926 49.1304 85.5015 49.0336C85.041 48.9197 84.7436 48.8729 84.5713 48.8729C84.399 48.8729 84.1016 48.9197 83.6411 49.0336C83.25 49.1304 82.8062 49.2584 82.3031 49.4034C82.233 49.4236 82.1617 49.4442 82.0894 49.465C80.9333 49.7976 79.5234 50.1931 78.1326 50.3526C76.7541 50.5107 75.2447 50.4571 73.9631 49.7497C72.6238 49.0106 71.7203 47.6653 71.3759 45.6504C70.9733 43.2954 71.5357 41.4685 72.6704 40.1352C73.7718 38.8412 75.3252 38.113 76.7528 37.7274C77.8516 37.4305 78.7759 36.502 79.0466 35.4184C79.3412 34.2389 79.8563 32.9568 80.7294 31.9518Z" fill="black"/>
<path d="M81.9016 20.7891C81.9016 24.2557 80.5318 27.2891 78.0016 27.2891C75.4713 27.2891 74.1016 24.2557 74.1016 20.7891C74.1016 17.3224 75.0766 14.2891 78.0016 14.2891C80.9266 14.2891 81.9016 17.3224 81.9016 20.7891Z" fill="#DCABBD"/>
<path fill-rule="evenodd" clip-rule="evenodd" d="M82.6781 26.3217C81.7869 27.9342 80.2326 29.3203 78.0016 29.3203C75.7705 29.3203 74.2163 27.9342 73.325 26.3217C72.4521 24.7426 72.0703 22.7513 72.0703 20.7891C72.0703 18.924 72.3233 16.9234 73.1462 15.3143C74.0376 13.5711 75.6428 12.2578 78.0016 12.2578C80.3603 12.2578 81.9655 13.5711 82.8569 15.3143C83.6798 16.9234 83.9328 18.924 83.9328 20.7891C83.9328 22.7513 83.551 24.7426 82.6781 26.3217ZM78.0016 27.2891C80.5318 27.2891 81.9016 24.2557 81.9016 20.7891C81.9016 17.3224 80.9266 14.2891 78.0016 14.2891C75.0766 14.2891 74.1016 17.3224 74.1016 20.7891C74.1016 24.2557 75.4713 27.2891 78.0016 27.2891Z" fill="black"/>
<path d="M71.5031 33.7813C71.5031 37.2479 70.1334 40.2813 67.6031 40.2813C65.0729 40.2813 63.7031 37.2479 63.7031 33.7813C63.7031 30.3146 64.6781 27.2812 67.6031 27.2812C70.5281 27.2812 71.5031 30.3146 71.5031 33.7813Z" fill="#DCABBD"/>
<path fill-rule="evenodd" clip-rule="evenodd" d="M72.2797 39.3139C71.3884 40.9263 69.8342 42.3125 67.6031 42.3125C65.3721 42.3125 63.8178 40.9263 62.9265 39.3139C62.0536 37.7348 61.6719 35.7435 61.6719 33.7813C61.6719 31.9161 61.9249 29.9156 62.7477 28.3064C63.6391 26.5633 65.2444 25.25 67.6031 25.25C69.9618 25.25 71.5671 26.5633 72.4585 28.3064C73.2814 29.9156 73.5344 31.9161 73.5344 33.7813C73.5344 35.7435 73.1526 37.7348 72.2797 39.3139ZM67.6031 40.2813C70.1334 40.2813 71.5031 37.2479 71.5031 33.7813C71.5031 30.3146 70.5281 27.2813 67.6031 27.2813C64.6781 27.2813 63.7031 30.3146 63.7031 33.7813C63.7031 37.2479 65.0729 40.2813 67.6031 40.2813Z" fill="black"/>
<path d="M94.9035 20.7891C94.9035 24.2557 93.5338 27.2891 91.0035 27.2891C88.4732 27.2891 87.1035 24.2557 87.1035 20.7891C87.1035 17.3224 88.0785 14.2891 91.0035 14.2891C93.9285 14.2891 94.9035 17.3224 94.9035 20.7891Z" fill="#DCABBD"/>
<path fill-rule="evenodd" clip-rule="evenodd" d="M95.6801 26.3217C94.7888 27.9342 93.2346 29.3203 91.0035 29.3203C88.7724 29.3203 87.2182 27.9342 86.3269 26.3217C85.454 24.7426 85.0723 22.7513 85.0723 20.7891C85.0723 18.924 85.3253 16.9234 86.1481 15.3143C87.0395 13.5711 88.6448 12.2578 91.0035 12.2578C93.3622 12.2578 94.9675 13.5711 95.8589 15.3143C96.6818 16.9234 96.9348 18.924 96.9348 20.7891C96.9348 22.7513 96.553 24.7426 95.6801 26.3217ZM91.0035 27.2891C93.5338 27.2891 94.9035 24.2557 94.9035 20.7891C94.9035 17.3224 93.9285 14.2891 91.0035 14.2891C88.0785 14.2891 87.1035 17.3224 87.1035 20.7891C87.1035 24.2557 88.4732 27.2891 91.0035 27.2891Z" fill="black"/>
<path d="M105.308 33.7813C105.308 37.2479 103.938 40.2813 101.408 40.2813C98.8775 40.2813 97.5078 37.2479 97.5078 33.7813C97.5078 30.3146 98.4828 27.2812 101.408 27.2812C104.333 27.2812 105.308 30.3146 105.308 33.7813Z" fill="#DCABBD"/>
<path fill-rule="evenodd" clip-rule="evenodd" d="M106.084 39.3139C105.193 40.9263 103.639 42.3125 101.408 42.3125C99.1767 42.3125 97.6225 40.9263 96.7312 39.3139C95.8583 37.7348 95.4766 35.7435 95.4766 33.7813C95.4766 31.9161 95.7296 29.9156 96.5524 28.3064C97.4438 26.5633 99.0491 25.25 101.408 25.25C103.767 25.25 105.372 26.5633 106.263 28.3064C107.086 29.9156 107.339 31.9161 107.339 33.7813C107.339 35.7435 106.957 37.7348 106.084 39.3139ZM101.408 40.2813C103.938 40.2813 105.308 37.2479 105.308 33.7813C105.308 30.3146 104.333 27.2813 101.408 27.2813C98.4828 27.2813 97.5078 30.3146 97.5078 33.7813C97.5078 37.2479 98.8775 40.2813 101.408 40.2813Z" fill="black"/>
<circle cx="189.5" cy="32.5" r="32.5" fill="white"/>
<path d="M65 109.5C65 127.449 50.4493 142 32.5 142C14.5507 142 0 127.449 0 109.5C0 91.5507 14.5507 77 32.5 77C50.4493 77 65 91.5507 65 109.5Z" fill="#554242"/>
<path fill-rule="evenodd" clip-rule="evenodd" d="M32.5 139.045C48.8175 139.045 62.0455 125.818 62.0455 109.5C62.0455 93.1825 48.8175 79.9545 32.5 79.9545C16.1825 79.9545 2.95455 93.1825 2.95455 109.5C2.95455 125.818 16.1825 139.045 32.5 139.045ZM32.5 142C50.4493 142 65 127.449 65 109.5C65 91.5507 50.4493 77 32.5 77C14.5507 77 0 91.5507 0 109.5C0 127.449 14.5507 142 32.5 142Z" fill="black"/>
<path d="M32.5715 108.211C29.8773 108.211 28.5783 110.478 28.0321 112.665C27.6697 114.116 26.4619 115.318 25.0179 115.708C22.3892 116.418 19.6632 118.302 20.3772 122.479C21.5966 129.613 30.1326 124.857 32.5715 124.857C35.0104 124.857 43.5464 129.613 44.7659 122.479C45.4798 118.302 42.7538 116.418 40.1252 115.708C38.6811 115.318 37.4734 114.116 37.1109 112.665C36.5648 110.478 35.2657 108.211 32.5715 108.211Z" fill="#DCABBD"/>
<path fill-rule="evenodd" clip-rule="evenodd" d="M30.2628 110.284C29.6763 110.959 29.2688 111.904 29.0173 112.911C28.563 114.729 27.0717 116.205 25.2826 116.688C24.0815 117.013 22.9576 117.582 22.2173 118.452C21.5103 119.282 21.0666 120.486 21.3781 122.308C21.6434 123.86 22.2641 124.596 22.9446 124.971C23.6827 125.379 24.6883 125.474 25.9011 125.335C27.1016 125.197 28.3592 124.849 29.5277 124.513C29.5983 124.493 29.6688 124.472 29.7391 124.452C30.2361 124.309 30.7214 124.169 31.1531 124.062C31.631 123.944 32.1339 123.842 32.5713 123.842C33.0087 123.842 33.5116 123.944 33.9895 124.062C34.4212 124.169 34.9065 124.309 35.4035 124.452C35.4738 124.472 35.5443 124.493 35.6149 124.513C36.7834 124.849 38.041 125.197 39.2415 125.335C40.4544 125.474 41.46 125.379 42.198 124.971C42.8785 124.596 43.4992 123.86 43.7646 122.308C44.076 120.486 43.6323 119.282 42.9254 118.452C42.185 117.582 41.0611 117.013 39.8601 116.688C38.0709 116.205 36.5796 114.729 36.1253 112.911C35.8738 111.904 35.4663 110.959 34.8798 110.284C34.3195 109.639 33.5903 109.227 32.5713 109.227C31.5523 109.227 30.8232 109.639 30.2628 110.284ZM28.7294 108.952C29.6286 107.917 30.8961 107.195 32.5713 107.195C34.2465 107.195 35.514 107.917 36.4132 108.952C37.2863 109.957 37.8014 111.239 38.096 112.418C38.3667 113.502 39.291 114.431 40.3898 114.727C41.8174 115.113 43.3709 115.841 44.4722 117.135C45.607 118.469 46.1693 120.295 45.7668 122.65C45.4224 124.665 44.5188 126.011 43.1796 126.75C41.898 127.457 40.3885 127.511 39.01 127.353C37.6192 127.193 36.2093 126.798 35.0533 126.465C34.9809 126.444 34.9096 126.424 34.8396 126.403C34.3364 126.258 33.8926 126.13 33.5015 126.034C33.041 125.92 32.7436 125.873 32.5713 125.873C32.399 125.873 32.1016 125.92 31.6411 126.034C31.25 126.13 30.8062 126.258 30.3031 126.403C30.233 126.424 30.1617 126.444 30.0894 126.465C28.9333 126.798 27.5234 127.193 26.1326 127.353C24.7541 127.511 23.2447 127.457 21.9631 126.75C20.6238 126.011 19.7203 124.665 19.3759 122.65C18.9733 120.295 19.5357 118.469 20.6704 117.135C21.7718 115.841 23.3252 115.113 24.7528 114.727C25.8516 114.431 26.7759 113.502 27.0466 112.418C27.3412 111.239 27.8563 109.957 28.7294 108.952Z" fill="black"/>
<path d="M29.9016 97.7891C29.9016 101.256 28.5318 104.289 26.0016 104.289C23.4713 104.289 22.1016 101.256 22.1016 97.7891C22.1016 94.3224 23.0766 91.2891 26.0016 91.2891C28.9266 91.2891 29.9016 94.3224 29.9016 97.7891Z" fill="#DCABBD"/>
<path fill-rule="evenodd" clip-rule="evenodd" d="M30.6781 103.322C29.7869 104.934 28.2326 106.32 26.0016 106.32C23.7705 106.32 22.2163 104.934 21.325 103.322C20.4521 101.743 20.0703 99.7513 20.0703 97.7891C20.0703 95.924 20.3233 93.9234 21.1462 92.3143C22.0376 90.5711 23.6428 89.2578 26.0016 89.2578C28.3603 89.2578 29.9655 90.5711 30.8569 92.3143C31.6798 93.9234 31.9328 95.924 31.9328 97.7891C31.9328 99.7513 31.551 101.743 30.6781 103.322ZM26.0016 104.289C28.5318 104.289 29.9016 101.256 29.9016 97.7891C29.9016 94.3224 28.9266 91.2891 26.0016 91.2891C23.0766 91.2891 22.1016 94.3224 22.1016 97.7891C22.1016 101.256 23.4713 104.289 26.0016 104.289Z" fill="black"/>
<path d="M19.5031 110.781C19.5031 114.248 18.1334 117.281 15.6031 117.281C13.0729 117.281 11.7031 114.248 11.7031 110.781C11.7031 107.315 12.6781 104.281 15.6031 104.281C18.5281 104.281 19.5031 107.315 19.5031 110.781Z" fill="#DCABBD"/>
<path fill-rule="evenodd" clip-rule="evenodd" d="M20.2797 116.314C19.3884 117.926 17.8342 119.313 15.6031 119.313C13.3721 119.313 11.8178 117.926 10.9265 116.314C10.0536 114.735 9.67188 112.743 9.67188 110.781C9.67188 108.916 9.92486 106.916 10.7477 105.306C11.6391 103.563 13.2444 102.25 15.6031 102.25C17.9618 102.25 19.5671 103.563 20.4585 105.306C21.2814 106.916 21.5344 108.916 21.5344 110.781C21.5344 112.743 21.1526 114.735 20.2797 116.314ZM15.6031 117.281C18.1334 117.281 19.5031 114.248 19.5031 110.781C19.5031 107.315 18.5281 104.281 15.6031 104.281C12.6781 104.281 11.7031 107.315 11.7031 110.781C11.7031 114.248 13.0729 117.281 15.6031 117.281Z" fill="black"/>
<path d="M42.9035 97.7891C42.9035 101.256 41.5338 104.289 39.0035 104.289C36.4732 104.289 35.1035 101.256 35.1035 97.7891C35.1035 94.3224 36.0785 91.2891 39.0035 91.2891C41.9285 91.2891 42.9035 94.3224 42.9035 97.7891Z" fill="#DCABBD"/>
<path fill-rule="evenodd" clip-rule="evenodd" d="M43.6801 103.322C42.7888 104.934 41.2346 106.32 39.0035 106.32C36.7724 106.32 35.2182 104.934 34.3269 103.322C33.454 101.743 33.0723 99.7513 33.0723 97.7891C33.0723 95.924 33.3253 93.9234 34.1481 92.3143C35.0395 90.5711 36.6448 89.2578 39.0035 89.2578C41.3622 89.2578 42.9675 90.5711 43.8589 92.3143C44.6818 93.9234 44.9348 95.924 44.9348 97.7891C44.9348 99.7513 44.553 101.743 43.6801 103.322ZM39.0035 104.289C41.5338 104.289 42.9035 101.256 42.9035 97.7891C42.9035 94.3224 41.9285 91.2891 39.0035 91.2891C36.0785 91.2891 35.1035 94.3224 35.1035 97.7891C35.1035 101.256 36.4732 104.289 39.0035 104.289Z" fill="black"/>
<path d="M53.3078 110.781C53.3078 114.248 51.9381 117.281 49.4078 117.281C46.8775 117.281 45.5078 114.248 45.5078 110.781C45.5078 107.315 46.4828 104.281 49.4078 104.281C52.3328 104.281 53.3078 107.315 53.3078 110.781Z" fill="#DCABBD"/>
<path fill-rule="evenodd" clip-rule="evenodd" d="M54.0844 116.314C53.1931 117.926 51.6389 119.313 49.4078 119.313C47.1767 119.313 45.6225 117.926 44.7312 116.314C43.8583 114.735 43.4766 112.743 43.4766 110.781C43.4766 108.916 43.7296 106.916 44.5524 105.306C45.4438 103.563 47.0491 102.25 49.4078 102.25C51.7665 102.25 53.3718 103.563 54.2632 105.306C55.0861 106.916 55.3391 108.916 55.3391 110.781C55.3391 112.743 54.9573 114.735 54.0844 116.314ZM49.4078 117.281C51.9381 117.281 53.3078 114.248 53.3078 110.781C53.3078 107.315 52.3328 104.281 49.4078 104.281C46.4828 104.281 45.5078 107.315 45.5078 110.781C45.5078 114.248 46.8775 117.281 49.4078 117.281Z" fill="black"/>
<circle cx="137.5" cy="109.5" r="32.5" fill="white"/>
<circle cx="242.5" cy="109.5" r="32.5" fill="white"/>
</svg>
