<svg width="275" height="142" viewBox="0 0 275 142" fill="none" xmlns="http://www.w3.org/2000/svg">
<path d="M85.001 33.0017L33.0008 109.999" stroke="white" stroke-width="12"/>
<path d="M190.001 33.0017L138.001 109.999" stroke="white" stroke-width="12"/>
<path d="M85.001 33.0017L137.001 109.999" stroke="white" stroke-width="12"/>
<path d="M190.001 33.0017L242.001 109.999" stroke="white" stroke-width="12"/>
<circle cx="84.5" cy="32.5" r="32.5" fill="white"/>
<circle cx="189.5" cy="32.5" r="32.5" fill="white"/>
<path d="M65 109.5C65 127.449 50.4493 142 32.5 142C14.5507 142 0 127.449 0 109.5C0 91.5507 14.5507 77 32.5 77C50.4493 77 65 91.5507 65 109.5Z" fill="#554242"/>
<path fill-rule="evenodd" clip-rule="evenodd" d="M32.5 139.045C48.8175 139.045 62.0455 125.818 62.0455 109.5C62.0455 93.1825 48.8175 79.9545 32.5 79.9545C16.1825 79.9545 2.95455 93.1825 2.95455 109.5C2.95455 125.818 16.1825 139.045 32.5 139.045ZM32.5 142C50.4493 142 65 127.449 65 109.5C65 91.5507 50.4493 77 32.5 77C14.5507 77 0 91.5507 0 109.5C0 127.449 14.5507 142 32.5 142Z" fill="black"/>
<path d="M32.5715 108.211C29.8773 108.211 28.5783 110.478 28.0321 112.665C27.6697 114.116 26.4619 115.318 25.0179 115.708C22.3892 116.418 19.6632 118.302 20.3772 122.479C21.5966 129.613 30.1326 124.857 32.5715 124.857C35.0104 124.857 43.5464 129.613 44.7659 122.479C45.4798 118.302 42.7538 116.418 40.1252 115.708C38.6811 115.318 37.4734 114.116 37.1109 112.665C36.5648 110.478 35.2657 108.211 32.5715 108.211Z" fill="#DCABBD"/>
<path fill-rule="evenodd" clip-rule="evenodd" d="M30.2628 110.284C29.6763 110.959 29.2688 111.904 29.0173 112.911C28.563 114.729 27.0717 116.205 25.2826 116.688C24.0815 117.013 22.9576 117.582 22.2173 118.452C21.5103 119.282 21.0666 120.486 21.3781 122.308C21.6434 123.86 22.2641 124.596 22.9446 124.971C23.6827 125.379 24.6883 125.474 25.9011 125.335C27.1016 125.197 28.3592 124.849 29.5277 124.513C29.5983 124.493 29.6688 124.472 29.7391 124.452C30.2361 124.309 30.7214 124.169 31.1531 124.062C31.631 123.944 32.1339 123.842 32.5713 123.842C33.0087 123.842 33.5116 123.944 33.9895 124.062C34.4212 124.169 34.9065 124.309 35.4035 124.452C35.4738 124.472 35.5443 124.493 35.6149 124.513C36.7834 124.849 38.041 125.197 39.2415 125.335C40.4544 125.474 41.46 125.379 42.198 124.971C42.8785 124.596 43.4992 123.86 43.7646 122.308C44.076 120.486 43.6323 119.282 42.9254 118.452C42.185 117.582 41.0611 117.013 39.8601 116.688C38.0709 116.205 36.5796 114.729 36.1253 112.911C35.8738 111.904 35.4663 110.959 34.8798 110.284C34.3195 109.639 33.5903 109.227 32.5713 109.227C31.5523 109.227 30.8232 109.639 30.2628 110.284ZM28.7294 108.952C29.6286 107.917 30.8961 107.195 32.5713 107.195C34.2465 107.195 35.514 107.917 36.4132 108.952C37.2863 109.957 37.8014 111.239 38.096 112.418C38.3667 113.502 39.291 114.431 40.3898 114.727C41.8174 115.113 43.3709 115.841 44.4722 117.135C45.607 118.469 46.1693 120.295 45.7668 122.65C45.4224 124.665 44.5188 126.011 43.1796 126.75C41.898 127.457 40.3885 127.511 39.01 127.353C37.6192 127.193 36.2093 126.798 35.0533 126.465C34.9809 126.444 34.9096 126.424 34.8396 126.403C34.3364 126.258 33.8926 126.13 33.5015 126.034C33.041 125.92 32.7436 125.873 32.5713 125.873C32.399 125.873 32.1016 125.92 31.6411 126.034C31.25 126.13 30.8062 126.258 30.3031 126.403C30.233 126.424 30.1617 126.444 30.0894 126.465C28.9333 126.798 27.5234 127.193 26.1326 127.353C24.7541 127.511 23.2447 127.457 21.9631 126.75C20.6238 126.011 19.7203 124.665 19.3759 122.65C18.9733 120.295 19.5357 118.469 20.6704 117.135C21.7718 115.841 23.3252 115.113 24.7528 114.727C25.8516 114.431 26.7759 113.502 27.0466 112.418C27.3412 111.239 27.8563 109.957 28.7294 108.952Z" fill="black"/>
<path d="M29.9016 97.7891C29.9016 101.256 28.5318 104.289 26.0016 104.289C23.4713 104.289 22.1016 101.256 22.1016 97.7891C22.1016 94.3224 23.0766 91.2891 26.0016 91.2891C28.9266 91.2891 29.9016 94.3224 29.9016 97.7891Z" fill="#DCABBD"/>
<path fill-rule="evenodd" clip-rule="evenodd" d="M30.6781 103.322C29.7869 104.934 28.2326 106.32 26.0016 106.32C23.7705 106.32 22.2163 104.934 21.325 103.322C20.4521 101.743 20.0703 99.7513 20.0703 97.7891C20.0703 95.924 20.3233 93.9234 21.1462 92.3143C22.0376 90.5711 23.6428 89.2578 26.0016 89.2578C28.3603 89.2578 29.9655 90.5711 30.8569 92.3143C31.6798 93.9234 31.9328 95.924 31.9328 97.7891C31.9328 99.7513 31.551 101.743 30.6781 103.322ZM26.0016 104.289C28.5318 104.289 29.9016 101.256 29.9016 97.7891C29.9016 94.3224 28.9266 91.2891 26.0016 91.2891C23.0766 91.2891 22.1016 94.3224 22.1016 97.7891C22.1016 101.256 23.4713 104.289 26.0016 104.289Z" fill="black"/>
<path d="M19.5031 110.781C19.5031 114.248 18.1334 117.281 15.6031 117.281C13.0729 117.281 11.7031 114.248 11.7031 110.781C11.7031 107.315 12.6781 104.281 15.6031 104.281C18.5281 104.281 19.5031 107.315 19.5031 110.781Z" fill="#DCABBD"/>
<path fill-rule="evenodd" clip-rule="evenodd" d="M20.2797 116.314C19.3884 117.926 17.8342 119.313 15.6031 119.313C13.3721 119.313 11.8178 117.926 10.9265 116.314C10.0536 114.735 9.67188 112.743 9.67188 110.781C9.67188 108.916 9.92486 106.916 10.7477 105.306C11.6391 103.563 13.2444 102.25 15.6031 102.25C17.9618 102.25 19.5671 103.563 20.4585 105.306C21.2814 106.916 21.5344 108.916 21.5344 110.781C21.5344 112.743 21.1526 114.735 20.2797 116.314ZM15.6031 117.281C18.1334 117.281 19.5031 114.248 19.5031 110.781C19.5031 107.315 18.5281 104.281 15.6031 104.281C12.6781 104.281 11.7031 107.315 11.7031 110.781C11.7031 114.248 13.0729 117.281 15.6031 117.281Z" fill="black"/>
<path d="M42.9035 97.7891C42.9035 101.256 41.5338 104.289 39.0035 104.289C36.4732 104.289 35.1035 101.256 35.1035 97.7891C35.1035 94.3224 36.0785 91.2891 39.0035 91.2891C41.9285 91.2891 42.9035 94.3224 42.9035 97.7891Z" fill="#DCABBD"/>
<path fill-rule="evenodd" clip-rule="evenodd" d="M43.6801 103.322C42.7888 104.934 41.2346 106.32 39.0035 106.32C36.7724 106.32 35.2182 104.934 34.3269 103.322C33.454 101.743 33.0723 99.7513 33.0723 97.7891C33.0723 95.924 33.3253 93.9234 34.1481 92.3143C35.0395 90.5711 36.6448 89.2578 39.0035 89.2578C41.3622 89.2578 42.9675 90.5711 43.8589 92.3143C44.6818 93.9234 44.9348 95.924 44.9348 97.7891C44.9348 99.7513 44.553 101.743 43.6801 103.322ZM39.0035 104.289C41.5338 104.289 42.9035 101.256 42.9035 97.7891C42.9035 94.3224 41.9285 91.2891 39.0035 91.2891C36.0785 91.2891 35.1035 94.3224 35.1035 97.7891C35.1035 101.256 36.4732 104.289 39.0035 104.289Z" fill="black"/>
<path d="M53.3078 110.781C53.3078 114.248 51.9381 117.281 49.4078 117.281C46.8775 117.281 45.5078 114.248 45.5078 110.781C45.5078 107.315 46.4828 104.281 49.4078 104.281C52.3328 104.281 53.3078 107.315 53.3078 110.781Z" fill="#DCABBD"/>
<path fill-rule="evenodd" clip-rule="evenodd" d="M54.0844 116.314C53.1931 117.926 51.6389 119.313 49.4078 119.313C47.1767 119.313 45.6225 117.926 44.7312 116.314C43.8583 114.735 43.4766 112.743 43.4766 110.781C43.4766 108.916 43.7296 106.916 44.5524 105.306C45.4438 103.563 47.0491 102.25 49.4078 102.25C51.7665 102.25 53.3718 103.563 54.2632 105.306C55.0861 106.916 55.3391 108.916 55.3391 110.781C55.3391 112.743 54.9573 114.735 54.0844 116.314ZM49.4078 117.281C51.9381 117.281 53.3078 114.248 53.3078 110.781C53.3078 107.315 52.3328 104.281 49.4078 104.281C46.4828 104.281 45.5078 107.315 45.5078 110.781C45.5078 114.248 46.8775 117.281 49.4078 117.281Z" fill="black"/>
<circle cx="137.5" cy="109.5" r="32.5" fill="white"/>
<circle cx="242.5" cy="109.5" r="32.5" fill="white"/>
</svg>
