<svg width="275" height="142" viewBox="0 0 275 142" fill="none" xmlns="http://www.w3.org/2000/svg">
<path d="M85.001 33.0017L33.0008 109.999" stroke="#554242" stroke-width="12"/>
<path d="M190.001 33.0017L138.001 109.999" stroke="#554242" stroke-width="12"/>
<path d="M85.001 33.0017L137.001 109.999" stroke="#554242" stroke-width="12"/>
<path d="M190.001 33.0017L242.001 109.999" stroke="#554242" stroke-width="12"/>
<path d="M117 32.5C117 50.4493 102.449 65 84.5 65C66.5507 65 52 50.4493 52 32.5C52 14.5507 66.5507 0 84.5 0C102.449 0 117 14.5507 117 32.5Z" fill="#554242"/>
<path fill-rule="evenodd" clip-rule="evenodd" d="M84.5 62.0455C100.818 62.0455 114.045 48.8175 114.045 32.5C114.045 16.1825 100.818 2.95455 84.5 2.95455C68.1825 2.95455 54.9545 16.1825 54.9545 32.5C54.9545 48.8175 68.1825 62.0455 84.5 62.0455ZM84.5 65C102.449 65 117 50.4493 117 32.5C117 14.5507 102.449 0 84.5 0C66.5507 0 52 14.5507 52 32.5C52 50.4493 66.5507 65 84.5 65Z" fill="black"/>
<path d="M84.5715 31.2109C81.8773 31.2109 80.5783 33.4781 80.0321 35.6645C79.6697 37.1157 78.4619 38.3177 77.0179 38.7078C74.3892 39.418 71.6632 41.3022 72.3772 45.4793C73.5966 52.6134 82.1326 47.8573 84.5715 47.8573C87.0104 47.8573 95.5464 52.6134 96.7659 45.4793C97.4798 41.3022 94.7538 39.418 92.1252 38.7078C90.6811 38.3177 89.4734 37.1157 89.1109 35.6645C88.5648 33.4781 87.2657 31.2109 84.5715 31.2109Z" fill="#DCABBD"/>
<path fill-rule="evenodd" clip-rule="evenodd" d="M82.2628 33.2839C81.6763 33.959 81.2688 34.9037 81.0173 35.9106C80.563 37.7294 79.0717 39.205 77.2826 39.6883C76.0815 40.0128 74.9576 40.5819 74.2173 41.4517C73.5103 42.2824 73.0666 43.4861 73.3781 45.3081C73.6434 46.8603 74.2641 47.5958 74.9446 47.9714C75.6827 48.3787 76.6883 48.4737 77.9011 48.3346C79.1016 48.1969 80.3592 47.8492 81.5277 47.513C81.5983 47.4926 81.6688 47.4723 81.7391 47.452C82.2361 47.3087 82.7214 47.1687 83.1531 47.0619C83.631 46.9436 84.1339 46.8417 84.5713 46.8417C85.0087 46.8417 85.5116 46.9436 85.9895 47.0619C86.4212 47.1687 86.9065 47.3087 87.4035 47.452C87.4738 47.4723 87.5443 47.4926 87.6149 47.513C88.7834 47.8492 90.041 48.1969 91.2415 48.3346C92.4544 48.4737 93.46 48.3787 94.198 47.9714C94.8785 47.5958 95.4992 46.8603 95.7646 45.3081C96.076 43.4861 95.6323 42.2824 94.9254 41.4517C94.185 40.5819 93.0611 40.0128 91.8601 39.6883C90.0709 39.205 88.5796 37.7294 88.1253 35.9106C87.8738 34.9037 87.4663 33.959 86.8798 33.2839C86.3195 32.6389 85.5903 32.2266 84.5713 32.2266C83.5523 32.2266 82.8232 32.6389 82.2628 33.2839ZM80.7294 31.9518C81.6286 30.9166 82.8961 30.1953 84.5713 30.1953C86.2465 30.1953 87.514 30.9166 88.4132 31.9518C89.2863 32.9568 89.8014 34.2389 90.096 35.4184C90.3667 36.502 91.291 37.4305 92.3898 37.7274C93.8174 38.113 95.3709 38.8412 96.4722 40.1352C97.607 41.4685 98.1693 43.2954 97.7668 45.6504C97.4224 47.6653 96.5188 49.0106 95.1796 49.7497C93.898 50.4571 92.3885 50.5107 91.01 50.3526C89.6192 50.1931 88.2093 49.7976 87.0533 49.465C86.9809 49.4442 86.9096 49.4236 86.8396 49.4034C86.3364 49.2584 85.8926 49.1304 85.5015 49.0336C85.041 48.9197 84.7436 48.8729 84.5713 48.8729C84.399 48.8729 84.1016 48.9197 83.6411 49.0336C83.25 49.1304 82.8062 49.2584 82.3031 49.4034C82.233 49.4236 82.1617 49.4442 82.0894 49.465C80.9333 49.7976 79.5234 50.1931 78.1326 50.3526C76.7541 50.5107 75.2447 50.4571 73.9631 49.7497C72.6238 49.0106 71.7203 47.6653 71.3759 45.6504C70.9733 43.2954 71.5357 41.4685 72.6704 40.1352C73.7718 38.8412 75.3252 38.113 76.7528 37.7274C77.8516 37.4305 78.7759 36.502 79.0466 35.4184C79.3412 34.2389 79.8563 32.9568 80.7294 31.9518Z" fill="black"/>
<path d="M81.9016 20.7891C81.9016 24.2557 80.5318 27.2891 78.0016 27.2891C75.4713 27.2891 74.1016 24.2557 74.1016 20.7891C74.1016 17.3224 75.0766 14.2891 78.0016 14.2891C80.9266 14.2891 81.9016 17.3224 81.9016 20.7891Z" fill="#DCABBD"/>
<path fill-rule="evenodd" clip-rule="evenodd" d="M82.6781 26.3217C81.7869 27.9342 80.2326 29.3203 78.0016 29.3203C75.7705 29.3203 74.2163 27.9342 73.325 26.3217C72.4521 24.7426 72.0703 22.7513 72.0703 20.7891C72.0703 18.924 72.3233 16.9234 73.1462 15.3143C74.0376 13.5711 75.6428 12.2578 78.0016 12.2578C80.3603 12.2578 81.9655 13.5711 82.8569 15.3143C83.6798 16.9234 83.9328 18.924 83.9328 20.7891C83.9328 22.7513 83.551 24.7426 82.6781 26.3217ZM78.0016 27.2891C80.5318 27.2891 81.9016 24.2557 81.9016 20.7891C81.9016 17.3224 80.9266 14.2891 78.0016 14.2891C75.0766 14.2891 74.1016 17.3224 74.1016 20.7891C74.1016 24.2557 75.4713 27.2891 78.0016 27.2891Z" fill="black"/>
<path d="M71.5031 33.7813C71.5031 37.2479 70.1334 40.2813 67.6031 40.2813C65.0729 40.2813 63.7031 37.2479 63.7031 33.7813C63.7031 30.3146 64.6781 27.2812 67.6031 27.2812C70.5281 27.2812 71.5031 30.3146 71.5031 33.7813Z" fill="#DCABBD"/>
<path fill-rule="evenodd" clip-rule="evenodd" d="M72.2797 39.3139C71.3884 40.9263 69.8342 42.3125 67.6031 42.3125C65.3721 42.3125 63.8178 40.9263 62.9265 39.3139C62.0536 37.7348 61.6719 35.7435 61.6719 33.7813C61.6719 31.9161 61.9249 29.9156 62.7477 28.3064C63.6391 26.5633 65.2444 25.25 67.6031 25.25C69.9618 25.25 71.5671 26.5633 72.4585 28.3064C73.2814 29.9156 73.5344 31.9161 73.5344 33.7813C73.5344 35.7435 73.1526 37.7348 72.2797 39.3139ZM67.6031 40.2813C70.1334 40.2813 71.5031 37.2479 71.5031 33.7813C71.5031 30.3146 70.5281 27.2813 67.6031 27.2813C64.6781 27.2813 63.7031 30.3146 63.7031 33.7813C63.7031 37.2479 65.0729 40.2813 67.6031 40.2813Z" fill="black"/>
<path d="M94.9035 20.7891C94.9035 24.2557 93.5338 27.2891 91.0035 27.2891C88.4732 27.2891 87.1035 24.2557 87.1035 20.7891C87.1035 17.3224 88.0785 14.2891 91.0035 14.2891C93.9285 14.2891 94.9035 17.3224 94.9035 20.7891Z" fill="#DCABBD"/>
<path fill-rule="evenodd" clip-rule="evenodd" d="M95.6801 26.3217C94.7888 27.9342 93.2346 29.3203 91.0035 29.3203C88.7724 29.3203 87.2182 27.9342 86.3269 26.3217C85.454 24.7426 85.0723 22.7513 85.0723 20.7891C85.0723 18.924 85.3253 16.9234 86.1481 15.3143C87.0395 13.5711 88.6448 12.2578 91.0035 12.2578C93.3622 12.2578 94.9675 13.5711 95.8589 15.3143C96.6818 16.9234 96.9348 18.924 96.9348 20.7891C96.9348 22.7513 96.553 24.7426 95.6801 26.3217ZM91.0035 27.2891C93.5338 27.2891 94.9035 24.2557 94.9035 20.7891C94.9035 17.3224 93.9285 14.2891 91.0035 14.2891C88.0785 14.2891 87.1035 17.3224 87.1035 20.7891C87.1035 24.2557 88.4732 27.2891 91.0035 27.2891Z" fill="black"/>
<path d="M105.308 33.7813C105.308 37.2479 103.938 40.2813 101.408 40.2813C98.8775 40.2813 97.5078 37.2479 97.5078 33.7813C97.5078 30.3146 98.4828 27.2812 101.408 27.2812C104.333 27.2812 105.308 30.3146 105.308 33.7813Z" fill="#DCABBD"/>
<path fill-rule="evenodd" clip-rule="evenodd" d="M106.084 39.3139C105.193 40.9263 103.639 42.3125 101.408 42.3125C99.1767 42.3125 97.6225 40.9263 96.7312 39.3139C95.8583 37.7348 95.4766 35.7435 95.4766 33.7813C95.4766 31.9161 95.7296 29.9156 96.5524 28.3064C97.4438 26.5633 99.0491 25.25 101.408 25.25C103.767 25.25 105.372 26.5633 106.263 28.3064C107.086 29.9156 107.339 31.9161 107.339 33.7813C107.339 35.7435 106.957 37.7348 106.084 39.3139ZM101.408 40.2813C103.938 40.2813 105.308 37.2479 105.308 33.7813C105.308 30.3146 104.333 27.2813 101.408 27.2813C98.4828 27.2813 97.5078 30.3146 97.5078 33.7813C97.5078 37.2479 98.8775 40.2813 101.408 40.2813Z" fill="black"/>
<path d="M222 32.5C222 50.4493 207.449 65 189.5 65C171.551 65 157 50.4493 157 32.5C157 14.5507 171.551 0 189.5 0C207.449 0 222 14.5507 222 32.5Z" fill="#554242"/>
<path fill-rule="evenodd" clip-rule="evenodd" d="M189.5 62.0455C205.818 62.0455 219.045 48.8175 219.045 32.5C219.045 16.1825 205.818 2.95455 189.5 2.95455C173.182 2.95455 159.955 16.1825 159.955 32.5C159.955 48.8175 173.182 62.0455 189.5 62.0455ZM189.5 65C207.449 65 222 50.4493 222 32.5C222 14.5507 207.449 0 189.5 0C171.551 0 157 14.5507 157 32.5C157 50.4493 171.551 65 189.5 65Z" fill="black"/>
<path d="M189.572 31.2109C186.877 31.2109 185.578 33.4781 185.032 35.6645C184.67 37.1157 183.462 38.3177 182.018 38.7078C179.389 39.418 176.663 41.3022 177.377 45.4793C178.597 52.6134 187.133 47.8573 189.572 47.8573C192.01 47.8573 200.546 52.6134 201.766 45.4793C202.48 41.3022 199.754 39.418 197.125 38.7078C195.681 38.3177 194.473 37.1157 194.111 35.6645C193.565 33.4781 192.266 31.2109 189.572 31.2109Z" fill="#DCABBD"/>
<path fill-rule="evenodd" clip-rule="evenodd" d="M187.263 33.2839C186.676 33.959 186.269 34.9037 186.017 35.9106C185.563 37.7294 184.072 39.205 182.283 39.6883C181.081 40.0128 179.958 40.5819 179.217 41.4517C178.51 42.2824 178.067 43.4861 178.378 45.3081C178.643 46.8603 179.264 47.5958 179.945 47.9714C180.683 48.3787 181.688 48.4737 182.901 48.3346C184.102 48.1969 185.359 47.8492 186.528 47.513C186.598 47.4926 186.669 47.4723 186.739 47.452C187.236 47.3087 187.721 47.1687 188.153 47.0619C188.631 46.9436 189.134 46.8417 189.571 46.8417C190.009 46.8417 190.512 46.9436 190.989 47.0619C191.421 47.1687 191.907 47.3087 192.404 47.452C192.474 47.4723 192.544 47.4926 192.615 47.513C193.783 47.8492 195.041 48.1969 196.242 48.3346C197.454 48.4737 198.46 48.3787 199.198 47.9714C199.878 47.5958 200.499 46.8603 200.765 45.3081C201.076 43.4861 200.632 42.2824 199.925 41.4517C199.185 40.5819 198.061 40.0128 196.86 39.6883C195.071 39.205 193.58 37.7294 193.125 35.9106C192.874 34.9037 192.466 33.959 191.88 33.2839C191.319 32.6389 190.59 32.2266 189.571 32.2266C188.552 32.2266 187.823 32.6389 187.263 33.2839ZM185.729 31.9518C186.629 30.9166 187.896 30.1953 189.571 30.1953C191.246 30.1953 192.514 30.9166 193.413 31.9518C194.286 32.9568 194.801 34.2389 195.096 35.4184C195.367 36.502 196.291 37.4305 197.39 37.7274C198.817 38.113 200.371 38.8412 201.472 40.1352C202.607 41.4685 203.169 43.2954 202.767 45.6504C202.422 47.6653 201.519 49.0106 200.18 49.7497C198.898 50.4571 197.388 50.5107 196.01 50.3526C194.619 50.1931 193.209 49.7976 192.053 49.465C191.981 49.4442 191.91 49.4236 191.84 49.4034C191.336 49.2584 190.893 49.1304 190.502 49.0336C190.041 48.9197 189.744 48.8729 189.571 48.8729C189.399 48.8729 189.102 48.9197 188.641 49.0336C188.25 49.1304 187.806 49.2584 187.303 49.4034C187.233 49.4236 187.162 49.4442 187.089 49.465C185.933 49.7976 184.523 50.1931 183.133 50.3526C181.754 50.5107 180.245 50.4571 178.963 49.7497C177.624 49.0106 176.72 47.6653 176.376 45.6504C175.973 43.2954 176.536 41.4685 177.67 40.1352C178.772 38.8412 180.325 38.113 181.753 37.7274C182.852 37.4305 183.776 36.502 184.047 35.4184C184.341 34.2389 184.856 32.9568 185.729 31.9518Z" fill="black"/>
<path d="M186.902 20.7891C186.902 24.2557 185.532 27.2891 183.002 27.2891C180.471 27.2891 179.102 24.2557 179.102 20.7891C179.102 17.3224 180.077 14.2891 183.002 14.2891C185.927 14.2891 186.902 17.3224 186.902 20.7891Z" fill="#DCABBD"/>
<path fill-rule="evenodd" clip-rule="evenodd" d="M187.678 26.3217C186.787 27.9342 185.233 29.3203 183.002 29.3203C180.77 29.3203 179.216 27.9342 178.325 26.3217C177.452 24.7426 177.07 22.7513 177.07 20.7891C177.07 18.924 177.323 16.9234 178.146 15.3143C179.038 13.5711 180.643 12.2578 183.002 12.2578C185.36 12.2578 186.966 13.5711 187.857 15.3143C188.68 16.9234 188.933 18.924 188.933 20.7891C188.933 22.7513 188.551 24.7426 187.678 26.3217ZM183.002 27.2891C185.532 27.2891 186.902 24.2557 186.902 20.7891C186.902 17.3224 185.927 14.2891 183.002 14.2891C180.077 14.2891 179.102 17.3224 179.102 20.7891C179.102 24.2557 180.471 27.2891 183.002 27.2891Z" fill="black"/>
<path d="M176.503 33.7813C176.503 37.2479 175.133 40.2813 172.603 40.2813C170.073 40.2813 168.703 37.2479 168.703 33.7813C168.703 30.3146 169.678 27.2812 172.603 27.2812C175.528 27.2812 176.503 30.3146 176.503 33.7813Z" fill="#DCABBD"/>
<path fill-rule="evenodd" clip-rule="evenodd" d="M177.28 39.3139C176.388 40.9263 174.834 42.3125 172.603 42.3125C170.372 42.3125 168.818 40.9263 167.927 39.3139C167.054 37.7348 166.672 35.7435 166.672 33.7813C166.672 31.9161 166.925 29.9156 167.748 28.3064C168.639 26.5633 170.244 25.25 172.603 25.25C174.962 25.25 176.567 26.5633 177.459 28.3064C178.281 29.9156 178.534 31.9161 178.534 33.7813C178.534 35.7435 178.153 37.7348 177.28 39.3139ZM172.603 40.2813C175.133 40.2813 176.503 37.2479 176.503 33.7813C176.503 30.3146 175.528 27.2813 172.603 27.2813C169.678 27.2813 168.703 30.3146 168.703 33.7813C168.703 37.2479 170.073 40.2813 172.603 40.2813Z" fill="black"/>
<path d="M199.904 20.7891C199.904 24.2557 198.534 27.2891 196.004 27.2891C193.473 27.2891 192.104 24.2557 192.104 20.7891C192.104 17.3224 193.079 14.2891 196.004 14.2891C198.929 14.2891 199.904 17.3224 199.904 20.7891Z" fill="#DCABBD"/>
<path fill-rule="evenodd" clip-rule="evenodd" d="M200.68 26.3217C199.789 27.9342 198.235 29.3203 196.004 29.3203C193.772 29.3203 192.218 27.9342 191.327 26.3217C190.454 24.7426 190.072 22.7513 190.072 20.7891C190.072 18.924 190.325 16.9234 191.148 15.3143C192.04 13.5711 193.645 12.2578 196.004 12.2578C198.362 12.2578 199.968 13.5711 200.859 15.3143C201.682 16.9234 201.935 18.924 201.935 20.7891C201.935 22.7513 201.553 24.7426 200.68 26.3217ZM196.004 27.2891C198.534 27.2891 199.904 24.2557 199.904 20.7891C199.904 17.3224 198.929 14.2891 196.004 14.2891C193.079 14.2891 192.104 17.3224 192.104 20.7891C192.104 24.2557 193.473 27.2891 196.004 27.2891Z" fill="black"/>
<path d="M210.308 33.7813C210.308 37.2479 208.938 40.2813 206.408 40.2813C203.878 40.2813 202.508 37.2479 202.508 33.7813C202.508 30.3146 203.483 27.2812 206.408 27.2812C209.333 27.2812 210.308 30.3146 210.308 33.7813Z" fill="#DCABBD"/>
<path fill-rule="evenodd" clip-rule="evenodd" d="M211.084 39.3139C210.193 40.9263 208.639 42.3125 206.408 42.3125C204.177 42.3125 202.623 40.9263 201.731 39.3139C200.858 37.7348 200.477 35.7435 200.477 33.7813C200.477 31.9161 200.73 29.9156 201.552 28.3064C202.444 26.5633 204.049 25.25 206.408 25.25C208.767 25.25 210.372 26.5633 211.263 28.3064C212.086 29.9156 212.339 31.9161 212.339 33.7813C212.339 35.7435 211.957 37.7348 211.084 39.3139ZM206.408 40.2813C208.938 40.2813 210.308 37.2479 210.308 33.7813C210.308 30.3146 209.333 27.2813 206.408 27.2813C203.483 27.2813 202.508 30.3146 202.508 33.7813C202.508 37.2479 203.878 40.2813 206.408 40.2813Z" fill="black"/>
<path d="M65 109.5C65 127.449 50.4493 142 32.5 142C14.5507 142 0 127.449 0 109.5C0 91.5507 14.5507 77 32.5 77C50.4493 77 65 91.5507 65 109.5Z" fill="#554242"/>
<path fill-rule="evenodd" clip-rule="evenodd" d="M32.5 139.045C48.8175 139.045 62.0455 125.818 62.0455 109.5C62.0455 93.1825 48.8175 79.9545 32.5 79.9545C16.1825 79.9545 2.95455 93.1825 2.95455 109.5C2.95455 125.818 16.1825 139.045 32.5 139.045ZM32.5 142C50.4493 142 65 127.449 65 109.5C65 91.5507 50.4493 77 32.5 77C14.5507 77 0 91.5507 0 109.5C0 127.449 14.5507 142 32.5 142Z" fill="black"/>
<path d="M32.5715 108.211C29.8773 108.211 28.5783 110.478 28.0321 112.665C27.6697 114.116 26.4619 115.318 25.0179 115.708C22.3892 116.418 19.6632 118.302 20.3772 122.479C21.5966 129.613 30.1326 124.857 32.5715 124.857C35.0104 124.857 43.5464 129.613 44.7659 122.479C45.4798 118.302 42.7538 116.418 40.1252 115.708C38.6811 115.318 37.4734 114.116 37.1109 112.665C36.5648 110.478 35.2657 108.211 32.5715 108.211Z" fill="#DCABBD"/>
<path fill-rule="evenodd" clip-rule="evenodd" d="M30.2628 110.284C29.6763 110.959 29.2688 111.904 29.0173 112.911C28.563 114.729 27.0717 116.205 25.2826 116.688C24.0815 117.013 22.9576 117.582 22.2173 118.452C21.5103 119.282 21.0666 120.486 21.3781 122.308C21.6434 123.86 22.2641 124.596 22.9446 124.971C23.6827 125.379 24.6883 125.474 25.9011 125.335C27.1016 125.197 28.3592 124.849 29.5277 124.513C29.5983 124.493 29.6688 124.472 29.7391 124.452C30.2361 124.309 30.7214 124.169 31.1531 124.062C31.631 123.944 32.1339 123.842 32.5713 123.842C33.0087 123.842 33.5116 123.944 33.9895 124.062C34.4212 124.169 34.9065 124.309 35.4035 124.452C35.4738 124.472 35.5443 124.493 35.6149 124.513C36.7834 124.849 38.041 125.197 39.2415 125.335C40.4544 125.474 41.46 125.379 42.198 124.971C42.8785 124.596 43.4992 123.86 43.7646 122.308C44.076 120.486 43.6323 119.282 42.9254 118.452C42.185 117.582 41.0611 117.013 39.8601 116.688C38.0709 116.205 36.5796 114.729 36.1253 112.911C35.8738 111.904 35.4663 110.959 34.8798 110.284C34.3195 109.639 33.5903 109.227 32.5713 109.227C31.5523 109.227 30.8232 109.639 30.2628 110.284ZM28.7294 108.952C29.6286 107.917 30.8961 107.195 32.5713 107.195C34.2465 107.195 35.514 107.917 36.4132 108.952C37.2863 109.957 37.8014 111.239 38.096 112.418C38.3667 113.502 39.291 114.431 40.3898 114.727C41.8174 115.113 43.3709 115.841 44.4722 117.135C45.607 118.469 46.1693 120.295 45.7668 122.65C45.4224 124.665 44.5188 126.011 43.1796 126.75C41.898 127.457 40.3885 127.511 39.01 127.353C37.6192 127.193 36.2093 126.798 35.0533 126.465C34.9809 126.444 34.9096 126.424 34.8396 126.403C34.3364 126.258 33.8926 126.13 33.5015 126.034C33.041 125.92 32.7436 125.873 32.5713 125.873C32.399 125.873 32.1016 125.92 31.6411 126.034C31.25 126.13 30.8062 126.258 30.3031 126.403C30.233 126.424 30.1617 126.444 30.0894 126.465C28.9333 126.798 27.5234 127.193 26.1326 127.353C24.7541 127.511 23.2447 127.457 21.9631 126.75C20.6238 126.011 19.7203 124.665 19.3759 122.65C18.9733 120.295 19.5357 118.469 20.6704 117.135C21.7718 115.841 23.3252 115.113 24.7528 114.727C25.8516 114.431 26.7759 113.502 27.0466 112.418C27.3412 111.239 27.8563 109.957 28.7294 108.952Z" fill="black"/>
<path d="M29.9016 97.7891C29.9016 101.256 28.5318 104.289 26.0016 104.289C23.4713 104.289 22.1016 101.256 22.1016 97.7891C22.1016 94.3224 23.0766 91.2891 26.0016 91.2891C28.9266 91.2891 29.9016 94.3224 29.9016 97.7891Z" fill="#DCABBD"/>
<path fill-rule="evenodd" clip-rule="evenodd" d="M30.6781 103.322C29.7869 104.934 28.2326 106.32 26.0016 106.32C23.7705 106.32 22.2163 104.934 21.325 103.322C20.4521 101.743 20.0703 99.7513 20.0703 97.7891C20.0703 95.924 20.3233 93.9234 21.1462 92.3143C22.0376 90.5711 23.6428 89.2578 26.0016 89.2578C28.3603 89.2578 29.9655 90.5711 30.8569 92.3143C31.6798 93.9234 31.9328 95.924 31.9328 97.7891C31.9328 99.7513 31.551 101.743 30.6781 103.322ZM26.0016 104.289C28.5318 104.289 29.9016 101.256 29.9016 97.7891C29.9016 94.3224 28.9266 91.2891 26.0016 91.2891C23.0766 91.2891 22.1016 94.3224 22.1016 97.7891C22.1016 101.256 23.4713 104.289 26.0016 104.289Z" fill="black"/>
<path d="M19.5031 110.781C19.5031 114.248 18.1334 117.281 15.6031 117.281C13.0729 117.281 11.7031 114.248 11.7031 110.781C11.7031 107.315 12.6781 104.281 15.6031 104.281C18.5281 104.281 19.5031 107.315 19.5031 110.781Z" fill="#DCABBD"/>
<path fill-rule="evenodd" clip-rule="evenodd" d="M20.2797 116.314C19.3884 117.926 17.8342 119.313 15.6031 119.313C13.3721 119.313 11.8178 117.926 10.9265 116.314C10.0536 114.735 9.67188 112.743 9.67188 110.781C9.67188 108.916 9.92486 106.916 10.7477 105.306C11.6391 103.563 13.2444 102.25 15.6031 102.25C17.9618 102.25 19.5671 103.563 20.4585 105.306C21.2814 106.916 21.5344 108.916 21.5344 110.781C21.5344 112.743 21.1526 114.735 20.2797 116.314ZM15.6031 117.281C18.1334 117.281 19.5031 114.248 19.5031 110.781C19.5031 107.315 18.5281 104.281 15.6031 104.281C12.6781 104.281 11.7031 107.315 11.7031 110.781C11.7031 114.248 13.0729 117.281 15.6031 117.281Z" fill="black"/>
<path d="M42.9035 97.7891C42.9035 101.256 41.5338 104.289 39.0035 104.289C36.4732 104.289 35.1035 101.256 35.1035 97.7891C35.1035 94.3224 36.0785 91.2891 39.0035 91.2891C41.9285 91.2891 42.9035 94.3224 42.9035 97.7891Z" fill="#DCABBD"/>
<path fill-rule="evenodd" clip-rule="evenodd" d="M43.6801 103.322C42.7888 104.934 41.2346 106.32 39.0035 106.32C36.7724 106.32 35.2182 104.934 34.3269 103.322C33.454 101.743 33.0723 99.7513 33.0723 97.7891C33.0723 95.924 33.3253 93.9234 34.1481 92.3143C35.0395 90.5711 36.6448 89.2578 39.0035 89.2578C41.3622 89.2578 42.9675 90.5711 43.8589 92.3143C44.6818 93.9234 44.9348 95.924 44.9348 97.7891C44.9348 99.7513 44.553 101.743 43.6801 103.322ZM39.0035 104.289C41.5338 104.289 42.9035 101.256 42.9035 97.7891C42.9035 94.3224 41.9285 91.2891 39.0035 91.2891C36.0785 91.2891 35.1035 94.3224 35.1035 97.7891C35.1035 101.256 36.4732 104.289 39.0035 104.289Z" fill="black"/>
<path d="M53.3078 110.781C53.3078 114.248 51.9381 117.281 49.4078 117.281C46.8775 117.281 45.5078 114.248 45.5078 110.781C45.5078 107.315 46.4828 104.281 49.4078 104.281C52.3328 104.281 53.3078 107.315 53.3078 110.781Z" fill="#DCABBD"/>
<path fill-rule="evenodd" clip-rule="evenodd" d="M54.0844 116.314C53.1931 117.926 51.6389 119.313 49.4078 119.313C47.1767 119.313 45.6225 117.926 44.7312 116.314C43.8583 114.735 43.4766 112.743 43.4766 110.781C43.4766 108.916 43.7296 106.916 44.5524 105.306C45.4438 103.563 47.0491 102.25 49.4078 102.25C51.7665 102.25 53.3718 103.563 54.2632 105.306C55.0861 106.916 55.3391 108.916 55.3391 110.781C55.3391 112.743 54.9573 114.735 54.0844 116.314ZM49.4078 117.281C51.9381 117.281 53.3078 114.248 53.3078 110.781C53.3078 107.315 52.3328 104.281 49.4078 104.281C46.4828 104.281 45.5078 107.315 45.5078 110.781C45.5078 114.248 46.8775 117.281 49.4078 117.281Z" fill="black"/>
<path d="M170 109.5C170 127.449 155.449 142 137.5 142C119.551 142 105 127.449 105 109.5C105 91.5507 119.551 77 137.5 77C155.449 77 170 91.5507 170 109.5Z" fill="#554242"/>
<path fill-rule="evenodd" clip-rule="evenodd" d="M137.5 139.045C153.818 139.045 167.045 125.818 167.045 109.5C167.045 93.1825 153.818 79.9545 137.5 79.9545C121.182 79.9545 107.955 93.1825 107.955 109.5C107.955 125.818 121.182 139.045 137.5 139.045ZM137.5 142C155.449 142 170 127.449 170 109.5C170 91.5507 155.449 77 137.5 77C119.551 77 105 91.5507 105 109.5C105 127.449 119.551 142 137.5 142Z" fill="black"/>
<path d="M137.572 108.211C134.877 108.211 133.578 110.478 133.032 112.665C132.67 114.116 131.462 115.318 130.018 115.708C127.389 116.418 124.663 118.302 125.377 122.479C126.597 129.613 135.133 124.857 137.572 124.857C140.01 124.857 148.546 129.613 149.766 122.479C150.48 118.302 147.754 116.418 145.125 115.708C143.681 115.318 142.473 114.116 142.111 112.665C141.565 110.478 140.266 108.211 137.572 108.211Z" fill="#DCABBD"/>
<path fill-rule="evenodd" clip-rule="evenodd" d="M135.263 110.284C134.676 110.959 134.269 111.904 134.017 112.911C133.563 114.729 132.072 116.205 130.283 116.688C129.081 117.013 127.958 117.582 127.217 118.452C126.51 119.282 126.067 120.486 126.378 122.308C126.643 123.86 127.264 124.596 127.945 124.971C128.683 125.379 129.688 125.474 130.901 125.335C132.102 125.197 133.359 124.849 134.528 124.513C134.598 124.493 134.669 124.472 134.739 124.452C135.236 124.309 135.721 124.169 136.153 124.062C136.631 123.944 137.134 123.842 137.571 123.842C138.009 123.842 138.512 123.944 138.989 124.062C139.421 124.169 139.907 124.309 140.404 124.452C140.474 124.472 140.544 124.493 140.615 124.513C141.783 124.849 143.041 125.197 144.242 125.335C145.454 125.474 146.46 125.379 147.198 124.971C147.878 124.596 148.499 123.86 148.765 122.308C149.076 120.486 148.632 119.282 147.925 118.452C147.185 117.582 146.061 117.013 144.86 116.688C143.071 116.205 141.58 114.729 141.125 112.911C140.874 111.904 140.466 110.959 139.88 110.284C139.319 109.639 138.59 109.227 137.571 109.227C136.552 109.227 135.823 109.639 135.263 110.284ZM133.729 108.952C134.629 107.917 135.896 107.195 137.571 107.195C139.246 107.195 140.514 107.917 141.413 108.952C142.286 109.957 142.801 111.239 143.096 112.418C143.367 113.502 144.291 114.431 145.39 114.727C146.817 115.113 148.371 115.841 149.472 117.135C150.607 118.469 151.169 120.295 150.767 122.65C150.422 124.665 149.519 126.011 148.18 126.75C146.898 127.457 145.388 127.511 144.01 127.353C142.619 127.193 141.209 126.798 140.053 126.465C139.981 126.444 139.91 126.424 139.84 126.403C139.336 126.258 138.893 126.13 138.502 126.034C138.041 125.92 137.744 125.873 137.571 125.873C137.399 125.873 137.102 125.92 136.641 126.034C136.25 126.13 135.806 126.258 135.303 126.403C135.233 126.424 135.162 126.444 135.089 126.465C133.933 126.798 132.523 127.193 131.133 127.353C129.754 127.511 128.245 127.457 126.963 126.75C125.624 126.011 124.72 124.665 124.376 122.65C123.973 120.295 124.536 118.469 125.67 117.135C126.772 115.841 128.325 115.113 129.753 114.727C130.852 114.431 131.776 113.502 132.047 112.418C132.341 111.239 132.856 109.957 133.729 108.952Z" fill="black"/>
<path d="M134.902 97.7891C134.902 101.256 133.532 104.289 131.002 104.289C128.471 104.289 127.102 101.256 127.102 97.7891C127.102 94.3224 128.077 91.2891 131.002 91.2891C133.927 91.2891 134.902 94.3224 134.902 97.7891Z" fill="#DCABBD"/>
<path fill-rule="evenodd" clip-rule="evenodd" d="M135.678 103.322C134.787 104.934 133.233 106.32 131.002 106.32C128.77 106.32 127.216 104.934 126.325 103.322C125.452 101.743 125.07 99.7513 125.07 97.7891C125.07 95.924 125.323 93.9234 126.146 92.3143C127.038 90.5711 128.643 89.2578 131.002 89.2578C133.36 89.2578 134.966 90.5711 135.857 92.3143C136.68 93.9234 136.933 95.924 136.933 97.7891C136.933 99.7513 136.551 101.743 135.678 103.322ZM131.002 104.289C133.532 104.289 134.902 101.256 134.902 97.7891C134.902 94.3224 133.927 91.2891 131.002 91.2891C128.077 91.2891 127.102 94.3224 127.102 97.7891C127.102 101.256 128.471 104.289 131.002 104.289Z" fill="black"/>
<path d="M124.503 110.781C124.503 114.248 123.133 117.281 120.603 117.281C118.073 117.281 116.703 114.248 116.703 110.781C116.703 107.315 117.678 104.281 120.603 104.281C123.528 104.281 124.503 107.315 124.503 110.781Z" fill="#DCABBD"/>
<path fill-rule="evenodd" clip-rule="evenodd" d="M125.28 116.314C124.388 117.926 122.834 119.313 120.603 119.313C118.372 119.313 116.818 117.926 115.927 116.314C115.054 114.735 114.672 112.743 114.672 110.781C114.672 108.916 114.925 106.916 115.748 105.306C116.639 103.563 118.244 102.25 120.603 102.25C122.962 102.25 124.567 103.563 125.459 105.306C126.281 106.916 126.534 108.916 126.534 110.781C126.534 112.743 126.153 114.735 125.28 116.314ZM120.603 117.281C123.133 117.281 124.503 114.248 124.503 110.781C124.503 107.315 123.528 104.281 120.603 104.281C117.678 104.281 116.703 107.315 116.703 110.781C116.703 114.248 118.073 117.281 120.603 117.281Z" fill="black"/>
<path d="M147.904 97.7891C147.904 101.256 146.534 104.289 144.004 104.289C141.473 104.289 140.104 101.256 140.104 97.7891C140.104 94.3224 141.079 91.2891 144.004 91.2891C146.929 91.2891 147.904 94.3224 147.904 97.7891Z" fill="#DCABBD"/>
<path fill-rule="evenodd" clip-rule="evenodd" d="M148.68 103.322C147.789 104.934 146.235 106.32 144.004 106.32C141.772 106.32 140.218 104.934 139.327 103.322C138.454 101.743 138.072 99.7513 138.072 97.7891C138.072 95.924 138.325 93.9234 139.148 92.3143C140.04 90.5711 141.645 89.2578 144.004 89.2578C146.362 89.2578 147.968 90.5711 148.859 92.3143C149.682 93.9234 149.935 95.924 149.935 97.7891C149.935 99.7513 149.553 101.743 148.68 103.322ZM144.004 104.289C146.534 104.289 147.904 101.256 147.904 97.7891C147.904 94.3224 146.929 91.2891 144.004 91.2891C141.079 91.2891 140.104 94.3224 140.104 97.7891C140.104 101.256 141.473 104.289 144.004 104.289Z" fill="black"/>
<path d="M158.308 110.781C158.308 114.248 156.938 117.281 154.408 117.281C151.878 117.281 150.508 114.248 150.508 110.781C150.508 107.315 151.483 104.281 154.408 104.281C157.333 104.281 158.308 107.315 158.308 110.781Z" fill="#DCABBD"/>
<path fill-rule="evenodd" clip-rule="evenodd" d="M159.084 116.314C158.193 117.926 156.639 119.313 154.408 119.313C152.177 119.313 150.623 117.926 149.731 116.314C148.858 114.735 148.477 112.743 148.477 110.781C148.477 108.916 148.73 106.916 149.552 105.306C150.444 103.563 152.049 102.25 154.408 102.25C156.767 102.25 158.372 103.563 159.263 105.306C160.086 106.916 160.339 108.916 160.339 110.781C160.339 112.743 159.957 114.735 159.084 116.314ZM154.408 117.281C156.938 117.281 158.308 114.248 158.308 110.781C158.308 107.315 157.333 104.281 154.408 104.281C151.483 104.281 150.508 107.315 150.508 110.781C150.508 114.248 151.878 117.281 154.408 117.281Z" fill="black"/>
<path d="M275 109.5C275 127.449 260.449 142 242.5 142C224.551 142 210 127.449 210 109.5C210 91.5507 224.551 77 242.5 77C260.449 77 275 91.5507 275 109.5Z" fill="#554242"/>
<path fill-rule="evenodd" clip-rule="evenodd" d="M242.5 139.045C258.818 139.045 272.045 125.818 272.045 109.5C272.045 93.1825 258.818 79.9545 242.5 79.9545C226.182 79.9545 212.955 93.1825 212.955 109.5C212.955 125.818 226.182 139.045 242.5 139.045ZM242.5 142C260.449 142 275 127.449 275 109.5C275 91.5507 260.449 77 242.5 77C224.551 77 210 91.5507 210 109.5C210 127.449 224.551 142 242.5 142Z" fill="black"/>
<path d="M242.572 108.211C239.877 108.211 238.578 110.478 238.032 112.665C237.67 114.116 236.462 115.318 235.018 115.708C232.389 116.418 229.663 118.302 230.377 122.479C231.597 129.613 240.133 124.857 242.572 124.857C245.01 124.857 253.546 129.613 254.766 122.479C255.48 118.302 252.754 116.418 250.125 115.708C248.681 115.318 247.473 114.116 247.111 112.665C246.565 110.478 245.266 108.211 242.572 108.211Z" fill="#DCABBD"/>
<path fill-rule="evenodd" clip-rule="evenodd" d="M240.263 110.284C239.676 110.959 239.269 111.904 239.017 112.911C238.563 114.729 237.072 116.205 235.283 116.688C234.081 117.013 232.958 117.582 232.217 118.452C231.51 119.282 231.067 120.486 231.378 122.308C231.643 123.86 232.264 124.596 232.945 124.971C233.683 125.379 234.688 125.474 235.901 125.335C237.102 125.197 238.359 124.849 239.528 124.513C239.598 124.493 239.669 124.472 239.739 124.452C240.236 124.309 240.721 124.169 241.153 124.062C241.631 123.944 242.134 123.842 242.571 123.842C243.009 123.842 243.512 123.944 243.989 124.062C244.421 124.169 244.907 124.309 245.404 124.452C245.474 124.472 245.544 124.493 245.615 124.513C246.783 124.849 248.041 125.197 249.242 125.335C250.454 125.474 251.46 125.379 252.198 124.971C252.878 124.596 253.499 123.86 253.765 122.308C254.076 120.486 253.632 119.282 252.925 118.452C252.185 117.582 251.061 117.013 249.86 116.688C248.071 116.205 246.58 114.729 246.125 112.911C245.874 111.904 245.466 110.959 244.88 110.284C244.319 109.639 243.59 109.227 242.571 109.227C241.552 109.227 240.823 109.639 240.263 110.284ZM238.729 108.952C239.629 107.917 240.896 107.195 242.571 107.195C244.246 107.195 245.514 107.917 246.413 108.952C247.286 109.957 247.801 111.239 248.096 112.418C248.367 113.502 249.291 114.431 250.39 114.727C251.817 115.113 253.371 115.841 254.472 117.135C255.607 118.469 256.169 120.295 255.767 122.65C255.422 124.665 254.519 126.011 253.18 126.75C251.898 127.457 250.388 127.511 249.01 127.353C247.619 127.193 246.209 126.798 245.053 126.465C244.981 126.444 244.91 126.424 244.84 126.403C244.336 126.258 243.893 126.13 243.502 126.034C243.041 125.92 242.744 125.873 242.571 125.873C242.399 125.873 242.102 125.92 241.641 126.034C241.25 126.13 240.806 126.258 240.303 126.403C240.233 126.424 240.162 126.444 240.089 126.465C238.933 126.798 237.523 127.193 236.133 127.353C234.754 127.511 233.245 127.457 231.963 126.75C230.624 126.011 229.72 124.665 229.376 122.65C228.973 120.295 229.536 118.469 230.67 117.135C231.772 115.841 233.325 115.113 234.753 114.727C235.852 114.431 236.776 113.502 237.047 112.418C237.341 111.239 237.856 109.957 238.729 108.952Z" fill="black"/>
<path d="M239.902 97.7891C239.902 101.256 238.532 104.289 236.002 104.289C233.471 104.289 232.102 101.256 232.102 97.7891C232.102 94.3224 233.077 91.2891 236.002 91.2891C238.927 91.2891 239.902 94.3224 239.902 97.7891Z" fill="#DCABBD"/>
<path fill-rule="evenodd" clip-rule="evenodd" d="M240.678 103.322C239.787 104.934 238.233 106.32 236.002 106.32C233.77 106.32 232.216 104.934 231.325 103.322C230.452 101.743 230.07 99.7513 230.07 97.7891C230.07 95.924 230.323 93.9234 231.146 92.3143C232.038 90.5711 233.643 89.2578 236.002 89.2578C238.36 89.2578 239.966 90.5711 240.857 92.3143C241.68 93.9234 241.933 95.924 241.933 97.7891C241.933 99.7513 241.551 101.743 240.678 103.322ZM236.002 104.289C238.532 104.289 239.902 101.256 239.902 97.7891C239.902 94.3224 238.927 91.2891 236.002 91.2891C233.077 91.2891 232.102 94.3224 232.102 97.7891C232.102 101.256 233.471 104.289 236.002 104.289Z" fill="black"/>
<path d="M229.503 110.781C229.503 114.248 228.133 117.281 225.603 117.281C223.073 117.281 221.703 114.248 221.703 110.781C221.703 107.315 222.678 104.281 225.603 104.281C228.528 104.281 229.503 107.315 229.503 110.781Z" fill="#DCABBD"/>
<path fill-rule="evenodd" clip-rule="evenodd" d="M230.28 116.314C229.388 117.926 227.834 119.313 225.603 119.313C223.372 119.313 221.818 117.926 220.927 116.314C220.054 114.735 219.672 112.743 219.672 110.781C219.672 108.916 219.925 106.916 220.748 105.306C221.639 103.563 223.244 102.25 225.603 102.25C227.962 102.25 229.567 103.563 230.459 105.306C231.281 106.916 231.534 108.916 231.534 110.781C231.534 112.743 231.153 114.735 230.28 116.314ZM225.603 117.281C228.133 117.281 229.503 114.248 229.503 110.781C229.503 107.315 228.528 104.281 225.603 104.281C222.678 104.281 221.703 107.315 221.703 110.781C221.703 114.248 223.073 117.281 225.603 117.281Z" fill="black"/>
<path d="M252.904 97.7891C252.904 101.256 251.534 104.289 249.004 104.289C246.473 104.289 245.104 101.256 245.104 97.7891C245.104 94.3224 246.079 91.2891 249.004 91.2891C251.929 91.2891 252.904 94.3224 252.904 97.7891Z" fill="#DCABBD"/>
<path fill-rule="evenodd" clip-rule="evenodd" d="M253.68 103.322C252.789 104.934 251.235 106.32 249.004 106.32C246.772 106.32 245.218 104.934 244.327 103.322C243.454 101.743 243.072 99.7513 243.072 97.7891C243.072 95.924 243.325 93.9234 244.148 92.3143C245.04 90.5711 246.645 89.2578 249.004 89.2578C251.362 89.2578 252.968 90.5711 253.859 92.3143C254.682 93.9234 254.935 95.924 254.935 97.7891C254.935 99.7513 254.553 101.743 253.68 103.322ZM249.004 104.289C251.534 104.289 252.904 101.256 252.904 97.7891C252.904 94.3224 251.929 91.2891 249.004 91.2891C246.079 91.2891 245.104 94.3224 245.104 97.7891C245.104 101.256 246.473 104.289 249.004 104.289Z" fill="black"/>
<path d="M263.308 110.781C263.308 114.248 261.938 117.281 259.408 117.281C256.878 117.281 255.508 114.248 255.508 110.781C255.508 107.315 256.483 104.281 259.408 104.281C262.333 104.281 263.308 107.315 263.308 110.781Z" fill="#DCABBD"/>
<path fill-rule="evenodd" clip-rule="evenodd" d="M264.084 116.314C263.193 117.926 261.639 119.313 259.408 119.313C257.177 119.313 255.623 117.926 254.731 116.314C253.858 114.735 253.477 112.743 253.477 110.781C253.477 108.916 253.73 106.916 254.552 105.306C255.444 103.563 257.049 102.25 259.408 102.25C261.767 102.25 263.372 103.563 264.263 105.306C265.086 106.916 265.339 108.916 265.339 110.781C265.339 112.743 264.957 114.735 264.084 116.314ZM259.408 117.281C261.938 117.281 263.308 114.248 263.308 110.781C263.308 107.315 262.333 104.281 259.408 104.281C256.483 104.281 255.508 107.315 255.508 110.781C255.508 114.248 256.878 117.281 259.408 117.281Z" fill="black"/>
</svg>
