<svg width="600" height="79" viewBox="0 0 600 79" fill="none" xmlns="http://www.w3.org/2000/svg">
<rect y="0.651367" width="600" height="78" rx="12" fill="#03C75A"/>
<path d="M39.56 22.6514H29V55.6514H39.56V38.2595L51.44 55.6514H62V22.6514H51.44V40.0433L39.56 22.6514Z" fill="white" stroke="white"/>
<path d="M197.951 29.6162V44.2061C200.646 44.1621 203.195 43.9863 206.096 43.3857L206.477 45.7588C203.049 46.4619 200.148 46.6084 196.896 46.6084H195.168V29.6162H197.951ZM216.525 26.8916V53.1416H213.889V26.8916H216.525ZM210.9 27.4775V51.8525H208.264V37.8193H202.521V35.5342H208.264V27.4775H210.9ZM241.433 26.8916V53.2002H238.65V26.8916H241.433ZM227.4 28.8545C231.296 28.8545 234.167 32.4287 234.167 38.0537C234.167 43.708 231.296 47.2822 227.4 47.2822C223.445 47.2822 220.603 43.708 220.603 38.0537C220.603 32.4287 223.445 28.8545 227.4 28.8545ZM227.4 31.3447C224.968 31.3447 223.298 33.9229 223.298 38.0537C223.298 42.2139 224.968 44.792 227.4 44.792C229.802 44.792 231.472 42.2139 231.472 38.0537C231.472 33.9229 229.802 31.3447 227.4 31.3447ZM267.307 26.8916V53.2002H264.553V38.7568H258.752V46.6963H246.448V28.9131H249.26V35.6221H256.028V28.9131H258.752V36.4717H264.553V26.8916H267.307ZM249.26 44.4111H256.028V37.8193H249.26V44.4111ZM295.173 47.6631V50.0068H271.15V47.6631H281.726V43.0635H274.08V34.7139H289.49V31.0225H274.021V28.7373H292.244V36.9404H276.834V40.7783H292.859V43.0635H284.48V47.6631H295.173ZM313.641 33.5713C313.611 38.376 316.512 43.1807 320.584 44.9971L318.914 47.1943C315.896 45.7588 313.509 42.8145 312.293 39.2256C311.062 43.0635 308.646 46.2422 305.496 47.7803L303.797 45.4365C307.928 43.5908 310.828 38.5811 310.828 33.5713V29.0889H313.641V33.5713ZM325.74 26.8916V53.2002H322.957V26.8916H325.74ZM338.9 31.6084C338.9 34.9482 341.214 38.1416 345.228 39.4893L343.821 41.6572C340.848 40.6318 338.665 38.5811 337.523 36.0029C336.38 38.8447 334.11 41.0713 331.019 42.1553L329.525 39.9873C333.626 38.5811 336.087 35.2119 336.116 31.5791V30.876H330.345V28.6201H344.554V30.876H338.9V31.6084ZM350.355 26.8916V33.6299H354.163V35.9736H350.355V42.7119H347.571V26.8916H350.355ZM350.355 44.001V53.1416H347.571V46.2568H333.011V44.001H350.355ZM375.907 26.8916V37.5264H380.125V39.8408H375.907V53.1416H373.153V26.8916H375.907ZM370.868 30.9932V33.2783H355.311V30.9932H361.786V27.2432H364.569V30.9932H370.868ZM363.192 35.2119C366.942 35.2119 369.696 37.7314 369.725 41.3057C369.696 44.9092 366.942 47.3994 363.192 47.4287C359.413 47.3994 356.659 44.9092 356.659 41.3057C356.659 37.7314 359.413 35.2119 363.192 35.2119ZM363.192 37.4971C360.965 37.4971 359.295 39.0498 359.325 41.3057C359.295 43.5908 360.965 45.1143 363.192 45.085C365.418 45.1143 367.059 43.5908 367.059 41.3057C367.059 39.0498 365.418 37.4971 363.192 37.4971ZM403.011 26.8916V53.1416H400.199V26.8916H403.011ZM395.189 29.7041C395.189 37.3799 391.908 44.0596 382.914 48.3662L381.449 46.1104C388.436 42.7852 391.835 38.0537 392.377 31.9307H382.709V29.7041H395.189Z" fill="white"/>
</svg>
