<svg width="57" height="57" viewBox="0 0 57 57" fill="none" xmlns="http://www.w3.org/2000/svg">
<path id="Vector" d="M52.0383 22.8262L52.6901 23.1694C53.1676 23.4209 53.7194 23.493 54.2456 23.3727C54.7718 23.2524 55.2374 22.9477 55.5581 22.5138C55.8788 22.08 56.0334 21.5456 55.994 21.0077C55.9545 20.4699 55.7238 19.964 55.3435 19.5815C55.3433 19.5814 55.3432 19.5812 55.3431 19.5811L37.4495 1.69201L37.1913 1.4641C36.7849 1.15481 36.2879 0.991036 35.7824 1.00039C35.2648 1.00996 34.7662 1.19706 34.3702 1.53029C33.9742 1.86352 33.7048 2.32263 33.607 2.8307C33.5093 3.33876 33.5891 3.86498 33.8332 4.32123L34.1833 4.97562L33.6584 5.50026L23.3282 15.8246L23.1752 15.9775L22.9726 16.0536L10.6278 20.6866L10.3608 20.801C10.1552 20.9079 9.9672 21.0459 9.80352 21.2102L9.80226 21.2114L4.93765 26.0748L4.71078 26.3317C4.38562 26.762 4.22518 27.2948 4.25906 27.8336C4.29355 28.382 4.52702 28.899 4.91572 29.2877L4.91581 29.2877L14.0114 38.3843L14.7184 39.0914L14.0113 39.7984L1.67997 52.1299L1.45362 52.3862C1.11513 52.8359 0.956734 53.3962 1.01018 53.9571C1.06456 54.5278 1.33421 55.0566 1.76444 55.4358C2.19467 55.8151 2.75322 56.0164 3.32664 55.9989C3.89954 55.9815 4.44428 55.7468 4.85044 55.3427L52.0383 22.8262ZM52.0383 22.8262L51.5172 23.3469L41.1838 33.6745L41.0305 33.8277L40.9544 34.0306L36.3154 46.3971L36.3152 46.3976C36.2327 46.618 36.1162 46.8241 35.97 47.0084L35.7784 47.2273L30.9159 52.0885C30.5269 52.4768 30.0095 52.7099 29.4607 52.744C28.9207 52.7775 28.3869 52.6161 27.9563 52.2896L27.6958 52.062L18.6208 42.9925L17.9138 42.286L17.207 42.9925L4.85155 55.3416L52.0383 22.8262Z" fill="#79110E" stroke="black" stroke-width="2"/>
</svg>
