<svg width="57" height="57" viewBox="0 0 57 57" fill="none" xmlns="http://www.w3.org/2000/svg">
<mask id="path-1-inside-1_1883_12490" fill="white">
<path d="M37.8283 0.692523L38.1345 0.962846L56.052 18.8758C56.6011 19.4277 56.9344 20.1581 56.9913 20.9346C57.0482 21.711 56.825 22.4821 56.3622 23.1082C55.8994 23.7344 55.2276 24.174 54.4685 24.3476C53.7093 24.5211 52.9131 24.417 52.2241 24.0542L41.8907 34.3819L37.2517 46.7483C37.1295 47.0746 36.9557 47.3792 36.737 47.6504L36.5089 47.911L31.6223 52.7963C31.061 53.3566 30.3144 53.6929 29.5227 53.7421C28.731 53.7912 27.9486 53.5499 27.3222 53.0634L27.0127 52.7931L17.9139 43.6998L5.55736 56.05C4.97111 56.6341 4.18445 56.9732 3.35715 56.9985C2.52986 57.0237 1.72397 56.7332 1.10316 56.186C0.48235 55.6387 0.0931794 54.8757 0.0146892 54.052C-0.0638009 53.2282 0.174275 52.4055 0.680563 51.7509L0.950953 51.4447L13.3042 39.0913L4.20867 29.9948C3.64777 29.434 3.31082 28.6878 3.26103 27.8963C3.21125 27.1048 3.45206 26.3224 3.93828 25.6957L4.20867 25.3896L9.09524 20.5042C9.34104 20.2576 9.62481 20.052 9.93573 19.8952L10.255 19.7584L22.6213 15.1173L32.9515 4.79295C32.5992 4.13451 32.484 3.37506 32.625 2.64179C32.7661 1.90852 33.1549 1.24598 33.7263 0.765142C34.2978 0.284304 35.0171 0.014371 35.7639 0.000557712C36.5106 -0.0132556 37.2395 0.233147 37.8283 0.692523Z"/>
</mask>
<path d="M37.8283 0.692523L38.1345 0.962846L56.052 18.8758C56.6011 19.4277 56.9344 20.1581 56.9913 20.9346C57.0482 21.711 56.825 22.4821 56.3622 23.1082C55.8994 23.7344 55.2276 24.174 54.4685 24.3476C53.7093 24.5211 52.9131 24.417 52.2241 24.0542L41.8907 34.3819L37.2517 46.7483C37.1295 47.0746 36.9557 47.3792 36.737 47.6504L36.5089 47.911L31.6223 52.7963C31.061 53.3566 30.3144 53.6929 29.5227 53.7421C28.731 53.7912 27.9486 53.5499 27.3222 53.0634L27.0127 52.7931L17.9139 43.6998L5.55736 56.05C4.97111 56.6341 4.18445 56.9732 3.35715 56.9985C2.52986 57.0237 1.72397 56.7332 1.10316 56.186C0.48235 55.6387 0.0931794 54.8757 0.0146892 54.052C-0.0638009 53.2282 0.174275 52.4055 0.680563 51.7509L0.950953 51.4447L13.3042 39.0913L4.20867 29.9948C3.64777 29.434 3.31082 28.6878 3.26103 27.8963C3.21125 27.1048 3.45206 26.3224 3.93828 25.6957L4.20867 25.3896L9.09524 20.5042C9.34104 20.2576 9.62481 20.052 9.93573 19.8952L10.255 19.7584L22.6213 15.1173L32.9515 4.79295C32.5992 4.13451 32.484 3.37506 32.625 2.64179C32.7661 1.90852 33.1549 1.24598 33.7263 0.765142C34.2978 0.284304 35.0171 0.014371 35.7639 0.000557712C36.5106 -0.0132556 37.2395 0.233147 37.8283 0.692523Z" fill="#79110E" stroke="black" stroke-width="4" mask="url(#path-1-inside-1_1883_12490)"/>
</svg>
