<svg width="194" height="138" viewBox="0 0 194 138" fill="none" xmlns="http://www.w3.org/2000/svg">
<path d="M107.351 60.6604C110.475 59.4074 114.04 60.1383 115.95 60.6604C116.47 54.6564 117.344 46.9341 120.133 42.2813C122.313 38.6432 127.653 59.4906 126.872 68.105C127.567 70.4544 132.682 79.5048 120.133 84.8555C122.921 89.6985 127.333 96.1229 126.389 104.034C125.114 114.711 120.922 129.877 122.484 129.877H114.674H107.645L98.0549 129.679C89.921 129.877 73.7315 130.215 70.6781 129.355C66.219 128.1 60.1422 124.873 60.0046 117.608C59.9003 112.103 62.3476 107.95 62.6079 107.428C64.9483 102.734 73.1773 99.2831 70.6781 107.428C67.5541 117.608 72.0263 119.752 72.5004 119.958C72.9745 120.163 81.5252 120.132 83.6946 119.958C80.05 96.4638 101.953 84.2624 101.076 83.9249C92.0126 80.4353 94.8065 74.357 95.9634 68.1051C96.6387 51.8799 102.006 40.8852 103.4 42.2813C104.794 43.6773 106.223 55.5266 107.351 60.6604Z" fill="black"/>
<ellipse cx="4.51904" cy="5.64553" rx="4.51904" ry="5.64553" transform="matrix(-1 0 0 1 109.883 64.6367)" fill="#FFFEF8"/>
<ellipse cx="4.51904" cy="5.64553" rx="4.51904" ry="5.64553" transform="matrix(-1 0 0 1 124.631 64.6367)" fill="#FFFEF8"/>
<ellipse cx="1.42706" cy="2.11707" rx="1.42706" ry="2.11707" transform="matrix(-1 0 0 1 120.342 68.3984)" fill="black"/>
<ellipse cx="1.42706" cy="2.11707" rx="1.42706" ry="2.11707" transform="matrix(-1 0 0 1 108.457 68.3984)" fill="black"/>
<path d="M114.643 75.9219H111.788" stroke="#FFFEF8" stroke-width="1.69624" stroke-linecap="round"/>
<path d="M100.77 76.5941C98.3984 75.4371 93.0302 73.3662 90.5312 74.3381M100.77 79.0236C98.0513 78.7922 92.1972 78.6071 90.5312 79.7178" stroke="black" stroke-width="1.38831" stroke-linecap="round"/>
<path d="M122.761 76.5941C125.133 75.4371 130.501 73.3662 133 74.3381M122.761 79.0236C125.48 78.7922 131.334 78.6071 133 79.7178" stroke="black" stroke-width="1.38831" stroke-linecap="round"/>
<path d="M102.951 89.1063V80.5156H117.985V89.1063H102.951Z" fill="#FFFEF8"/>
<path d="M115.963 81.0525L110.468 84.1926L104.973 81.0525H115.963Z" stroke="#ABA2A2" stroke-width="1.07384"/>
<path d="M56.4534 64.4297C57.0445 65.5716 57.1579 66.9016 56.7684 68.127C56.379 69.3525 55.5187 70.3731 54.3768 70.9642C53.2348 71.5554 51.9049 71.6687 50.6794 71.2793C49.454 70.8898 48.4334 70.0295 47.8422 68.8876C47.2511 67.7457 47.1378 66.4157 47.5272 65.1903C47.9166 63.9648 48.7769 62.9442 49.9189 62.3531C51.0608 61.7619 52.3907 61.6486 53.6162 62.038C54.8417 62.4275 55.8622 63.2878 56.4534 64.4297Z" fill="black"/>
<path fill-rule="evenodd" clip-rule="evenodd" d="M39.3276 42.0458C37.8853 42.7925 36.8703 43.8639 36.3172 44.931C35.7852 45.9598 35.7275 46.8659 35.9156 47.5247C36.1501 48.414 36.0267 49.3598 35.5719 50.1592C35.1171 50.9586 34.3671 51.5479 33.4828 51.8006C32.5985 52.0534 31.6503 51.9495 30.8418 51.5112C30.0332 51.0729 29.4286 50.3352 29.1577 49.4563C28.3915 46.7793 28.8699 44.023 30.0764 41.6923C31.3326 39.2676 33.4348 37.1802 36.0957 35.8028C41.6003 32.953 49.2131 33.6798 52.2735 39.5914C54.0455 43.0143 53.4443 46.836 51.6452 49.8147C51.1627 50.6125 50.383 51.186 49.4776 51.409C48.5723 51.6319 47.6154 51.4861 46.8176 51.0036C46.0197 50.5211 45.4463 49.7414 45.2233 48.836C45.0003 47.9307 45.1461 46.9738 45.6286 46.176C46.4668 44.7894 46.4294 43.5941 46.0304 42.8234C45.3907 41.5877 42.757 40.2705 39.3276 42.0458Z" fill="black"/>
<path fill-rule="evenodd" clip-rule="evenodd" d="M43.6352 50.3684C45.3574 49.4768 47.4789 50.1474 48.3727 51.8739L50.0467 55.1074C50.4753 55.9353 50.5574 56.8995 50.2751 57.788C49.9927 58.6764 49.369 59.4164 48.5411 59.8449C47.7133 60.2735 46.749 60.3557 45.8606 60.0733C44.9721 59.791 44.2322 59.1673 43.8036 58.3394L42.1297 55.1059C41.2381 53.3837 41.9108 51.2611 43.6352 50.3684Z" fill="black"/>
<path fill-rule="evenodd" clip-rule="evenodd" d="M50.4925 45.0034C50.8855 45.2461 51.2269 45.5639 51.497 45.9387C51.7671 46.3134 51.9607 46.7378 52.0667 47.1874C52.1727 47.637 52.1891 48.1031 52.1148 48.5591C52.0405 49.0151 51.8771 49.4519 51.6339 49.8446L48.2404 55.333C47.7504 56.126 46.9653 56.6919 46.058 56.9062C45.1507 57.1204 44.1955 56.9655 43.4024 56.4754C42.6094 55.9854 42.0435 55.2003 41.8292 54.293C41.615 53.3857 41.7699 52.4305 42.26 51.6374L45.6545 46.1458C45.8973 45.7532 46.2151 45.4122 46.5897 45.1423C46.9644 44.8725 47.3885 44.6791 47.8378 44.5733C48.2872 44.4674 48.753 44.451 49.2087 44.5252C49.6644 44.5994 50.0999 44.7604 50.4925 45.0034Z" fill="black"/>
<path d="M133.831 28.1297C133.63 28.8308 133.158 29.4232 132.52 29.7767C131.882 30.1301 131.13 30.2156 130.429 30.0144C129.728 29.8132 129.135 29.3417 128.782 28.7037C128.428 28.0656 128.343 27.3133 128.544 26.6122C128.745 25.9111 129.217 25.3187 129.855 24.9652C130.493 24.6118 131.245 24.5263 131.946 24.7275C132.647 24.9287 133.24 25.4002 133.593 26.0383C133.947 26.6763 134.032 27.4286 133.831 28.1297Z" fill="black"/>
<path fill-rule="evenodd" clip-rule="evenodd" d="M135.493 12.2258C134.608 11.9717 133.772 12.0179 133.128 12.2422C132.508 12.4591 132.131 12.8101 131.952 13.155C131.702 13.613 131.283 13.9548 130.784 14.1072C130.285 14.2595 129.746 14.2102 129.283 13.9698C128.82 13.7295 128.47 13.3172 128.307 12.8215C128.144 12.3258 128.183 11.7861 128.413 11.3182C129.141 9.91601 130.412 8.96614 131.817 8.47542C133.28 7.96532 134.96 7.92391 136.594 8.39281C139.973 9.36286 142.828 12.6287 141.787 16.2582C141.183 18.3598 139.447 19.701 137.544 20.2279C137.034 20.3688 136.49 20.3015 136.029 20.0406C135.569 19.7798 135.232 19.3468 135.091 18.837C134.95 18.3273 135.017 17.7824 135.278 17.3223C135.539 16.8622 135.972 16.5245 136.482 16.3836C137.367 16.1386 137.818 15.6312 137.954 15.158C138.171 14.3994 137.599 12.8302 135.493 12.2258Z" fill="black"/>
<path fill-rule="evenodd" clip-rule="evenodd" d="M134.026 17.3313C135.083 17.6348 135.697 18.7379 135.392 19.7979L134.822 21.7832C134.677 22.2915 134.335 22.721 133.872 22.9772C133.41 23.2335 132.864 23.2955 132.356 23.1496C131.848 23.0037 131.418 22.6619 131.162 22.1993C130.906 21.7367 130.844 21.1913 130.989 20.683L131.559 18.6978C131.863 17.6404 132.967 17.0275 134.026 17.3313Z" fill="black"/>
<path fill-rule="evenodd" clip-rule="evenodd" d="M138.944 17.797C139.012 18.0502 139.029 18.3142 138.994 18.5739C138.959 18.8337 138.874 19.0841 138.742 19.3107C138.611 19.5374 138.436 19.7359 138.228 19.8949C138.019 20.054 137.782 20.1704 137.529 20.2375L133.991 21.1778C133.48 21.3138 132.936 21.2413 132.479 20.9761C132.021 20.7109 131.688 20.2748 131.552 19.7637C131.416 19.2527 131.488 18.7086 131.753 18.2511C132.019 17.7935 132.455 17.4601 132.966 17.3241L136.505 16.3829C136.758 16.3156 137.022 16.2989 137.281 16.3336C137.541 16.3683 137.791 16.4539 138.018 16.5853C138.244 16.7167 138.443 16.8915 138.601 17.0996C138.76 17.3078 138.877 17.5438 138.944 17.797Z" fill="black"/>
<path d="M159.904 102.334C159.121 103.012 158.1 103.351 157.067 103.277C156.034 103.202 155.072 102.72 154.394 101.937C153.716 101.154 153.377 100.133 153.452 99.1001C153.526 98.0668 154.008 97.1055 154.791 96.4275C155.574 95.7495 156.595 95.4104 157.628 95.4848C158.661 95.5592 159.623 96.041 160.301 96.8243C160.979 97.6075 161.318 98.628 161.243 99.6612C161.169 100.694 160.687 101.656 159.904 102.334Z" fill="black"/>
<path fill-rule="evenodd" clip-rule="evenodd" d="M174.216 84.7079C173.36 83.7186 172.329 83.1252 171.389 82.8927C170.483 82.6696 169.763 82.7949 169.282 83.0663C168.63 83.4174 167.865 83.4988 167.154 83.2929C166.442 83.0871 165.839 82.6105 165.475 81.9654C165.11 81.3203 165.013 80.558 165.204 79.8421C165.395 79.1262 165.859 78.5138 166.497 78.1362C168.45 77.0321 170.699 76.8881 172.752 77.3945C174.887 77.9222 176.918 79.176 178.498 81.0011C181.766 84.7767 182.63 90.8769 178.575 94.3868C176.227 96.4191 173.121 96.6675 170.449 95.8188C169.733 95.591 169.137 95.0882 168.792 94.421C168.447 93.7537 168.381 92.9768 168.609 92.261C168.837 91.5452 169.339 90.9492 170.007 90.6041C170.674 90.2591 171.451 90.1932 172.167 90.421C173.411 90.8166 174.34 90.5623 174.868 90.1047C175.716 89.371 176.252 87.0601 174.216 84.7079Z" fill="black"/>
<path fill-rule="evenodd" clip-rule="evenodd" d="M168.51 89.6528C169.532 90.834 169.406 92.6221 168.222 93.6472L166.004 95.5671C165.436 96.0586 164.696 96.3044 163.947 96.2505C163.198 96.1965 162.501 95.8472 162.01 95.2794C161.518 94.7115 161.272 93.9717 161.326 93.2226C161.38 92.4735 161.73 91.7765 162.297 91.2849L164.515 89.3651C165.696 88.3425 167.486 88.47 168.51 89.6528Z" fill="black"/>
<path fill-rule="evenodd" clip-rule="evenodd" d="M173.997 94.0106C173.881 94.3642 173.696 94.6914 173.454 94.9735C173.211 95.2556 172.915 95.4872 172.583 95.6548C172.251 95.8225 171.888 95.923 171.517 95.9507C171.146 95.9783 170.773 95.9325 170.42 95.8159L165.482 94.1907C164.768 93.9561 164.177 93.4476 163.839 92.7772C163.5 92.1068 163.442 91.3294 163.676 90.6159C163.911 89.9025 164.419 89.3114 165.09 88.9728C165.76 88.6342 166.538 88.5758 167.251 88.8104L172.192 90.4359C172.545 90.5522 172.872 90.7369 173.154 90.9796C173.436 91.2223 173.667 91.5181 173.835 91.8502C174.002 92.1822 174.103 92.5441 174.13 92.915C174.158 93.2859 174.114 93.6573 173.997 94.0106Z" fill="black"/>
<rect width="194" height="138" fill="#F5F3E9" fill-opacity="0.55"/>
</svg>
