<svg width="22" height="22" viewBox="0 0 22 22" fill="none" xmlns="http://www.w3.org/2000/svg">
<path d="M11 0C8.82441 0 6.69767 0.645139 4.88873 1.85383C3.07979 3.06253 1.66989 4.78049 0.83733 6.79048C0.00476611 8.80047 -0.213071 11.0122 0.211367 13.146C0.635804 15.2798 1.68345 17.2398 3.22183 18.7782C4.76021 20.3165 6.72022 21.3642 8.85401 21.7886C10.9878 22.2131 13.1995 21.9952 15.2095 21.1627C17.2195 20.3301 18.9375 18.9202 20.1462 17.1113C21.3549 15.3023 22 13.1756 22 11C21.9969 8.08356 20.837 5.28746 18.7748 3.22523C16.7125 1.16299 13.9164 0.00307981 11 0ZM14.9833 13.786C15.0619 13.8646 15.1242 13.9579 15.1668 14.0606C15.2093 14.1633 15.2312 14.2734 15.2312 14.3846C15.2312 14.4958 15.2093 14.6059 15.1668 14.7086C15.1242 14.8113 15.0619 14.9047 14.9833 14.9833C14.9047 15.0619 14.8113 15.1242 14.7086 15.1668C14.6059 15.2093 14.4958 15.2312 14.3846 15.2312C14.2734 15.2312 14.1633 15.2093 14.0606 15.1668C13.9579 15.1242 13.8646 15.0619 13.786 14.9833L11 12.1962L8.21404 14.9833C8.13543 15.0619 8.04209 15.1242 7.93938 15.1668C7.83666 15.2093 7.72657 15.2312 7.61539 15.2312C7.50421 15.2312 7.39412 15.2093 7.2914 15.1668C7.18868 15.1242 7.09535 15.0619 7.01673 14.9833C6.93812 14.9047 6.87576 14.8113 6.83321 14.7086C6.79066 14.6059 6.76876 14.4958 6.76876 14.3846C6.76876 14.2734 6.79066 14.1633 6.83321 14.0606C6.87576 13.9579 6.93812 13.8646 7.01673 13.786L9.80375 11L7.01673 8.21404C6.85796 8.05527 6.76876 7.83992 6.76876 7.61538C6.76876 7.39084 6.85796 7.1755 7.01673 7.01673C7.17551 6.85796 7.39085 6.76876 7.61539 6.76876C7.83993 6.76876 8.05527 6.85796 8.21404 7.01673L11 9.80375L13.786 7.01673C13.8646 6.93811 13.9579 6.87575 14.0606 6.8332C14.1633 6.79066 14.2734 6.76876 14.3846 6.76876C14.4958 6.76876 14.6059 6.79066 14.7086 6.8332C14.8113 6.87575 14.9047 6.93811 14.9833 7.01673C15.0619 7.09535 15.1242 7.18868 15.1668 7.29139C15.2093 7.39411 15.2312 7.5042 15.2312 7.61538C15.2312 7.72656 15.2093 7.83666 15.1668 7.93937C15.1242 8.04209 15.0619 8.13542 14.9833 8.21404L12.1963 11L14.9833 13.786Z" fill="#C90000"/>
</svg>
