<svg width="24" height="24" viewBox="0 0 24 24" fill="none" xmlns="http://www.w3.org/2000/svg">
<path d="M23.2242 11.9503C23.2242 18.4153 18.0374 23.6564 11.6394 23.6564C5.24208 23.6564 0.0546875 18.4153 0.0546875 11.9503C0.0546875 5.48589 5.24208 0.244141 11.6394 0.244141C18.0374 0.244141 23.2242 5.48589 23.2242 11.9503Z" fill="#FFCC4D"/>
<path d="M7.45665 13.5758C8.34527 13.5758 9.06564 12.5567 9.06564 11.2996C9.06564 10.0425 8.34527 9.02344 7.45665 9.02344C6.56803 9.02344 5.84766 10.0425 5.84766 11.2996C5.84766 12.5567 6.56803 13.5758 7.45665 13.5758Z" fill="#664500"/>
<path d="M15.8238 13.5758C16.7125 13.5758 17.4328 12.5567 17.4328 11.2996C17.4328 10.0425 16.7125 9.02344 15.8238 9.02344C14.9352 9.02344 14.2148 10.0425 14.2148 11.2996C14.2148 12.5567 14.9352 13.5758 15.8238 13.5758Z" fill="#664500"/>
<path d="M3.91639 9.0251C3.79692 9.02498 3.67984 8.99126 3.57827 8.92771C3.47669 8.86417 3.39462 8.77331 3.34124 8.66531C3.28787 8.5573 3.26529 8.43642 3.27605 8.31619C3.28681 8.19596 3.33048 8.08113 3.40216 7.98455C5.50157 5.15556 8.30379 5.12305 8.42221 5.12305C8.50673 5.12288 8.59046 5.13953 8.6686 5.17205C8.74675 5.20458 8.8178 5.25234 8.87768 5.31261C8.93756 5.37288 8.98511 5.44448 9.01761 5.52331C9.05011 5.60215 9.06693 5.68668 9.0671 5.77209C9.06727 5.85749 9.05079 5.94209 9.0186 6.02106C8.98641 6.10003 8.93915 6.17182 8.8795 6.23233C8.81986 6.29284 8.749 6.34089 8.67098 6.37373C8.59296 6.40657 8.50931 6.42356 8.42479 6.42373C8.32503 6.42503 6.12843 6.47966 4.43191 8.76496C4.37197 8.84589 4.29414 8.91156 4.20464 8.95672C4.11514 9.00189 4.01643 9.0253 3.91639 9.0251ZM19.364 9.0251C19.264 9.0253 19.1653 9.00189 19.0758 8.95672C18.9863 8.91156 18.9084 8.84589 18.8485 8.76496C17.1487 6.47511 14.9476 6.42438 14.8543 6.42373C14.6842 6.42184 14.5217 6.35209 14.4022 6.22967C14.2827 6.10724 14.216 5.94207 14.2165 5.77014C14.2169 5.5984 14.2846 5.43381 14.4049 5.3125C14.5252 5.19118 14.6882 5.12305 14.8582 5.12305C14.9766 5.12305 17.7782 5.15556 19.8782 7.98455C19.9499 8.08113 19.9936 8.19596 20.0043 8.31619C20.0151 8.43642 19.9925 8.5573 19.9392 8.66531C19.8858 8.77331 19.8037 8.86417 19.7021 8.92771C19.6005 8.99126 19.4835 9.02498 19.364 9.0251ZM15.1703 18.7015C15.1632 18.6729 14.4334 15.8537 11.6402 15.8537C8.84699 15.8537 8.11715 18.6729 8.11007 18.7015C8.09407 18.7689 8.09995 18.8397 8.12684 18.9034C8.15373 18.9671 8.2002 19.0204 8.25938 19.0553C8.31922 19.0905 8.38855 19.1057 8.45744 19.0987C8.52634 19.0917 8.59128 19.0628 8.64297 19.0163C8.64876 19.0111 9.29493 18.455 11.6402 18.455C13.9507 18.455 14.6117 18.9948 14.6368 19.0163C14.6873 19.0647 14.752 19.0952 14.8212 19.1033C14.8903 19.1113 14.9602 19.0965 15.0203 19.061C15.0805 19.0256 15.1276 18.9714 15.1546 18.9065C15.1817 18.8417 15.1872 18.7698 15.1703 18.7015Z" fill="#664500"/>
<path d="M10.352 20.4038C10.352 22.2 8.91161 23.6555 7.134 23.6555C5.35639 23.6555 3.91602 22.2 3.91602 20.4038C3.91602 18.6076 6.4904 13.9004 7.134 13.9004C7.7776 13.9004 10.352 18.6076 10.352 20.4038Z" fill="#5DADEC"/>
</svg>
