<svg width="42" height="42" viewBox="0 0 42 42" fill="none" xmlns="http://www.w3.org/2000/svg">
<rect width="42" height="42" rx="11.336" fill="black"/>
<path d="M27.7974 9.07031C27.1848 9.07009 26.5804 9.20196 26.0306 9.45576C25.4809 9.70957 25.0005 10.0785 24.6265 10.5342C24.2526 10.9899 23.995 11.5201 23.8736 12.0841C23.7523 12.648 23.7704 13.2306 23.9266 13.7869C23.83 13.8061 23.737 13.8386 23.6505 13.8834L19.9732 15.7663L15.2968 18.278C15.2499 18.303 15.2053 18.3315 15.1634 18.3632C14.5128 18.0019 13.7665 17.821 13.011 17.8414C12.2555 17.8619 11.5216 18.083 10.8943 18.479C10.267 18.875 9.77196 19.4297 9.46645 20.079C9.16094 20.7283 9.05748 21.4456 9.16805 22.1479C9.27861 22.8501 9.59868 23.5086 10.0912 24.0471C10.5837 24.5856 11.2286 24.982 11.951 25.1906C12.6735 25.3991 13.4441 25.4112 14.1736 25.2254C14.9031 25.0396 15.5617 24.6636 16.073 24.1409L19.9758 26.1791L23.916 28.1973C23.6774 29.0842 23.7915 30.0224 24.2368 30.8359C24.682 31.6495 25.4279 32.2826 26.3347 32.6166C27.2414 32.9505 28.2467 32.9624 29.1621 32.65C30.0775 32.3377 30.8402 31.7224 31.3071 30.9197C31.7741 30.1169 31.9133 29.1817 31.6987 28.2895C31.484 27.3972 30.9303 26.6091 30.1412 26.0729C29.3521 25.5367 28.3819 25.2892 27.4124 25.3768C26.4429 25.4643 25.5407 25.881 24.875 26.5487L20.9442 24.5343L17.0147 22.4848C17.2538 21.5544 17.1069 20.5735 16.6039 19.7412L20.9495 17.4086L24.6082 15.5333C24.6952 15.489 24.7748 15.4328 24.8443 15.3666C25.2937 15.8276 25.8583 16.1759 26.4872 16.3803C27.116 16.5846 27.7892 16.6384 28.4458 16.5368C29.1023 16.4353 29.7215 16.1815 30.2474 15.7986C30.7733 15.4156 31.1891 14.9156 31.4574 14.3436C31.7256 13.7717 31.8378 13.146 31.7837 12.5231C31.7296 11.9002 31.511 11.2998 31.1476 10.7762C30.7842 10.2527 30.2876 9.8225 29.7026 9.52464C29.1176 9.22677 28.4628 9.07062 27.7974 9.07031Z" fill="white"/>
</svg>
