<svg width="34" height="38" viewBox="0 0 34 38" fill="none" xmlns="http://www.w3.org/2000/svg">
<path d="M10.8216 1.0057C11.8447 1.0057 13.0914 10.4181 13.9099 15.0219C16.6109 14.0398 19.5241 14.715 20.513 15.1243C21.0041 6.12112 23.7679 0.801084 24.1771 1.0057C26.4279 1.41493 28.7256 14.5104 28.4377 20.5466C31.9571 27.7491 26.7698 31.4595 23.6323 32.619C21.2648 33.8095 15.6342 35.2101 9.51066 32.5167C3.25319 29.7643 4.0883 24.5366 5.41831 20.5466C5.22827 14.051 8.58494 1.0057 10.8216 1.0057Z" fill="black" stroke="black" stroke-width="0.204617"/>
<ellipse cx="3.28945" cy="4.15509" rx="3.28945" ry="4.15509" transform="matrix(-1 0 0 1 14.9453 17.3691)" fill="#FFFEF8"/>
<ellipse cx="3.28945" cy="4.15509" rx="3.28945" ry="4.15509" transform="matrix(-1 0 0 1 25.6797 17.3691)" fill="#FFFEF8"/>
<ellipse cx="1.03877" cy="1.55816" rx="1.03877" ry="1.55816" transform="matrix(-1 0 0 1 22.5625 20.1396)" fill="black"/>
<ellipse cx="1.03877" cy="1.55816" rx="1.03877" ry="1.55816" transform="matrix(-1 0 0 1 13.9062 20.1396)" fill="black"/>
<path d="M18.2031 25.6797H16.1256" stroke="#FFFEF8" stroke-width="1.02308" stroke-linecap="round"/>
<path d="M7.0362 26.6798C5.63798 25.9978 2.47324 24.7769 1 25.3498M7.0362 28.1121C5.43336 27.9757 1.98216 27.8666 1 28.5214" stroke="black" stroke-width="0.818467" stroke-linecap="round"/>
<path d="M26.9853 26.6232C28.3835 25.9411 31.5482 24.7202 33.0215 25.2932M26.9853 28.0555C28.5881 27.9191 32.0393 27.8099 33.0215 28.4647" stroke="black" stroke-width="0.818467" stroke-linecap="round"/>
<path d="M10.8203 36.4787V29.8297C10.8203 29.7285 10.9024 29.6465 11.0036 29.6465H22.9141C23.0153 29.6465 23.0973 29.7285 23.0973 29.8297V36.4787C23.0973 36.5799 23.0153 36.6619 22.9141 36.6619H11.0036C10.9024 36.6619 10.8203 36.5799 10.8203 36.4787Z" fill="#FFFEF8" stroke="#ABA2A2" stroke-width="0.732956"/>
<path d="M16.9588 32.6492L12.4714 30.0849H21.4463L16.9588 32.6492Z" fill="#FFFEF8" stroke="#ABA2A2" stroke-width="0.876929"/>
</svg>
