<svg width="120" height="120" viewBox="0 0 120 120" fill="none" xmlns="http://www.w3.org/2000/svg">
<path d="M120 60C120 93.1371 93.1371 120 60 120C26.8629 120 0 93.1371 0 60C0 26.8629 26.8629 0 60 0C93.1371 0 120 26.8629 120 60Z" fill="#554242"/>
<path fill-rule="evenodd" clip-rule="evenodd" d="M60 114.545C90.1246 114.545 114.545 90.1246 114.545 60C114.545 29.8754 90.1246 5.45455 60 5.45455C29.8754 5.45455 5.45455 29.8754 5.45455 60C5.45455 90.1246 29.8754 114.545 60 114.545ZM60 120C93.1371 120 120 93.1371 120 60C120 26.8629 93.1371 0 60 0C26.8629 0 0 26.8629 0 60C0 93.1371 26.8629 120 60 120Z" fill="black"/>
<path d="M60.1291 57.6172C55.1552 57.6172 52.7569 61.8028 51.7487 65.8392C51.0795 68.5183 48.8498 70.7374 46.1839 71.4576C41.3311 72.7687 36.2983 76.2473 37.6165 83.9587C39.8677 97.1295 55.6266 88.3489 60.1291 88.3489C64.6316 88.3489 80.3905 97.1295 82.6417 83.9587C83.9598 76.2473 78.9271 72.7687 74.0743 71.4576C71.4084 70.7374 69.1787 68.5183 68.5095 65.8392C67.5013 61.8028 65.103 57.6172 60.1291 57.6172Z" fill="#DCABBD"/>
<path fill-rule="evenodd" clip-rule="evenodd" d="M55.8669 61.4442C54.7841 62.6906 54.0318 64.4347 53.5674 66.2935C52.7287 69.6513 49.9757 72.3754 46.6725 73.2677C44.4552 73.8668 42.3803 74.9174 41.0136 76.5233C39.7084 78.0567 38.8893 80.2791 39.4643 83.6428C39.9541 86.5084 41.1001 87.8662 42.3563 88.5595C43.7189 89.3116 45.5754 89.4869 47.8145 89.2301C50.0308 88.9758 52.3525 88.3339 54.5097 87.7132C54.6401 87.6757 54.7703 87.6382 54.9 87.6007C55.8176 87.3361 56.7135 87.0777 57.5106 86.8804C58.3928 86.6621 59.3212 86.474 60.1287 86.474C60.9362 86.474 61.8646 86.6621 62.7469 86.8804C63.544 87.0777 64.4399 87.3361 65.3574 87.6007C65.4872 87.6382 65.6173 87.6757 65.7477 87.7132C67.9049 88.3339 70.2266 88.9758 72.443 89.2301C74.682 89.4869 76.5385 89.3116 77.9012 88.5595C79.1574 87.8662 80.3034 86.5084 80.7932 83.6428C81.3681 80.2791 80.549 78.0567 79.2439 76.5233C77.8771 74.9174 75.8023 73.8668 73.5849 73.2677C70.2818 72.3754 67.5287 69.6513 66.69 66.2935C66.2257 64.4347 65.4733 62.6906 64.3906 61.4442C63.3561 60.2534 62.01 59.4922 60.1287 59.4922C58.2475 59.4922 56.9014 60.2534 55.8669 61.4442ZM53.0359 58.9849C54.6961 57.0738 57.0361 55.7422 60.1287 55.7422C63.2213 55.7422 65.5613 57.0738 67.2215 58.9849C68.8334 60.8403 69.7843 63.2073 70.3282 65.3848C70.8279 67.3853 72.5343 69.0995 74.5629 69.6475C77.1984 70.3595 80.0663 71.7038 82.0996 74.0928C84.1945 76.5542 85.2327 79.9269 84.4896 84.2746C83.8537 87.9944 82.1857 90.4781 79.7132 91.8427C77.3472 93.1485 74.5604 93.2476 72.0156 92.9556C69.448 92.6611 66.845 91.9311 64.7108 91.317C64.5771 91.2786 64.4457 91.2406 64.3163 91.2033C63.3874 90.9355 62.5681 90.6993 61.846 90.5206C60.9959 90.3102 60.4469 90.2239 60.1287 90.2239C59.8106 90.2239 59.2616 90.3102 58.4114 90.5206C57.6894 90.6993 56.87 90.9355 55.9412 91.2033C55.8118 91.2406 55.6803 91.2786 55.5466 91.317C53.4124 91.9311 50.8095 92.6611 48.2419 92.9556C45.697 93.2476 42.9103 93.1485 40.5442 91.8427C38.0718 90.4781 36.4037 87.9944 35.7679 84.2746C35.0247 79.9269 36.0629 76.5542 38.1578 74.0928C40.1911 71.7038 43.059 70.3595 45.6945 69.6475C47.7231 69.0995 49.4295 67.3853 49.9292 65.3848C50.4731 63.2073 51.424 60.8403 53.0359 58.9849Z" fill="black"/>
<path d="M55.202 38.3828C55.202 44.7828 52.6733 50.3828 48.002 50.3828C43.3307 50.3828 40.802 44.7828 40.802 38.3828C40.802 31.9828 42.602 26.3828 48.002 26.3828C53.402 26.3828 55.202 31.9828 55.202 38.3828Z" fill="#DCABBD"/>
<path fill-rule="evenodd" clip-rule="evenodd" d="M56.6357 48.597C54.9902 51.5738 52.1209 54.1328 48.002 54.1328C43.8831 54.1328 41.0138 51.5738 39.3683 48.597C37.7568 45.6816 37.052 42.0054 37.052 38.3828C37.052 34.9395 37.5191 31.2463 39.0382 28.2755C40.6839 25.0573 43.6474 22.6328 48.002 22.6328C52.3566 22.6328 55.3201 25.0573 56.9658 28.2755C58.4849 31.2463 58.952 34.9395 58.952 38.3828C58.952 42.0054 58.2472 45.6816 56.6357 48.597ZM48.002 50.3828C52.6733 50.3828 55.202 44.7828 55.202 38.3828C55.202 31.9828 53.402 26.3828 48.002 26.3828C42.602 26.3828 40.802 31.9828 40.802 38.3828C40.802 44.7828 43.3307 50.3828 48.002 50.3828Z" fill="black"/>
<path d="M36.0045 62.375C36.0045 68.775 33.4758 74.375 28.8045 74.375C24.1332 74.375 21.6045 68.775 21.6045 62.375C21.6045 55.975 23.4045 50.375 28.8045 50.375C34.2045 50.375 36.0045 55.975 36.0045 62.375Z" fill="#DCABBD"/>
<path fill-rule="evenodd" clip-rule="evenodd" d="M37.4382 72.5892C35.7927 75.5659 32.9234 78.125 28.8045 78.125C24.6856 78.125 21.8163 75.5659 20.1708 72.5892C18.5593 69.6738 17.8545 65.9975 17.8545 62.375C17.8545 58.9317 18.3215 55.2385 19.8407 52.2677C21.4864 49.0495 24.4499 46.625 28.8045 46.625C33.1591 46.625 36.1226 49.0495 37.7683 52.2677C39.2874 55.2385 39.7545 58.9317 39.7545 62.375C39.7545 65.9975 39.0497 69.6738 37.4382 72.5892ZM28.8045 74.375C33.4758 74.375 36.0045 68.775 36.0045 62.375C36.0045 55.975 34.2045 50.375 28.8045 50.375C23.4045 50.375 21.6045 55.975 21.6045 62.375C21.6045 68.775 24.1332 74.375 28.8045 74.375Z" fill="black"/>
<path d="M79.2037 38.3828C79.2037 44.7828 76.675 50.3828 72.0037 50.3828C67.3324 50.3828 64.8037 44.7828 64.8037 38.3828C64.8037 31.9828 66.6037 26.3828 72.0037 26.3828C77.4037 26.3828 79.2037 31.9828 79.2037 38.3828Z" fill="#DCABBD"/>
<path fill-rule="evenodd" clip-rule="evenodd" d="M80.6374 48.597C78.9919 51.5738 76.1226 54.1328 72.0037 54.1328C67.8848 54.1328 65.0155 51.5738 63.37 48.597C61.7585 45.6816 61.0537 42.0054 61.0537 38.3828C61.0537 34.9395 61.5208 31.2463 63.0399 28.2755C64.6856 25.0573 67.6492 22.6328 72.0037 22.6328C76.3583 22.6328 79.3218 25.0573 80.9675 28.2755C82.4867 31.2463 82.9537 34.9395 82.9537 38.3828C82.9537 42.0054 82.2489 45.6816 80.6374 48.597ZM72.0037 50.3828C76.675 50.3828 79.2037 44.7828 79.2037 38.3828C79.2037 31.9828 77.4037 26.3828 72.0037 26.3828C66.6037 26.3828 64.8037 31.9828 64.8037 38.3828C64.8037 44.7828 67.3324 50.3828 72.0037 50.3828Z" fill="black"/>
<path d="M98.4117 62.375C98.4117 68.775 95.883 74.375 91.2117 74.375C86.5404 74.375 84.0117 68.775 84.0117 62.375C84.0117 55.975 85.8117 50.375 91.2117 50.375C96.6117 50.375 98.4117 55.975 98.4117 62.375Z" fill="#DCABBD"/>
<path fill-rule="evenodd" clip-rule="evenodd" d="M99.8454 72.5892C98.1999 75.5659 95.3306 78.125 91.2117 78.125C87.0928 78.125 84.2235 75.5659 82.578 72.5892C80.9665 69.6738 80.2617 65.9975 80.2617 62.375C80.2617 58.9317 80.7288 55.2385 82.2479 52.2677C83.8936 49.0495 86.8572 46.625 91.2117 46.625C95.5663 46.625 98.5298 49.0495 100.176 52.2677C101.695 55.2385 102.162 58.9317 102.162 62.375C102.162 65.9975 101.457 69.6738 99.8454 72.5892ZM91.2117 74.375C95.883 74.375 98.4117 68.775 98.4117 62.375C98.4117 55.975 96.6117 50.375 91.2117 50.375C85.8117 50.375 84.0117 55.975 84.0117 62.375C84.0117 68.775 86.5404 74.375 91.2117 74.375Z" fill="black"/>
</svg>
