<svg width="25" height="23" viewBox="0 0 25 23" fill="none" xmlns="http://www.w3.org/2000/svg">
<path d="M12.4991 11.7344C11.1654 11.7344 10.4377 12.7192 10.0713 13.7939C9.71483 14.8394 8.82449 15.7256 7.78765 16.1064C6.46331 16.5929 5.25783 17.6659 5.61982 19.7837C6.30775 23.8084 11.1233 21.1253 12.4991 21.1253C13.875 21.1253 18.6905 23.8084 19.3785 19.7837C19.7404 17.6659 18.535 16.5929 17.2106 16.1064C16.1738 15.7256 15.2834 14.8394 14.927 13.7939C14.5605 12.7192 13.8328 11.7344 12.4991 11.7344Z" fill="#DCABBD" stroke="black" stroke-width="1.5" stroke-linecap="round"/>
<path d="M12.25 4.95C12.25 6.16644 11.9648 7.25076 11.4731 8.00564C10.9955 8.73888 10.3393 9.15 9.5 9.15C8.66069 9.15 8.00453 8.73888 7.52689 8.00564C7.03516 7.25076 6.75 6.16644 6.75 4.95C6.75 3.69135 6.96219 2.61189 7.408 1.87211C7.82209 1.18495 8.45606 0.75 9.5 0.75C10.5439 0.75 11.1779 1.18495 11.592 1.87211C12.0378 2.61189 12.25 3.69135 12.25 4.95Z" fill="#DCABBD" stroke="black" stroke-width="1.5" stroke-linecap="round"/>
<path d="M6.25 11.95C6.25 13.1664 5.96484 14.2508 5.47311 15.0056C4.99547 15.7389 4.33931 16.15 3.5 16.15C2.66069 16.15 2.00453 15.7389 1.52689 15.0056C1.03516 14.2508 0.75 13.1664 0.75 11.95C0.75 10.6914 0.962195 9.61189 1.408 8.87211C1.82209 8.18495 2.45606 7.75 3.5 7.75C4.54394 7.75 5.17791 8.18495 5.592 8.87211C6.03781 9.61189 6.25 10.6914 6.25 11.95Z" fill="#DCABBD" stroke="black" stroke-width="1.5" stroke-linecap="round"/>
<path d="M18.25 4.95C18.25 6.16644 17.9648 7.25076 17.4731 8.00564C16.9955 8.73888 16.3393 9.15 15.5 9.15C14.6607 9.15 14.0045 8.73888 13.5269 8.00564C13.0352 7.25076 12.75 6.16644 12.75 4.95C12.75 3.69135 12.9622 2.61189 13.408 1.87211C13.8221 1.18495 14.4561 0.75 15.5 0.75C16.5439 0.75 17.1779 1.18495 17.592 1.87211C18.0378 2.61189 18.25 3.69135 18.25 4.95Z" fill="#DCABBD" stroke="black" stroke-width="1.5" stroke-linecap="round"/>
<path d="M24.25 11.95C24.25 13.1664 23.9648 14.2508 23.4731 15.0056C22.9955 15.7389 22.3393 16.15 21.5 16.15C20.6607 16.15 20.0045 15.7389 19.5269 15.0056C19.0352 14.2508 18.75 13.1664 18.75 11.95C18.75 10.6914 18.9622 9.61189 19.408 8.87211C19.8221 8.18495 20.4561 7.75 21.5 7.75C22.5439 7.75 23.1779 8.18495 23.592 8.87211C24.0378 9.61189 24.25 10.6914 24.25 11.95Z" fill="#DCABBD" stroke="black" stroke-width="1.5" stroke-linecap="round"/>
</svg>
