<svg width="19" height="19" viewBox="0 0 19 19" fill="none" xmlns="http://www.w3.org/2000/svg">
<path d="M7.046 4.24184C8.08052 2.3853 8.59859 1.45703 9.37162 1.45703C10.1447 1.45703 10.6627 2.3853 11.6973 4.24184L11.9653 4.72231C12.2595 5.25018 12.4065 5.5133 12.6353 5.68654C12.8641 5.8614 13.1518 5.92677 13.7222 6.05588L14.2419 6.17355C16.2521 6.62788 17.2572 6.85504 17.4958 7.62479C17.736 8.39289 17.0496 9.19369 15.6801 10.7969L15.3254 11.212C14.9365 11.6663 14.742 11.8951 14.6554 12.1762C14.5655 12.4573 14.5949 12.7613 14.6554 13.3693L14.7077 13.9216C14.9152 16.0593 15.0182 17.1281 14.3922 17.6037C13.7663 18.0776 12.8266 17.6462 10.9438 16.78L10.4568 16.5545C9.92239 16.3093 9.65599 16.1851 9.37162 16.1851C9.08889 16.1851 8.82086 16.3093 8.28644 16.5545L7.79941 16.78C5.91669 17.6462 4.97696 18.0792 4.35102 17.6037C3.72507 17.1297 3.82803 16.0593 4.03559 13.9216L4.08789 13.3693C4.14836 12.7613 4.17778 12.4573 4.08789 12.1762C4.00127 11.8951 3.80679 11.6663 3.41782 11.212L3.06318 10.7969C1.69362 9.19532 1.00721 8.39453 1.24745 7.62479C1.48606 6.85668 2.48953 6.62788 4.49974 6.17355L5.02108 6.05588C5.59309 5.92514 5.87746 5.8614 6.1079 5.68817C6.3367 5.5133 6.48379 5.25018 6.77797 4.72395L7.046 4.24184Z" stroke="#081A2F"/>
</svg>
