<svg width="27" height="26" viewBox="0 0 27 26" fill="none" xmlns="http://www.w3.org/2000/svg">
<path d="M21.3654 12.6961C20.6626 13.4473 20.2026 14.9028 20.3414 15.9288L20.9766 20.5632C21.1169 21.5899 20.4774 22.0648 19.5554 21.6201L15.3892 19.6084C14.4671 19.1623 12.9626 19.1688 12.0426 19.6213L7.89424 21.6662C6.97499 22.1187 6.33273 21.6475 6.46517 20.6214L7.06542 15.9814C7.19786 14.9546 6.7272 13.5034 6.01872 12.7573L2.8188 9.38424C2.10961 8.63811 2.35242 7.87184 3.3564 7.68261L7.8921 6.82784C8.89608 6.63861 10.1108 5.73563 10.5929 4.82114L12.7653 0.693349C13.2459 -0.22114 14.0392 -0.223299 14.5262 0.686874L16.73 4.7974C17.2184 5.70757 18.4389 6.60119 19.4457 6.78179L23.9871 7.60274C24.9925 7.78406 25.241 8.54817 24.5382 9.30005L21.3654 12.6961Z" fill="#FFAC33"/>
<path d="M7.79421 1.57337C8.52263 2.59003 9.53587 5.11117 9.01679 5.49251C8.49842 5.87456 6.44845 4.11825 5.72003 3.1016C4.99233 2.08494 5.05427 1.18196 5.62676 0.76033C6.19924 0.337981 7.06508 0.55743 7.79421 1.57337ZM21.5708 3.1016C20.8431 4.11825 18.7931 5.87528 18.2733 5.49179C17.7543 5.11045 18.7682 2.59003 19.4973 1.57409C20.2258 0.556711 21.0909 0.337262 21.6641 0.76033C22.2358 1.18196 22.2978 2.08494 21.5708 3.1016ZM12.666 23.9571C12.6653 22.7009 13.3054 20.0567 13.9484 20.0567C14.5871 20.0567 15.2286 22.7009 15.2279 23.9564C15.2279 25.2134 14.6554 25.9077 13.9463 25.9063C13.2385 25.9077 12.666 25.2141 12.666 23.9571ZM24.1861 17.2931C23.0077 16.9053 20.727 15.4706 20.9257 14.8504C21.1229 14.233 23.8002 14.4323 24.9772 14.8209C26.1556 15.2094 26.6299 15.9757 26.4105 16.6599C26.1912 17.3435 25.3646 17.6816 24.1861 17.2931ZM2.31149 14.8216C3.48992 14.4331 6.16648 14.2338 6.36586 14.8533C6.56238 15.4699 4.281 16.9067 3.10399 17.2938C1.92627 17.6823 1.09746 17.3442 0.880284 16.6606C0.660975 15.9771 1.13235 15.2108 2.31149 14.8216Z" fill="#FFD983"/>
</svg>
