<svg width="14" height="12" viewBox="0 0 14 12" fill="none" xmlns="http://www.w3.org/2000/svg">
<path fill-rule="evenodd" clip-rule="evenodd" d="M6.03976 11.4982C6.12973 11.6508 6.25921 11.7774 6.41518 11.8655C6.57115 11.9536 6.7481 12 6.92823 12C7.10836 12 7.28531 11.9536 7.44128 11.8655C7.59724 11.7774 7.72673 11.6508 7.81669 11.4982L13.7197 1.50378C13.8098 1.35138 13.8571 1.1785 13.8571 1.00252C13.8571 0.826547 13.8098 0.653669 13.7198 0.501268C13.6297 0.348867 13.5003 0.222312 13.3444 0.134321C13.1885 0.0463305 13.0116 4.76837e-06 12.8316 0H1.02552C0.845502 4.76837e-06 0.668656 0.0463305 0.512757 0.134321C0.356857 0.222312 0.227398 0.348867 0.137391 0.501268C0.0473832 0.653669 -1.14331e-06 0.826547 0 1.00252C1.14335e-06 1.1785 0.0473878 1.35138 0.137397 1.50378L6.04045 11.4982H6.03976Z" fill="black"/>
</svg>
