<svg width="12" height="12" viewBox="0 0 12 12" fill="none" xmlns="http://www.w3.org/2000/svg">
<path fill-rule="evenodd" clip-rule="evenodd" d="M2.56857 4.17112H1.02674C0.459686 4.17112 0 4.63081 0 5.19786V10.9733C0 11.5403 0.459686 12 1.02674 12H10.0107C10.5777 12 11.0374 11.5403 11.0374 10.9733V5.19786C11.0374 4.63081 10.5777 4.17112 10.0107 4.17112H8.4685C8.45913 3.55847 8.40779 2.68294 8.12718 1.89957C7.95174 1.40981 7.67865 0.931452 7.24835 0.574864C6.8118 0.213092 6.2413 0 5.51872 0C4.79966 0 4.23039 0.204279 3.79322 0.556442C3.36151 0.904213 3.08713 1.37305 2.91088 1.85772C2.62593 2.64134 2.57697 3.52891 2.56857 4.17112ZM3.33899 4.17112H7.69807C7.68832 3.58721 7.64012 2.82335 7.40223 2.15925C7.25681 1.75329 7.04863 1.40946 6.757 1.16778C6.47162 0.931293 6.07956 0.770054 5.51872 0.770054C4.95435 0.770054 4.56105 0.926737 4.2763 1.15612C3.98609 1.38991 3.77918 1.72321 3.63457 2.12089C3.39407 2.78227 3.34785 3.55478 3.33899 4.17112ZM1.02674 4.94118C0.884975 4.94118 0.770054 5.0561 0.770054 5.19786V10.9733C0.770054 11.115 0.884975 11.2299 1.02674 11.2299H10.0107C10.1525 11.2299 10.2674 11.115 10.2674 10.9733V5.19786C10.2674 5.0561 10.1525 4.94118 10.0107 4.94118H2.95187H1.02674ZM5.90374 7.63641C6.05961 7.51934 6.16043 7.33294 6.16043 7.123C6.16043 6.76859 5.87312 6.48128 5.51872 6.48128C5.16431 6.48128 4.87701 6.76859 4.87701 7.123C4.87701 7.33294 4.97783 7.51934 5.13369 7.63641V9.04813C5.13369 9.26077 5.30607 9.43316 5.51872 9.43316C5.73136 9.43316 5.90374 9.26077 5.90374 9.04813V7.63641Z" fill="#1E1E1E"/>
</svg>
