<svg width="76" height="76" viewBox="0 0 76 76" fill="none" xmlns="http://www.w3.org/2000/svg">
<path d="M76 38C76 58.9868 58.9868 76 38 76C17.0132 76 0 58.9868 0 38C0 17.0132 17.0132 0 38 0C58.9868 0 76 17.0132 76 38Z" fill="black" fill-opacity="0.65"/>
<path fill-rule="evenodd" clip-rule="evenodd" d="M38 14.25C40.6234 14.25 42.75 16.3766 42.75 19V33.25H57C59.6234 33.25 61.75 35.3766 61.75 38C61.75 40.6234 59.6234 42.75 57 42.75H42.75V57C42.75 59.6234 40.6234 61.75 38 61.75C35.3766 61.75 33.25 59.6234 33.25 57V42.75H19C16.3766 42.75 14.25 40.6234 14.25 38C14.25 35.3766 16.3766 33.25 19 33.25H33.25V19C33.25 16.3766 35.3766 14.25 38 14.25Z" fill="white"/>
</svg>
