<svg width="15" height="17" viewBox="0 0 15 17" fill="none" xmlns="http://www.w3.org/2000/svg">
<path d="M4.07022 11.7455L5.32331 11.3329L12.8682 2.61915C12.9277 2.54955 12.9608 2.45602 12.9604 2.35878C12.96 2.26153 12.9261 2.16836 12.866 2.0994L12.4142 1.57804C12.385 1.5438 12.3501 1.51654 12.3116 1.49785C12.273 1.47916 12.2316 1.46942 12.1898 1.46919C12.1479 1.46897 12.1064 1.47826 12.0677 1.49653C12.029 1.5148 11.9939 1.54168 11.9645 1.5756L4.43953 10.2666L4.07022 11.7455ZM13.3086 0.545054L13.7605 1.06723C14.3838 1.78756 14.3895 2.94967 13.7719 3.66269L5.99717 12.6428L3.31879 13.5232C3.15527 13.5754 2.98027 13.5515 2.83219 13.4566C2.68411 13.3617 2.57505 13.2037 2.52894 13.0172C2.49463 12.8831 2.49414 12.7407 2.52752 12.6063L3.3067 9.48785L11.0607 0.531249C11.2082 0.361812 11.3837 0.227575 11.5771 0.136369C11.7705 0.0451635 11.9778 -0.0011864 12.1871 2.30739e-05C12.3963 0.00123255 12.6032 0.0499772 12.7958 0.143414C12.9884 0.236851 13.1627 0.373921 13.3086 0.545054ZM5.11197 1.4814C5.46491 1.4814 5.75096 1.81192 5.75096 2.2196C5.75153 2.31596 5.73544 2.41152 5.70362 2.50079C5.6718 2.59005 5.62488 2.67129 5.56554 2.73985C5.50619 2.80841 5.43559 2.86294 5.35776 2.90034C5.27993 2.93774 5.19641 2.95726 5.11197 2.95779H2.55598C1.8501 2.95779 1.27799 3.61884 1.27799 4.43337V13.2901C1.27799 14.1054 1.8501 14.7665 2.55598 14.7665H10.2239C10.9298 14.7665 11.5026 14.1054 11.5026 13.2901V10.3381C11.5026 9.93044 11.7887 9.59992 12.1416 9.59992C12.4946 9.59992 12.7806 9.93044 12.7806 10.3389V13.2901C12.7806 14.9208 11.6357 16.2429 10.2239 16.2429H2.55598C1.14422 16.2429 0 14.9208 0 13.2901V4.43337C0 2.80349 1.14422 1.4814 2.55598 1.4814H5.11197Z" fill="black"/>
</svg>
