<svg width="30" height="28" viewBox="0 0 30 28" fill="none" xmlns="http://www.w3.org/2000/svg">
<path d="M13.3294 26C7.07245 26 2.00017 20.6274 2.00017 14C2.00017 7.37258 7.07245 2 13.3294 2C19.5864 2 24.6587 7.37258 24.6587 14C24.6587 20.6274 19.5864 26 13.3294 26Z" stroke="white" stroke-width="2.5" stroke-linecap="round" stroke-linejoin="round"/>
<path d="M16.3121 10.1475C15.5531 9.52818 14.606 9.18935 13.6288 9.1875C11.159 9.1875 9.15674 11.3355 9.15674 13.9875C9.15674 16.6395 11.159 18.7875 13.6288 18.7875C14.6353 18.7875 15.5643 18.4299 16.3121 17.8275" stroke="white" stroke-width="2.5" stroke-linecap="round" stroke-linejoin="round"/>
<path d="M12.7329 2C17.9002 2 28.2361 3.2 28.2361 14C28.2361 24.8 17.9002 26 12.7329 26" stroke="white" stroke-width="2.5"/>
</svg>
