<svg width="50" height="50" viewBox="0 0 50 50" fill="none" xmlns="http://www.w3.org/2000/svg">
<path d="M50 25C50 38.8071 38.8071 50 25 50C11.1929 50 0 38.8071 0 25C0 11.1929 11.1929 0 25 0C38.8071 0 50 11.1929 50 25Z" fill="#C90000"/>
<path fill-rule="evenodd" clip-rule="evenodd" d="M25 47.5C37.4264 47.5 47.5 37.4264 47.5 25C47.5 12.5736 37.4264 2.5 25 2.5C12.5736 2.5 2.5 12.5736 2.5 25C2.5 37.4264 12.5736 47.5 25 47.5ZM25 50C38.8071 50 50 38.8071 50 25C50 11.1929 38.8071 0 25 0C11.1929 0 0 11.1929 0 25C0 38.8071 11.1929 50 25 50Z" fill="#C90000"/>
<path fill-rule="evenodd" clip-rule="evenodd" d="M13.2322 13.2322C14.2085 12.2559 15.7915 12.2559 16.7678 13.2322L25 21.4645L33.2322 13.2322C34.2085 12.2559 35.7915 12.2559 36.7678 13.2322C37.7441 14.2085 37.7441 15.7915 36.7678 16.7678L28.5355 25L36.7678 33.2322C37.7441 34.2085 37.7441 35.7915 36.7678 36.7678C35.7915 37.7441 34.2085 37.7441 33.2322 36.7678L25 28.5355L16.7678 36.7678C15.7915 37.7441 14.2085 37.7441 13.2322 36.7678C12.2559 35.7915 12.2559 34.2085 13.2322 33.2322L21.4645 25L13.2322 16.7678C12.2559 15.7915 12.2559 14.2085 13.2322 13.2322Z" fill="white"/>
</svg>
