<svg width="117" height="128" viewBox="0 0 117 128" fill="none" xmlns="http://www.w3.org/2000/svg">
<path d="M36.8805 1.02007C40.4853 1.02007 44.8779 34.1836 47.7617 50.4049C57.2782 46.9443 67.5426 49.3235 71.0272 50.7654C72.7574 19.0437 82.4953 0.299142 83.9372 1.02007C91.8676 2.46198 99.9633 48.6025 98.9489 69.8704C111.349 95.2477 93.072 108.321 82.0175 112.406C73.6758 116.601 53.8369 121.536 32.2614 112.046C10.2139 102.348 13.1563 83.9289 17.8425 69.8704C17.1729 46.9837 28.9998 1.02007 36.8805 1.02007Z" fill="black" stroke="black" stroke-width="0.720946"/>
<ellipse cx="11.59" cy="14.64" rx="11.59" ry="14.64" transform="matrix(-1 0 0 1 51.4073 58.6758)" fill="#FFFEF8"/>
<ellipse cx="11.59" cy="14.64" rx="11.59" ry="14.64" transform="matrix(-1 0 0 1 89.2269 58.6757)" fill="#FFFEF8"/>
<ellipse cx="3.66001" cy="5.49001" rx="3.66001" ry="5.49001" transform="matrix(-1 0 0 1 78.2493 68.4368)" fill="black"/>
<ellipse cx="3.66001" cy="5.49001" rx="3.66001" ry="5.49001" transform="matrix(-1 0 0 1 47.748 68.4368)" fill="black"/>
<path d="M62.8889 87.9564H55.5689" stroke="#FFFEF8" stroke-width="3.60473" stroke-linecap="round"/>
<path d="M23.5424 91.48C18.616 89.0769 7.46535 84.7752 2.27454 86.7939M23.5424 96.5267C17.895 96.046 5.73508 95.6615 2.27454 97.9685" stroke="black" stroke-width="2.88378" stroke-linecap="round"/>
<path d="M93.8346 91.2807C98.761 88.8775 109.912 84.5759 115.102 86.5945M93.8346 96.3273C99.482 95.8467 111.642 95.4622 115.102 97.7692" stroke="black" stroke-width="2.88378" stroke-linecap="round"/>
<path d="M36.8792 126.006V102.579C36.8792 102.222 37.1682 101.933 37.5248 101.933H79.4903C79.8469 101.933 80.1359 102.222 80.1359 102.579V126.006C80.1359 126.362 79.8469 126.651 79.4903 126.651H37.5248C37.1682 126.651 36.8792 126.362 36.8792 126.006Z" fill="#FFFEF8" stroke="#ABA2A2" stroke-width="2.58249"/>
<path d="M58.5075 112.513L42.6965 103.478H74.3186L58.5075 112.513Z" fill="#FFFEF8" stroke="#ABA2A2" stroke-width="3.08977"/>
</svg>
