<svg width="21" height="20" viewBox="0 0 21 20" fill="none" xmlns="http://www.w3.org/2000/svg">
<path d="M19.8395 0.686216C19.6277 0.475937 19.362 0.328112 19.0717 0.258987C18.7814 0.189862 18.4776 0.202112 18.1938 0.294391L1.81555 5.75754C1.5118 5.85379 1.24339 6.03789 1.04421 6.2866C0.845027 6.53531 0.72402 6.83747 0.696468 7.15492C0.668917 7.47236 0.736056 7.79085 0.889407 8.07016C1.04276 8.34946 1.27544 8.57706 1.55807 8.7242L8.35342 12.0827L11.7119 18.9004C11.8469 19.1673 12.0535 19.3913 12.3085 19.5475C12.5635 19.7037 12.857 19.7859 13.1561 19.7848H13.268C13.5883 19.7612 13.8941 19.6419 14.1456 19.4422C14.3972 19.2426 14.5829 18.9719 14.6786 18.6653L20.2201 2.33188C20.319 2.04969 20.3358 1.74519 20.2684 1.45385C20.201 1.16251 20.0523 0.896297 19.8395 0.686216ZM2.50964 7.30244L16.8056 2.53339L8.86839 10.4706L2.50964 7.30244ZM13.2344 18.016L10.0551 11.6573L17.9923 3.72005L13.2344 18.016Z" fill="#CECECE"/>
</svg>
