<svg width="20" height="20" viewBox="0 0 20 20" fill="none" xmlns="http://www.w3.org/2000/svg">
<path d="M19.3399 0.686216C19.1282 0.475937 18.8625 0.328112 18.5722 0.258987C18.2819 0.189862 17.9781 0.202112 17.6943 0.294391L1.31604 5.75754C1.01229 5.85379 0.743874 6.03789 0.544695 6.2866C0.345515 6.53531 0.224508 6.83747 0.196957 7.15492C0.169405 7.47236 0.236545 7.79085 0.389896 8.07016C0.543247 8.34946 0.775931 8.57706 1.05856 8.7242L7.85391 12.0827L11.2124 18.9004C11.3474 19.1673 11.554 19.3913 11.809 19.5475C12.064 19.7037 12.3575 19.7859 12.6565 19.7848H12.7685C13.0888 19.7612 13.3946 19.6419 13.6461 19.4422C13.8977 19.2426 14.0834 18.9719 14.1791 18.6653L19.7206 2.33188C19.8195 2.04969 19.8363 1.74519 19.7689 1.45385C19.7015 1.16251 19.5528 0.896297 19.3399 0.686216ZM2.01013 7.30244L16.3061 2.53339L8.36888 10.4706L2.01013 7.30244ZM12.7349 18.016L9.55554 11.6573L17.4928 3.72005L12.7349 18.016Z" fill="#FF1F1F"/>
</svg>
