<svg width="50" height="50" viewBox="0 0 50 50" fill="none" xmlns="http://www.w3.org/2000/svg">
<circle cx="25" cy="25" r="23.5" fill="#554242" stroke="#554242"/>
<path d="M25.0512 24.0312C23.0617 24.0312 22.1024 25.7055 21.6991 27.32C21.4314 28.3917 20.5395 29.2793 19.4732 29.5674C17.532 30.0918 15.5189 31.4833 16.0462 34.5679C16.9467 39.8362 23.2502 36.324 25.0512 36.324C26.8523 36.324 33.1558 39.8362 34.0563 34.5679C34.5835 31.4833 32.5705 30.0918 30.6293 29.5674C29.563 29.2793 28.6711 28.3917 28.4034 27.32C28.0001 25.7055 27.0408 24.0312 25.0512 24.0312Z" fill="#DCABBD" stroke="black" stroke-width="1.5" stroke-linecap="round"/>
<path d="M20.2003 21.9047C21.4912 21.9047 22.4251 21.1129 22.9974 20.0775C23.5629 19.0545 23.8303 17.7192 23.8303 16.3547C23.8303 15.026 23.6469 13.6874 23.1181 12.6532C22.5639 11.5696 21.6112 10.8047 20.2003 10.8047C18.7894 10.8047 17.8367 11.5696 17.2826 12.6532C16.7537 13.6874 16.5703 15.026 16.5703 16.3547C16.5703 17.7192 16.8377 19.0545 17.4032 20.0775C17.9755 21.1129 18.9094 21.9047 20.2003 21.9047Z" fill="#DCABBD" stroke="black" stroke-width="1.5" stroke-linecap="round"/>
<path d="M12.5206 31.5063C13.8115 31.5063 14.7454 30.7144 15.3177 29.6791C15.8832 28.656 16.1506 27.3208 16.1506 25.9563C16.1506 24.6276 15.9672 23.2889 15.4384 22.2548C14.8843 21.1711 13.9315 20.4062 12.5206 20.4062C11.1097 20.4062 10.157 21.1711 9.60287 22.2548C9.07404 23.2889 8.89062 24.6276 8.89062 25.9563C8.89062 27.3208 9.15802 28.656 9.72354 29.6791C10.2959 30.7144 11.2297 31.5063 12.5206 31.5063Z" fill="#DCABBD" stroke="black" stroke-width="1.5" stroke-linecap="round"/>
<path d="M29.8019 21.9047C31.0928 21.9047 32.0266 21.1129 32.599 20.0775C33.1645 19.0545 33.4319 17.7192 33.4319 16.3547C33.4319 15.026 33.2485 13.6874 32.7196 12.6532C32.1655 11.5696 31.2128 10.8047 29.8019 10.8047C28.391 10.8047 27.4383 11.5696 26.8841 12.6532C26.3553 13.6874 26.1719 15.026 26.1719 16.3547C26.1719 17.7192 26.4393 19.0545 27.0048 20.0775C27.5771 21.1129 28.511 21.9047 29.8019 21.9047Z" fill="#DCABBD" stroke="black" stroke-width="1.5" stroke-linecap="round"/>
<path d="M37.4816 31.5063C38.7725 31.5063 39.7063 30.7144 40.2786 29.6791C40.8442 28.656 41.1116 27.3208 41.1116 25.9563C41.1116 24.6276 40.9282 23.2889 40.3993 22.2548C39.8452 21.1711 38.8925 20.4062 37.4816 20.4062C36.0707 20.4062 35.1179 21.1711 34.5638 22.2548C34.035 23.2889 33.8516 24.6276 33.8516 25.9563C33.8516 27.3208 34.119 28.656 34.6845 29.6791C35.2568 30.7144 36.1907 31.5063 37.4816 31.5063Z" fill="#DCABBD" stroke="black" stroke-width="1.5" stroke-linecap="round"/>
</svg>
