<svg width="87" height="42" viewBox="0 0 87 42" fill="none" xmlns="http://www.w3.org/2000/svg">
<rect width="87" height="42" rx="10" fill="#C90000"/>
<path d="M34.9414 25.8301V26.9902H20.6328V25.8301H27.0664V22.877H22.4258V18.0605H31.7773V15.5996H22.3906V14.457H33.1309V19.1855H23.7969V21.7344H33.5V22.877H28.4199V25.8301H34.9414ZM48.5117 14.9668V16.5312C48.5117 18.5 48.5117 20.7324 47.9316 24.125L46.5254 23.9844C47.1582 20.7852 47.1582 18.4473 47.1582 16.5312V16.1094H37.7363V14.9668H48.5117ZM50.4277 25.4785V26.6211H36.1895V25.4785H50.4277ZM64.6484 13.3145V24.7402H63.2773V13.3145H64.6484ZM65.1406 27.4297V28.5898H54.5586V23.5801H55.9297V27.4297H65.1406ZM56.2109 14.4043C58.5488 14.4043 60.3066 15.9863 60.3066 18.2363C60.3066 20.5215 58.5488 22.0859 56.2109 22.0859C53.873 22.0859 52.1152 20.5215 52.1152 18.2363C52.1152 15.9863 53.873 14.4043 56.2109 14.4043ZM56.2109 15.6172C54.6289 15.6172 53.4512 16.707 53.4688 18.2363C53.4512 19.8008 54.6289 20.873 56.2109 20.873C57.7578 20.873 58.9531 19.8008 58.9531 18.2363C58.9531 16.707 57.7578 15.6172 56.2109 15.6172Z" fill="white"/>
</svg>
