<svg width="19" height="19" viewBox="0 0 19 19" fill="none" xmlns="http://www.w3.org/2000/svg">
<path d="M11.9957 4.5C11.9957 6.71945 10.238 8.5 8.09256 8.5C5.94714 8.5 4.18945 6.71945 4.18945 4.5C4.18945 2.28055 5.94714 0.5 8.09256 0.5C10.238 0.5 11.9957 2.28055 11.9957 4.5Z" stroke="black"/>
<mask id="path-2-inside-1_2364_964" fill="white">
<path fill-rule="evenodd" clip-rule="evenodd" d="M10.014 17.6504C10.0005 17.6544 9.98703 17.6584 9.97348 17.6624C9.24051 17.8782 8.42204 18 7.50989 18C3.47874 18 1.27722 15.621 0.199552 13.2652C-0.532074 11.6658 0.855521 10.125 2.61429 10.125H8.02027H8.894C8.59616 10.4147 8.33697 10.7516 8.12604 11.125H8.02027H2.61429C2.02008 11.125 1.52476 11.3866 1.24921 11.7258C0.99315 12.0411 0.914381 12.4239 1.10892 12.8492C2.07336 14.9575 3.97658 17 7.50989 17C8.01064 17 8.4746 16.9593 8.90454 16.8852C9.23224 17.2018 9.60629 17.4615 10.014 17.6504Z"/>
</mask>
<path d="M10.014 17.6504L10.3017 18.6081L12.8247 17.8501L10.4343 16.743L10.014 17.6504ZM9.97348 17.6624L9.69108 16.7031L9.69107 16.7031L9.97348 17.6624ZM0.199552 13.2652L-0.709819 13.6812L0.199552 13.2652ZM8.894 10.125L9.59127 10.8418L11.3562 9.125H8.894V10.125ZM8.12604 11.125V12.125H8.70968L8.99673 11.6168L8.12604 11.125ZM1.24921 11.7258L2.02541 12.3563L1.24921 11.7258ZM1.10892 12.8492L0.199552 13.2652L0.199552 13.2652L1.10892 12.8492ZM8.90454 16.8852L9.59934 16.166L9.23454 15.8136L8.73468 15.8998L8.90454 16.8852ZM9.72632 16.6926C9.71458 16.6962 9.70284 16.6997 9.69108 16.7031L10.2559 18.6217C10.2712 18.6172 10.2865 18.6127 10.3017 18.6081L9.72632 16.6926ZM9.69107 16.7031C9.05502 16.8904 8.33203 17 7.50989 17V19C8.51206 19 9.42601 18.866 10.2559 18.6217L9.69107 16.7031ZM7.50989 17C3.97658 17 2.07336 14.9575 1.10892 12.8492L-0.709819 13.6812C0.481069 16.2845 2.9809 19 7.50989 19V17ZM1.10892 12.8492C0.914381 12.4239 0.99315 12.0411 1.24921 11.7258C1.52476 11.3866 2.02008 11.125 2.61429 11.125V9.125C1.44973 9.125 0.371869 9.6338 -0.30317 10.4648C-0.997687 11.3198 -1.2469 12.5071 -0.709819 13.6812L1.10892 12.8492ZM2.61429 11.125H8.02027V9.125H2.61429V11.125ZM8.02027 11.125H8.894V9.125H8.02027V11.125ZM8.99673 11.6168C9.1619 11.3244 9.36316 11.0637 9.59127 10.8418L8.19672 9.4082C7.82916 9.76575 7.51204 10.1787 7.25535 10.6332L8.99673 11.6168ZM8.12604 10.125H8.02027V12.125H8.12604V10.125ZM8.02027 10.125H2.61429V12.125H8.02027V10.125ZM2.61429 10.125C1.73417 10.125 0.947869 10.5107 0.473022 11.0953L2.02541 12.3563C2.10165 12.2625 2.306 12.125 2.61429 12.125V10.125ZM0.473022 11.0953C-0.00487343 11.6837 -0.164645 12.469 0.199552 13.2652L2.01829 12.4332C2.00405 12.4021 2.00095 12.3853 2.0004 12.3818C1.99994 12.3789 2.00076 12.3827 1.99968 12.3902C1.99865 12.3973 1.99703 12.3997 1.99883 12.3958C2.00092 12.3913 2.00794 12.3778 2.02541 12.3563L0.473022 11.0953ZM0.199552 13.2652C1.27819 15.6231 3.48062 18 7.50989 18V16C4.47255 16 2.86853 14.2919 2.01829 12.4332L0.199552 13.2652ZM7.50989 18C8.06499 18 8.58588 17.9549 9.0744 17.8707L8.73468 15.8998C8.36332 15.9638 7.95628 16 7.50989 16V18ZM10.4343 16.743C10.1323 16.6031 9.8502 16.4084 9.59934 16.166L8.20974 17.6044C8.61427 17.9952 9.08029 18.3199 9.59374 18.5577L10.4343 16.743Z" fill="black" mask="url(#path-2-inside-1_2364_964)"/>
<ellipse cx="13.5965" cy="13.5" rx="4.40311" ry="4.5" fill="black" stroke="black"/>
<path d="M16.3477 14.625V12.375H13.5957V10.6875L10.8438 13.5L13.5957 16.3125V14.625H16.3477Z" fill="white" stroke="white" stroke-width="0.1" stroke-linecap="round"/>
</svg>
