<svg width="22" height="22" viewBox="0 0 22 22" fill="none" xmlns="http://www.w3.org/2000/svg">
<circle cx="11" cy="11" r="10.5" fill="#554242" stroke="black"/>
<path d="M11.0233 10.5547C10.1114 10.5547 9.67176 11.322 9.48692 12.062C9.36423 12.5532 8.95545 12.9601 8.46671 13.0921C7.57702 13.3325 6.65436 13.9702 6.89601 15.384C7.30874 17.7986 10.1979 16.1888 11.0233 16.1888C11.8488 16.1888 14.7379 17.7986 15.1506 15.384C15.3923 13.9702 14.4696 13.3325 13.5799 13.0921C13.0912 12.9601 12.6824 12.5532 12.5597 12.062C12.3749 11.322 11.9352 10.5547 11.0233 10.5547Z" fill="#DCABBD"/>
<path fill-rule="evenodd" clip-rule="evenodd" d="M10.2419 11.2563C10.0434 11.4848 9.90548 11.8046 9.82036 12.1454C9.66659 12.7609 9.16187 13.2604 8.55629 13.424C8.14977 13.5338 7.76939 13.7264 7.51881 14.0208C7.27954 14.3019 7.12937 14.7094 7.23477 15.326C7.32457 15.8514 7.53467 16.1003 7.76498 16.2274C8.01479 16.3653 8.35515 16.3975 8.76565 16.3504C9.17197 16.3038 9.59762 16.1861 9.99311 16.0723C10.017 16.0654 10.0409 16.0585 10.0647 16.0517C10.2329 16.0032 10.3971 15.9558 10.5433 15.9196C10.705 15.8796 10.8752 15.8451 11.0233 15.8451C11.1713 15.8451 11.3415 15.8796 11.5033 15.9196C11.6494 15.9558 11.8136 16.0032 11.9819 16.0517C12.0056 16.0585 12.0295 16.0654 12.0534 16.0723C12.4489 16.1861 12.8745 16.3038 13.2809 16.3504C13.6914 16.3975 14.0317 16.3653 14.2815 16.2274C14.5118 16.1003 14.7219 15.8514 14.8117 15.326C14.9171 14.7094 14.767 14.3019 14.5277 14.0208C14.2771 13.7264 13.8967 13.5338 13.4902 13.424C12.8846 13.2604 12.3799 12.7609 12.2262 12.1454C12.141 11.8046 12.0031 11.4848 11.8046 11.2563C11.6149 11.038 11.3682 10.8984 11.0233 10.8984C10.6784 10.8984 10.4316 11.038 10.2419 11.2563ZM9.72291 10.8054C10.0273 10.4551 10.4563 10.2109 11.0233 10.2109C11.5902 10.2109 12.0192 10.4551 12.3236 10.8054C12.6191 11.1456 12.7934 11.5795 12.8932 11.9787C12.9848 12.3455 13.2976 12.6598 13.6695 12.7602C14.1527 12.8908 14.6785 13.1372 15.0513 13.5752C15.4353 14.0265 15.6257 14.6448 15.4894 15.4419C15.3728 16.1238 15.067 16.5792 14.6137 16.8294C14.18 17.0688 13.6691 17.0869 13.2025 17.0334C12.7318 16.9794 12.2546 16.8456 11.8633 16.733C11.8388 16.7259 11.8147 16.719 11.791 16.7122C11.6207 16.6631 11.4705 16.6197 11.3381 16.587C11.1822 16.5484 11.0816 16.5326 11.0233 16.5326C10.9649 16.5326 10.8643 16.5484 10.7084 16.587C10.576 16.6197 10.4258 16.6631 10.2555 16.7121C10.2318 16.719 10.2077 16.7259 10.1832 16.733C9.79194 16.8456 9.31473 16.9794 8.844 17.0334C8.37745 17.0869 7.86654 17.0688 7.43277 16.8294C6.97948 16.5792 6.67367 16.1238 6.5571 15.4419C6.42086 14.6448 6.61119 14.0265 6.99526 13.5752C7.36803 13.1372 7.89382 12.8908 8.37699 12.7603C8.74889 12.6598 9.06174 12.3455 9.15335 11.9787C9.25306 11.5795 9.4274 11.1456 9.72291 10.8054Z" fill="black"/>
<path d="M10.12 7.03203C10.12 8.20537 9.65638 9.23203 8.79998 9.23203C7.94358 9.23203 7.47998 8.20537 7.47998 7.03203C7.47998 5.8587 7.80998 4.83203 8.79998 4.83203C9.78998 4.83203 10.12 5.8587 10.12 7.03203Z" fill="#DCABBD"/>
<path fill-rule="evenodd" clip-rule="evenodd" d="M10.3828 8.90463C10.0812 9.45037 9.55511 9.91953 8.79998 9.91953C8.04485 9.91953 7.51881 9.45037 7.21714 8.90463C6.92169 8.37015 6.79248 7.69616 6.79248 7.03203C6.79248 6.40076 6.87811 5.72367 7.15662 5.17902C7.45832 4.58902 8.00165 4.14453 8.79998 4.14453C9.59832 4.14453 10.1416 4.58902 10.4433 5.17902C10.7219 5.72367 10.8075 6.40076 10.8075 7.03203C10.8075 7.69616 10.6783 8.37015 10.3828 8.90463ZM8.79998 9.23203C9.65638 9.23203 10.12 8.20537 10.12 7.03203C10.12 5.8587 9.78998 4.83203 8.79998 4.83203C7.80998 4.83203 7.47998 5.8587 7.47998 7.03203C7.47998 8.20537 7.94358 9.23203 8.79998 9.23203Z" fill="black"/>
<path d="M6.59996 11.4344C6.59996 12.6077 6.13636 13.6344 5.27996 13.6344C4.42356 13.6344 3.95996 12.6077 3.95996 11.4344C3.95996 10.261 4.28996 9.23438 5.27996 9.23438C6.26996 9.23438 6.59996 10.261 6.59996 11.4344Z" fill="#DCABBD"/>
<path fill-rule="evenodd" clip-rule="evenodd" d="M6.86281 13.307C6.56114 13.8527 6.03509 14.3219 5.27996 14.3219C4.52483 14.3219 3.99879 13.8527 3.69712 13.307C3.40167 12.7725 3.27246 12.0985 3.27246 11.4344C3.27246 10.8031 3.35809 10.126 3.6366 9.58136C3.9383 8.99136 4.48163 8.54688 5.27996 8.54688C6.0783 8.54688 6.62162 8.99136 6.92332 9.58136C7.20183 10.126 7.28746 10.8031 7.28746 11.4344C7.28746 12.0985 7.15825 12.7725 6.86281 13.307ZM5.27996 13.6344C6.13636 13.6344 6.59996 12.6077 6.59996 11.4344C6.59996 10.261 6.26996 9.23438 5.27996 9.23438C4.28996 9.23438 3.95996 10.261 3.95996 11.4344C3.95996 12.6077 4.42356 13.6344 5.27996 13.6344Z" fill="black"/>
<path d="M14.5204 7.03203C14.5204 8.20536 14.0568 9.23203 13.2004 9.23203C12.344 9.23203 11.8804 8.20536 11.8804 7.03203C11.8804 5.8587 12.2104 4.83203 13.2004 4.83203C14.1904 4.83203 14.5204 5.8587 14.5204 7.03203Z" fill="#DCABBD"/>
<path fill-rule="evenodd" clip-rule="evenodd" d="M14.7832 8.90463C14.4815 9.45037 13.9555 9.91953 13.2004 9.91953C12.4452 9.91953 11.9192 9.45037 11.6175 8.90463C11.3221 8.37015 11.1929 7.69616 11.1929 7.03203C11.1929 6.40076 11.2785 5.72367 11.557 5.17902C11.8587 4.58902 12.402 4.14453 13.2004 4.14453C13.9987 4.14453 14.542 4.58902 14.8437 5.17902C15.1222 5.72367 15.2079 6.40076 15.2079 7.03203C15.2079 7.69616 15.0787 8.37015 14.7832 8.90463ZM13.2004 9.23203C14.0568 9.23203 14.5204 8.20537 14.5204 7.03203C14.5204 5.8587 14.1904 4.83203 13.2004 4.83203C12.2104 4.83203 11.8804 5.8587 11.8804 7.03203C11.8804 8.20537 12.344 9.23203 13.2004 9.23203Z" fill="black"/>
<path d="M18.0404 11.4344C18.0404 12.6077 17.5768 13.6344 16.7204 13.6344C15.864 13.6344 15.4004 12.6077 15.4004 11.4344C15.4004 10.261 15.7304 9.23438 16.7204 9.23438C17.7104 9.23438 18.0404 10.261 18.0404 11.4344Z" fill="#DCABBD"/>
<path fill-rule="evenodd" clip-rule="evenodd" d="M18.3032 13.307C18.0016 13.8527 17.4755 14.3219 16.7204 14.3219C15.9653 14.3219 15.4392 13.8527 15.1375 13.307C14.8421 12.7725 14.7129 12.0985 14.7129 11.4344C14.7129 10.8031 14.7985 10.126 15.077 9.58136C15.3787 8.99136 15.9221 8.54688 16.7204 8.54688C17.5187 8.54688 18.062 8.99136 18.3638 9.58136C18.6423 10.126 18.7279 10.8031 18.7279 11.4344C18.7279 12.0985 18.5987 12.7725 18.3032 13.307ZM16.7204 13.6344C17.5768 13.6344 18.0404 12.6077 18.0404 11.4344C18.0404 10.261 17.7104 9.23438 16.7204 9.23438C15.7304 9.23438 15.4004 10.261 15.4004 11.4344C15.4004 12.6077 15.864 13.6344 16.7204 13.6344Z" fill="black"/>
</svg>
