<svg width="221" height="396" viewBox="0 0 221 396" fill="none" xmlns="http://www.w3.org/2000/svg">
<path d="M159.5 384C158.003 384 157.213 385.14 156.833 386.343C156.5 387.396 155.61 388.283 154.562 388.632C153.075 389.126 151.666 390.276 152.07 392.624C152.813 396.936 158.014 394.061 159.5 394.061C160.986 394.061 166.187 396.936 166.93 392.624C167.334 390.276 165.925 389.126 164.438 388.632C163.39 388.283 162.5 387.396 162.167 386.343C161.787 385.14 160.997 384 159.5 384Z" fill="#866464" stroke="#866464" stroke-width="1.5" stroke-linecap="round"/>
<path d="M158.25 376.95C158.25 378.166 157.965 379.251 157.473 380.006C156.995 380.739 156.339 381.15 155.5 381.15C154.661 381.15 154.005 380.739 153.527 380.006C153.035 379.251 152.75 378.166 152.75 376.95C152.75 375.691 152.962 374.612 153.408 373.872C153.822 373.185 154.456 372.75 155.5 372.75C156.544 372.75 157.178 373.185 157.592 373.872C158.038 374.612 158.25 375.691 158.25 376.95Z" fill="#866464" stroke="#866464" stroke-width="1.5" stroke-linecap="round"/>
<path d="M152.25 383.95C152.25 385.166 151.965 386.251 151.473 387.006C150.995 387.739 150.339 388.15 149.5 388.15C148.661 388.15 148.005 387.739 147.527 387.006C147.035 386.251 146.75 385.166 146.75 383.95C146.75 382.691 146.962 381.612 147.408 380.872C147.822 380.185 148.456 379.75 149.5 379.75C150.544 379.75 151.178 380.185 151.592 380.872C152.038 381.612 152.25 382.691 152.25 383.95Z" fill="#866464" stroke="#866464" stroke-width="1.5" stroke-linecap="round"/>
<path d="M166.25 376.95C166.25 378.166 165.965 379.251 165.473 380.006C164.995 380.739 164.339 381.15 163.5 381.15C162.661 381.15 162.005 380.739 161.527 380.006C161.035 379.251 160.75 378.166 160.75 376.95C160.75 375.691 160.962 374.612 161.408 373.872C161.822 373.185 162.456 372.75 163.5 372.75C164.544 372.75 165.178 373.185 165.592 373.872C166.038 374.612 166.25 375.691 166.25 376.95Z" fill="#866464" stroke="#866464" stroke-width="1.5" stroke-linecap="round"/>
<path d="M172.25 383.95C172.25 385.166 171.965 386.251 171.473 387.006C170.995 387.739 170.339 388.15 169.5 388.15C168.661 388.15 168.005 387.739 167.527 387.006C167.035 386.251 166.75 385.166 166.75 383.95C166.75 382.691 166.962 381.612 167.408 380.872C167.822 380.185 168.456 379.75 169.5 379.75C170.544 379.75 171.178 380.185 171.592 380.872C172.038 381.612 172.25 382.691 172.25 383.95Z" fill="#866464" stroke="#866464" stroke-width="1.5" stroke-linecap="round"/>
<path d="M145.016 252.5C143.601 252.5 142.841 253.556 142.467 254.69C142.121 255.739 141.231 256.627 140.188 256.989C138.779 257.478 137.469 258.586 137.853 260.815C138.569 264.972 143.584 262.201 145.016 262.201C146.449 262.201 151.463 264.972 152.179 260.815C152.563 258.586 151.254 257.478 149.845 256.989C148.801 256.627 147.912 255.739 147.565 254.69C147.191 253.556 146.431 252.5 145.016 252.5Z" fill="#866464" stroke="#866464" stroke-width="1.5" stroke-linecap="round"/>
<path d="M143.784 245.702C143.784 246.871 143.51 247.911 143.039 248.634C142.583 249.334 141.958 249.725 141.16 249.725C140.361 249.725 139.736 249.334 139.28 248.634C138.809 247.911 138.535 246.871 138.535 245.702C138.535 244.491 138.74 243.456 139.166 242.749C139.56 242.094 140.163 241.68 141.16 241.68C142.157 241.68 142.759 242.094 143.154 242.749C143.58 243.456 143.784 244.491 143.784 245.702Z" fill="#866464" stroke="#866464" stroke-width="1.5" stroke-linecap="round"/>
<path d="M137.999 252.45C137.999 253.619 137.725 254.659 137.254 255.382C136.798 256.082 136.173 256.473 135.374 256.473C134.576 256.473 133.951 256.082 133.495 255.382C133.024 254.659 132.75 253.619 132.75 252.45C132.75 251.239 132.954 250.204 133.381 249.497C133.775 248.842 134.378 248.428 135.374 248.428C136.371 248.428 136.974 248.842 137.368 249.497C137.795 250.204 137.999 251.239 137.999 252.45Z" fill="#866464" stroke="#866464" stroke-width="1.5" stroke-linecap="round"/>
<path d="M151.497 245.702C151.497 246.871 151.223 247.911 150.752 248.634C150.296 249.334 149.671 249.725 148.873 249.725C148.074 249.725 147.449 249.334 146.993 248.634C146.522 247.911 146.248 246.871 146.248 245.702C146.248 244.491 146.452 243.456 146.879 242.749C147.273 242.094 147.876 241.68 148.873 241.68C149.869 241.68 150.472 242.094 150.866 242.749C151.293 243.456 151.497 244.491 151.497 245.702Z" fill="#866464" stroke="#866464" stroke-width="1.5" stroke-linecap="round"/>
<path d="M157.282 252.45C157.282 253.619 157.008 254.659 156.538 255.382C156.081 256.082 155.456 256.473 154.658 256.473C153.859 256.473 153.234 256.082 152.778 255.382C152.307 254.659 152.033 253.619 152.033 252.45C152.033 251.239 152.238 250.204 152.664 249.497C153.058 248.842 153.661 248.428 154.658 248.428C155.655 248.428 156.257 248.842 156.652 249.497C157.078 250.204 157.282 251.239 157.282 252.45Z" fill="#866464" stroke="#866464" stroke-width="1.5" stroke-linecap="round"/>
<path d="M137.353 193.455C136.132 193.762 135.673 194.806 135.566 195.866C135.455 196.965 134.81 198.043 133.905 198.675C132.803 199.446 131.965 200.718 132.788 202.573C134.378 206.156 138.266 202.52 139.557 202.194C140.848 201.869 145.995 203.226 145.696 199.318C145.541 197.294 144.199 196.571 142.864 196.416C141.767 196.288 140.688 195.645 140.07 194.73C139.473 193.848 138.573 193.147 137.353 193.455Z" fill="#866464" stroke="#866464" stroke-width="1.5" stroke-linecap="round"/>
<path d="M134.649 187.623C134.913 188.67 134.901 189.658 134.645 190.403C134.398 191.125 133.936 191.603 133.237 191.779C132.538 191.956 131.904 191.754 131.344 191.236C130.766 190.701 130.286 189.836 130.023 188.79C129.748 187.703 129.7 186.735 129.919 186.014C130.12 185.352 130.555 184.856 131.435 184.634C132.314 184.412 132.932 184.643 133.424 185.13C133.958 185.661 134.374 186.536 134.649 187.623Z" fill="#866464" stroke="#866464" stroke-width="1.5" stroke-linecap="round"/>
<path d="M130.971 195.018C131.235 196.064 131.223 197.053 130.967 197.798C130.72 198.519 130.258 198.998 129.559 199.174C128.86 199.35 128.226 199.148 127.666 198.631C127.088 198.095 126.609 197.231 126.345 196.185C126.071 195.098 126.022 194.13 126.241 193.409C126.442 192.747 126.877 192.251 127.757 192.029C128.637 191.807 129.255 192.038 129.746 192.525C130.281 193.055 130.697 193.931 130.971 195.018Z" fill="#866464" stroke="#866464" stroke-width="1.5" stroke-linecap="round"/>
<path d="M141.598 185.872C141.862 186.918 141.85 187.906 141.594 188.652C141.347 189.373 140.885 189.851 140.186 190.027C139.487 190.204 138.853 190.002 138.293 189.484C137.715 188.949 137.236 188.084 136.972 187.038C136.698 185.951 136.649 184.983 136.868 184.262C137.069 183.6 137.504 183.104 138.384 182.882C139.264 182.66 139.882 182.891 140.373 183.378C140.908 183.909 141.324 184.784 141.598 185.872Z" fill="#866464" stroke="#866464" stroke-width="1.5" stroke-linecap="round"/>
<path d="M148.342 190.637C148.606 191.683 148.594 192.672 148.338 193.417C148.091 194.138 147.629 194.617 146.93 194.793C146.231 194.969 145.597 194.767 145.038 194.25C144.459 193.715 143.98 192.85 143.716 191.804C143.442 190.717 143.393 189.749 143.612 189.028C143.814 188.366 144.248 187.87 145.128 187.648C146.008 187.426 146.626 187.657 147.117 188.144C147.652 188.675 148.068 189.55 148.342 190.637Z" fill="#866464" stroke="#866464" stroke-width="1.5" stroke-linecap="round"/>
<path d="M112.812 143.337C111.829 143.892 111.643 144.884 111.774 145.832C111.925 146.926 111.588 148.135 110.906 149.004C110.153 149.964 109.778 151.279 110.939 152.702C113.26 155.547 115.875 151.302 116.961 150.689C118.047 150.076 123.032 150.032 121.797 146.575C121.179 144.845 119.86 144.486 118.648 144.635C117.552 144.769 116.343 144.433 115.484 143.738C114.741 143.136 113.796 142.782 112.812 143.337Z" fill="#866464" stroke="#866464" stroke-width="1.5" stroke-linecap="round"/>
<path d="M108.888 138.759C109.381 139.634 109.611 140.52 109.565 141.246C109.52 141.945 109.228 142.475 108.656 142.798C108.084 143.12 107.479 143.097 106.857 142.773C106.213 142.438 105.572 141.783 105.079 140.909C104.565 139.997 104.286 139.144 104.306 138.451C104.324 137.82 104.586 137.279 105.311 136.87C106.036 136.461 106.634 136.516 107.183 136.827C107.787 137.169 108.373 137.848 108.888 138.759Z" fill="#866464" stroke="#866464" stroke-width="1.5" stroke-linecap="round"/>
<path d="M107.392 146.347C107.885 147.222 108.115 148.108 108.068 148.833C108.024 149.533 107.732 150.063 107.16 150.386C106.588 150.708 105.983 150.685 105.361 150.361C104.717 150.026 104.076 149.371 103.583 148.496C103.069 147.585 102.79 146.732 102.81 146.039C102.828 145.407 103.09 144.867 103.815 144.458C104.54 144.049 105.137 144.104 105.687 144.415C106.291 144.757 106.877 145.436 107.392 146.347Z" fill="#866464" stroke="#866464" stroke-width="1.5" stroke-linecap="round"/>
<path d="M114.733 135.461C115.227 136.335 115.456 137.222 115.41 137.947C115.366 138.646 115.073 139.176 114.502 139.499C113.93 139.822 113.325 139.798 112.703 139.474C112.058 139.139 111.418 138.484 110.925 137.61C110.411 136.699 110.132 135.845 110.152 135.152C110.17 134.521 110.431 133.981 111.157 133.571C111.882 133.162 112.479 133.218 113.029 133.529C113.632 133.87 114.219 134.549 114.733 135.461Z" fill="#866464" stroke="#866464" stroke-width="1.5" stroke-linecap="round"/>
<path d="M122.003 138.101C122.496 138.976 122.726 139.862 122.68 140.587C122.635 141.287 122.343 141.817 121.771 142.14C121.199 142.462 120.594 142.438 119.972 142.115C119.328 141.78 118.688 141.125 118.194 140.25C117.68 139.339 117.402 138.486 117.421 137.793C117.44 137.161 117.701 136.621 118.426 136.212C119.151 135.803 119.749 135.858 120.299 136.169C120.902 136.51 121.489 137.19 122.003 138.101Z" fill="#866464" stroke="#866464" stroke-width="1.5" stroke-linecap="round"/>
<path d="M92.8527 106.221C91.9773 106.715 91.7774 107.579 91.8659 108.426C91.9808 109.524 91.6449 110.733 90.9918 111.624C90.3406 112.512 90.0554 113.699 91.1009 114.981C93.2718 117.641 95.7177 113.671 96.7333 113.097C97.749 112.524 102.412 112.483 101.257 109.249C100.701 107.692 99.5369 107.323 98.4401 107.421C97.3399 107.519 96.1313 107.182 95.2504 106.516C94.5718 106.002 93.7282 105.727 92.8527 106.221Z" fill="#866464" stroke="#866464" stroke-width="1.5" stroke-linecap="round"/>
<path d="M89.1401 101.962C89.5983 102.774 89.8095 103.594 89.7671 104.261C89.7263 104.901 89.4598 105.381 88.9416 105.674C88.4234 105.966 87.875 105.946 87.3054 105.65C86.713 105.342 86.1202 104.737 85.662 103.925C85.183 103.076 84.9272 102.287 84.9454 101.651C84.9618 101.077 85.1972 100.588 85.8604 100.213C86.5236 99.8392 87.0644 99.8907 87.5643 100.173C88.1177 100.486 88.6611 101.113 89.1401 101.962Z" fill="#866464" stroke="#866464" stroke-width="1.5" stroke-linecap="round"/>
<path d="M87.7416 109.062C88.1998 109.874 88.4111 110.694 88.3687 111.36C88.3278 112.001 88.0613 112.481 87.5432 112.773C87.025 113.066 86.4766 113.046 85.907 112.749C85.3145 112.441 84.7218 111.836 84.2635 111.024C83.7846 110.176 83.5287 109.386 83.5469 108.751C83.5633 108.177 83.7988 107.687 84.462 107.313C85.1252 106.939 85.666 106.99 86.1659 107.273C86.7192 107.586 87.2627 108.213 87.7416 109.062Z" fill="#866464" stroke="#866464" stroke-width="1.5" stroke-linecap="round"/>
<path d="M94.6108 98.8743C95.069 99.6863 95.2802 100.506 95.2378 101.173C95.197 101.814 94.9305 102.293 94.4123 102.586C93.8941 102.878 93.3457 102.858 92.7761 102.562C92.1837 102.254 91.5909 101.649 91.1327 100.837C90.6537 99.9882 90.3979 99.1989 90.4161 98.5634C90.4325 97.9893 90.6679 97.4998 91.3311 97.1255C91.9943 96.7513 92.5351 96.8028 93.035 97.0855C93.5884 97.3985 94.1318 98.0255 94.6108 98.8743Z" fill="#866464" stroke="#866464" stroke-width="1.5" stroke-linecap="round"/>
<path d="M101.41 101.345C101.868 102.157 102.079 102.977 102.037 103.644C101.996 104.284 101.729 104.764 101.211 105.056C100.693 105.349 100.145 105.329 99.575 105.033C98.9825 104.724 98.3897 104.12 97.9315 103.308C97.4525 102.459 97.1967 101.67 97.2149 101.034C97.2313 100.46 97.4668 99.9705 98.1299 99.5962C98.7931 99.222 99.334 99.2735 99.8338 99.5562C100.387 99.8692 100.931 100.496 101.41 101.345Z" fill="#866464" stroke="#866464" stroke-width="1.5" stroke-linecap="round"/>
<path d="M69.3515 73.9581C68.6455 74.3565 68.4323 75.0252 68.4564 75.7075C68.4953 76.8114 68.1625 78.0224 67.5698 78.9545C67.0808 79.7234 66.9261 80.7098 67.7896 81.768C69.725 84.1401 71.9057 80.6001 72.8112 80.0891C73.7166 79.5782 77.8742 79.5415 76.8443 76.6585C76.3848 75.3723 75.4604 74.9948 74.5494 75.0159C73.4451 75.0414 72.2365 74.7003 71.3117 74.0963C70.74 73.7229 70.0574 73.5598 69.3515 73.9581Z" fill="#866464" stroke="#866464" stroke-width="1.5" stroke-linecap="round"/>
<path d="M65.9727 70.2025C66.3757 70.9167 66.5579 71.6321 66.5213 72.2066C66.4864 72.7553 66.2606 73.1557 65.8266 73.4006C65.3926 73.6455 64.9332 73.6318 64.4454 73.3781C63.9347 73.1124 63.4165 72.5865 63.0135 71.8724C62.5897 71.1214 62.3695 70.433 62.3851 69.8877C62.3989 69.4038 62.5937 68.9936 63.1596 68.6743C63.7254 68.3549 64.1772 68.4003 64.5986 68.6386C65.0735 68.9071 65.5489 69.4516 65.9727 70.2025Z" fill="#866464" stroke="#866464" stroke-width="1.5" stroke-linecap="round"/>
<path d="M64.7227 76.5306C65.1257 77.2448 65.3079 77.9603 65.2713 78.5347C65.2364 79.0835 65.0106 79.4838 64.5766 79.7287C64.1426 79.9736 63.6832 79.9599 63.1954 79.7062C62.6847 79.4405 62.1665 78.9146 61.7635 78.2005C61.3397 77.4496 61.1195 76.7611 61.1351 76.2158C61.1489 75.7319 61.3437 75.3217 61.9096 75.0024C62.4754 74.6831 62.9272 74.7284 63.3486 74.9667C63.8235 75.2353 64.2989 75.7797 64.7227 76.5306Z" fill="#866464" stroke="#866464" stroke-width="1.5" stroke-linecap="round"/>
<path d="M70.8477 67.4466C71.2507 68.1608 71.4329 68.8763 71.3963 69.4508C71.3614 69.9995 71.1356 70.3998 70.7016 70.6447C70.2676 70.8896 69.8082 70.876 69.3204 70.6222C68.8097 70.3566 68.2915 69.8307 67.8885 69.1165C67.4647 68.3656 67.2445 67.6771 67.2601 67.1318C67.2739 66.6479 67.4687 66.2377 68.0346 65.9184C68.6004 65.5991 69.0522 65.6444 69.4736 65.8827C69.9485 66.1513 70.4239 66.6957 70.8477 67.4466Z" fill="#866464" stroke="#866464" stroke-width="1.5" stroke-linecap="round"/>
<path d="M76.9121 69.6517C77.3151 70.3659 77.4974 71.0814 77.4608 71.6558C77.4258 72.2046 77.2001 72.6049 76.7661 72.8498C76.3321 73.0947 75.8726 73.081 75.3849 72.8273C74.8742 72.5616 74.356 72.0357 73.9529 71.3216C73.5292 70.5706 73.3089 69.8822 73.3245 69.3369C73.3384 68.853 73.5331 68.4428 74.099 68.1235C74.6649 67.8042 75.1167 67.8495 75.5381 68.0878C76.0129 68.3563 76.4884 68.9008 76.9121 69.6517Z" fill="#866464" stroke="#866464" stroke-width="1.5" stroke-linecap="round"/>
<path d="M47.6893 49.2878C47.1717 49.5798 46.9602 50.0398 46.9203 50.5326C46.8312 51.6335 46.5049 52.8558 46.0151 53.8458C45.7053 54.472 45.6755 55.2347 46.3377 56.0462C48.0126 58.0989 49.8996 55.0355 50.6832 54.5933C51.4667 54.1512 55.0646 54.1195 54.1733 51.6246C53.8209 50.6383 53.1526 50.2694 52.4564 50.211C51.3557 50.1185 50.1408 49.7659 49.1523 49.273C48.7099 49.0524 48.2068 48.9957 47.6893 49.2878Z" fill="#866464" stroke="#866464" stroke-width="1.5" stroke-linecap="round"/>
<path d="M44.6751 46.0834C45.017 46.6892 45.1672 47.2889 45.137 47.7616C45.1086 48.2085 44.9278 48.5209 44.587 48.7133C44.2461 48.9056 43.8852 48.8988 43.488 48.6922C43.0678 48.4736 42.6321 48.035 42.2902 47.4291C41.9276 46.7865 41.7466 46.2097 41.7594 45.7642C41.7704 45.3801 41.92 45.0578 42.3783 44.7992C42.8365 44.5406 43.1898 44.5791 43.5242 44.7683C43.9122 44.9877 44.3124 45.4407 44.6751 46.0834Z" fill="#866464" stroke="#866464" stroke-width="1.5" stroke-linecap="round"/>
<path d="M43.593 51.5599C43.9349 52.1658 44.0851 52.7655 44.055 53.2382C44.0265 53.6851 43.8458 53.9975 43.505 54.1899C43.1641 54.3822 42.8032 54.3754 42.4059 54.1687C41.9858 53.9502 41.55 53.5116 41.2082 52.9057C40.8455 52.2631 40.6646 51.6863 40.6773 51.2407C40.6883 50.8566 40.838 50.5343 41.2962 50.2758C41.7545 50.0172 42.1077 50.0557 42.4422 50.2448C42.8302 50.4642 43.2304 50.9173 43.593 51.5599Z" fill="#866464" stroke="#866464" stroke-width="1.5" stroke-linecap="round"/>
<path d="M48.8977 43.7005C49.2396 44.3064 49.3898 44.9061 49.3597 45.3788C49.3312 45.8257 49.1505 46.1381 48.8096 46.3305C48.4688 46.5228 48.1079 46.516 47.7106 46.3094C47.2905 46.0908 46.8547 45.6522 46.5128 45.0463C46.1502 44.4037 45.9693 43.8269 45.982 43.3814C45.993 42.9973 46.1427 42.675 46.6009 42.4164C47.0591 42.1578 47.4124 42.1963 47.7469 42.3855C48.1349 42.6049 48.5351 43.0579 48.8977 43.7005Z" fill="#866464" stroke="#866464" stroke-width="1.5" stroke-linecap="round"/>
<path d="M54.1438 45.6107C54.4857 46.2166 54.6359 46.8163 54.6058 47.2889C54.5773 47.7358 54.3966 48.0483 54.0557 48.2406C53.7149 48.433 53.354 48.4262 52.9567 48.2195C52.5366 48.0009 52.1008 47.5623 51.7589 46.9565C51.3963 46.3139 51.2154 45.7371 51.2281 45.2915C51.2391 44.9074 51.3888 44.5851 51.847 44.3265C52.3052 44.068 52.6585 44.1064 52.993 44.2956C53.381 44.515 53.7812 44.9681 54.1438 45.6107Z" fill="#866464" stroke="#866464" stroke-width="1.5" stroke-linecap="round"/>
<path d="M31.9408 30.6865C31.7382 30.8008 31.5988 30.9497 31.5079 31.1187C30.9844 32.0913 30.6742 33.4639 30.5489 34.5614C30.5087 34.9133 30.6074 35.3011 30.9371 35.7053C32.1809 37.2296 33.5822 34.9547 34.1641 34.6264C34.746 34.298 37.4178 34.2745 36.7559 32.4218C36.5804 31.9305 36.2994 31.6456 35.9774 31.498C34.9732 31.038 33.6378 30.5939 32.5346 30.5393C32.343 30.5298 32.1434 30.5721 31.9408 30.6865Z" fill="#866464" stroke="#866464" stroke-width="0.4" stroke-linecap="round"/>
<path d="M30.0143 28.1305C30.2924 28.6233 30.4306 29.1373 30.4027 29.5749C30.3753 30.0055 30.1893 30.3577 29.8134 30.5698C29.4376 30.7819 29.04 30.759 28.6571 30.5599C28.2682 30.3576 27.8996 29.9735 27.6215 29.4807C27.3379 28.9781 27.1693 28.4827 27.1814 28.0587C27.193 27.651 27.3708 27.2962 27.8224 27.0414C28.274 26.7866 28.6695 26.8178 29.0245 27.0186C29.3937 27.2274 29.7306 27.6278 30.0143 28.1305Z" fill="#866464" stroke="#866464" stroke-width="0.4" stroke-linecap="round"/>
<path d="M29.2096 32.1949C29.4877 32.6878 29.6259 33.2018 29.598 33.6393C29.5706 34.07 29.3846 34.4221 29.0087 34.6342C28.6329 34.8463 28.2353 34.8235 27.8524 34.6243C27.4635 34.422 27.0949 34.038 26.8168 33.5452C26.5332 33.0425 26.3646 32.5471 26.3767 32.1231C26.3884 31.7155 26.5661 31.3607 27.0177 31.1059C27.4693 30.851 27.8649 30.8823 28.2198 31.083C28.5891 31.2919 28.9259 31.6923 29.2096 32.1949Z" fill="#866464" stroke="#866464" stroke-width="0.4" stroke-linecap="round"/>
<path d="M33.149 26.359C33.4272 26.8518 33.5653 27.3659 33.5375 27.8034C33.51 28.234 33.324 28.5862 32.9482 28.7983C32.5723 29.0104 32.1747 28.9875 31.7919 28.7884C31.403 28.5861 31.0344 28.2021 30.7563 27.7092C30.4726 27.2066 30.304 26.7112 30.3162 26.2872C30.3278 25.8795 30.5055 25.5247 30.9571 25.2699C31.4087 25.0151 31.8043 25.0464 32.1593 25.2471C32.5285 25.4559 32.8654 25.8563 33.149 26.359Z" fill="#866464" stroke="#866464" stroke-width="0.4" stroke-linecap="round"/>
<path d="M37.0436 27.7809C37.3217 28.2737 37.4599 28.7877 37.432 29.2252C37.4046 29.6559 37.2186 30.0081 36.8427 30.2202C36.4669 30.4322 36.0693 30.4094 35.6864 30.2103C35.2975 30.0079 34.9289 29.6239 34.6508 29.1311C34.3672 28.6284 34.1986 28.1331 34.2107 27.7091C34.2223 27.3014 34.4001 26.9466 34.8517 26.6918C35.3033 26.437 35.6988 26.4682 36.0538 26.669C36.423 26.8778 36.7599 27.2782 37.0436 27.7809Z" fill="#866464" stroke="#866464" stroke-width="0.4" stroke-linecap="round"/>
<path d="M15.5065 18.1679C15.4785 18.1897 15.4525 18.2123 15.4283 18.2356C14.6322 19.0012 14.5118 20.779 14.9512 21.7924C15.0211 21.9536 15.1362 22.1148 15.3088 22.2715C16.4781 23.3331 17.3189 21.36 17.7416 21.0299C18.1643 20.6998 20.2822 20.3622 19.5357 18.9706C19.4255 18.7652 19.297 18.6144 19.1575 18.5075C18.2808 17.8356 16.5269 17.5216 15.5911 18.1085C15.5627 18.1263 15.5345 18.146 15.5065 18.1679Z" fill="#866464" stroke="#866464" stroke-width="0.5" stroke-linecap="round"/>
<path d="M13.6008 16.4229C13.8728 16.7712 14.0347 17.1467 14.0629 17.4757C14.0904 17.7961 13.9932 18.0661 13.748 18.2576C13.5028 18.4491 13.2173 18.478 12.9131 18.3737C12.6007 18.2665 12.2757 18.0185 12.0037 17.6702C11.723 17.3108 11.5411 16.9531 11.5029 16.6383C11.4672 16.3438 11.5537 16.072 11.8565 15.8355C12.1593 15.5991 12.4439 15.581 12.721 15.687C13.0172 15.8003 13.3202 16.0636 13.6008 16.4229Z" fill="#866464" stroke="#866464" stroke-width="0.5" stroke-linecap="round"/>
<path d="M13.4485 19.7472C13.7205 20.0954 13.8823 20.4709 13.9106 20.7999C13.9381 21.1203 13.8408 21.3904 13.5957 21.5818C13.3505 21.7733 13.0649 21.8022 12.7607 21.6979C12.4484 21.5908 12.1233 21.3427 11.8513 20.9944C11.5707 20.6351 11.3887 20.2773 11.3505 19.9625C11.3148 19.668 11.4014 19.3962 11.7042 19.1598C12.007 18.9233 12.2916 18.9052 12.5687 19.0112C12.8649 19.1245 13.1678 19.3878 13.4485 19.7472Z" fill="#866464" stroke="#866464" stroke-width="0.5" stroke-linecap="round"/>
<path d="M15.8782 14.6456C16.1502 14.9939 16.312 15.3694 16.3403 15.6984C16.3678 16.0188 16.2705 16.2888 16.0253 16.4803C15.7802 16.6717 15.4946 16.7007 15.1904 16.5963C14.8781 16.4892 14.553 16.2411 14.281 15.8929C14.0004 15.5335 13.8184 15.1758 13.7802 14.8609C13.7445 14.5664 13.8311 14.2947 14.1339 14.0582C14.4367 13.8217 14.7213 13.8036 14.9983 13.9096C15.2945 14.023 15.5975 14.2862 15.8782 14.6456Z" fill="#866464" stroke="#866464" stroke-width="0.5" stroke-linecap="round"/>
<path d="M19.1399 15.3077C19.4119 15.656 19.5738 16.0315 19.602 16.3605C19.6295 16.6809 19.5323 16.9509 19.2871 17.1424C19.0419 17.3339 18.7563 17.3628 18.4521 17.2584C18.1398 17.1513 17.8147 16.9033 17.5427 16.555C17.2621 16.1956 17.0801 15.8379 17.042 15.523C17.0062 15.2285 17.0928 14.9568 17.3956 14.7203C17.6984 14.4838 17.983 14.4657 18.2601 14.5718C18.5563 14.6851 18.8592 14.9483 19.1399 15.3077Z" fill="#866464" stroke="#866464" stroke-width="0.5" stroke-linecap="round"/>
<path d="M7.4704 10.7861C7.40718 10.6683 7.33546 10.5758 7.25802 10.5046C6.65146 9.94722 5.26198 9.70976 4.61273 10.2168C3.96347 10.7238 3.85713 12.1294 4.25092 12.853C4.30119 12.9454 4.37354 13.0373 4.47254 13.1272C5.30181 13.8801 5.89814 12.4808 6.19793 12.2466C6.49771 12.0125 7.99988 11.7731 7.4704 10.7861Z" fill="#866464" stroke="#866464" stroke-width="0.5" stroke-linecap="round"/>
<path d="M3.40307 8.87039C3.81901 9.40301 3.93496 10.0627 3.47684 10.4205C3.01872 10.7783 2.40677 10.5059 1.99083 9.97327C1.57489 9.44065 1.38747 8.83675 1.91706 8.42317C2.44665 8.00959 2.98713 8.33777 3.40307 8.87039Z" fill="#866464"/>
<path d="M3.2937 11.2259C3.70964 11.7585 3.82559 12.4182 3.36747 12.776C2.90934 13.1337 2.2974 12.8614 1.88145 12.3287C1.46551 11.7961 1.27809 11.1922 1.80768 10.7786C2.33727 10.3651 2.87775 10.6932 3.2937 11.2259Z" fill="#866464"/>
<path d="M5.01831 7.60672C5.43425 8.13934 5.5502 8.79905 5.09208 9.15681C4.63395 9.51458 4.022 9.24221 3.60606 8.70959C3.19012 8.17698 3.0027 7.57308 3.53229 7.1595C4.06188 6.74592 4.60236 7.0741 5.01831 7.60672Z" fill="#866464"/>
<path d="M7.33081 8.07742C7.74675 8.61004 7.8627 9.26975 7.40458 9.62752C6.94645 9.98528 6.3345 9.71292 5.91856 9.1803C5.50262 8.64768 5.3152 8.04378 5.84479 7.6302C6.37438 7.21662 6.91486 7.5448 7.33081 8.07742Z" fill="#866464"/>
<path d="M14.4924 6.0251C14.4253 5.90944 14.3505 5.8194 14.2707 5.75087C13.6459 5.21406 12.2492 5.02318 11.6173 5.55163C10.9854 6.08008 10.9261 7.48846 11.3438 8.19845C11.3972 8.28909 11.4725 8.37862 11.5745 8.46514C12.4285 9.18989 12.9777 7.77137 13.2695 7.52737C13.5613 7.28337 15.0546 6.99385 14.4924 6.0251Z" fill="#866464" stroke="#866464" stroke-width="0.5" stroke-linecap="round"/>
<path d="M10.3613 4.24639C10.7948 4.76481 10.9327 5.42027 10.4868 5.79315C10.0409 6.16603 9.42018 5.91427 8.98667 5.39586C8.55315 4.87744 8.34565 4.28014 8.86112 3.84909C9.37659 3.41804 9.92774 3.72797 10.3613 4.24639Z" fill="#866464"/>
<path d="M10.332 6.60186C10.7655 7.12027 10.9034 7.77574 10.4575 8.14862C10.0116 8.5215 9.39088 8.26974 8.95737 7.75133C8.52386 7.23291 8.31635 6.63561 8.83182 6.20456C9.34729 5.77351 9.89844 6.08344 10.332 6.60186Z" fill="#866464"/>
<path d="M11.9335 2.92803C12.367 3.44645 12.505 4.10191 12.0591 4.47479C11.6132 4.84767 10.9924 4.59591 10.5589 4.0775C10.1254 3.55908 9.91792 2.96179 10.4334 2.53073C10.9489 2.09968 11.5 2.40961 11.9335 2.92803Z" fill="#866464"/>
<path d="M14.2616 3.32256C14.6952 3.84098 14.8331 4.49644 14.3872 4.86932C13.9413 5.24221 13.3206 4.99044 12.8871 4.47203C12.4535 3.95361 12.246 3.35632 12.7615 2.92527C13.277 2.49422 13.8281 2.80415 14.2616 3.32256Z" fill="#866464"/>
<path d="M126.529 103.412C125.653 103.906 125.453 104.771 125.542 105.617C125.657 106.715 125.321 107.924 124.668 108.815C124.016 109.703 123.731 110.891 124.777 112.172C126.948 114.833 129.394 110.862 130.409 110.289C131.425 109.716 136.088 109.675 134.933 106.441C134.377 104.884 133.213 104.514 132.116 104.612C131.016 104.711 129.807 104.373 128.926 103.707C128.248 103.194 127.404 102.918 126.529 103.412Z" fill="#866464" stroke="#866464" stroke-width="1.5" stroke-linecap="round"/>
<path d="M122.816 99.1536C123.274 99.9656 123.485 100.786 123.443 101.452C123.402 102.093 123.136 102.573 122.617 102.865C122.099 103.157 121.551 103.138 120.981 102.841C120.389 102.533 119.796 101.928 119.338 101.116C118.859 100.267 118.603 99.4781 118.621 98.8427C118.638 98.2686 118.873 97.7791 119.536 97.4048C120.199 97.0306 120.74 97.0821 121.24 97.3648C121.793 97.6778 122.337 98.3048 122.816 99.1536Z" fill="#866464" stroke="#866464" stroke-width="1.5" stroke-linecap="round"/>
<path d="M121.417 106.253C121.876 107.065 122.087 107.885 122.044 108.552C122.004 109.192 121.737 109.672 121.219 109.965C120.701 110.257 120.152 110.237 119.583 109.941C118.99 109.633 118.398 109.028 117.939 108.216C117.46 107.367 117.205 106.578 117.223 105.942C117.239 105.368 117.475 104.879 118.138 104.504C118.801 104.13 119.342 104.182 119.842 104.464C120.395 104.777 120.938 105.404 121.417 106.253Z" fill="#866464" stroke="#866464" stroke-width="1.5" stroke-linecap="round"/>
<path d="M128.287 96.0657C128.745 96.8777 128.956 97.6978 128.914 98.3643C128.873 99.005 128.606 99.4847 128.088 99.7771C127.57 100.07 127.021 100.05 126.452 99.7534C125.859 99.4452 125.267 98.8404 124.808 98.0284C124.329 97.1796 124.074 96.3903 124.092 95.7548C124.108 95.1808 124.344 94.6912 125.007 94.3169C125.67 93.9427 126.211 93.9942 126.711 94.2769C127.264 94.5899 127.808 95.2169 128.287 96.0657Z" fill="#866464" stroke="#866464" stroke-width="1.5" stroke-linecap="round"/>
<path d="M135.085 98.5364C135.544 99.3484 135.755 100.168 135.712 100.835C135.672 101.476 135.405 101.955 134.887 102.248C134.369 102.54 133.82 102.52 133.251 102.224C132.658 101.916 132.066 101.311 131.607 100.499C131.128 99.6503 130.872 98.861 130.891 98.2255C130.907 97.6515 131.143 97.1619 131.806 96.7876C132.469 96.4134 133.01 96.4649 133.51 96.7476C134.063 97.0606 134.606 97.6876 135.085 98.5364Z" fill="#866464" stroke="#866464" stroke-width="1.5" stroke-linecap="round"/>
<path d="M102.351 71.9581C101.646 72.3565 101.432 73.0252 101.456 73.7075C101.495 74.8114 101.163 76.0224 100.57 76.9545C100.081 77.7234 99.9261 78.7098 100.79 79.768C102.725 82.1401 104.906 78.6001 105.811 78.0891C106.717 77.5782 110.874 77.5415 109.844 74.6585C109.385 73.3723 108.46 72.9948 107.549 73.0159C106.445 73.0414 105.236 72.7003 104.312 72.0963C103.74 71.7229 103.057 71.5598 102.351 71.9581Z" fill="#866464" stroke="#866464" stroke-width="1.5" stroke-linecap="round"/>
<path d="M98.9727 68.2025C99.3757 68.9167 99.5579 69.6321 99.5213 70.2066C99.4864 70.7553 99.2606 71.1557 98.8266 71.4006C98.3926 71.6455 97.9332 71.6318 97.4454 71.3781C96.9347 71.1124 96.4165 70.5865 96.0135 69.8724C95.5897 69.1214 95.3695 68.433 95.3851 67.8877C95.3989 67.4038 95.5937 66.9936 96.1596 66.6743C96.7254 66.3549 97.1772 66.4003 97.5986 66.6386C98.0735 66.9071 98.5489 67.4516 98.9727 68.2025Z" fill="#866464" stroke="#866464" stroke-width="1.5" stroke-linecap="round"/>
<path d="M97.7227 74.5306C98.1257 75.2448 98.3079 75.9603 98.2713 76.5347C98.2364 77.0835 98.0106 77.4838 97.5766 77.7287C97.1426 77.9736 96.6832 77.9599 96.1954 77.7062C95.6847 77.4405 95.1665 76.9146 94.7635 76.2005C94.3397 75.4496 94.1195 74.7611 94.1351 74.2158C94.1489 73.7319 94.3437 73.3217 94.9096 73.0024C95.4754 72.6831 95.9272 72.7284 96.3486 72.9667C96.8235 73.2353 97.2989 73.7797 97.7227 74.5306Z" fill="#866464" stroke="#866464" stroke-width="1.5" stroke-linecap="round"/>
<path d="M103.848 65.4466C104.251 66.1608 104.433 66.8763 104.396 67.4508C104.361 67.9995 104.136 68.3998 103.702 68.6447C103.268 68.8896 102.808 68.876 102.32 68.6222C101.81 68.3566 101.291 67.8307 100.888 67.1165C100.465 66.3656 100.244 65.6771 100.26 65.1318C100.274 64.6479 100.469 64.2377 101.035 63.9184C101.6 63.5991 102.052 63.6444 102.474 63.8827C102.948 64.1513 103.424 64.6957 103.848 65.4466Z" fill="#866464" stroke="#866464" stroke-width="1.5" stroke-linecap="round"/>
<path d="M109.912 67.6517C110.315 68.3659 110.497 69.0814 110.461 69.6558C110.426 70.2046 110.2 70.6049 109.766 70.8498C109.332 71.0947 108.873 71.081 108.385 70.8273C107.874 70.5616 107.356 70.0357 106.953 69.3216C106.529 68.5706 106.309 67.8822 106.325 67.3369C106.338 66.853 106.533 66.4428 107.099 66.1235C107.665 65.8042 108.117 65.8495 108.538 66.0878C109.013 66.3563 109.488 66.9008 109.912 67.6517Z" fill="#866464" stroke="#866464" stroke-width="1.5" stroke-linecap="round"/>
<path d="M73.6893 46.3503C73.1717 46.6423 72.9602 47.1023 72.9203 47.5951C72.8312 48.696 72.5049 49.9183 72.0151 50.9083C71.7053 51.5345 71.6755 52.2972 72.3377 53.1087C74.0126 55.1614 75.8996 52.098 76.6832 51.6558C77.4667 51.2137 81.0646 51.182 80.1733 48.6871C79.8209 47.7008 79.1526 47.3319 78.4564 47.2735C77.3557 47.181 76.1408 46.8284 75.1523 46.3355C74.7099 46.1149 74.2068 46.0582 73.6893 46.3503Z" fill="#866464" stroke="#866464" stroke-width="1.5" stroke-linecap="round"/>
<path d="M70.6751 43.1459C71.017 43.7517 71.1672 44.3514 71.137 44.8241C71.1086 45.271 70.9278 45.5834 70.587 45.7758C70.2461 45.9681 69.8852 45.9613 69.488 45.7547C69.0678 45.5361 68.6321 45.0975 68.2902 44.4916C67.9276 43.849 67.7466 43.2722 67.7594 42.8267C67.7704 42.4426 67.92 42.1203 68.3783 41.8617C68.8365 41.6031 69.1898 41.6416 69.5242 41.8308C69.9122 42.0502 70.3124 42.5032 70.6751 43.1459Z" fill="#866464" stroke="#866464" stroke-width="1.5" stroke-linecap="round"/>
<path d="M69.593 48.6224C69.9349 49.2283 70.0851 49.828 70.055 50.3007C70.0265 50.7476 69.8458 51.06 69.505 51.2524C69.1641 51.4447 68.8032 51.4379 68.4059 51.2312C67.9858 51.0127 67.55 50.5741 67.2082 49.9682C66.8455 49.3256 66.6646 48.7488 66.6773 48.3032C66.6883 47.9191 66.838 47.5968 67.2962 47.3383C67.7545 47.0797 68.1077 47.1182 68.4422 47.3073C68.8302 47.5267 69.2304 47.9798 69.593 48.6224Z" fill="#866464" stroke="#866464" stroke-width="1.5" stroke-linecap="round"/>
<path d="M74.8977 40.763C75.2396 41.3689 75.3898 41.9686 75.3597 42.4413C75.3312 42.8882 75.1505 43.2006 74.8096 43.393C74.4688 43.5853 74.1079 43.5785 73.7106 43.3719C73.2905 43.1533 72.8547 42.7147 72.5128 42.1088C72.1502 41.4662 71.9693 40.8894 71.982 40.4439C71.993 40.0598 72.1427 39.7375 72.6009 39.4789C73.0591 39.2203 73.4124 39.2588 73.7469 39.448C74.1349 39.6674 74.5351 40.1204 74.8977 40.763Z" fill="#866464" stroke="#866464" stroke-width="1.5" stroke-linecap="round"/>
<path d="M80.1438 42.6732C80.4857 43.2791 80.6359 43.8788 80.6058 44.3514C80.5773 44.7983 80.3966 45.1108 80.0557 45.3031C79.7149 45.4955 79.354 45.4887 78.9567 45.282C78.5366 45.0634 78.1008 44.6248 77.7589 44.019C77.3963 43.3764 77.2154 42.7996 77.2281 42.354C77.2391 41.9699 77.3888 41.6476 77.847 41.389C78.3052 41.1305 78.6585 41.1689 78.993 41.3581C79.381 41.5775 79.7812 42.0306 80.1438 42.6732Z" fill="#866464" stroke="#866464" stroke-width="1.5" stroke-linecap="round"/>
<path d="M51.9681 29.6685C51.7842 29.811 51.6679 29.9786 51.6024 30.1589C51.2256 31.1972 51.1179 32.6003 51.1531 33.7043C51.1644 34.0583 51.3183 34.4278 51.7033 34.7798C53.1551 36.1075 54.2115 33.6534 54.7395 33.244C55.2676 32.8347 57.9077 32.4238 56.984 30.6867C56.7391 30.2262 56.4197 29.985 56.0797 29.8857C55.0193 29.5763 53.6337 29.3307 52.5342 29.4367C52.3433 29.4551 52.1519 29.5259 51.9681 29.6685Z" fill="#866464" stroke="#866464" stroke-width="0.4" stroke-linecap="round"/>
<path d="M49.6911 27.4203C50.0378 27.8675 50.2491 28.3561 50.285 28.793C50.3204 29.2231 50.1875 29.5985 49.8464 29.8629C49.5053 30.1273 49.1086 30.1624 48.7009 30.0209C48.2867 29.8771 47.8663 29.5507 47.5196 29.1034C47.1661 28.6472 46.9273 28.1816 46.8778 27.7603C46.8302 27.3553 46.9546 26.9784 47.3644 26.6608C47.7742 26.3431 48.1702 26.3167 48.5505 26.4638C48.9461 26.6168 49.3376 26.9641 49.6911 27.4203Z" fill="#866464" stroke="#866464" stroke-width="0.4" stroke-linecap="round"/>
<path d="M49.4841 31.5589C49.8308 32.0062 50.0421 32.4947 50.078 32.9317C50.1134 33.3617 49.9804 33.7372 49.6393 34.0016C49.2982 34.2659 48.9015 34.301 48.4939 34.1596C48.0797 34.0158 47.6593 33.6893 47.3126 33.2421C46.959 32.7859 46.7203 32.3202 46.6708 31.899C46.6232 31.4939 46.7475 31.1171 47.1574 30.7994C47.5672 30.4818 47.9631 30.4553 48.3435 30.6024C48.7391 30.7555 49.1305 31.1028 49.4841 31.5589Z" fill="#866464" stroke="#866464" stroke-width="0.4" stroke-linecap="round"/>
<path d="M52.5349 25.2113C52.8816 25.6585 53.0929 26.1471 53.1288 26.584C53.1641 27.0141 53.0312 27.3895 52.6901 27.6539C52.349 27.9183 51.9523 27.9534 51.5446 27.8119C51.1305 27.6682 50.7101 27.3417 50.3634 26.8944C50.0098 26.4382 49.7711 25.9726 49.7216 25.5513C49.674 25.1463 49.7983 24.7695 50.2082 24.4518C50.618 24.1341 51.0139 24.1077 51.3943 24.2548C51.7899 24.4078 52.1813 24.7551 52.5349 25.2113Z" fill="#866464" stroke="#866464" stroke-width="0.4" stroke-linecap="round"/>
<path d="M56.5935 26.0531C56.9402 26.5003 57.1515 26.9889 57.1874 27.4258C57.2227 27.8559 57.0898 28.2313 56.7487 28.4957C56.4076 28.7601 56.0109 28.7952 55.6032 28.6537C55.1891 28.51 54.7687 28.1835 54.422 27.7362C54.0684 27.28 53.8297 26.8144 53.7802 26.3931C53.7325 25.9881 53.8569 25.6113 54.2667 25.2936C54.6766 24.9759 55.0725 24.9495 55.4529 25.0966C55.8485 25.2496 56.2399 25.5969 56.5935 26.0531Z" fill="#866464" stroke="#866464" stroke-width="0.4" stroke-linecap="round"/>
<path d="M29.5047 14.412C29.4767 14.4337 29.4506 14.4562 29.4263 14.4794C28.6274 15.2422 28.5005 17.0195 28.9363 18.0345C29.0056 18.1959 29.1201 18.3576 29.2921 18.5149C30.4575 19.5807 31.3055 17.6107 31.7294 17.2821C32.1533 16.9536 34.2725 16.6237 33.531 15.2293C33.4215 15.0235 33.2936 14.8723 33.1545 14.7649C32.2803 14.0898 30.5274 13.7695 29.5895 14.3529C29.5611 14.3706 29.5328 14.3902 29.5047 14.412Z" fill="#866464" stroke="#866464" stroke-width="0.5" stroke-linecap="round"/>
<path d="M27.6066 12.662C27.8774 13.0112 28.0379 13.3873 28.0649 13.7164C28.0913 14.0369 27.993 14.3066 27.7471 14.4972C27.5013 14.6878 27.2156 14.7156 26.9118 14.6102C26.5999 14.5019 26.2757 14.2527 26.005 13.9034C25.7256 13.543 25.545 13.1846 25.5079 12.8697C25.4733 12.575 25.5608 12.3036 25.8645 12.0682C26.1681 11.8329 26.4528 11.8158 26.7295 11.9228C27.0253 12.0372 27.3273 12.3016 27.6066 12.662Z" fill="#866464" stroke="#866464" stroke-width="0.5" stroke-linecap="round"/>
<path d="M27.4426 15.9842C27.7133 16.3335 27.8738 16.7096 27.9009 17.0387C27.9272 17.3592 27.829 17.6289 27.5831 17.8194C27.3372 18.01 27.0515 18.0379 26.7477 17.9325C26.4358 17.8242 26.1116 17.575 25.8409 17.2257C25.5616 16.8653 25.3809 16.5069 25.3439 16.1919C25.3092 15.8973 25.3968 15.6259 25.7004 15.3905C26.0041 15.1551 26.2888 15.1381 26.5654 15.2451C26.8612 15.3595 27.1632 15.6239 27.4426 15.9842Z" fill="#866464" stroke="#866464" stroke-width="0.5" stroke-linecap="round"/>
<path d="M29.8879 10.8905C30.1586 11.2398 30.3191 11.6158 30.3462 11.9449C30.3725 12.2654 30.2743 12.5351 30.0284 12.7257C29.7825 12.9163 29.4968 12.9441 29.193 12.8387C28.8811 12.7304 28.5569 12.4812 28.2862 12.132C28.0069 11.7716 27.8262 11.4132 27.7892 11.0982C27.7545 10.8036 27.8421 10.5321 28.1457 10.2968C28.4494 10.0614 28.7341 10.0443 29.0107 10.1514C29.3065 10.2658 29.6086 10.5301 29.8879 10.8905Z" fill="#866464" stroke="#866464" stroke-width="0.5" stroke-linecap="round"/>
<path d="M33.1496 11.5663C33.4203 11.9155 33.5808 12.2916 33.6079 12.6207C33.6342 12.9412 33.536 13.2109 33.2901 13.4015C33.0442 13.5921 32.7586 13.6199 32.4548 13.5145C32.1428 13.4062 31.8187 13.157 31.5479 12.8077C31.2686 12.4473 31.0879 12.0889 31.0509 11.774C31.0163 11.4793 31.1038 11.2079 31.4074 10.9725C31.7111 10.7372 31.9958 10.7201 32.2725 10.8271C32.5682 10.9415 32.8703 11.2059 33.1496 11.5663Z" fill="#866464" stroke="#866464" stroke-width="0.5" stroke-linecap="round"/>
<path d="M146.984 142.658C145.943 143.094 145.642 144.058 145.661 145.014C145.684 146.118 145.207 147.279 144.428 148.062C143.568 148.928 143.042 150.19 144.028 151.74C146.001 154.836 149.094 150.926 150.244 150.445C151.394 149.963 156.351 150.503 155.529 146.925C155.117 145.135 153.849 144.624 152.628 144.629C151.524 144.635 150.362 144.159 149.591 143.368C148.923 142.684 148.026 142.222 146.984 142.658Z" fill="#866464" stroke="#866464" stroke-width="1.5" stroke-linecap="round"/>
<path d="M143.625 137.655C144.012 138.581 144.137 139.489 144.006 140.204C143.88 140.893 143.527 141.385 142.922 141.639C142.316 141.892 141.718 141.798 141.138 141.404C140.538 140.996 139.978 140.27 139.591 139.344C139.187 138.379 139.01 137.499 139.111 136.813C139.202 136.188 139.525 135.682 140.293 135.361C141.061 135.039 141.648 135.164 142.158 135.537C142.717 135.947 143.221 136.69 143.625 137.655Z" fill="#866464" stroke="#866464" stroke-width="1.5" stroke-linecap="round"/>
<path d="M141.25 145.017C141.637 145.943 141.762 146.85 141.631 147.565C141.505 148.254 141.152 148.747 140.547 149C139.941 149.254 139.343 149.159 138.763 148.765C138.163 148.357 137.603 147.631 137.216 146.705C136.812 145.74 136.635 144.86 136.736 144.174C136.827 143.549 137.15 143.043 137.918 142.722C138.686 142.4 139.273 142.525 139.783 142.899C140.342 143.308 140.846 144.052 141.25 145.017Z" fill="#866464" stroke="#866464" stroke-width="1.5" stroke-linecap="round"/>
<path d="M149.818 135.062C150.206 135.988 150.33 136.895 150.199 137.61C150.073 138.299 149.721 138.792 149.115 139.045C148.51 139.299 147.911 139.204 147.332 138.81C146.731 138.402 146.172 137.676 145.784 136.75C145.38 135.785 145.203 134.905 145.304 134.219C145.396 133.594 145.719 133.088 146.487 132.767C147.255 132.445 147.842 132.57 148.351 132.943C148.911 133.353 149.414 134.097 149.818 135.062Z" fill="#866464" stroke="#866464" stroke-width="1.5" stroke-linecap="round"/>
<path d="M156.726 138.538C157.114 139.464 157.238 140.372 157.107 141.086C156.981 141.776 156.629 142.268 156.023 142.522C155.418 142.775 154.82 142.681 154.24 142.287C153.639 141.878 153.08 141.153 152.692 140.227C152.288 139.262 152.111 138.382 152.212 137.696C152.304 137.071 152.627 136.565 153.395 136.243C154.163 135.922 154.75 136.047 155.26 136.42C155.819 136.829 156.322 137.573 156.726 138.538Z" fill="#866464" stroke="#866464" stroke-width="1.5" stroke-linecap="round"/>
<path d="M193.259 254.426C191.848 254.528 191.166 255.636 190.874 256.794C190.604 257.865 189.78 258.814 188.766 259.25C187.395 259.839 186.169 261.039 186.712 263.234C187.725 267.329 192.527 264.204 193.956 264.101C195.385 263.998 200.585 266.403 201.001 262.205C201.224 259.954 199.838 258.943 198.398 258.556C197.331 258.27 196.38 257.449 195.959 256.428C195.504 255.323 194.671 254.324 193.259 254.426Z" fill="#866464" stroke="#866464" stroke-width="1.5" stroke-linecap="round"/>
<path d="M191.541 247.734C191.625 248.9 191.426 249.957 191.009 250.711C190.604 251.443 190.009 251.877 189.212 251.934C188.416 251.992 187.765 251.647 187.259 250.981C186.738 250.294 186.39 249.277 186.306 248.111C186.219 246.902 186.348 245.855 186.722 245.119C187.069 244.438 187.64 243.982 188.634 243.91C189.629 243.838 190.26 244.208 190.7 244.833C191.176 245.508 191.454 246.525 191.541 247.734Z" fill="#866464" stroke="#866464" stroke-width="1.5" stroke-linecap="round"/>
<path d="M186.256 254.878C186.34 256.044 186.141 257.101 185.724 257.855C185.319 258.587 184.724 259.021 183.927 259.079C183.131 259.136 182.48 258.792 181.974 258.125C181.453 257.439 181.105 256.421 181.021 255.255C180.934 254.047 181.063 253 181.437 252.264C181.784 251.583 182.355 251.126 183.349 251.054C184.344 250.983 184.974 251.353 185.415 251.977C185.891 252.652 186.169 253.67 186.256 254.878Z" fill="#866464" stroke="#866464" stroke-width="1.5" stroke-linecap="round"/>
<path d="M199.235 247.181C199.319 248.347 199.12 249.404 198.702 250.158C198.297 250.89 197.702 251.324 196.906 251.381C196.109 251.439 195.458 251.094 194.952 250.428C194.431 249.742 194.083 248.724 193.999 247.558C193.912 246.35 194.042 245.303 194.416 244.567C194.762 243.885 195.334 243.429 196.328 243.357C197.322 243.286 197.953 243.655 198.393 244.28C198.869 244.955 199.148 245.973 199.235 247.181Z" fill="#866464" stroke="#866464" stroke-width="1.5" stroke-linecap="round"/>
<path d="M205.49 253.497C205.574 254.663 205.376 255.72 204.958 256.475C204.553 257.206 203.958 257.64 203.162 257.698C202.365 257.755 201.714 257.411 201.208 256.745C200.687 256.058 200.339 255.04 200.255 253.874C200.168 252.666 200.297 251.619 200.672 250.883C201.018 250.202 201.589 249.745 202.584 249.674C203.578 249.602 204.209 249.972 204.649 250.596C205.125 251.271 205.403 252.289 205.49 253.497Z" fill="#866464" stroke="#866464" stroke-width="1.5" stroke-linecap="round"/>
<path d="M178.344 192.156C177.116 192.434 176.631 193.466 176.499 194.523C176.361 195.619 175.69 196.68 174.769 197.291C173.649 198.033 172.78 199.285 173.557 201.16C175.059 204.781 179.035 201.241 180.333 200.947C181.632 200.653 186.744 202.137 186.541 198.222C186.436 196.195 185.112 195.44 183.781 195.251C182.688 195.097 181.625 194.428 181.029 193.498C180.454 192.601 179.572 191.878 178.344 192.156Z" fill="#866464" stroke="#866464" stroke-width="1.5" stroke-linecap="round"/>
<path d="M175.781 186.261C176.02 187.313 175.983 188.301 175.71 189.04C175.445 189.755 174.971 190.222 174.268 190.381C173.565 190.54 172.936 190.323 172.389 189.791C171.824 189.242 171.366 188.366 171.128 187.314C170.881 186.22 170.856 185.251 171.092 184.536C171.31 183.879 171.757 183.394 172.642 183.194C173.527 182.994 174.139 183.239 174.618 183.739C175.139 184.282 175.534 185.167 175.781 186.261Z" fill="#866464" stroke="#866464" stroke-width="1.5" stroke-linecap="round"/>
<path d="M171.922 193.56C172.16 194.612 172.124 195.6 171.85 196.339C171.585 197.054 171.112 197.521 170.408 197.68C169.705 197.839 169.077 197.621 168.53 197.09C167.965 196.541 167.507 195.665 167.269 194.613C167.021 193.519 166.996 192.55 167.233 191.835C167.451 191.178 167.897 190.693 168.782 190.493C169.667 190.292 170.279 190.538 170.758 191.037C171.28 191.581 171.675 192.466 171.922 193.56Z" fill="#866464" stroke="#866464" stroke-width="1.5" stroke-linecap="round"/>
<path d="M182.772 184.681C183.01 185.733 182.974 186.721 182.7 187.46C182.435 188.175 181.961 188.642 181.258 188.801C180.555 188.96 179.926 188.742 179.38 188.211C178.814 187.662 178.356 186.786 178.118 185.734C177.871 184.64 177.846 183.671 178.083 182.956C178.3 182.299 178.747 181.814 179.632 181.614C180.517 181.414 181.129 181.659 181.608 182.159C182.13 182.702 182.524 183.587 182.772 184.681Z" fill="#866464" stroke="#866464" stroke-width="1.5" stroke-linecap="round"/>
<path d="M189.399 189.611C189.637 190.663 189.601 191.651 189.327 192.39C189.062 193.104 188.588 193.571 187.885 193.731C187.182 193.89 186.553 193.672 186.006 193.141C185.441 192.592 184.983 191.716 184.745 190.663C184.498 189.57 184.473 188.601 184.71 187.886C184.927 187.229 185.374 186.744 186.259 186.543C187.144 186.343 187.756 186.589 188.235 187.088C188.757 187.632 189.151 188.517 189.399 189.611Z" fill="#866464" stroke="#866464" stroke-width="1.5" stroke-linecap="round"/>
<path d="M206.232 318.907C204.739 318.803 203.871 319.885 203.409 321.059C203.004 322.087 202.055 322.91 200.985 323.185C199.467 323.575 197.981 324.624 198.222 326.995C198.665 331.348 204.052 328.841 205.534 328.944C207.017 329.047 212.006 332.275 213.046 328.025C213.612 325.71 212.287 324.466 210.837 323.87C209.815 323.449 208.989 322.502 208.73 321.429C208.435 320.202 207.725 319.01 206.232 318.907Z" fill="#866464" stroke="#866464" stroke-width="1.5" stroke-linecap="round"/>
<path d="M205.474 311.787C205.39 313.001 205.03 314.063 204.487 314.782C203.96 315.48 203.277 315.845 202.439 315.787C201.602 315.728 200.976 315.273 200.55 314.508C200.112 313.721 199.903 312.62 199.987 311.406C200.074 310.15 200.361 309.088 200.857 308.381C201.318 307.724 201.98 307.334 203.022 307.407C204.063 307.479 204.665 307.957 205.031 308.671C205.424 309.44 205.561 310.532 205.474 311.787Z" fill="#866464" stroke="#866464" stroke-width="1.5" stroke-linecap="round"/>
<path d="M199.003 318.354C198.919 319.567 198.559 320.629 198.016 321.348C197.489 322.047 196.806 322.411 195.969 322.353C195.131 322.295 194.505 321.839 194.08 321.075C193.641 320.288 193.432 319.186 193.516 317.973C193.604 316.717 193.89 315.655 194.386 314.948C194.847 314.291 195.509 313.901 196.551 313.973C197.592 314.046 198.195 314.523 198.56 315.238C198.954 316.007 199.09 317.098 199.003 318.354Z" fill="#866464" stroke="#866464" stroke-width="1.5" stroke-linecap="round"/>
<path d="M213.454 312.342C213.37 313.556 213.01 314.618 212.467 315.336C211.94 316.035 211.257 316.399 210.42 316.341C209.582 316.283 208.956 315.828 208.531 315.063C208.093 314.276 207.883 313.174 207.968 311.961C208.055 310.705 208.341 309.643 208.837 308.936C209.298 308.279 209.961 307.889 211.002 307.962C212.044 308.034 212.646 308.512 213.011 309.226C213.405 309.995 213.542 311.086 213.454 312.342Z" fill="#866464" stroke="#866464" stroke-width="1.5" stroke-linecap="round"/>
<path d="M218.954 319.74C218.87 320.954 218.51 322.016 217.967 322.735C217.44 323.433 216.757 323.798 215.92 323.74C215.082 323.682 214.456 323.226 214.031 322.461C213.593 321.674 213.383 320.573 213.468 319.359C213.555 318.104 213.841 317.041 214.337 316.334C214.798 315.678 215.461 315.288 216.502 315.36C217.544 315.432 218.146 315.91 218.511 316.624C218.905 317.393 219.042 318.485 218.954 319.74Z" fill="#866464" stroke="#866464" stroke-width="1.5" stroke-linecap="round"/>
</svg>
