<svg width="19" height="19" viewBox="0 0 19 19" fill="none" xmlns="http://www.w3.org/2000/svg">
<path d="M11.9976 4.5C11.9976 6.71945 10.2399 8.5 8.09452 8.5C5.94909 8.5 4.19141 6.71945 4.19141 4.5C4.19141 2.28055 5.94909 0.5 8.09452 0.5C10.2399 0.5 11.9976 2.28055 11.9976 4.5Z" stroke="black"/>
<mask id="path-2-inside-1_2364_734" fill="white">
<path fill-rule="evenodd" clip-rule="evenodd" d="M10.016 17.6504C10.0025 17.6544 9.98898 17.6584 9.97544 17.6624C9.24247 17.8782 8.424 18 7.51185 18C3.48069 18 1.27917 15.621 0.201505 13.2652C-0.530121 11.6658 0.857474 10.125 2.61624 10.125H8.02222H8.89595C8.59811 10.4147 8.33892 10.7516 8.12799 11.125H8.02222H2.61624C2.02204 11.125 1.52671 11.3866 1.25117 11.7258C0.995103 12.0411 0.916334 12.4239 1.11088 12.8492C2.07532 14.9575 3.97854 17 7.51185 17C8.01259 17 8.47655 16.9593 8.9065 16.8852C9.23419 17.2018 9.60824 17.4615 10.016 17.6504Z"/>
</mask>
<path d="M10.016 17.6504L10.3037 18.6081L12.8267 17.8501L10.4363 16.743L10.016 17.6504ZM9.97544 17.6624L9.69304 16.7031L9.69303 16.7031L9.97544 17.6624ZM0.201505 13.2652L-0.707865 13.6812L0.201505 13.2652ZM8.89595 10.125L9.59323 10.8418L11.3581 9.125H8.89595V10.125ZM8.12799 11.125V12.125H8.71163L8.99868 11.6168L8.12799 11.125ZM1.25117 11.7258L2.02736 12.3563L1.25117 11.7258ZM1.11088 12.8492L0.201505 13.2652L0.201505 13.2652L1.11088 12.8492ZM8.9065 16.8852L9.6013 16.166L9.2365 15.8136L8.73663 15.8998L8.9065 16.8852ZM9.72827 16.6926C9.71654 16.6962 9.70479 16.6997 9.69304 16.7031L10.2578 18.6217C10.2732 18.6172 10.2884 18.6127 10.3037 18.6081L9.72827 16.6926ZM9.69303 16.7031C9.05697 16.8904 8.33398 17 7.51185 17V19C8.51401 19 9.42796 18.866 10.2578 18.6217L9.69303 16.7031ZM7.51185 17C3.97854 17 2.07532 14.9575 1.11088 12.8492L-0.707865 13.6812C0.483022 16.2845 2.98285 19 7.51185 19V17ZM1.11088 12.8492C0.916334 12.4239 0.995103 12.0411 1.25117 11.7258C1.52671 11.3866 2.02204 11.125 2.61624 11.125V9.125C1.45168 9.125 0.373822 9.6338 -0.301217 10.4648C-0.995734 11.3198 -1.24495 12.5071 -0.707865 13.6812L1.11088 12.8492ZM2.61624 11.125H8.02222V9.125H2.61624V11.125ZM8.02222 11.125H8.89595V9.125H8.02222V11.125ZM8.99868 11.6168C9.16385 11.3244 9.36511 11.0637 9.59323 10.8418L8.19867 9.4082C7.83111 9.76575 7.51399 10.1787 7.2573 10.6332L8.99868 11.6168ZM8.12799 10.125H8.02222V12.125H8.12799V10.125ZM8.02222 10.125H2.61624V12.125H8.02222V10.125ZM2.61624 10.125C1.73612 10.125 0.949822 10.5107 0.474976 11.0953L2.02736 12.3563C2.1036 12.2625 2.30795 12.125 2.61624 12.125V10.125ZM0.474976 11.0953C-0.00292031 11.6837 -0.162692 12.469 0.201505 13.2652L2.02025 12.4332C2.00601 12.4021 2.00291 12.3853 2.00235 12.3818C2.00189 12.3789 2.00271 12.3827 2.00163 12.3902C2.0006 12.3973 1.99899 12.3997 2.00078 12.3958C2.00287 12.3913 2.0099 12.3778 2.02736 12.3563L0.474976 11.0953ZM0.201505 13.2652C1.28015 15.6231 3.48258 18 7.51185 18V16C4.4745 16 2.87049 14.2919 2.02025 12.4332L0.201505 13.2652ZM7.51185 18C8.06695 18 8.58783 17.9549 9.07636 17.8707L8.73663 15.8998C8.36527 15.9638 7.95823 16 7.51185 16V18ZM10.4363 16.743C10.1342 16.6031 9.85216 16.4084 9.6013 16.166L8.21169 17.6044C8.61622 17.9952 9.08224 18.3199 9.59569 18.5577L10.4363 16.743Z" fill="black" mask="url(#path-2-inside-1_2364_734)"/>
<ellipse cx="13.5984" cy="13.5" rx="4.40311" ry="4.5" fill="black" stroke="black"/>
<path d="M10.8457 14.625V12.375H13.5976V10.6875L16.3496 13.5L13.5976 16.3125V14.625H10.8457Z" fill="white" stroke="white" stroke-width="0.1" stroke-linecap="round"/>
</svg>
