<svg width="24" height="22" viewBox="0 0 24 22" fill="none" xmlns="http://www.w3.org/2000/svg">
<path d="M23.9997 3.47368C23.9997 1.55853 22.4412 0 20.526 0H4.31548C2.40032 0 0.841797 1.55853 0.841797 3.47368V6.75168C0.841797 7.97095 1.28411 9.07905 1.99969 9.93126V19.6842C1.99969 20.9614 3.03832 22 4.31548 22H20.526C21.8032 22 22.8418 20.9614 22.8418 19.6842V9.93011C23.5574 9.07905 23.9997 7.97095 23.9997 6.75053V3.47368ZM21.6839 3.47368V6.75168C21.6839 8.07168 20.7008 9.19716 19.4943 9.26084L19.3681 9.26316C18.091 9.26316 17.0523 8.22453 17.0523 6.94737V2.31579H20.526C21.1652 2.31579 21.6839 2.83568 21.6839 3.47368ZM10.105 2.31579H14.7365V6.94737C14.7365 8.22453 13.6979 9.26316 12.4207 9.26316C11.1436 9.26316 10.105 8.22453 10.105 6.94737V2.31579ZM3.15759 3.47368C3.15759 2.83568 3.67632 2.31579 4.31548 2.31579H7.78917V6.94737C7.78917 8.22453 6.75053 9.26316 5.47338 9.26316L5.34717 9.25968C4.14064 9.19716 3.15759 8.07168 3.15759 6.75168V3.47368ZM10.105 19.6842V16.2105H14.7365V19.6842H10.105ZM17.0523 19.6842V16.2105C17.0523 14.9334 16.0137 13.8947 14.7365 13.8947H10.105C8.8278 13.8947 7.78917 14.9334 7.78917 16.2105V19.6842H4.31548V11.4273C4.60959 11.5048 4.91411 11.5558 5.22674 11.572C5.92482 11.6099 6.62239 11.4888 7.26685 11.2178C7.9113 10.9468 8.48581 10.533 8.94706 10.0077C9.7958 10.9711 11.0394 11.5789 12.4207 11.5789C13.8021 11.5789 15.0457 10.9711 15.8944 10.0077C16.3557 10.533 16.9302 10.9468 17.5746 11.2178C18.2191 11.4888 18.9167 11.6099 19.6147 11.572C19.9285 11.5558 20.2319 11.5048 20.526 11.4273V19.6842H17.0523Z" fill="black"/>
</svg>
