<svg width="22" height="22" viewBox="0 0 22 22" fill="none" xmlns="http://www.w3.org/2000/svg">
<path fill-rule="evenodd" clip-rule="evenodd" d="M5.27953 0.31179C5.47917 0.112154 5.74993 0 6.03226 0H15.9677C16.2501 0 16.5208 0.112154 16.7205 0.31179L21.6882 5.27953C21.8878 5.47917 22 5.74993 22 6.03226V18.4516C22 19.3927 21.6262 20.2952 20.9607 20.9607C20.2952 21.6262 19.3927 22 18.4516 22H3.54839C2.6073 22 1.70475 21.6262 1.0393 20.9607C0.373847 20.2952 0 19.3927 0 18.4516V6.03226C0 5.74993 0.112154 5.47917 0.31179 5.27953L5.27953 0.31179ZM6.4732 2.12903L3.63449 4.96774H18.3655L15.5268 2.12903H6.4732ZM19.871 7.09677H2.12903V18.4516C2.12903 18.828 2.27857 19.1891 2.54475 19.4552C2.81093 19.7214 3.17195 19.871 3.54839 19.871H18.4516C18.828 19.871 19.1891 19.7214 19.4552 19.4552C19.7214 19.1891 19.871 18.828 19.871 18.4516V7.09677ZM11 12.0645H6.03226C5.44434 12.0645 4.96774 11.5879 4.96774 11C4.96774 10.4121 5.44434 9.93548 6.03226 9.93548H11C11.5879 9.93548 12.0645 10.4121 12.0645 11C12.0645 11.5879 11.5879 12.0645 11 12.0645Z" fill="black"/>
</svg>
