<svg width="84" height="112" viewBox="0 0 84 112" fill="none" xmlns="http://www.w3.org/2000/svg">
<rect width="84" height="112" fill="#C0C0C0"/>
<path d="M40.2402 55.5977V57.0156H32.2695V63.7402H30.6152V57.0156H22.752V55.5977H40.2402ZM31.4531 45.4141C35.4707 45.4141 38.1777 47.0254 38.1777 49.625C38.1777 52.1602 35.4707 53.7715 31.4531 53.7715C27.4355 53.7715 24.7285 52.1602 24.7285 49.625C24.7285 47.0254 27.4355 45.4141 31.4531 45.4141ZM31.4531 46.7891C28.4668 46.7891 26.4473 47.9062 26.4688 49.625C26.4473 51.3223 28.4668 52.418 31.4531 52.418C34.418 52.418 36.459 51.3223 36.459 49.625C36.459 47.9062 34.418 46.7891 31.4531 46.7891ZM59.2754 60.002V61.3984H41.7871V60.002H46.6641V55.4473H43.377V54.0508H46.3633V47.8203H43.334V46.4238H57.5996V47.8203H54.5703V54.0508H57.5566V55.4473H54.2695V60.002H59.2754ZM48.0391 54.0508H52.916V47.8203H48.0391V54.0508ZM48.3613 60.002H52.5938V55.4473H48.3613V60.002Z" fill="black"/>
</svg>
