<svg width="21" height="20" viewBox="0 0 21 20" fill="none" xmlns="http://www.w3.org/2000/svg">
<path d="M13.6544 4.75C13.6544 7.10875 11.7914 9 9.51863 9C7.24588 9 5.38281 7.10875 5.38281 4.75C5.38281 2.39125 7.24588 0.5 9.51863 0.5C11.7914 0.5 13.6544 2.39125 13.6544 4.75Z" stroke="black"/>
<mask id="path-2-inside-1_2364_1275" fill="white">
<path fill-rule="evenodd" clip-rule="evenodd" d="M11.5425 18.6309C11.5282 18.6352 11.514 18.6394 11.4997 18.6437C10.728 18.8714 9.86629 19 8.90593 19C4.56766 19 2.24205 16.3763 1.13553 13.8368C0.433078 12.2247 1.81953 10.6875 3.57803 10.6875H9.44328H10.3633C10.0645 10.9789 9.80266 11.3154 9.58652 11.6875H9.44328H3.57803C2.98416 11.6875 2.48785 11.9482 2.20833 12.2903C1.94684 12.6104 1.86295 13.0029 2.05228 13.4374C3.05178 15.7312 5.08097 18 8.90593 18C9.45198 18 9.95704 17.9542 10.4242 17.8708C10.7571 18.1835 11.1337 18.4411 11.5425 18.6309Z"/>
</mask>
<path d="M11.5425 18.6309L11.8309 19.5884L14.3468 18.8306L11.9636 17.7239L11.5425 18.6309ZM11.4997 18.6437L11.2167 17.6846L11.2166 17.6846L11.4997 18.6437ZM1.13553 13.8368L0.218779 14.2363L1.13553 13.8368ZM10.3633 10.6875L11.0615 11.4034L12.8209 9.6875H10.3633V10.6875ZM9.58652 11.6875V12.6875H10.1621L10.4512 12.1898L9.58652 11.6875ZM2.20833 12.2903L1.43392 11.6576L1.43392 11.6576L2.20833 12.2903ZM2.05228 13.4374L1.13553 13.8368L1.13553 13.8368L2.05228 13.4374ZM10.4242 17.8708L11.1088 17.1419L10.7429 16.7982L10.2486 16.8864L10.4242 17.8708ZM11.2541 17.6734C11.2416 17.6772 11.2291 17.6809 11.2167 17.6846L11.7828 19.6028C11.7988 19.598 11.8149 19.5932 11.8309 19.5884L11.2541 17.6734ZM11.2166 17.6846C10.542 17.8837 9.77603 18 8.90593 18V20C9.95654 20 10.914 19.8592 11.7828 19.6028L11.2166 17.6846ZM8.90593 18C5.08097 18 3.05178 15.7312 2.05228 13.4374L0.218779 14.2363C1.43233 17.0214 4.05436 20 8.90593 20V18ZM2.05228 13.4374C1.86295 13.0029 1.94684 12.6104 2.20833 12.2903C2.48785 11.9482 2.98416 11.6875 3.57803 11.6875V9.6875C2.4134 9.6875 1.33723 10.1954 0.659518 11.0249C-0.0362322 11.8765 -0.294342 13.0587 0.218779 14.2363L2.05228 13.4374ZM3.57803 11.6875H9.44328V9.6875H3.57803V11.6875ZM9.44328 11.6875H10.3633V9.6875H9.44328V11.6875ZM10.4512 12.1898C10.6228 11.8944 10.8291 11.6301 11.0615 11.4034L9.66508 9.97159C9.29994 10.3277 8.98252 10.7365 8.72184 11.1852L10.4512 12.1898ZM9.58652 10.6875H9.44328V12.6875H9.58652V10.6875ZM9.44328 10.6875H3.57803V12.6875H9.44328V10.6875ZM3.57803 10.6875C2.69811 10.6875 1.91213 11.0723 1.43392 11.6576L2.98273 12.923C3.06358 12.8241 3.27022 12.6875 3.57803 12.6875V10.6875ZM1.43392 11.6576C0.952935 12.2463 0.78571 13.034 1.13553 13.8368L2.96903 13.0379C2.9547 13.005 2.951 12.9857 2.95 12.9787C2.94908 12.9722 2.94979 12.9719 2.94932 12.9749C2.94784 12.9844 2.94647 12.9674 2.98273 12.923L1.43392 11.6576ZM1.13553 13.8368C2.24304 16.3786 4.56962 19 8.90593 19V17C5.59232 17 3.86051 15.0839 2.96903 13.0379L1.13553 13.8368ZM8.90593 19C9.50816 19 10.0721 18.9494 10.5998 18.8553L10.2486 16.8864C9.842 16.9589 9.39581 17 8.90593 17V19ZM11.9636 17.7239C11.6557 17.5809 11.3673 17.3847 11.1088 17.1419L9.73964 18.5998C10.147 18.9823 10.6118 19.3013 11.1213 19.5379L11.9636 17.7239Z" fill="black" mask="url(#path-2-inside-1_2364_1275)"/>
<ellipse cx="15.3135" cy="14.25" rx="4.63581" ry="4.75" fill="black" stroke="black"/>
<path d="M12.9961 14.25L14.5503 16.3734C14.6364 16.491 14.8154 16.48 14.8864 16.3527L17.0524 12.4688" stroke="white" stroke-width="1.5" stroke-linecap="round"/>
</svg>
