<svg width="45" height="42" viewBox="0 0 45 42" fill="none" xmlns="http://www.w3.org/2000/svg">
<rect width="44.2703" height="42" rx="11.3514" fill="black"/>
<path d="M26.035 15.0415C26.035 17.8823 23.7927 20.1496 21.0701 20.1496C18.3475 20.1496 16.1053 17.8823 16.1053 15.0415C16.1053 12.2007 18.3475 9.93338 21.0701 9.93338C23.7927 9.93338 26.035 12.2007 26.035 15.0415Z" stroke="white" stroke-width="1.7027"/>
<mask id="path-3-inside-1_12_3342" fill="white">
<path fill-rule="evenodd" clip-rule="evenodd" d="M23.6083 32.4589C22.9335 32.1452 22.3287 31.6842 21.8267 31.1123C21.3525 31.1811 20.8453 31.2186 20.3026 31.2186C15.5696 31.2186 13.1391 28.3282 11.9828 25.4481C11.8615 25.146 11.9156 24.901 12.1009 24.6765C12.3133 24.4191 12.7155 24.1949 13.2274 24.1949H20.921C21.2286 23.5481 21.6407 22.9714 22.1325 22.4922H20.9768H13.2274C11.2313 22.4922 9.65896 24.2301 10.4027 26.0825C11.7249 29.3758 14.6539 32.9213 20.3026 32.9213C21.5075 32.9213 22.5887 32.76 23.5569 32.4742C23.5741 32.4691 23.5912 32.464 23.6083 32.4589Z"/>
</mask>
<path d="M23.6083 32.4589L23.9354 33.5458L26.7907 32.6866L24.0868 31.4295L23.6083 32.4589ZM21.8267 31.1123L22.6797 30.3634L22.2733 29.9005L21.6636 29.9889L21.8267 31.1123ZM11.9828 25.4481L13.0362 25.0252L11.9828 25.4481ZM12.1009 24.6765L12.9764 25.399L12.9764 25.399L12.1009 24.6765ZM20.921 24.1949V25.33H21.6381L21.9461 24.6824L20.921 24.1949ZM22.1325 22.4922L22.9247 23.3052L24.9238 21.3571H22.1325V22.4922ZM10.4027 26.0825L9.34928 26.5055H9.34928L10.4027 26.0825ZM23.5569 32.4742L23.2356 31.3855L23.2355 31.3855L23.5569 32.4742ZM24.0868 31.4295C23.5626 31.1858 23.0834 30.8232 22.6797 30.3634L20.9736 31.8612C21.574 32.5451 22.3045 33.1045 23.1298 33.4882L24.0868 31.4295ZM20.3026 32.3537C20.8976 32.3537 21.4594 32.3126 21.9897 32.2357L21.6636 29.9889C21.2456 30.0496 20.7929 30.0834 20.3026 30.0834V32.3537ZM10.9294 25.8711C11.558 27.4369 12.5542 29.0606 14.0893 30.2973C15.6416 31.5479 17.6858 32.3537 20.3026 32.3537V30.0834C18.1865 30.0834 16.6489 29.4441 15.5136 28.5294C14.3612 27.601 13.5639 26.3395 13.0362 25.0252L10.9294 25.8711ZM11.2254 23.954C11.0371 24.1821 10.8696 24.4778 10.8077 24.8437C10.7452 25.2128 10.8055 25.5624 10.9294 25.8711L13.0362 25.0252C13.0388 25.0317 13.0655 25.1078 13.0461 25.2227C13.0271 25.3344 12.9793 25.3954 12.9764 25.399L11.2254 23.954ZM13.2274 23.0598C12.39 23.0598 11.6617 23.4252 11.2254 23.954L12.9764 25.399C12.9657 25.4119 12.9787 25.3924 13.0276 25.3698C13.0721 25.3493 13.1385 25.33 13.2274 25.33V23.0598ZM20.921 23.0598H13.2274V25.33H20.921V23.0598ZM21.9461 24.6824C22.1975 24.1539 22.5317 23.6882 22.9247 23.3052L21.3403 21.6792C20.7498 22.2546 20.2598 22.9422 19.8959 23.7073L21.9461 24.6824ZM20.9768 23.6273H22.1325V21.3571H20.9768V23.6273ZM13.2274 23.6273H20.9768V21.3571H13.2274V23.6273ZM11.4561 25.6596C11.2513 25.1495 11.3564 24.6869 11.6631 24.3152C11.9879 23.9216 12.5534 23.6273 13.2274 23.6273V21.3571C11.9053 21.3571 10.6866 21.9317 9.91209 22.8702C9.11958 23.8306 8.81037 25.1632 9.34928 26.5055L11.4561 25.6596ZM20.3026 31.7861C15.2644 31.7861 12.6677 28.6774 11.4561 25.6596L9.34928 26.5055C10.782 30.0741 14.0434 34.0564 20.3026 34.0564V31.7861ZM23.2355 31.3855C22.3776 31.6387 21.4051 31.7861 20.3026 31.7861V34.0564C21.61 34.0564 22.7998 33.8812 23.8782 33.5629L23.2355 31.3855ZM23.2812 31.3719C23.266 31.3765 23.2508 31.381 23.2356 31.3855L23.8782 33.5629C23.8973 33.5572 23.9164 33.5516 23.9354 33.5458L23.2812 31.3719Z" fill="white" mask="url(#path-3-inside-1_12_3342)"/>
<ellipse cx="28.3416" cy="26.9595" rx="5.81621" ry="5.95947" fill="white" stroke="white" stroke-width="1.13514"/>
<path d="M25.4355 26.9614L27.4076 29.6555C27.5053 29.789 27.7084 29.7765 27.789 29.632L30.5247 24.7266" stroke="#081A2F" stroke-width="1.7027" stroke-linecap="round"/>
</svg>
