<svg width="21" height="20" viewBox="0 0 21 20" fill="none" xmlns="http://www.w3.org/2000/svg">
<path d="M13.6544 4.75032C13.6544 7.10927 11.7913 9.00063 9.51859 9.00063C7.2459 9.00063 5.38281 7.10927 5.38281 4.75032C5.38281 2.39136 7.2459 0.5 9.51859 0.5C11.7913 0.5 13.6544 2.39136 13.6544 4.75032Z" stroke="black"/>
<mask id="path-2-inside-1_2364_1075" fill="white">
<path fill-rule="evenodd" clip-rule="evenodd" d="M10.3615 10.6875H9.44327H3.57807C1.81957 10.6875 0.433122 12.2247 1.13549 13.8368C2.24197 16.3765 4.56757 19.0006 8.90592 19.0006C9.86627 19.0006 10.728 18.872 11.4997 18.6442C11.5135 18.6401 11.5274 18.636 11.5412 18.6318C11.1323 18.442 10.7556 18.1844 10.4226 17.8717C9.95587 17.9548 9.45135 18.0006 8.90592 18.0006C5.08094 18.0006 3.05174 15.7315 2.05226 13.4374C1.86295 13.0029 1.94685 12.6104 2.20835 12.2903C2.48789 11.9482 2.9842 11.6875 3.57807 11.6875H9.44327H9.5847C9.80085 11.3154 10.0627 10.9789 10.3615 10.6875Z"/>
</mask>
<path d="M10.3615 10.6875L11.0597 11.4034L12.819 9.6875H10.3615V10.6875ZM1.13549 13.8368L0.218723 14.2363V14.2363L1.13549 13.8368ZM11.4997 18.6442L11.7828 19.6033L11.7828 19.6033L11.4997 18.6442ZM11.5412 18.6318L11.8294 19.5894L14.3466 18.8316L11.9622 17.7248L11.5412 18.6318ZM10.4226 17.8717L11.1072 17.1427L10.7413 16.7991L10.2472 16.8872L10.4226 17.8717ZM2.05226 13.4374L1.13549 13.8368H1.13549L2.05226 13.4374ZM2.20835 12.2903L2.98275 12.923H2.98275L2.20835 12.2903ZM9.5847 11.6875V12.6875H10.1603L10.4494 12.1898L9.5847 11.6875ZM9.44327 11.6875H10.3615V9.6875H9.44327V11.6875ZM3.57807 11.6875H9.44327V9.6875H3.57807V11.6875ZM2.05226 13.4374C1.86295 13.0029 1.94685 12.6104 2.20835 12.2903C2.48789 11.9482 2.9842 11.6875 3.57807 11.6875V9.6875C2.41344 9.6875 1.33728 10.1954 0.659559 11.0249C-0.0361959 11.8765 -0.294334 13.0587 0.218723 14.2363L2.05226 13.4374ZM8.90592 18.0006C5.08094 18.0006 3.05174 15.7315 2.05226 13.4374L0.218723 14.2363C1.4322 17.0215 4.0542 20.0006 8.90592 20.0006V18.0006ZM11.2166 17.6851C10.542 17.8842 9.776 18.0006 8.90592 18.0006V20.0006C9.95653 20.0006 10.914 19.8597 11.7828 19.6033L11.2166 17.6851ZM11.2529 17.6743C11.2409 17.6779 11.2287 17.6815 11.2166 17.6851L11.7828 19.6033C11.7984 19.5987 11.8139 19.594 11.8294 19.5894L11.2529 17.6743ZM11.9622 17.7248C11.6542 17.5818 11.3657 17.3855 11.1072 17.1427L9.73806 18.6006C10.1455 18.9833 10.6105 19.3023 11.1201 19.5389L11.9622 17.7248ZM8.90592 19.0006C9.50746 19.0006 10.0708 18.9501 10.598 18.8562L10.2472 16.8872C9.84096 16.9596 9.39524 17.0006 8.90592 17.0006V19.0006ZM1.13549 13.8368C2.24296 16.3788 4.56953 19.0006 8.90592 19.0006V17.0006C5.59234 17.0006 3.86052 15.0842 2.96903 13.038L1.13549 13.8368ZM1.43396 11.6576C0.95296 12.2463 0.785713 13.034 1.13549 13.8368L2.96903 13.038C2.9547 13.0051 2.951 12.9857 2.95 12.9787C2.94908 12.9723 2.94979 12.972 2.94932 12.975C2.94785 12.9844 2.94648 12.9674 2.98275 12.923L1.43396 11.6576ZM3.57807 10.6875C2.69815 10.6875 1.91217 11.0723 1.43396 11.6576L2.98275 12.923C3.06361 12.8241 3.27025 12.6875 3.57807 12.6875V10.6875ZM9.44327 10.6875H3.57807V12.6875H9.44327V10.6875ZM9.5847 10.6875H9.44327V12.6875H9.5847V10.6875ZM10.4494 12.1898C10.621 11.8944 10.8272 11.6301 11.0597 11.4034L9.66325 9.9716C9.29812 10.3277 8.9807 10.7365 8.72003 11.1852L10.4494 12.1898Z" fill="black" mask="url(#path-2-inside-1_2364_1075)"/>
<ellipse cx="15.3135" cy="14.2503" rx="4.63578" ry="4.75032" fill="black" stroke="black"/>
<path d="M15.314 11.875V16.6253M12.9961 14.2502H17.6319" stroke="white" stroke-width="1.5" stroke-linecap="round"/>
</svg>
