<svg width="45" height="42" viewBox="0 0 45 42" fill="none" xmlns="http://www.w3.org/2000/svg">
<rect width="44.2703" height="42" rx="11.3514" fill="black"/>
<path d="M26.0812 15.0419C26.0812 17.8808 23.8342 20.1504 21.1011 20.1504C18.368 20.1504 16.1209 17.8808 16.1209 15.0419C16.1209 12.203 18.368 9.93338 21.1011 9.93338C23.8342 9.93338 26.0812 12.203 26.0812 15.0419Z" stroke="white" stroke-width="1.7027"/>
<mask id="path-3-inside-1_12_3275" fill="white">
<path fill-rule="evenodd" clip-rule="evenodd" d="M23.6433 32.4594C22.9669 32.1457 22.3606 31.6847 21.8574 31.113C21.3817 31.1818 20.8729 31.2192 20.3285 31.2192C15.5781 31.2192 13.1407 28.3255 11.982 25.447C11.8606 25.1452 11.9144 24.9007 12.0994 24.6764C12.3115 24.4192 12.7137 24.1949 13.2257 24.1949H20.9495C21.2579 23.5481 21.6711 22.9714 22.1641 22.4922H21.0045H13.2257C11.2293 22.4922 9.65699 24.2307 10.4025 26.0827C11.7281 29.3762 14.6649 32.9219 20.3285 32.9219C21.5366 32.9219 22.6206 32.7606 23.5913 32.4748C23.6087 32.4697 23.626 32.4646 23.6433 32.4594Z"/>
</mask>
<path d="M23.6433 32.4594L23.9697 33.5466L26.8322 32.6872L24.1209 31.4296L23.6433 32.4594ZM21.8574 31.113L22.7095 30.363L22.3033 29.9015L21.6948 29.9895L21.8574 31.113ZM11.982 25.447L13.035 25.0231L11.982 25.447ZM12.0994 24.6764L11.2237 23.9541L11.2237 23.9541L12.0994 24.6764ZM20.9495 24.1949V25.33H21.6658L21.9741 24.6835L20.9495 24.1949ZM22.1641 22.4922L22.9553 23.3062L24.9607 21.3571H22.1641V22.4922ZM10.4025 26.0827L9.34944 26.5066L10.4025 26.0827ZM23.5913 32.4748L23.9119 33.5638L23.9119 33.5638L23.5913 32.4748ZM24.1209 31.4296C23.5949 31.1856 23.1142 30.8228 22.7095 30.363L21.0053 31.8629C21.607 32.5466 22.339 33.1057 23.1656 33.4891L24.1209 31.4296ZM20.3285 32.3544C20.9251 32.3544 21.4883 32.3133 22.02 32.2364L21.6948 29.9895C21.2751 30.0503 20.8207 30.0841 20.3285 30.0841V32.3544ZM10.929 25.8708C11.5591 27.4362 12.5578 29.0602 14.0973 30.2974C15.6538 31.5482 17.7037 32.3544 20.3285 32.3544V30.0841C18.2029 30.0841 16.6589 29.4434 15.5194 28.5277C14.363 27.5984 13.5637 26.3363 13.035 25.0231L10.929 25.8708ZM11.2237 23.9541C11.0357 24.182 10.8682 24.4778 10.8065 24.8438C10.7442 25.213 10.8049 25.5625 10.929 25.8708L13.035 25.0231C13.0377 25.0296 13.0646 25.106 13.0451 25.2215C13.0262 25.3337 12.9781 25.395 12.9751 25.3987L11.2237 23.9541ZM13.2257 23.0598C12.3882 23.0598 11.6599 23.4253 11.2237 23.9541L12.9751 25.3987C12.9643 25.4118 12.9771 25.3923 13.026 25.3697C13.0704 25.3493 13.1368 25.33 13.2257 25.33V23.0598ZM20.9495 23.0598H13.2257V25.33H20.9495V23.0598ZM21.9741 24.6835C22.2261 24.1551 22.5611 23.6893 22.9553 23.3062L21.373 21.6782C20.7811 22.2534 20.2898 22.941 19.9249 23.7063L21.9741 24.6835ZM21.0045 23.6273H22.1641V21.3571H21.0045V23.6273ZM13.2257 23.6273H21.0045V21.3571H13.2257V23.6273ZM11.4555 25.6589C11.2503 25.149 11.3551 24.6868 11.6616 24.3152C11.9861 23.9217 12.5516 23.6273 13.2257 23.6273V21.3571C11.9034 21.3571 10.6845 21.9319 9.91018 22.8707C9.11777 23.8314 8.80919 25.1644 9.34944 26.5066L11.4555 25.6589ZM20.3285 31.7868C15.2737 31.7868 12.6698 28.6758 11.4555 25.6589L9.34944 26.5066C10.7864 30.0766 14.056 34.0571 20.3285 34.0571V31.7868ZM23.2708 31.3859C22.41 31.6393 21.4344 31.7868 20.3285 31.7868V34.0571C21.6388 34.0571 22.8311 33.8819 23.9119 33.5638L23.2708 31.3859ZM23.3169 31.3722C23.3016 31.3768 23.2862 31.3814 23.2707 31.3859L23.9119 33.5638C23.9312 33.5581 23.9505 33.5524 23.9697 33.5466L23.3169 31.3722Z" fill="white" mask="url(#path-3-inside-1_12_3275)"/>
<ellipse cx="28.3921" cy="26.9599" rx="5.83153" ry="5.95986" fill="white" stroke="white" stroke-width="1.13514"/>
<path d="M24.7461 28.4492V25.4693H28.3908V23.2344L32.0355 26.9593L28.3908 30.6842V28.4492H24.7461Z" fill="black" stroke="black" stroke-width="0.113514" stroke-linecap="round"/>
</svg>
