<svg width="45" height="42" viewBox="0 0 45 42" fill="none" xmlns="http://www.w3.org/2000/svg">
<rect width="44.2703" height="42" rx="11.3514" fill="black"/>
<path d="M26.0348 15.0419C26.0348 17.8829 23.7925 20.1503 21.07 20.1503C18.3475 20.1503 16.1053 17.8829 16.1053 15.0419C16.1053 12.2008 18.3475 9.93338 21.07 9.93338C23.7925 9.93338 26.0348 12.2008 26.0348 15.0419Z" stroke="white" stroke-width="1.7027"/>
<mask id="path-3-inside-1_12_3208" fill="white">
<path fill-rule="evenodd" clip-rule="evenodd" d="M23.6069 32.4598C22.9321 32.1462 22.3271 31.6851 21.825 31.1132C21.3512 31.1818 20.8446 31.2192 20.3026 31.2192C15.5696 31.2192 13.1391 28.3286 11.9828 25.4482C11.8615 25.1461 11.9156 24.901 12.1009 24.6765C12.3133 24.4191 12.7155 24.1949 13.2275 24.1949H20.9192C21.2268 23.5481 21.6389 22.9714 22.1306 22.4922H20.9767H13.2275C11.2313 22.4922 9.65901 24.2301 10.4026 26.0825C11.7248 29.376 14.6537 32.9219 20.3026 32.9219C21.5074 32.9219 22.5886 32.7606 23.5568 32.4748C23.5735 32.4698 23.5902 32.4649 23.6069 32.4598Z"/>
</mask>
<path d="M23.6069 32.4598L23.9339 33.5469L26.7903 32.6877L24.0854 31.4305L23.6069 32.4598ZM21.825 31.1132L22.678 30.3643L22.2717 29.9014L21.6621 29.9898L21.825 31.1132ZM11.9828 25.4482L13.0362 25.0253L13.0362 25.0253L11.9828 25.4482ZM12.1009 24.6765L12.9764 25.399H12.9764L12.1009 24.6765ZM20.9192 24.1949V25.33H21.6363L21.9443 24.6825L20.9192 24.1949ZM22.1306 22.4922L22.9229 23.3051L24.9219 21.3571H22.1306V22.4922ZM10.4026 26.0825L9.34922 26.5054L10.4026 26.0825ZM23.5568 32.4748L23.2354 31.3861L23.2354 31.3861L23.5568 32.4748ZM24.0854 31.4305C23.5611 31.1868 23.0817 30.8242 22.678 30.3643L20.9719 31.8621C21.5724 32.5461 22.3031 33.1056 23.1285 33.4892L24.0854 31.4305ZM20.3026 32.3543C20.8969 32.3543 21.458 32.3134 21.9878 32.2366L21.6621 29.9898C21.2445 30.0503 20.7923 30.0841 20.3026 30.0841V32.3543ZM10.9294 25.8711C11.558 27.4371 12.5541 29.0609 14.0892 30.2978C15.6415 31.5484 17.6857 32.3543 20.3026 32.3543V30.0841C18.1865 30.0841 16.6489 29.4447 15.5136 28.5299C14.3612 27.6014 13.5639 26.3398 13.0362 25.0253L10.9294 25.8711ZM11.2254 23.954C11.0371 24.1821 10.8696 24.4778 10.8077 24.8437C10.7452 25.2128 10.8055 25.5625 10.9294 25.8711L13.0362 25.0253C13.0388 25.0319 13.0655 25.1079 13.0461 25.2228C13.0272 25.3345 12.9793 25.3954 12.9764 25.399L11.2254 23.954ZM13.2275 23.0598C12.3901 23.0598 11.6618 23.4252 11.2254 23.954L12.9764 25.399C12.9657 25.4119 12.9787 25.3924 13.0276 25.3698C13.0721 25.3493 13.1385 25.33 13.2275 25.33V23.0598ZM20.9192 23.0598H13.2275V25.33H20.9192V23.0598ZM21.9443 24.6825C22.1957 24.1539 22.5299 23.6881 22.9229 23.3051L21.3384 21.6792C20.748 22.2546 20.258 22.9422 19.8941 23.7073L21.9443 24.6825ZM20.9767 23.6273H22.1306V21.3571H20.9767V23.6273ZM13.2275 23.6273H20.9767V21.3571H13.2275V23.6273ZM11.4561 25.6597C11.2513 25.1495 11.3564 24.6869 11.6631 24.3152C11.988 23.9216 12.5535 23.6273 13.2275 23.6273V21.3571C11.9053 21.3571 10.6866 21.9317 9.91214 22.8702C9.11962 23.8305 8.81038 25.1631 9.34922 26.5054L11.4561 25.6597ZM20.3026 31.7868C15.2643 31.7868 12.6676 28.6778 11.4561 25.6597L9.34922 26.5054C10.7819 30.0743 14.0432 34.057 20.3026 34.057V31.7868ZM23.2354 31.3861C22.3774 31.6393 21.405 31.7868 20.3026 31.7868V34.057C21.6099 34.057 22.7997 33.8818 23.8781 33.5635L23.2354 31.3861ZM23.28 31.3728C23.2651 31.3773 23.2502 31.3817 23.2354 31.3861L23.8781 33.5635C23.8968 33.558 23.9154 33.5524 23.9339 33.5469L23.28 31.3728Z" fill="white" mask="url(#path-3-inside-1_12_3208)"/>
<ellipse cx="28.3415" cy="26.9598" rx="5.81613" ry="5.95983" fill="white" stroke="white" stroke-width="1.13514"/>
<path d="M28.3436 23.9805V29.9403M25.4355 26.9604H31.2517" stroke="black" stroke-width="1.7027" stroke-linecap="round"/>
</svg>
