<svg width="30" height="28" viewBox="0 0 30 28" fill="none" xmlns="http://www.w3.org/2000/svg">
<path d="M13.2557 26C7.03935 26 1.99998 20.6274 1.99998 14C1.99998 7.37258 7.03935 2 13.2557 2C19.4721 2 24.5115 7.37258 24.5115 14C24.5115 20.6274 19.4721 26 13.2557 26Z" stroke="black" stroke-width="2.5" stroke-linecap="round" stroke-linejoin="round"/>
<path d="M16.2163 10.1475C15.4622 9.52818 14.5213 9.18935 13.5505 9.1875C11.0967 9.1875 9.10742 11.3355 9.10742 13.9875C9.10742 16.6395 11.0967 18.7875 13.5505 18.7875C14.5505 18.7875 15.4734 18.4299 16.2163 17.8275" stroke="black" stroke-width="2.5" stroke-linecap="round" stroke-linejoin="round"/>
<path d="M12.6641 2C17.7979 2 28.0667 3.2 28.0667 14C28.0667 24.8 17.7979 26 12.6641 26" stroke="black" stroke-width="2.5"/>
</svg>
