<svg width="176" height="162" viewBox="0 0 176 162" fill="none" xmlns="http://www.w3.org/2000/svg">
<path d="M1 161V48L88 1L175 48V161H1Z" fill="#D5C9BD" stroke="#8A7C6E" stroke-width="1.5"/>
<path fill-rule="evenodd" clip-rule="evenodd" d="M17 45H32.1562H32.1574H143.843H145.039H159V51.8426C159 59.811 152.851 66.3433 145.039 66.9534V67H143.843H32.1574H32.1562C23.7856 66.9994 17 60.2134 17 51.8426V45Z" fill="#F5F3E9"/>
<g filter="url(#filter0_i_2418_1167)">
<mask id="path-3-inside-1_2418_1167" fill="white">
<path d="M33 37H143V67H33V37Z"/>
</mask>
<path d="M33 37H143V67H33V37Z" fill="white"/>
<path d="M33 37V36.7786H32.7786V37H33ZM143 37H143.221V36.7786H143V37ZM33 37.2214H143V36.7786H33V37.2214ZM142.779 37V67H143.221V37H142.779ZM33.2214 67V37H32.7786V67H33.2214Z" fill="black" mask="url(#path-3-inside-1_2418_1167)"/>
</g>
<path d="M41 114L64.5 99.5M135 114L111.5 99.5M1 76L64.5 99.5M64.5 99.5L88 85L111.5 99.5M111.5 99.5L175 76" stroke="#8A7C6E"/>
<defs>
<filter id="filter0_i_2418_1167" x="33" y="36.3359" width="110" height="30.6641" filterUnits="userSpaceOnUse" color-interpolation-filters="sRGB">
<feFlood flood-opacity="0" result="BackgroundImageFix"/>
<feBlend mode="normal" in="SourceGraphic" in2="BackgroundImageFix" result="shape"/>
<feColorMatrix in="SourceAlpha" type="matrix" values="0 0 0 0 0 0 0 0 0 0 0 0 0 0 0 0 0 0 127 0" result="hardAlpha"/>
<feOffset dy="-0.664122"/>
<feGaussianBlur stdDeviation="1.10687"/>
<feComposite in2="hardAlpha" operator="arithmetic" k2="-1" k3="1"/>
<feColorMatrix type="matrix" values="0 0 0 0 0 0 0 0 0 0 0 0 0 0 0 0 0 0 0.1 0"/>
<feBlend mode="normal" in2="shape" result="effect1_innerShadow_2418_1167"/>
</filter>
</defs>
</svg>
